solid iTopie
facet normal 0.0 0.49999999999999933 0.8660254037844389
  outer loop
    vertex -587.8876528588405 125.59743535026699 11.956921938165305
    vertex -590.8876528588404 126.5915478999624 11.19411254969543
    vertex -590.8876528588404 125.59743535026699 11.956921938165305
  endloop
endfacet
facet normal 0.0 0.7071067811865471 0.7071067811865479
  outer loop
    vertex -590.8876528588404 126.5915478999624 11.19411254969543
    vertex -587.8876528588405 125.59743535026699 11.956921938165305
    vertex -587.8876528588405 126.5915478999624 11.19411254969543
  endloop
endfacet
facet normal 0.0 -0.8660254037844389 0.4999999999999999
  outer loop
    vertex -587.8876528588405 119.04051341210167 10.199999999999998
    vertex -590.8876528588404 118.56099138407944 9.042331416492098
    vertex -587.8876528588405 118.56099138407944 9.042331416492098
  endloop
endfacet
facet normal 0.0 -0.9659258262890682 0.258819045102521
  outer loop
    vertex -590.8876528588404 118.56099138407944 9.042331416492098
    vertex -587.8876528588405 119.04051341210167 10.199999999999998
    vertex -590.8876528588404 119.04051341210167 10.199999999999998
  endloop
endfacet
facet normal 0.0 2.6733329686940716e-17 1.0
  outer loop
    vertex -587.8876528588405 123.19743535026697 6.0
    vertex -590.8876528588406 123.66330963145151 6.061333512679677
    vertex -590.8876528588406 123.19743535026697 6.0
  endloop
endfacet
facet normal 0.0 -0.25881904510252113 0.9659258262890682
  outer loop
    vertex -590.8876528588406 123.66330963145151 6.061333512679677
    vertex -587.8876528588405 123.19743535026697 6.0
    vertex -587.8876528588405 123.66330963145151 6.061333512679677
  endloop
endfacet
facet normal 0.0 -1.0 0.0
  outer loop
    vertex -587.8876528588405 124.997435350267 7.8
    vertex -590.8876528588406 124.9361018375873 7.3341257188154625
    vertex -587.8876528588405 124.9361018375873 7.3341257188154625
  endloop
endfacet
facet normal 0.0 -0.9659258262890686 0.25881904510252
  outer loop
    vertex -590.8876528588406 124.9361018375873 7.3341257188154625
    vertex -587.8876528588405 124.997435350267 7.8
    vertex -590.8876528588406 124.997435350267 7.8
  endloop
endfacet
facet normal 0.0 -0.9659258262890686 0.25881904510252
  outer loop
    vertex -587.8876528588405 124.9361018375873 7.3341257188154625
    vertex -590.8876528588406 124.75628107707897 6.9
    vertex -587.8876528588405 124.75628107707897 6.9
  endloop
endfacet
facet normal 0.0 -0.866025403784438 0.5000000000000013
  outer loop
    vertex -590.8876528588406 124.75628107707897 6.9
    vertex -587.8876528588405 124.9361018375873 7.3341257188154625
    vertex -590.8876528588406 124.9361018375873 7.3341257188154625
  endloop
endfacet
facet normal 0.0 -0.5000000000000016 0.8660254037844378
  outer loop
    vertex -587.8876528588405 124.09743535026698 6.241154273188012
    vertex -590.8876528588406 124.47022755640276 6.527207793864214
    vertex -590.8876528588406 124.09743535026698 6.241154273188012
  endloop
endfacet
facet normal 0.0 -0.7071067811865472 0.7071067811865479
  outer loop
    vertex -590.8876528588406 124.47022755640276 6.527207793864214
    vertex -587.8876528588405 124.09743535026698 6.241154273188012
    vertex -587.8876528588405 124.47022755640276 6.527207793864214
  endloop
endfacet
facet normal 0.0 -0.866025403784438 0.5000000000000013
  outer loop
    vertex -587.8876528588405 124.75628107707897 6.9
    vertex -590.8876528588406 124.47022755640276 6.527207793864214
    vertex -587.8876528588405 124.47022755640276 6.527207793864214
  endloop
endfacet
facet normal 0.0 -0.7071067811865472 0.7071067811865479
  outer loop
    vertex -590.8876528588406 124.47022755640276 6.527207793864214
    vertex -587.8876528588405 124.75628107707897 6.9
    vertex -590.8876528588406 124.75628107707897 6.9
  endloop
endfacet
facet normal 0.7071067811865483 0.7071067811865467 0.0
  outer loop
    vertex -579.1604450649763 121.9246431441312 3.0
    vertex -578.7876528588405 121.638589623455 0.0
    vertex -579.1604450649763 121.9246431441312 0.0
  endloop
endfacet
facet normal 0.5000000000000113 0.8660254037844323 0.0
  outer loop
    vertex -578.7876528588405 121.638589623455 0.0
    vertex -579.1604450649763 121.9246431441312 3.0
    vertex -578.7876528588405 121.638589623455 3.0
  endloop
endfacet
facet normal 0.8660254037844284 0.500000000000018 0.0
  outer loop
    vertex -579.4464985856524 122.29743535026698 0.0
    vertex -579.1604450649763 121.9246431441312 3.0
    vertex -579.1604450649763 121.9246431441312 0.0
  endloop
endfacet
facet normal 0.7071067811865483 0.7071067811865467 0.0
  outer loop
    vertex -579.1604450649763 121.9246431441312 3.0
    vertex -579.4464985856524 122.29743535026698 0.0
    vertex -579.4464985856524 122.29743535026698 3.0
  endloop
endfacet
facet normal 0.9659258262890715 0.25881904510250925 0.0
  outer loop
    vertex -579.6263193461608 122.73156106908243 0.0
    vertex -579.4464985856524 122.29743535026698 3.0
    vertex -579.4464985856524 122.29743535026698 0.0
  endloop
endfacet
facet normal 0.8660254037844284 0.500000000000018 0.0
  outer loop
    vertex -579.4464985856524 122.29743535026698 3.0
    vertex -579.6263193461608 122.73156106908243 0.0
    vertex -579.6263193461608 122.73156106908243 3.0
  endloop
endfacet
facet normal 1.0 0.0 0.0
  outer loop
    vertex -579.6876528588405 123.19743535026697 0.0
    vertex -579.6263193461608 122.73156106908243 3.0
    vertex -579.6263193461608 122.73156106908243 0.0
  endloop
endfacet
facet normal 0.9659258262890715 0.25881904510250925 0.0
  outer loop
    vertex -579.6263193461608 122.73156106908243 3.0
    vertex -579.6876528588405 123.19743535026697 0.0
    vertex -579.6876528588405 123.19743535026697 3.0
  endloop
endfacet
facet normal 0.9659258262890715 -0.25881904510250925 0.0
  outer loop
    vertex -579.6263193461608 123.66330963145151 0.0
    vertex -579.6876528588405 123.19743535026697 3.0
    vertex -579.6876528588405 123.19743535026697 0.0
  endloop
endfacet
facet normal 1.0 0.0 0.0
  outer loop
    vertex -579.6876528588405 123.19743535026697 3.0
    vertex -579.6263193461608 123.66330963145151 0.0
    vertex -579.6263193461608 123.66330963145151 3.0
  endloop
endfacet
facet normal 0.8660254037844294 -0.5000000000000163 0.0
  outer loop
    vertex -579.4464985856524 124.09743535026698 0.0
    vertex -579.6263193461608 123.66330963145151 3.0
    vertex -579.6263193461608 123.66330963145151 0.0
  endloop
endfacet
facet normal 0.9659258262890715 -0.25881904510250925 0.0
  outer loop
    vertex -579.6263193461608 123.66330963145151 3.0
    vertex -579.4464985856524 124.09743535026698 0.0
    vertex -579.4464985856524 124.09743535026698 3.0
  endloop
endfacet
facet normal 0.0 0.7071067811865479 -0.7071067811865472
  outer loop
    vertex -590.8876528588406 121.9246431441312 9.072792206135784
    vertex -587.8876528588405 121.638589623455 8.699999999999998
    vertex -590.8876528588406 121.638589623455 8.699999999999998
  endloop
endfacet
facet normal 0.0 0.8660254037844384 -0.5000000000000008
  outer loop
    vertex -587.8876528588405 121.638589623455 8.699999999999998
    vertex -590.8876528588406 121.9246431441312 9.072792206135784
    vertex -587.8876528588405 121.9246431441312 9.072792206135784
  endloop
endfacet
facet normal 0.7071067811865274 -0.7071067811865678 0.0
  outer loop
    vertex -579.1604450649763 124.47022755640276 0.0
    vertex -579.4464985856524 124.09743535026698 3.0
    vertex -579.4464985856524 124.09743535026698 0.0
  endloop
endfacet
facet normal 0.8660254037844294 -0.5000000000000163 0.0
  outer loop
    vertex -579.4464985856524 124.09743535026698 3.0
    vertex -579.1604450649763 124.47022755640276 0.0
    vertex -579.1604450649763 124.47022755640276 3.0
  endloop
endfacet
facet normal 0.0 -0.5000000000000001 0.8660254037844386
  outer loop
    vertex -587.8876528588405 120.79743535026698 11.956921938165305
    vertex -590.8876528588404 121.95510393377488 12.436443966187527
    vertex -590.8876528588404 120.79743535026698 11.956921938165305
  endloop
endfacet
facet normal 0.0 -0.2588190451025211 0.9659258262890682
  outer loop
    vertex -590.8876528588404 121.95510393377488 12.436443966187527
    vertex -587.8876528588405 120.79743535026698 11.956921938165305
    vertex -587.8876528588405 121.95510393377488 12.436443966187527
  endloop
endfacet
facet normal 0.4999999999999999 -0.8660254037844388 0.0
  outer loop
    vertex -578.7876528588405 124.75628107707897 3.0
    vertex -579.1604450649763 124.47022755640276 0.0
    vertex -578.7876528588405 124.75628107707897 0.0
  endloop
endfacet
facet normal 0.7071067811865274 -0.7071067811865678 0.0
  outer loop
    vertex -579.1604450649763 124.47022755640276 0.0
    vertex -578.7876528588405 124.75628107707897 3.0
    vertex -579.1604450649763 124.47022755640276 3.0
  endloop
endfacet
facet normal 0.25881904510252396 -0.9659258262890676 0.0
  outer loop
    vertex -578.353527140025 124.9361018375873 3.0
    vertex -578.7876528588405 124.75628107707897 0.0
    vertex -578.353527140025 124.9361018375873 0.0
  endloop
endfacet
facet normal 0.4999999999999999 -0.8660254037844388 0.0
  outer loop
    vertex -578.7876528588405 124.75628107707897 0.0
    vertex -578.353527140025 124.9361018375873 3.0
    vertex -578.7876528588405 124.75628107707897 3.0
  endloop
endfacet
facet normal 0.0 0.2588190451025207 0.9659258262890684
  outer loop
    vertex -587.8876528588405 124.43976676675906 12.436443966187527
    vertex -590.8876528588404 125.59743535026699 11.956921938165305
    vertex -590.8876528588404 124.43976676675906 12.436443966187527
  endloop
endfacet
facet normal 0.0 0.49999999999999933 0.8660254037844389
  outer loop
    vertex -590.8876528588404 125.59743535026699 11.956921938165305
    vertex -587.8876528588405 124.43976676675906 12.436443966187527
    vertex -587.8876528588405 125.59743535026699 11.956921938165305
  endloop
endfacet
facet normal 0.0 0.8660254037844384 -0.5000000000000008
  outer loop
    vertex -590.8876528588406 121.638589623455 8.699999999999998
    vertex -587.8876528588405 121.45876886294666 8.265874281184535
    vertex -590.8876528588406 121.45876886294666 8.265874281184535
  endloop
endfacet
facet normal 0.0 0.9659258262890684 -0.2588190451025204
  outer loop
    vertex -587.8876528588405 121.45876886294666 8.265874281184535
    vertex -590.8876528588406 121.638589623455 8.699999999999998
    vertex -587.8876528588405 121.638589623455 8.699999999999998
  endloop
endfacet
facet normal 0.0 -1.0 0.0
  outer loop
    vertex -577.8876528588405 124.99743535026697 3.0
    vertex -578.353527140025 124.9361018375873 0.0
    vertex -577.8876528588405 124.99743535026697 0.0
  endloop
endfacet
facet normal 0.25881904510252396 -0.9659258262890676 0.0
  outer loop
    vertex -578.353527140025 124.9361018375873 0.0
    vertex -577.8876528588405 124.99743535026697 3.0
    vertex -578.353527140025 124.9361018375873 3.0
  endloop
endfacet
facet normal -0.2588190451025062 -0.9659258262890722 0.0
  outer loop
    vertex -577.4217785776559 124.9361018375873 3.0
    vertex -577.8876528588405 124.99743535026697 0.0
    vertex -577.4217785776559 124.9361018375873 0.0
  endloop
endfacet
facet normal 0.0 -1.0 0.0
  outer loop
    vertex -577.8876528588405 124.99743535026697 0.0
    vertex -577.4217785776559 124.9361018375873 3.0
    vertex -577.8876528588405 124.99743535026697 3.0
  endloop
endfacet
facet normal 0.0 -0.25881904510252113 0.9659258262890682
  outer loop
    vertex -587.8876528588405 123.66330963145151 6.061333512679677
    vertex -590.8876528588406 124.09743535026698 6.241154273188012
    vertex -590.8876528588406 123.66330963145151 6.061333512679677
  endloop
endfacet
facet normal 0.0 -0.5000000000000016 0.8660254037844378
  outer loop
    vertex -590.8876528588406 124.09743535026698 6.241154273188012
    vertex -587.8876528588405 123.66330963145151 6.061333512679677
    vertex -587.8876528588405 124.09743535026698 6.241154273188012
  endloop
endfacet
facet normal -0.5000000000000092 -0.8660254037844335 0.0
  outer loop
    vertex -576.9876528588404 124.75628107707897 3.0
    vertex -577.4217785776559 124.9361018375873 0.0
    vertex -576.9876528588404 124.75628107707897 0.0
  endloop
endfacet
facet normal -0.2588190451025062 -0.9659258262890722 0.0
  outer loop
    vertex -577.4217785776559 124.9361018375873 0.0
    vertex -576.9876528588404 124.75628107707897 3.0
    vertex -577.4217785776559 124.9361018375873 3.0
  endloop
endfacet
facet normal 0.0 0.707106781186546 0.7071067811865491
  outer loop
    vertex -587.8876528588405 121.9246431441312 6.527207793864214
    vertex -590.8876528588406 122.29743535026698 6.24115427318801
    vertex -590.8876528588406 121.9246431441312 6.527207793864214
  endloop
endfacet
facet normal 0.0 0.4999999999999997 0.8660254037844389
  outer loop
    vertex -590.8876528588406 122.29743535026698 6.24115427318801
    vertex -587.8876528588405 121.9246431441312 6.527207793864214
    vertex -587.8876528588405 122.29743535026698 6.24115427318801
  endloop
endfacet
facet normal -0.707106781186548 -0.707106781186547 0.0
  outer loop
    vertex -576.6148606527048 124.47022755640276 3.0
    vertex -576.9876528588404 124.75628107707897 0.0
    vertex -576.6148606527048 124.47022755640276 0.0
  endloop
endfacet
facet normal -0.5000000000000092 -0.8660254037844335 0.0
  outer loop
    vertex -576.9876528588404 124.75628107707897 0.0
    vertex -576.6148606527048 124.47022755640276 3.0
    vertex -576.9876528588404 124.75628107707897 3.0
  endloop
endfacet
facet normal 0.0 -0.8660254037844384 -0.5000000000000009
  outer loop
    vertex -587.8876528588405 124.75628107707897 8.7
    vertex -590.8876528588406 124.9361018375873 8.265874281184537
    vertex -587.8876528588405 124.9361018375873 8.265874281184537
  endloop
endfacet
facet normal 0.0 -0.9659258262890686 -0.25881904510252
  outer loop
    vertex -590.8876528588406 124.9361018375873 8.265874281184537
    vertex -587.8876528588405 124.75628107707897 8.7
    vertex -590.8876528588406 124.75628107707897 8.7
  endloop
endfacet
facet normal 0.0 0.9659258262890684 0.2588190451025209
  outer loop
    vertex -590.8876528588404 127.8338793164545 9.042331416492098
    vertex -587.8876528588405 127.99743535026698 7.799999999999998
    vertex -590.8876528588404 127.99743535026698 7.799999999999998
  endloop
endfacet
facet normal 0.0 0.9978589232386036 0.06540312923014292
  outer loop
    vertex -587.8876528588405 127.99743535026698 7.799999999999998
    vertex -590.8876528588404 127.8338793164545 9.042331416492098
    vertex -587.8876528588405 127.8338793164545 9.042331416492098
  endloop
endfacet
facet normal -0.707106781186548 -0.707106781186547 0.0
  outer loop
    vertex -576.6148606527048 124.47022755640276 3.0
    vertex -576.3288071320285 124.09743535026698 0.0
    vertex -576.3288071320285 124.09743535026698 3.0
  endloop
endfacet
facet normal -0.8660254037844294 -0.5000000000000163 0.0
  outer loop
    vertex -576.3288071320285 124.09743535026698 0.0
    vertex -576.6148606527048 124.47022755640276 3.0
    vertex -576.6148606527048 124.47022755640276 0.0
  endloop
endfacet
facet normal -0.8660254037844294 -0.5000000000000163 0.0
  outer loop
    vertex -576.3288071320285 124.09743535026698 3.0
    vertex -576.1489863715202 123.66330963145151 0.0
    vertex -576.1489863715202 123.66330963145151 3.0
  endloop
endfacet
facet normal -0.9659258262890715 -0.25881904510250925 0.0
  outer loop
    vertex -576.1489863715202 123.66330963145151 0.0
    vertex -576.3288071320285 124.09743535026698 3.0
    vertex -576.3288071320285 124.09743535026698 0.0
  endloop
endfacet
facet normal -0.9659258262890715 -0.25881904510250925 0.0
  outer loop
    vertex -576.1489863715202 123.66330963145151 3.0
    vertex -576.0876528588404 123.19743535026697 0.0
    vertex -576.0876528588404 123.19743535026697 3.0
  endloop
endfacet
facet normal -1.0 -3.9208883540846344e-16 0.0
  outer loop
    vertex -576.0876528588404 123.19743535026697 0.0
    vertex -576.1489863715202 123.66330963145151 3.0
    vertex -576.1489863715202 123.66330963145151 0.0
  endloop
endfacet
facet normal -1.0 -3.9208883540846344e-16 0.0
  outer loop
    vertex -576.0876528588404 123.19743535026697 3.0
    vertex -576.1489863715202 122.73156106908243 0.0
    vertex -576.1489863715202 122.73156106908243 3.0
  endloop
endfacet
facet normal -0.9659258262890712 0.25881904510251 0.0
  outer loop
    vertex -576.1489863715202 122.73156106908243 0.0
    vertex -576.0876528588404 123.19743535026697 3.0
    vertex -576.0876528588404 123.19743535026697 0.0
  endloop
endfacet
facet normal 0.0 -0.7071067811865468 -0.7071067811865483
  outer loop
    vertex -587.8876528588405 124.47022755640276 9.072792206135786
    vertex -590.8876528588406 124.09743535026698 9.358845726811989
    vertex -590.8876528588406 124.47022755640276 9.072792206135786
  endloop
endfacet
facet normal 0.0 -0.4999999999999998 -0.8660254037844388
  outer loop
    vertex -590.8876528588406 124.09743535026698 9.358845726811989
    vertex -587.8876528588405 124.47022755640276 9.072792206135786
    vertex -587.8876528588405 124.09743535026698 9.358845726811989
  endloop
endfacet
facet normal 0.0 -0.2588190451025211 0.9659258262890682
  outer loop
    vertex -587.8876528588405 121.95510393377488 12.436443966187527
    vertex -590.8876528588404 123.19743535026697 12.6
    vertex -590.8876528588404 121.95510393377488 12.436443966187527
  endloop
endfacet
facet normal 0.0 -5.435777036344612e-16 1.0
  outer loop
    vertex -590.8876528588404 123.19743535026697 12.6
    vertex -587.8876528588405 121.95510393377488 12.436443966187527
    vertex -587.8876528588405 123.19743535026697 12.6
  endloop
endfacet
facet normal -0.9659258262890712 0.25881904510251 0.0
  outer loop
    vertex -576.1489863715202 122.73156106908243 3.0
    vertex -576.3288071320285 122.29743535026698 0.0
    vertex -576.3288071320285 122.29743535026698 3.0
  endloop
endfacet
facet normal -0.8660254037844288 0.5000000000000174 0.0
  outer loop
    vertex -576.3288071320285 122.29743535026698 0.0
    vertex -576.1489863715202 122.73156106908243 3.0
    vertex -576.1489863715202 122.73156106908243 0.0
  endloop
endfacet
facet normal 0.0 -0.9659258262890686 -0.25881904510252
  outer loop
    vertex -587.8876528588405 124.9361018375873 8.265874281184537
    vertex -590.8876528588406 124.997435350267 7.8
    vertex -587.8876528588405 124.997435350267 7.8
  endloop
endfacet
facet normal 0.0 -1.0 0.0
  outer loop
    vertex -590.8876528588406 124.997435350267 7.8
    vertex -587.8876528588405 124.9361018375873 8.265874281184537
    vertex -590.8876528588406 124.9361018375873 8.265874281184537
  endloop
endfacet
facet normal 0.0 -0.7071067811865468 -0.7071067811865483
  outer loop
    vertex -587.8876528588405 124.47022755640276 9.072792206135786
    vertex -590.8876528588406 124.75628107707897 8.7
    vertex -587.8876528588405 124.75628107707897 8.7
  endloop
endfacet
facet normal 0.0 -0.8660254037844384 -0.5000000000000009
  outer loop
    vertex -590.8876528588406 124.75628107707897 8.7
    vertex -587.8876528588405 124.47022755640276 9.072792206135786
    vertex -590.8876528588406 124.47022755640276 9.072792206135786
  endloop
endfacet
facet normal 0.0 0.9659258262890684 -0.2588190451025204
  outer loop
    vertex -590.8876528588406 121.45876886294666 8.265874281184535
    vertex -587.8876528588405 121.39743535026697 7.8
    vertex -590.8876528588406 121.39743535026697 7.8
  endloop
endfacet
facet normal 0.0 1.0 -2.76244406765054e-16
  outer loop
    vertex -587.8876528588405 121.39743535026697 7.8
    vertex -590.8876528588406 121.45876886294666 8.265874281184535
    vertex -587.8876528588405 121.45876886294666 8.265874281184535
  endloop
endfacet
facet normal -0.8660254037844288 0.5000000000000174 0.0
  outer loop
    vertex -576.3288071320285 122.29743535026698 3.0
    vertex -576.6148606527048 121.9246431441312 0.0
    vertex -576.6148606527048 121.9246431441312 3.0
  endloop
endfacet
facet normal -0.7071067811865274 0.7071067811865678 0.0
  outer loop
    vertex -576.6148606527048 121.9246431441312 0.0
    vertex -576.3288071320285 122.29743535026698 3.0
    vertex -576.3288071320285 122.29743535026698 0.0
  endloop
endfacet
facet normal 0.0 0.8660254037844386 0.5000000000000002
  outer loop
    vertex -590.8876528588404 127.3543572884323 10.2
    vertex -587.8876528588405 127.8338793164545 9.042331416492098
    vertex -590.8876528588404 127.8338793164545 9.042331416492098
  endloop
endfacet
facet normal 0.0 0.9659258262890684 0.2588190451025209
  outer loop
    vertex -587.8876528588405 127.8338793164545 9.042331416492098
    vertex -590.8876528588404 127.3543572884323 10.2
    vertex -587.8876528588405 127.3543572884323 10.2
  endloop
endfacet
facet normal 0.0 0.9659258262890685 0.2588190451025201
  outer loop
    vertex -590.8876528588406 121.45876886294666 7.334125718815461
    vertex -587.8876528588405 121.638589623455 6.899999999999999
    vertex -590.8876528588406 121.638589623455 6.899999999999999
  endloop
endfacet
facet normal 0.0 0.8660254037844379 0.5000000000000016
  outer loop
    vertex -587.8876528588405 121.638589623455 6.899999999999999
    vertex -590.8876528588406 121.45876886294666 7.334125718815461
    vertex -587.8876528588405 121.45876886294666 7.334125718815461
  endloop
endfacet
facet normal -0.4999999999999999 0.8660254037844388 0.0
  outer loop
    vertex -576.9876528588405 121.638589623455 3.0
    vertex -576.6148606527048 121.9246431441312 0.0
    vertex -576.9876528588405 121.638589623455 0.0
  endloop
endfacet
facet normal -0.7071067811865274 0.7071067811865678 0.0
  outer loop
    vertex -576.6148606527048 121.9246431441312 0.0
    vertex -576.9876528588405 121.638589623455 3.0
    vertex -576.6148606527048 121.9246431441312 3.0
  endloop
endfacet
facet normal -0.25881904510252396 0.9659258262890676 0.0
  outer loop
    vertex -577.4217785776559 121.45876886294667 3.0
    vertex -576.9876528588405 121.638589623455 0.0
    vertex -577.4217785776559 121.45876886294667 0.0
  endloop
endfacet
facet normal -0.4999999999999999 0.8660254037844388 0.0
  outer loop
    vertex -576.9876528588405 121.638589623455 0.0
    vertex -577.4217785776559 121.45876886294667 3.0
    vertex -576.9876528588405 121.638589623455 3.0
  endloop
endfacet
facet normal 0.0 1.0 0.0
  outer loop
    vertex -577.8876528588405 121.39743535026697 3.0
    vertex -577.4217785776559 121.45876886294667 0.0
    vertex -577.8876528588405 121.39743535026697 0.0
  endloop
endfacet
facet normal -0.25881904510252396 0.9659258262890676 0.0
  outer loop
    vertex -577.4217785776559 121.45876886294667 0.0
    vertex -577.8876528588405 121.39743535026697 3.0
    vertex -577.4217785776559 121.45876886294667 3.0
  endloop
endfacet
facet normal 0.2588190451025062 0.9659258262890722 0.0
  outer loop
    vertex -578.353527140025 121.45876886294667 3.0
    vertex -577.8876528588405 121.39743535026697 0.0
    vertex -578.353527140025 121.45876886294667 0.0
  endloop
endfacet
facet normal 0.0 1.0 0.0
  outer loop
    vertex -577.8876528588405 121.39743535026697 0.0
    vertex -578.353527140025 121.45876886294667 3.0
    vertex -577.8876528588405 121.39743535026697 3.0
  endloop
endfacet
facet normal 0.0 -0.4999999999999998 -0.8660254037844388
  outer loop
    vertex -587.8876528588405 124.09743535026698 9.358845726811989
    vertex -590.8876528588406 123.66330963145151 9.538666487320322
    vertex -590.8876528588406 124.09743535026698 9.358845726811989
  endloop
endfacet
facet normal 0.0 -0.2588190451025202 -0.9659258262890685
  outer loop
    vertex -590.8876528588406 123.66330963145151 9.538666487320322
    vertex -587.8876528588405 124.09743535026698 9.358845726811989
    vertex -587.8876528588405 123.66330963145151 9.538666487320322
  endloop
endfacet
facet normal 0.0 0.7071067811865471 0.7071067811865479
  outer loop
    vertex -590.8876528588404 126.5915478999624 11.19411254969543
    vertex -587.8876528588405 127.3543572884323 10.2
    vertex -590.8876528588404 127.3543572884323 10.2
  endloop
endfacet
facet normal 0.0 0.8660254037844386 0.5000000000000002
  outer loop
    vertex -587.8876528588405 127.3543572884323 10.2
    vertex -590.8876528588404 126.5915478999624 11.19411254969543
    vertex -587.8876528588405 126.5915478999624 11.19411254969543
  endloop
endfacet
facet normal 0.0 0.25881904510252085 0.9659258262890684
  outer loop
    vertex -587.8876528588405 122.73156106908243 6.061333512679677
    vertex -590.8876528588406 123.19743535026697 6.0
    vertex -590.8876528588406 122.73156106908243 6.061333512679677
  endloop
endfacet
facet normal 0.0 2.6733329686940716e-17 1.0
  outer loop
    vertex -590.8876528588406 123.19743535026697 6.0
    vertex -587.8876528588405 122.73156106908243 6.061333512679677
    vertex -587.8876528588405 123.19743535026697 6.0
  endloop
endfacet
facet normal 0.0 -0.7071067811865481 0.7071067811865469
  outer loop
    vertex -587.8876528588405 119.80332280057154 11.194112549695426
    vertex -590.8876528588404 120.79743535026698 11.956921938165305
    vertex -590.8876528588404 119.80332280057154 11.194112549695426
  endloop
endfacet
facet normal 0.0 -0.5000000000000001 0.8660254037844386
  outer loop
    vertex -590.8876528588404 120.79743535026698 11.956921938165305
    vertex -587.8876528588405 119.80332280057154 11.194112549695426
    vertex -587.8876528588405 120.79743535026698 11.956921938165305
  endloop
endfacet
facet normal 0.0 -0.2588190451025202 -0.9659258262890685
  outer loop
    vertex -587.8876528588405 123.66330963145151 9.538666487320322
    vertex -590.8876528588406 123.19743535026697 9.6
    vertex -590.8876528588406 123.66330963145151 9.538666487320322
  endloop
endfacet
facet normal 0.0 -3.7426661561716995e-16 -1.0
  outer loop
    vertex -590.8876528588406 123.19743535026697 9.6
    vertex -587.8876528588405 123.66330963145151 9.538666487320322
    vertex -587.8876528588405 123.19743535026697 9.6
  endloop
endfacet
facet normal 0.0 0.8660254037844379 0.5000000000000016
  outer loop
    vertex -590.8876528588406 121.638589623455 6.899999999999999
    vertex -587.8876528588405 121.9246431441312 6.527207793864214
    vertex -590.8876528588406 121.9246431441312 6.527207793864214
  endloop
endfacet
facet normal 0.0 0.707106781186546 0.7071067811865491
  outer loop
    vertex -587.8876528588405 121.9246431441312 6.527207793864214
    vertex -590.8876528588406 121.638589623455 6.899999999999999
    vertex -587.8876528588405 121.638589623455 6.899999999999999
  endloop
endfacet
facet normal 0.5000000000000113 0.8660254037844323 0.0
  outer loop
    vertex -578.7876528588405 121.638589623455 3.0
    vertex -578.353527140025 121.45876886294667 0.0
    vertex -578.7876528588405 121.638589623455 0.0
  endloop
endfacet
facet normal 0.2588190451025062 0.9659258262890722 0.0
  outer loop
    vertex -578.353527140025 121.45876886294667 0.0
    vertex -578.7876528588405 121.638589623455 3.0
    vertex -578.353527140025 121.45876886294667 3.0
  endloop
endfacet
facet normal 0.0 1.0 -2.76244406765054e-16
  outer loop
    vertex -590.8876528588406 121.39743535026697 7.8
    vertex -587.8876528588405 121.45876886294666 7.334125718815461
    vertex -590.8876528588406 121.45876886294666 7.334125718815461
  endloop
endfacet
facet normal 0.0 0.9659258262890685 0.2588190451025201
  outer loop
    vertex -587.8876528588405 121.45876886294666 7.334125718815461
    vertex -590.8876528588406 121.39743535026697 7.8
    vertex -587.8876528588405 121.39743535026697 7.8
  endloop
endfacet
facet normal 0.06540312923014195 -0.9978589232386037 0.0
  outer loop
    vertex -577.8876528588405 118.39743535026699 3.0
    vertex -590.8876528588404 118.39743535026699 0.0
    vertex -577.8876528588405 118.39743535026699 0.0
  endloop
endfacet
facet normal 0.0 -1.0 0.0
  outer loop
    vertex -590.8876528588404 118.39743535026699 0.0
    vertex -577.8876528588405 118.39743535026699 3.0
    vertex -585.8876528588405 118.39743535026699 3.0
  endloop
endfacet
facet normal 0.0 -1.0 0.0
  outer loop
    vertex -590.8876528588404 118.39743535026699 0.0
    vertex -585.8876528588405 118.39743535026699 3.0
    vertex -586.4052909490456 118.39743535026699 3.068148347421863
  endloop
endfacet
facet normal 0.0 -1.0 0.0
  outer loop
    vertex -590.8876528588404 118.39743535026699 0.0
    vertex -586.4052909490456 118.39743535026699 3.068148347421863
    vertex -586.8876528588405 118.39743535026699 3.2679491924311224
  endloop
endfacet
facet normal 0.0 -1.0 0.0
  outer loop
    vertex -590.8876528588404 118.39743535026699 0.0
    vertex -586.8876528588405 118.39743535026699 3.2679491924311224
    vertex -587.3018664212136 118.39743535026699 3.585786437626904
  endloop
endfacet
facet normal 0.0 -1.0 0.0
  outer loop
    vertex -590.8876528588404 118.39743535026699 0.0
    vertex -587.3018664212136 118.39743535026699 3.585786437626904
    vertex -590.8876528588404 118.39743535026699 7.799999999999998
  endloop
endfacet
facet normal 0.0 -0.9978589232386036 0.06540312923014295
  outer loop
    vertex -590.8876528588404 118.39743535026699 7.799999999999998
    vertex -587.3018664212136 118.39743535026699 3.585786437626904
    vertex -587.6197036664094 118.39743535026699 3.9999999999999996
  endloop
endfacet
facet normal 0.0 -0.9978589232386036 0.06540312923014295
  outer loop
    vertex -590.8876528588404 118.39743535026699 7.799999999999998
    vertex -587.6197036664094 118.39743535026699 3.9999999999999996
    vertex -587.8195045114187 118.39743535026699 4.482361909794958
  endloop
endfacet
facet normal 0.0 -0.9978589232386036 0.06540312923014295
  outer loop
    vertex -590.8876528588404 118.39743535026699 7.799999999999998
    vertex -587.8195045114187 118.39743535026699 4.482361909794958
    vertex -587.8876528588405 118.39743535026699 4.999999999999999
  endloop
endfacet
facet normal 0.0 -0.9978589232386036 0.06540312923014295
  outer loop
    vertex -590.8876528588404 118.39743535026699 7.799999999999998
    vertex -587.8876528588405 118.39743535026699 4.999999999999999
    vertex -587.8876528588405 118.39743535026699 7.799999999999998
  endloop
endfacet
facet normal 0.2588190451025234 -0.9659258262890676 0.0
  outer loop
    vertex -576.6453214423484 118.56099138407944 3.0
    vertex -577.8876528588405 118.39743535026699 0.0
    vertex -576.6453214423484 118.56099138407944 0.0
  endloop
endfacet
facet normal 0.06540312923014195 -0.9978589232386037 0.0
  outer loop
    vertex -577.8876528588405 118.39743535026699 0.0
    vertex -576.6453214423484 118.56099138407944 3.0
    vertex -577.8876528588405 118.39743535026699 3.0
  endloop
endfacet
facet normal 0.5000000000000067 -0.866025403784435 0.0
  outer loop
    vertex -575.4876528588405 119.04051341210167 3.0
    vertex -576.6453214423484 118.56099138407944 0.0
    vertex -575.4876528588405 119.04051341210167 0.0
  endloop
endfacet
facet normal 0.2588190451025234 -0.9659258262890676 0.0
  outer loop
    vertex -576.6453214423484 118.56099138407944 0.0
    vertex -575.4876528588405 119.04051341210167 3.0
    vertex -576.6453214423484 118.56099138407944 3.0
  endloop
endfacet
facet normal 0.7071067811865475 -0.7071067811865476 0.0
  outer loop
    vertex -574.493540309145 119.80332280057156 3.0
    vertex -575.4876528588405 119.04051341210167 0.0
    vertex -574.493540309145 119.80332280057156 0.0
  endloop
endfacet
facet normal 0.5000000000000067 -0.866025403784435 0.0
  outer loop
    vertex -575.4876528588405 119.04051341210167 0.0
    vertex -574.493540309145 119.80332280057156 3.0
    vertex -575.4876528588405 119.04051341210167 3.0
  endloop
endfacet
facet normal 0.0 -3.7426661561716995e-16 -1.0
  outer loop
    vertex -587.8876528588405 123.19743535026697 9.6
    vertex -590.8876528588406 122.73156106908243 9.538666487320322
    vertex -590.8876528588406 123.19743535026697 9.6
  endloop
endfacet
facet normal 0.0 0.25881904510252113 -0.9659258262890683
  outer loop
    vertex -590.8876528588406 122.73156106908243 9.538666487320322
    vertex -587.8876528588405 123.19743535026697 9.6
    vertex -587.8876528588405 122.73156106908243 9.538666487320322
  endloop
endfacet
facet normal 0.8660254037844356 -0.5000000000000056 0.0
  outer loop
    vertex -573.7307309206751 120.79743535026698 0.0
    vertex -574.493540309145 119.80332280057156 3.0
    vertex -574.493540309145 119.80332280057156 0.0
  endloop
endfacet
facet normal 0.7071067811865475 -0.7071067811865476 0.0
  outer loop
    vertex -574.493540309145 119.80332280057156 3.0
    vertex -573.7307309206751 120.79743535026698 0.0
    vertex -573.7307309206751 120.79743535026698 3.0
  endloop
endfacet
facet normal 0.9659258262890685 -0.25881904510251985 0.0
  outer loop
    vertex -573.251208892653 121.95510393377488 0.0
    vertex -573.7307309206751 120.79743535026698 3.0
    vertex -573.7307309206751 120.79743535026698 0.0
  endloop
endfacet
facet normal 0.8660254037844356 -0.5000000000000056 0.0
  outer loop
    vertex -573.7307309206751 120.79743535026698 3.0
    vertex -573.251208892653 121.95510393377488 0.0
    vertex -573.251208892653 121.95510393377488 3.0
  endloop
endfacet
facet normal 1.0 -1.4257775833035033e-16 0.0
  outer loop
    vertex -573.0876528588406 123.19743535026697 0.0
    vertex -573.251208892653 121.95510393377488 3.0
    vertex -573.251208892653 121.95510393377488 0.0
  endloop
endfacet
facet normal 0.9659258262890685 -0.25881904510251985 0.0
  outer loop
    vertex -573.251208892653 121.95510393377488 3.0
    vertex -573.0876528588406 123.19743535026697 0.0
    vertex -573.0876528588406 123.19743535026697 3.0
  endloop
endfacet
facet normal 0.9659258262890686 0.2588190451025197 0.0
  outer loop
    vertex -573.251208892653 124.43976676675909 0.0
    vertex -573.0876528588406 123.19743535026697 3.0
    vertex -573.0876528588406 123.19743535026697 0.0
  endloop
endfacet
facet normal 1.0 -1.4257775833035033e-16 0.0
  outer loop
    vertex -573.0876528588406 123.19743535026697 3.0
    vertex -573.251208892653 124.43976676675909 0.0
    vertex -573.251208892653 124.43976676675909 3.0
  endloop
endfacet
facet normal 0.0 0.4999999999999997 0.8660254037844389
  outer loop
    vertex -587.8876528588405 122.29743535026698 6.24115427318801
    vertex -590.8876528588406 122.73156106908243 6.061333512679677
    vertex -590.8876528588406 122.29743535026698 6.24115427318801
  endloop
endfacet
facet normal 0.0 0.25881904510252085 0.9659258262890684
  outer loop
    vertex -590.8876528588406 122.73156106908243 6.061333512679677
    vertex -587.8876528588405 122.29743535026698 6.24115427318801
    vertex -587.8876528588405 122.73156106908243 6.061333512679677
  endloop
endfacet
facet normal 0.8660254037844356 0.5000000000000056 0.0
  outer loop
    vertex -573.7307309206751 125.59743535026699 0.0
    vertex -573.251208892653 124.43976676675909 3.0
    vertex -573.251208892653 124.43976676675909 0.0
  endloop
endfacet
facet normal 0.9659258262890686 0.2588190451025197 0.0
  outer loop
    vertex -573.251208892653 124.43976676675909 3.0
    vertex -573.7307309206751 125.59743535026699 0.0
    vertex -573.7307309206751 125.59743535026699 3.0
  endloop
endfacet
facet normal 0.0 0.25881904510252113 -0.9659258262890683
  outer loop
    vertex -587.8876528588405 122.73156106908243 9.538666487320322
    vertex -590.8876528588406 122.29743535026698 9.358845726811989
    vertex -590.8876528588406 122.73156106908243 9.538666487320322
  endloop
endfacet
facet normal 0.0 0.5000000000000021 -0.8660254037844375
  outer loop
    vertex -590.8876528588406 122.29743535026698 9.358845726811989
    vertex -587.8876528588405 122.73156106908243 9.538666487320322
    vertex -587.8876528588405 122.29743535026698 9.358845726811989
  endloop
endfacet
facet normal 0.0 0.5000000000000021 -0.8660254037844375
  outer loop
    vertex -587.8876528588405 122.29743535026698 9.358845726811989
    vertex -590.8876528588406 121.9246431441312 9.072792206135784
    vertex -590.8876528588406 122.29743535026698 9.358845726811989
  endloop
endfacet
facet normal 0.0 0.7071067811865479 -0.7071067811865472
  outer loop
    vertex -590.8876528588406 121.9246431441312 9.072792206135784
    vertex -587.8876528588405 122.29743535026698 9.358845726811989
    vertex -587.8876528588405 121.9246431441312 9.072792206135784
  endloop
endfacet
facet normal 0.7071067811865469 0.7071067811865482 0.0
  outer loop
    vertex -574.493540309145 126.5915478999624 0.0
    vertex -573.7307309206751 125.59743535026699 3.0
    vertex -573.7307309206751 125.59743535026699 0.0
  endloop
endfacet
facet normal 0.8660254037844356 0.5000000000000056 0.0
  outer loop
    vertex -573.7307309206751 125.59743535026699 3.0
    vertex -574.493540309145 126.5915478999624 0.0
    vertex -574.493540309145 126.5915478999624 3.0
  endloop
endfacet
facet normal 0.5000000000000058 0.8660254037844354 0.0
  outer loop
    vertex -575.4876528588405 127.3543572884323 3.0
    vertex -574.493540309145 126.5915478999624 0.0
    vertex -575.4876528588405 127.3543572884323 0.0
  endloop
endfacet
facet normal 0.7071067811865469 0.7071067811865482 0.0
  outer loop
    vertex -574.493540309145 126.5915478999624 0.0
    vertex -575.4876528588405 127.3543572884323 3.0
    vertex -574.493540309145 126.5915478999624 3.0
  endloop
endfacet
facet normal 0.2588190451025234 0.9659258262890676 0.0
  outer loop
    vertex -576.6453214423484 127.8338793164545 3.0
    vertex -575.4876528588405 127.3543572884323 0.0
    vertex -576.6453214423484 127.8338793164545 0.0
  endloop
endfacet
facet normal 0.5000000000000058 0.8660254037844354 0.0
  outer loop
    vertex -575.4876528588405 127.3543572884323 0.0
    vertex -576.6453214423484 127.8338793164545 3.0
    vertex -575.4876528588405 127.3543572884323 3.0
  endloop
endfacet
facet normal 0.0 -5.435777036344612e-16 1.0
  outer loop
    vertex -587.8876528588405 123.19743535026697 12.6
    vertex -590.8876528588404 124.43976676675906 12.436443966187527
    vertex -590.8876528588404 123.19743535026697 12.6
  endloop
endfacet
facet normal 0.0 0.2588190451025207 0.9659258262890684
  outer loop
    vertex -590.8876528588404 124.43976676675906 12.436443966187527
    vertex -587.8876528588405 123.19743535026697 12.6
    vertex -587.8876528588405 124.43976676675906 12.436443966187527
  endloop
endfacet
facet normal 0.0 -0.9659258262890682 0.258819045102521
  outer loop
    vertex -587.8876528588405 118.56099138407944 9.042331416492098
    vertex -590.8876528588404 118.39743535026699 7.799999999999998
    vertex -587.8876528588405 118.39743535026699 7.799999999999998
  endloop
endfacet
facet normal 0.0 -0.9978589232386036 0.06540312923014295
  outer loop
    vertex -590.8876528588404 118.39743535026699 7.799999999999998
    vertex -587.8876528588405 118.56099138407944 9.042331416492098
    vertex -590.8876528588404 118.56099138407944 9.042331416492098
  endloop
endfacet
facet normal 0.9978589232386056 0.0 0.065403129230111
  outer loop
    vertex -587.8876528588405 118.39743535026699 4.999999999999999
    vertex -587.8876528588405 122.73156106908243 6.061333512679677
    vertex -587.8876528588405 118.39743535026699 7.799999999999998
  endloop
endfacet
facet normal 1.0 0.0 0.0
  outer loop
    vertex -587.8876528588405 122.73156106908243 6.061333512679677
    vertex -587.8876528588405 118.39743535026699 4.999999999999999
    vertex -587.8876528588405 127.99743535026698 4.999999999999999
  endloop
endfacet
facet normal 1.0 0.0 0.0
  outer loop
    vertex -587.8876528588405 118.39743535026699 7.799999999999998
    vertex -587.8876528588405 122.73156106908243 6.061333512679677
    vertex -587.8876528588405 122.29743535026698 6.24115427318801
  endloop
endfacet
facet normal 1.0 0.0 0.0
  outer loop
    vertex -587.8876528588405 118.39743535026699 7.799999999999998
    vertex -587.8876528588405 122.29743535026698 6.24115427318801
    vertex -587.8876528588405 118.56099138407944 9.042331416492098
  endloop
endfacet
facet normal 1.0 0.0 0.0
  outer loop
    vertex -587.8876528588405 118.56099138407944 9.042331416492098
    vertex -587.8876528588405 122.29743535026698 6.24115427318801
    vertex -587.8876528588405 121.9246431441312 6.527207793864214
  endloop
endfacet
facet normal 1.0 0.0 0.0
  outer loop
    vertex -587.8876528588405 118.56099138407944 9.042331416492098
    vertex -587.8876528588405 121.9246431441312 6.527207793864214
    vertex -587.8876528588405 119.04051341210167 10.199999999999998
  endloop
endfacet
facet normal 1.0 0.0 0.0
  outer loop
    vertex -587.8876528588405 119.04051341210167 10.199999999999998
    vertex -587.8876528588405 121.9246431441312 6.527207793864214
    vertex -587.8876528588405 121.638589623455 6.899999999999999
  endloop
endfacet
facet normal 1.0 0.0 0.0
  outer loop
    vertex -587.8876528588405 119.04051341210167 10.199999999999998
    vertex -587.8876528588405 121.638589623455 6.899999999999999
    vertex -587.8876528588405 119.80332280057154 11.194112549695426
  endloop
endfacet
facet normal 1.0 0.0 0.0
  outer loop
    vertex -587.8876528588405 119.80332280057154 11.194112549695426
    vertex -587.8876528588405 121.638589623455 6.899999999999999
    vertex -587.8876528588405 121.45876886294666 7.334125718815461
  endloop
endfacet
facet normal 1.0 0.0 0.0
  outer loop
    vertex -587.8876528588405 119.80332280057154 11.194112549695426
    vertex -587.8876528588405 121.45876886294666 7.334125718815461
    vertex -587.8876528588405 120.79743535026698 11.956921938165305
  endloop
endfacet
facet normal 1.0 0.0 0.0
  outer loop
    vertex -587.8876528588405 120.79743535026698 11.956921938165305
    vertex -587.8876528588405 121.45876886294666 7.334125718815461
    vertex -587.8876528588405 121.39743535026697 7.8
  endloop
endfacet
facet normal 1.0 0.0 0.0
  outer loop
    vertex -587.8876528588405 122.73156106908243 6.061333512679677
    vertex -587.8876528588405 127.99743535026698 4.999999999999999
    vertex -587.8876528588405 123.19743535026697 6.0
  endloop
endfacet
facet normal 1.0 0.0 0.0
  outer loop
    vertex -587.8876528588405 123.19743535026697 6.0
    vertex -587.8876528588405 127.99743535026698 4.999999999999999
    vertex -587.8876528588405 123.66330963145151 6.061333512679677
  endloop
endfacet
facet normal 1.0 0.0 0.0
  outer loop
    vertex -587.8876528588405 123.66330963145151 6.061333512679677
    vertex -587.8876528588405 127.99743535026698 4.999999999999999
    vertex -587.8876528588405 124.09743535026698 6.241154273188012
  endloop
endfacet
facet normal 1.0 0.0 0.0
  outer loop
    vertex -587.8876528588405 124.09743535026698 6.241154273188012
    vertex -587.8876528588405 127.99743535026698 4.999999999999999
    vertex -587.8876528588405 124.47022755640276 6.527207793864214
  endloop
endfacet
facet normal 1.0 0.0 0.0
  outer loop
    vertex -587.8876528588405 124.47022755640276 6.527207793864214
    vertex -587.8876528588405 127.99743535026698 4.999999999999999
    vertex -587.8876528588405 124.75628107707897 6.9
  endloop
endfacet
facet normal 1.0 0.0 0.0
  outer loop
    vertex -587.8876528588405 124.75628107707897 6.9
    vertex -587.8876528588405 127.99743535026698 4.999999999999999
    vertex -587.8876528588405 124.9361018375873 7.3341257188154625
  endloop
endfacet
facet normal 1.0 0.0 0.0
  outer loop
    vertex -587.8876528588405 124.9361018375873 7.3341257188154625
    vertex -587.8876528588405 127.99743535026698 4.999999999999999
    vertex -587.8876528588405 124.997435350267 7.8
  endloop
endfacet
facet normal 1.0 0.0 0.0
  outer loop
    vertex -587.8876528588405 124.997435350267 7.8
    vertex -587.8876528588405 127.99743535026698 4.999999999999999
    vertex -587.8876528588405 125.59743535026699 11.956921938165305
  endloop
endfacet
facet normal 1.0 0.0 0.0
  outer loop
    vertex -587.8876528588405 125.59743535026699 11.956921938165305
    vertex -587.8876528588405 127.99743535026698 4.999999999999999
    vertex -587.8876528588405 126.5915478999624 11.19411254969543
  endloop
endfacet
facet normal 1.0 0.0 0.0
  outer loop
    vertex -587.8876528588405 126.5915478999624 11.19411254969543
    vertex -587.8876528588405 127.99743535026698 4.999999999999999
    vertex -587.8876528588405 127.3543572884323 10.2
  endloop
endfacet
facet normal 1.0 0.0 0.0
  outer loop
    vertex -587.8876528588405 127.3543572884323 10.2
    vertex -587.8876528588405 127.99743535026698 4.999999999999999
    vertex -587.8876528588405 127.8338793164545 9.042331416492098
  endloop
endfacet
facet normal 1.0 0.0 0.0
  outer loop
    vertex -587.8876528588405 127.8338793164545 9.042331416492098
    vertex -587.8876528588405 127.99743535026698 4.999999999999999
    vertex -587.8876528588405 127.99743535026698 7.799999999999998
  endloop
endfacet
facet normal 1.0 0.0 0.0
  outer loop
    vertex -587.8876528588405 121.39743535026697 7.8
    vertex -587.8876528588405 121.95510393377488 12.436443966187527
    vertex -587.8876528588405 120.79743535026698 11.956921938165305
  endloop
endfacet
facet normal 1.0 0.0 0.0
  outer loop
    vertex -587.8876528588405 121.95510393377488 12.436443966187527
    vertex -587.8876528588405 121.39743535026697 7.8
    vertex -587.8876528588405 121.45876886294666 8.265874281184535
  endloop
endfacet
facet normal 1.0 0.0 0.0
  outer loop
    vertex -587.8876528588405 121.95510393377488 12.436443966187527
    vertex -587.8876528588405 121.45876886294666 8.265874281184535
    vertex -587.8876528588405 121.638589623455 8.699999999999998
  endloop
endfacet
facet normal 1.0 0.0 0.0
  outer loop
    vertex -587.8876528588405 121.95510393377488 12.436443966187527
    vertex -587.8876528588405 121.638589623455 8.699999999999998
    vertex -587.8876528588405 121.9246431441312 9.072792206135784
  endloop
endfacet
facet normal 1.0 0.0 0.0
  outer loop
    vertex -587.8876528588405 121.95510393377488 12.436443966187527
    vertex -587.8876528588405 121.9246431441312 9.072792206135784
    vertex -587.8876528588405 122.29743535026698 9.358845726811989
  endloop
endfacet
facet normal 1.0 0.0 0.0
  outer loop
    vertex -587.8876528588405 121.95510393377488 12.436443966187527
    vertex -587.8876528588405 122.29743535026698 9.358845726811989
    vertex -587.8876528588405 123.19743535026697 12.6
  endloop
endfacet
facet normal 1.0 0.0 0.0
  outer loop
    vertex -587.8876528588405 123.19743535026697 12.6
    vertex -587.8876528588405 122.29743535026698 9.358845726811989
    vertex -587.8876528588405 122.73156106908243 9.538666487320322
  endloop
endfacet
facet normal 1.0 0.0 0.0
  outer loop
    vertex -587.8876528588405 123.19743535026697 12.6
    vertex -587.8876528588405 122.73156106908243 9.538666487320322
    vertex -587.8876528588405 123.19743535026697 9.6
  endloop
endfacet
facet normal 1.0 0.0 0.0
  outer loop
    vertex -587.8876528588405 123.19743535026697 12.6
    vertex -587.8876528588405 123.19743535026697 9.6
    vertex -587.8876528588405 124.43976676675906 12.436443966187527
  endloop
endfacet
facet normal 1.0 0.0 0.0
  outer loop
    vertex -587.8876528588405 124.43976676675906 12.436443966187527
    vertex -587.8876528588405 123.19743535026697 9.6
    vertex -587.8876528588405 123.66330963145151 9.538666487320322
  endloop
endfacet
facet normal 1.0 0.0 0.0
  outer loop
    vertex -587.8876528588405 124.43976676675906 12.436443966187527
    vertex -587.8876528588405 123.66330963145151 9.538666487320322
    vertex -587.8876528588405 124.09743535026698 9.358845726811989
  endloop
endfacet
facet normal 1.0 0.0 0.0
  outer loop
    vertex -587.8876528588405 124.43976676675906 12.436443966187527
    vertex -587.8876528588405 124.09743535026698 9.358845726811989
    vertex -587.8876528588405 124.47022755640276 9.072792206135786
  endloop
endfacet
facet normal 1.0 0.0 0.0
  outer loop
    vertex -587.8876528588405 124.43976676675906 12.436443966187527
    vertex -587.8876528588405 124.47022755640276 9.072792206135786
    vertex -587.8876528588405 125.59743535026699 11.956921938165305
  endloop
endfacet
facet normal 1.0 0.0 0.0
  outer loop
    vertex -587.8876528588405 125.59743535026699 11.956921938165305
    vertex -587.8876528588405 124.47022755640276 9.072792206135786
    vertex -587.8876528588405 124.75628107707897 8.7
  endloop
endfacet
facet normal 1.0 0.0 0.0
  outer loop
    vertex -587.8876528588405 125.59743535026699 11.956921938165305
    vertex -587.8876528588405 124.75628107707897 8.7
    vertex -587.8876528588405 124.9361018375873 8.265874281184537
  endloop
endfacet
facet normal 1.0 0.0 0.0
  outer loop
    vertex -587.8876528588405 125.59743535026699 11.956921938165305
    vertex -587.8876528588405 124.9361018375873 8.265874281184537
    vertex -587.8876528588405 124.997435350267 7.8
  endloop
endfacet
facet normal 0.06540312923014195 0.9978589232386037 0.0
  outer loop
    vertex -577.8876528588405 127.99743535026698 3.0
    vertex -576.6453214423484 127.8338793164545 0.0
    vertex -577.8876528588405 127.99743535026698 0.0
  endloop
endfacet
facet normal 0.2588190451025234 0.9659258262890676 0.0
  outer loop
    vertex -576.6453214423484 127.8338793164545 0.0
    vertex -577.8876528588405 127.99743535026698 3.0
    vertex -576.6453214423484 127.8338793164545 3.0
  endloop
endfacet
facet normal 0.0 1.0 0.0
  outer loop
    vertex -590.8876528588404 127.99743535026698 0.0
    vertex -586.4052909490456 127.99743535026698 3.068148347421863
    vertex -577.8876528588405 127.99743535026698 0.0
  endloop
endfacet
facet normal 0.0 1.0 0.0
  outer loop
    vertex -586.4052909490456 127.99743535026698 3.068148347421863
    vertex -590.8876528588404 127.99743535026698 0.0
    vertex -586.8876528588405 127.99743535026698 3.2679491924311224
  endloop
endfacet
facet normal 0.0 1.0 0.0
  outer loop
    vertex -586.8876528588405 127.99743535026698 3.2679491924311224
    vertex -590.8876528588404 127.99743535026698 0.0
    vertex -587.3018664212136 127.99743535026698 3.585786437626904
  endloop
endfacet
facet normal 0.0 1.0 0.0
  outer loop
    vertex -587.3018664212136 127.99743535026698 3.585786437626904
    vertex -590.8876528588404 127.99743535026698 0.0
    vertex -590.8876528588404 127.99743535026698 7.799999999999998
  endloop
endfacet
facet normal 0.06540312923014195 0.9978589232386037 0.0
  outer loop
    vertex -577.8876528588405 127.99743535026698 0.0
    vertex -586.4052909490456 127.99743535026698 3.068148347421863
    vertex -585.8876528588405 127.99743535026698 3.0
  endloop
endfacet
facet normal 0.0 1.0 0.0
  outer loop
    vertex -587.3018664212136 127.99743535026698 3.585786437626904
    vertex -590.8876528588404 127.99743535026698 7.799999999999998
    vertex -587.6197036664094 127.99743535026698 3.9999999999999996
  endloop
endfacet
facet normal 0.0 1.0 0.0
  outer loop
    vertex -587.6197036664094 127.99743535026698 3.9999999999999996
    vertex -590.8876528588404 127.99743535026698 7.799999999999998
    vertex -587.8195045114187 127.99743535026698 4.482361909794958
  endloop
endfacet
facet normal 0.0 1.0 0.0
  outer loop
    vertex -587.8195045114187 127.99743535026698 4.482361909794958
    vertex -590.8876528588404 127.99743535026698 7.799999999999998
    vertex -587.8876528588405 127.99743535026698 4.999999999999999
  endloop
endfacet
facet normal 0.0 1.0 0.0
  outer loop
    vertex -587.8876528588405 127.99743535026698 4.999999999999999
    vertex -590.8876528588404 127.99743535026698 7.799999999999998
    vertex -587.8876528588405 127.99743535026698 7.799999999999998
  endloop
endfacet
facet normal 0.06540312923014195 0.9978589232386037 0.0
  outer loop
    vertex -577.8876528588405 127.99743535026698 3.0
    vertex -577.8876528588405 127.99743535026698 0.0
    vertex -585.8876528588405 127.99743535026698 3.0
  endloop
endfacet
facet normal 0.9659258262890673 0.0 0.25881904510252435
  outer loop
    vertex -587.8195045114187 127.99743535026698 4.482361909794958
    vertex -587.8876528588405 118.39743535026699 4.999999999999999
    vertex -587.8195045114187 118.39743535026699 4.482361909794958
  endloop
endfacet
facet normal 0.9978589232386056 0.0 0.065403129230111
  outer loop
    vertex -587.8876528588405 118.39743535026699 4.999999999999999
    vertex -587.8195045114187 127.99743535026698 4.482361909794958
    vertex -587.8876528588405 127.99743535026698 4.999999999999999
  endloop
endfacet
facet normal 0.866025403784426 0.0 0.500000000000022
  outer loop
    vertex -587.6197036664094 127.99743535026698 3.9999999999999996
    vertex -587.8195045114187 118.39743535026699 4.482361909794958
    vertex -587.6197036664094 118.39743535026699 3.9999999999999996
  endloop
endfacet
facet normal 0.9659258262890673 0.0 0.25881904510252435
  outer loop
    vertex -587.8195045114187 118.39743535026699 4.482361909794958
    vertex -587.6197036664094 127.99743535026698 3.9999999999999996
    vertex -587.8195045114187 127.99743535026698 4.482361909794958
  endloop
endfacet
facet normal -1.0 0.0 0.0
  outer loop
    vertex -590.8876528588404 121.95510393377488 12.436443966187527
    vertex -590.8876528588406 121.39743535026697 7.8
    vertex -590.8876528588404 120.79743535026698 11.956921938165305
  endloop
endfacet
facet normal -1.0 0.0 0.0
  outer loop
    vertex -590.8876528588406 121.39743535026697 7.8
    vertex -590.8876528588404 121.95510393377488 12.436443966187527
    vertex -590.8876528588406 121.45876886294666 8.265874281184535
  endloop
endfacet
facet normal -1.0 0.0 0.0
  outer loop
    vertex -590.8876528588406 121.45876886294666 8.265874281184535
    vertex -590.8876528588404 121.95510393377488 12.436443966187527
    vertex -590.8876528588406 121.638589623455 8.699999999999998
  endloop
endfacet
facet normal -1.0 0.0 0.0
  outer loop
    vertex -590.8876528588406 121.638589623455 8.699999999999998
    vertex -590.8876528588404 121.95510393377488 12.436443966187527
    vertex -590.8876528588406 121.9246431441312 9.072792206135784
  endloop
endfacet
facet normal -1.0 0.0 0.0
  outer loop
    vertex -590.8876528588406 121.9246431441312 9.072792206135784
    vertex -590.8876528588404 121.95510393377488 12.436443966187527
    vertex -590.8876528588406 122.29743535026698 9.358845726811989
  endloop
endfacet
facet normal -1.0 0.0 0.0
  outer loop
    vertex -590.8876528588406 122.29743535026698 9.358845726811989
    vertex -590.8876528588404 121.95510393377488 12.436443966187527
    vertex -590.8876528588404 123.19743535026697 12.6
  endloop
endfacet
facet normal -1.0 0.0 0.0
  outer loop
    vertex -590.8876528588406 122.29743535026698 9.358845726811989
    vertex -590.8876528588404 123.19743535026697 12.6
    vertex -590.8876528588406 122.73156106908243 9.538666487320322
  endloop
endfacet
facet normal -1.0 0.0 0.0
  outer loop
    vertex -590.8876528588406 122.73156106908243 9.538666487320322
    vertex -590.8876528588404 123.19743535026697 12.6
    vertex -590.8876528588406 123.19743535026697 9.6
  endloop
endfacet
facet normal -1.0 0.0 0.0
  outer loop
    vertex -590.8876528588406 123.19743535026697 9.6
    vertex -590.8876528588404 123.19743535026697 12.6
    vertex -590.8876528588404 124.43976676675906 12.436443966187527
  endloop
endfacet
facet normal -1.0 0.0 0.0
  outer loop
    vertex -590.8876528588406 123.19743535026697 9.6
    vertex -590.8876528588404 124.43976676675906 12.436443966187527
    vertex -590.8876528588406 123.66330963145151 9.538666487320322
  endloop
endfacet
facet normal -1.0 0.0 0.0
  outer loop
    vertex -590.8876528588406 123.66330963145151 9.538666487320322
    vertex -590.8876528588404 124.43976676675906 12.436443966187527
    vertex -590.8876528588406 124.09743535026698 9.358845726811989
  endloop
endfacet
facet normal -1.0 0.0 0.0
  outer loop
    vertex -590.8876528588406 124.09743535026698 9.358845726811989
    vertex -590.8876528588404 124.43976676675906 12.436443966187527
    vertex -590.8876528588406 124.47022755640276 9.072792206135786
  endloop
endfacet
facet normal -1.0 0.0 0.0
  outer loop
    vertex -590.8876528588406 124.47022755640276 9.072792206135786
    vertex -590.8876528588404 124.43976676675906 12.436443966187527
    vertex -590.8876528588404 125.59743535026699 11.956921938165305
  endloop
endfacet
facet normal -1.0 0.0 0.0
  outer loop
    vertex -590.8876528588406 124.47022755640276 9.072792206135786
    vertex -590.8876528588404 125.59743535026699 11.956921938165305
    vertex -590.8876528588406 124.75628107707897 8.7
  endloop
endfacet
facet normal -1.0 0.0 0.0
  outer loop
    vertex -590.8876528588406 124.75628107707897 8.7
    vertex -590.8876528588404 125.59743535026699 11.956921938165305
    vertex -590.8876528588406 124.9361018375873 8.265874281184537
  endloop
endfacet
facet normal -1.0 0.0 0.0
  outer loop
    vertex -590.8876528588406 124.9361018375873 8.265874281184537
    vertex -590.8876528588404 125.59743535026699 11.956921938165305
    vertex -590.8876528588406 124.997435350267 7.8
  endloop
endfacet
facet normal -1.0 0.0 0.0
  outer loop
    vertex -590.8876528588404 118.56099138407944 9.042331416492098
    vertex -590.8876528588404 118.39743535026699 0.0
    vertex -590.8876528588404 118.39743535026699 7.799999999999998
  endloop
endfacet
facet normal -1.0 0.0 0.0
  outer loop
    vertex -590.8876528588404 118.39743535026699 0.0
    vertex -590.8876528588404 118.56099138407944 9.042331416492098
    vertex -590.8876528588404 127.99743535026698 0.0
  endloop
endfacet
facet normal -1.0 0.0 0.0
  outer loop
    vertex -590.8876528588404 127.99743535026698 0.0
    vertex -590.8876528588404 118.56099138407944 9.042331416492098
    vertex -590.8876528588406 121.9246431441312 6.527207793864214
  endloop
endfacet
facet normal -1.0 0.0 0.0
  outer loop
    vertex -590.8876528588406 121.9246431441312 6.527207793864214
    vertex -590.8876528588404 118.56099138407944 9.042331416492098
    vertex -590.8876528588404 119.04051341210167 10.199999999999998
  endloop
endfacet
facet normal -1.0 0.0 0.0
  outer loop
    vertex -590.8876528588406 121.9246431441312 6.527207793864214
    vertex -590.8876528588404 119.04051341210167 10.199999999999998
    vertex -590.8876528588406 121.638589623455 6.899999999999999
  endloop
endfacet
facet normal -1.0 0.0 0.0
  outer loop
    vertex -590.8876528588406 121.638589623455 6.899999999999999
    vertex -590.8876528588404 119.04051341210167 10.199999999999998
    vertex -590.8876528588404 119.80332280057154 11.194112549695426
  endloop
endfacet
facet normal -1.0 0.0 0.0
  outer loop
    vertex -590.8876528588406 121.638589623455 6.899999999999999
    vertex -590.8876528588404 119.80332280057154 11.194112549695426
    vertex -590.8876528588406 121.45876886294666 7.334125718815461
  endloop
endfacet
facet normal -1.0 0.0 0.0
  outer loop
    vertex -590.8876528588406 121.45876886294666 7.334125718815461
    vertex -590.8876528588404 119.80332280057154 11.194112549695426
    vertex -590.8876528588404 120.79743535026698 11.956921938165305
  endloop
endfacet
facet normal -1.0 0.0 0.0
  outer loop
    vertex -590.8876528588406 121.45876886294666 7.334125718815461
    vertex -590.8876528588404 120.79743535026698 11.956921938165305
    vertex -590.8876528588406 121.39743535026697 7.8
  endloop
endfacet
facet normal -1.0 0.0 0.0
  outer loop
    vertex -590.8876528588404 127.99743535026698 0.0
    vertex -590.8876528588406 121.9246431441312 6.527207793864214
    vertex -590.8876528588406 122.29743535026698 6.24115427318801
  endloop
endfacet
facet normal -1.0 0.0 0.0
  outer loop
    vertex -590.8876528588404 127.99743535026698 0.0
    vertex -590.8876528588406 122.29743535026698 6.24115427318801
    vertex -590.8876528588406 122.73156106908243 6.061333512679677
  endloop
endfacet
facet normal -1.0 0.0 0.0
  outer loop
    vertex -590.8876528588404 127.99743535026698 0.0
    vertex -590.8876528588406 122.73156106908243 6.061333512679677
    vertex -590.8876528588406 123.19743535026697 6.0
  endloop
endfacet
facet normal -1.0 0.0 0.0
  outer loop
    vertex -590.8876528588404 127.99743535026698 0.0
    vertex -590.8876528588406 123.19743535026697 6.0
    vertex -590.8876528588406 123.66330963145151 6.061333512679677
  endloop
endfacet
facet normal -1.0 0.0 0.0
  outer loop
    vertex -590.8876528588404 127.99743535026698 0.0
    vertex -590.8876528588406 123.66330963145151 6.061333512679677
    vertex -590.8876528588406 124.09743535026698 6.241154273188012
  endloop
endfacet
facet normal -1.0 0.0 0.0
  outer loop
    vertex -590.8876528588404 127.99743535026698 0.0
    vertex -590.8876528588406 124.09743535026698 6.241154273188012
    vertex -590.8876528588406 124.47022755640276 6.527207793864214
  endloop
endfacet
facet normal -1.0 0.0 0.0
  outer loop
    vertex -590.8876528588404 127.99743535026698 0.0
    vertex -590.8876528588406 124.47022755640276 6.527207793864214
    vertex -590.8876528588406 124.75628107707897 6.9
  endloop
endfacet
facet normal -1.0 0.0 0.0
  outer loop
    vertex -590.8876528588404 127.99743535026698 0.0
    vertex -590.8876528588406 124.75628107707897 6.9
    vertex -590.8876528588406 124.9361018375873 7.3341257188154625
  endloop
endfacet
facet normal -1.0 0.0 0.0
  outer loop
    vertex -590.8876528588404 127.99743535026698 0.0
    vertex -590.8876528588406 124.9361018375873 7.3341257188154625
    vertex -590.8876528588406 124.997435350267 7.8
  endloop
endfacet
facet normal -1.0 0.0 0.0
  outer loop
    vertex -590.8876528588404 127.99743535026698 0.0
    vertex -590.8876528588406 124.997435350267 7.8
    vertex -590.8876528588404 125.59743535026699 11.956921938165305
  endloop
endfacet
facet normal -1.0 0.0 0.0
  outer loop
    vertex -590.8876528588404 127.99743535026698 0.0
    vertex -590.8876528588404 125.59743535026699 11.956921938165305
    vertex -590.8876528588404 126.5915478999624 11.19411254969543
  endloop
endfacet
facet normal -1.0 0.0 0.0
  outer loop
    vertex -590.8876528588404 127.99743535026698 0.0
    vertex -590.8876528588404 126.5915478999624 11.19411254969543
    vertex -590.8876528588404 127.3543572884323 10.2
  endloop
endfacet
facet normal -1.0 0.0 0.0
  outer loop
    vertex -590.8876528588404 127.99743535026698 0.0
    vertex -590.8876528588404 127.3543572884323 10.2
    vertex -590.8876528588404 127.8338793164545 9.042331416492098
  endloop
endfacet
facet normal -1.0 0.0 0.0
  outer loop
    vertex -590.8876528588404 127.99743535026698 0.0
    vertex -590.8876528588404 127.8338793164545 9.042331416492098
    vertex -590.8876528588404 127.99743535026698 7.799999999999998
  endloop
endfacet
facet normal 0.0 -0.7071067811865481 0.7071067811865469
  outer loop
    vertex -587.8876528588405 119.80332280057154 11.194112549695426
    vertex -590.8876528588404 119.04051341210167 10.199999999999998
    vertex -587.8876528588405 119.04051341210167 10.199999999999998
  endloop
endfacet
facet normal 0.0 -0.8660254037844389 0.4999999999999999
  outer loop
    vertex -590.8876528588404 119.04051341210167 10.199999999999998
    vertex -587.8876528588405 119.80332280057154 11.194112549695426
    vertex -590.8876528588404 119.80332280057154 11.194112549695426
  endloop
endfacet
facet normal 0.707106781186534 0.0 0.707106781186561
  outer loop
    vertex -587.3018664212136 127.99743535026698 3.585786437626904
    vertex -587.6197036664094 118.39743535026699 3.9999999999999996
    vertex -587.3018664212136 118.39743535026699 3.585786437626904
  endloop
endfacet
facet normal 0.866025403784426 0.0 0.500000000000022
  outer loop
    vertex -587.6197036664094 118.39743535026699 3.9999999999999996
    vertex -587.3018664212136 127.99743535026698 3.585786437626904
    vertex -587.6197036664094 127.99743535026698 3.9999999999999996
  endloop
endfacet
facet normal 0.06540312923013984 0.0 0.9978589232386037
  outer loop
    vertex -585.8876528588405 118.39743535026699 3.0
    vertex -586.4052909490456 127.99743535026698 3.068148347421863
    vertex -586.4052909490456 118.39743535026699 3.068148347421863
  endloop
endfacet
facet normal 0.2588190451025435 0.0 0.9659258262890623
  outer loop
    vertex -586.4052909490456 127.99743535026698 3.068148347421863
    vertex -585.8876528588405 118.39743535026699 3.0
    vertex -585.8876528588405 127.99743535026698 3.0
  endloop
endfacet
facet normal 0.2588190451025435 0.0 0.9659258262890623
  outer loop
    vertex -586.4052909490456 118.39743535026699 3.068148347421863
    vertex -586.8876528588405 127.99743535026698 3.2679491924311224
    vertex -586.8876528588405 118.39743535026699 3.2679491924311224
  endloop
endfacet
facet normal 0.4999999999999976 0.0 0.86602540378444
  outer loop
    vertex -586.8876528588405 127.99743535026698 3.2679491924311224
    vertex -586.4052909490456 118.39743535026699 3.068148347421863
    vertex -586.4052909490456 127.99743535026698 3.068148347421863
  endloop
endfacet
facet normal 0.0 0.0 -1.0
  outer loop
    vertex -577.8876528588405 127.99743535026698 0.0
    vertex -590.8876528588404 118.39743535026699 0.0
    vertex -590.8876528588404 127.99743535026698 0.0
  endloop
endfacet
facet normal 0.0 0.0 -1.0
  outer loop
    vertex -590.8876528588404 118.39743535026699 0.0
    vertex -577.8876528588405 127.99743535026698 0.0
    vertex -579.6263193461608 123.66330963145151 0.0
  endloop
endfacet
facet normal 0.0 0.0 -1.0
  outer loop
    vertex -590.8876528588404 118.39743535026699 0.0
    vertex -579.6263193461608 123.66330963145151 0.0
    vertex -579.6876528588405 123.19743535026697 0.0
  endloop
endfacet
facet normal 0.0 0.0 -1.0
  outer loop
    vertex -579.6263193461608 123.66330963145151 0.0
    vertex -577.8876528588405 127.99743535026698 0.0
    vertex -579.4464985856524 124.09743535026698 0.0
  endloop
endfacet
facet normal 0.0 0.0 -1.0
  outer loop
    vertex -579.4464985856524 124.09743535026698 0.0
    vertex -577.8876528588405 127.99743535026698 0.0
    vertex -579.1604450649763 124.47022755640276 0.0
  endloop
endfacet
facet normal 0.0 0.0 -1.0
  outer loop
    vertex -579.1604450649763 124.47022755640276 0.0
    vertex -577.8876528588405 127.99743535026698 0.0
    vertex -578.7876528588405 124.75628107707897 0.0
  endloop
endfacet
facet normal 0.0 0.0 -1.0
  outer loop
    vertex -578.7876528588405 124.75628107707897 0.0
    vertex -577.8876528588405 127.99743535026698 0.0
    vertex -578.353527140025 124.9361018375873 0.0
  endloop
endfacet
facet normal 0.0 0.0 -1.0
  outer loop
    vertex -578.353527140025 124.9361018375873 0.0
    vertex -577.8876528588405 127.99743535026698 0.0
    vertex -577.8876528588405 124.99743535026697 0.0
  endloop
endfacet
facet normal 0.0 0.0 -1.0
  outer loop
    vertex -577.8876528588405 124.99743535026697 0.0
    vertex -577.8876528588405 127.99743535026698 0.0
    vertex -576.6453214423484 127.8338793164545 0.0
  endloop
endfacet
facet normal 0.0 0.0 -1.0
  outer loop
    vertex -577.8876528588405 124.99743535026697 0.0
    vertex -576.6453214423484 127.8338793164545 0.0
    vertex -577.4217785776559 124.9361018375873 0.0
  endloop
endfacet
facet normal 0.0 0.0 -1.0
  outer loop
    vertex -577.4217785776559 124.9361018375873 0.0
    vertex -576.6453214423484 127.8338793164545 0.0
    vertex -576.9876528588404 124.75628107707897 0.0
  endloop
endfacet
facet normal 0.0 0.0 -1.0
  outer loop
    vertex -576.9876528588404 124.75628107707897 0.0
    vertex -576.6453214423484 127.8338793164545 0.0
    vertex -576.6148606527048 124.47022755640276 0.0
  endloop
endfacet
facet normal 0.0 0.0 -1.0
  outer loop
    vertex -576.6148606527048 124.47022755640276 0.0
    vertex -576.6453214423484 127.8338793164545 0.0
    vertex -575.4876528588405 127.3543572884323 0.0
  endloop
endfacet
facet normal 0.0 0.0 -1.0
  outer loop
    vertex -576.6148606527048 124.47022755640276 0.0
    vertex -575.4876528588405 127.3543572884323 0.0
    vertex -576.3288071320285 124.09743535026698 0.0
  endloop
endfacet
facet normal 0.0 0.0 -1.0
  outer loop
    vertex -576.3288071320285 124.09743535026698 0.0
    vertex -575.4876528588405 127.3543572884323 0.0
    vertex -576.1489863715202 123.66330963145151 0.0
  endloop
endfacet
facet normal 0.0 0.0 -1.0
  outer loop
    vertex -576.1489863715202 123.66330963145151 0.0
    vertex -575.4876528588405 127.3543572884323 0.0
    vertex -576.0876528588404 123.19743535026697 0.0
  endloop
endfacet
facet normal 0.0 0.0 -1.0
  outer loop
    vertex -590.8876528588404 118.39743535026699 0.0
    vertex -579.6263193461608 122.73156106908243 0.0
    vertex -577.8876528588405 118.39743535026699 0.0
  endloop
endfacet
facet normal 0.0 0.0 -1.0
  outer loop
    vertex -579.6263193461608 122.73156106908243 0.0
    vertex -590.8876528588404 118.39743535026699 0.0
    vertex -579.6876528588405 123.19743535026697 0.0
  endloop
endfacet
facet normal 0.0 0.0 -1.0
  outer loop
    vertex -577.8876528588405 118.39743535026699 0.0
    vertex -579.6263193461608 122.73156106908243 0.0
    vertex -579.4464985856524 122.29743535026698 0.0
  endloop
endfacet
facet normal 0.0 0.0 -1.0
  outer loop
    vertex -577.8876528588405 118.39743535026699 0.0
    vertex -579.4464985856524 122.29743535026698 0.0
    vertex -579.1604450649763 121.9246431441312 0.0
  endloop
endfacet
facet normal 0.0 0.0 -1.0
  outer loop
    vertex -577.8876528588405 118.39743535026699 0.0
    vertex -579.1604450649763 121.9246431441312 0.0
    vertex -578.7876528588405 121.638589623455 0.0
  endloop
endfacet
facet normal 0.0 0.0 -1.0
  outer loop
    vertex -577.8876528588405 118.39743535026699 0.0
    vertex -578.7876528588405 121.638589623455 0.0
    vertex -578.353527140025 121.45876886294667 0.0
  endloop
endfacet
facet normal 0.0 0.0 -1.0
  outer loop
    vertex -577.8876528588405 118.39743535026699 0.0
    vertex -578.353527140025 121.45876886294667 0.0
    vertex -577.8876528588405 121.39743535026697 0.0
  endloop
endfacet
facet normal 0.0 0.0 -1.0
  outer loop
    vertex -577.8876528588405 118.39743535026699 0.0
    vertex -577.8876528588405 121.39743535026697 0.0
    vertex -577.4217785776559 121.45876886294667 0.0
  endloop
endfacet
facet normal 0.0 0.0 -1.0
  outer loop
    vertex -577.8876528588405 118.39743535026699 0.0
    vertex -577.4217785776559 121.45876886294667 0.0
    vertex -576.6453214423484 118.56099138407944 0.0
  endloop
endfacet
facet normal 0.0 0.0 -1.0
  outer loop
    vertex -576.6453214423484 118.56099138407944 0.0
    vertex -577.4217785776559 121.45876886294667 0.0
    vertex -576.9876528588405 121.638589623455 0.0
  endloop
endfacet
facet normal 0.0 0.0 -1.0
  outer loop
    vertex -576.6453214423484 118.56099138407944 0.0
    vertex -576.9876528588405 121.638589623455 0.0
    vertex -576.6148606527048 121.9246431441312 0.0
  endloop
endfacet
facet normal 0.0 0.0 -1.0
  outer loop
    vertex -576.6453214423484 118.56099138407944 0.0
    vertex -576.6148606527048 121.9246431441312 0.0
    vertex -575.4876528588405 119.04051341210167 0.0
  endloop
endfacet
facet normal 0.0 0.0 -1.0
  outer loop
    vertex -575.4876528588405 119.04051341210167 0.0
    vertex -576.6148606527048 121.9246431441312 0.0
    vertex -576.3288071320285 122.29743535026698 0.0
  endloop
endfacet
facet normal 0.0 0.0 -1.0
  outer loop
    vertex -575.4876528588405 119.04051341210167 0.0
    vertex -576.3288071320285 122.29743535026698 0.0
    vertex -576.1489863715202 122.73156106908243 0.0
  endloop
endfacet
facet normal 0.0 0.0 -1.0
  outer loop
    vertex -575.4876528588405 119.04051341210167 0.0
    vertex -576.1489863715202 122.73156106908243 0.0
    vertex -576.0876528588404 123.19743535026697 0.0
  endloop
endfacet
facet normal 0.0 0.0 -1.0
  outer loop
    vertex -575.4876528588405 119.04051341210167 0.0
    vertex -576.0876528588404 123.19743535026697 0.0
    vertex -575.4876528588405 127.3543572884323 0.0
  endloop
endfacet
facet normal 0.0 0.0 -1.0
  outer loop
    vertex -575.4876528588405 119.04051341210167 0.0
    vertex -575.4876528588405 127.3543572884323 0.0
    vertex -574.493540309145 126.5915478999624 0.0
  endloop
endfacet
facet normal 0.0 0.0 -1.0
  outer loop
    vertex -575.4876528588405 119.04051341210167 0.0
    vertex -574.493540309145 126.5915478999624 0.0
    vertex -574.493540309145 119.80332280057156 0.0
  endloop
endfacet
facet normal 0.0 0.0 -1.0
  outer loop
    vertex -574.493540309145 119.80332280057156 0.0
    vertex -574.493540309145 126.5915478999624 0.0
    vertex -573.7307309206751 125.59743535026699 0.0
  endloop
endfacet
facet normal 0.0 0.0 -1.0
  outer loop
    vertex -574.493540309145 119.80332280057156 0.0
    vertex -573.7307309206751 125.59743535026699 0.0
    vertex -573.7307309206751 120.79743535026698 0.0
  endloop
endfacet
facet normal 0.0 0.0 -1.0
  outer loop
    vertex -573.7307309206751 120.79743535026698 0.0
    vertex -573.7307309206751 125.59743535026699 0.0
    vertex -573.251208892653 124.43976676675909 0.0
  endloop
endfacet
facet normal 0.0 0.0 -1.0
  outer loop
    vertex -573.7307309206751 120.79743535026698 0.0
    vertex -573.251208892653 124.43976676675909 0.0
    vertex -573.251208892653 121.95510393377488 0.0
  endloop
endfacet
facet normal 0.0 0.0 -1.0
  outer loop
    vertex -573.251208892653 121.95510393377488 0.0
    vertex -573.251208892653 124.43976676675909 0.0
    vertex -573.0876528588406 123.19743535026697 0.0
  endloop
endfacet
facet normal 0.0 0.0 1.0
  outer loop
    vertex -577.8876528588405 118.39743535026699 3.0
    vertex -585.8876528588405 127.99743535026698 3.0
    vertex -585.8876528588405 118.39743535026699 3.0
  endloop
endfacet
facet normal 0.06540312923013984 0.0 0.9978589232386037
  outer loop
    vertex -585.8876528588405 127.99743535026698 3.0
    vertex -577.8876528588405 118.39743535026699 3.0
    vertex -579.6263193461608 122.73156106908243 3.0
  endloop
endfacet
facet normal 0.06540312923013984 0.0 0.9978589232386037
  outer loop
    vertex -585.8876528588405 127.99743535026698 3.0
    vertex -579.6263193461608 122.73156106908243 3.0
    vertex -579.6876528588405 123.19743535026697 3.0
  endloop
endfacet
facet normal 0.0 0.0 1.0
  outer loop
    vertex -579.6263193461608 122.73156106908243 3.0
    vertex -577.8876528588405 118.39743535026699 3.0
    vertex -579.4464985856524 122.29743535026698 3.0
  endloop
endfacet
facet normal 0.0 0.0 1.0
  outer loop
    vertex -579.4464985856524 122.29743535026698 3.0
    vertex -577.8876528588405 118.39743535026699 3.0
    vertex -579.1604450649763 121.9246431441312 3.0
  endloop
endfacet
facet normal 0.0 0.0 1.0
  outer loop
    vertex -579.1604450649763 121.9246431441312 3.0
    vertex -577.8876528588405 118.39743535026699 3.0
    vertex -578.7876528588405 121.638589623455 3.0
  endloop
endfacet
facet normal 0.0 0.0 1.0
  outer loop
    vertex -578.7876528588405 121.638589623455 3.0
    vertex -577.8876528588405 118.39743535026699 3.0
    vertex -578.353527140025 121.45876886294667 3.0
  endloop
endfacet
facet normal 0.0 0.0 1.0
  outer loop
    vertex -578.353527140025 121.45876886294667 3.0
    vertex -577.8876528588405 118.39743535026699 3.0
    vertex -577.8876528588405 121.39743535026697 3.0
  endloop
endfacet
facet normal 0.0 0.0 1.0
  outer loop
    vertex -577.8876528588405 121.39743535026697 3.0
    vertex -577.8876528588405 118.39743535026699 3.0
    vertex -576.6453214423484 118.56099138407944 3.0
  endloop
endfacet
facet normal 0.0 0.0 1.0
  outer loop
    vertex -577.8876528588405 121.39743535026697 3.0
    vertex -576.6453214423484 118.56099138407944 3.0
    vertex -577.4217785776559 121.45876886294667 3.0
  endloop
endfacet
facet normal 0.0 0.0 1.0
  outer loop
    vertex -577.4217785776559 121.45876886294667 3.0
    vertex -576.6453214423484 118.56099138407944 3.0
    vertex -576.9876528588405 121.638589623455 3.0
  endloop
endfacet
facet normal 0.0 0.0 1.0
  outer loop
    vertex -576.9876528588405 121.638589623455 3.0
    vertex -576.6453214423484 118.56099138407944 3.0
    vertex -576.6148606527048 121.9246431441312 3.0
  endloop
endfacet
facet normal 0.0 0.0 1.0
  outer loop
    vertex -576.6148606527048 121.9246431441312 3.0
    vertex -576.6453214423484 118.56099138407944 3.0
    vertex -575.4876528588405 119.04051341210167 3.0
  endloop
endfacet
facet normal 0.0 0.0 1.0
  outer loop
    vertex -576.6148606527048 121.9246431441312 3.0
    vertex -575.4876528588405 119.04051341210167 3.0
    vertex -576.3288071320285 122.29743535026698 3.0
  endloop
endfacet
facet normal 0.0 0.0 1.0
  outer loop
    vertex -576.3288071320285 122.29743535026698 3.0
    vertex -575.4876528588405 119.04051341210167 3.0
    vertex -576.1489863715202 122.73156106908243 3.0
  endloop
endfacet
facet normal 0.0 0.0 1.0
  outer loop
    vertex -576.1489863715202 122.73156106908243 3.0
    vertex -575.4876528588405 119.04051341210167 3.0
    vertex -576.0876528588404 123.19743535026697 3.0
  endloop
endfacet
facet normal 0.06540312923013984 0.0 0.9978589232386037
  outer loop
    vertex -585.8876528588405 127.99743535026698 3.0
    vertex -579.6263193461608 123.66330963145151 3.0
    vertex -577.8876528588405 127.99743535026698 3.0
  endloop
endfacet
facet normal 0.0 0.0 1.0
  outer loop
    vertex -579.6263193461608 123.66330963145151 3.0
    vertex -585.8876528588405 127.99743535026698 3.0
    vertex -579.6876528588405 123.19743535026697 3.0
  endloop
endfacet
facet normal 0.0 0.0 1.0
  outer loop
    vertex -577.8876528588405 127.99743535026698 3.0
    vertex -579.6263193461608 123.66330963145151 3.0
    vertex -579.4464985856524 124.09743535026698 3.0
  endloop
endfacet
facet normal 0.0 0.0 1.0
  outer loop
    vertex -577.8876528588405 127.99743535026698 3.0
    vertex -579.4464985856524 124.09743535026698 3.0
    vertex -579.1604450649763 124.47022755640276 3.0
  endloop
endfacet
facet normal 0.0 0.0 1.0
  outer loop
    vertex -577.8876528588405 127.99743535026698 3.0
    vertex -579.1604450649763 124.47022755640276 3.0
    vertex -578.7876528588405 124.75628107707897 3.0
  endloop
endfacet
facet normal 0.0 0.0 1.0
  outer loop
    vertex -577.8876528588405 127.99743535026698 3.0
    vertex -578.7876528588405 124.75628107707897 3.0
    vertex -578.353527140025 124.9361018375873 3.0
  endloop
endfacet
facet normal 0.0 0.0 1.0
  outer loop
    vertex -577.8876528588405 127.99743535026698 3.0
    vertex -578.353527140025 124.9361018375873 3.0
    vertex -577.8876528588405 124.99743535026697 3.0
  endloop
endfacet
facet normal 0.0 0.0 1.0
  outer loop
    vertex -577.8876528588405 127.99743535026698 3.0
    vertex -577.8876528588405 124.99743535026697 3.0
    vertex -577.4217785776559 124.9361018375873 3.0
  endloop
endfacet
facet normal 0.0 0.0 1.0
  outer loop
    vertex -577.8876528588405 127.99743535026698 3.0
    vertex -577.4217785776559 124.9361018375873 3.0
    vertex -576.6453214423484 127.8338793164545 3.0
  endloop
endfacet
facet normal 0.0 0.0 1.0
  outer loop
    vertex -576.6453214423484 127.8338793164545 3.0
    vertex -577.4217785776559 124.9361018375873 3.0
    vertex -576.9876528588404 124.75628107707897 3.0
  endloop
endfacet
facet normal 0.0 0.0 1.0
  outer loop
    vertex -576.6453214423484 127.8338793164545 3.0
    vertex -576.9876528588404 124.75628107707897 3.0
    vertex -576.6148606527048 124.47022755640276 3.0
  endloop
endfacet
facet normal 0.0 0.0 1.0
  outer loop
    vertex -576.6453214423484 127.8338793164545 3.0
    vertex -576.6148606527048 124.47022755640276 3.0
    vertex -575.4876528588405 127.3543572884323 3.0
  endloop
endfacet
facet normal 0.0 0.0 1.0
  outer loop
    vertex -575.4876528588405 127.3543572884323 3.0
    vertex -576.6148606527048 124.47022755640276 3.0
    vertex -576.3288071320285 124.09743535026698 3.0
  endloop
endfacet
facet normal 0.0 0.0 1.0
  outer loop
    vertex -575.4876528588405 127.3543572884323 3.0
    vertex -576.3288071320285 124.09743535026698 3.0
    vertex -576.1489863715202 123.66330963145151 3.0
  endloop
endfacet
facet normal 0.0 0.0 1.0
  outer loop
    vertex -575.4876528588405 127.3543572884323 3.0
    vertex -576.1489863715202 123.66330963145151 3.0
    vertex -576.0876528588404 123.19743535026697 3.0
  endloop
endfacet
facet normal 0.0 0.0 1.0
  outer loop
    vertex -575.4876528588405 127.3543572884323 3.0
    vertex -576.0876528588404 123.19743535026697 3.0
    vertex -575.4876528588405 119.04051341210167 3.0
  endloop
endfacet
facet normal 0.0 0.0 1.0
  outer loop
    vertex -575.4876528588405 127.3543572884323 3.0
    vertex -575.4876528588405 119.04051341210167 3.0
    vertex -574.493540309145 119.80332280057156 3.0
  endloop
endfacet
facet normal 0.0 0.0 1.0
  outer loop
    vertex -575.4876528588405 127.3543572884323 3.0
    vertex -574.493540309145 119.80332280057156 3.0
    vertex -574.493540309145 126.5915478999624 3.0
  endloop
endfacet
facet normal 0.0 0.0 1.0
  outer loop
    vertex -574.493540309145 126.5915478999624 3.0
    vertex -574.493540309145 119.80332280057156 3.0
    vertex -573.7307309206751 120.79743535026698 3.0
  endloop
endfacet
facet normal 0.0 0.0 1.0
  outer loop
    vertex -574.493540309145 126.5915478999624 3.0
    vertex -573.7307309206751 120.79743535026698 3.0
    vertex -573.7307309206751 125.59743535026699 3.0
  endloop
endfacet
facet normal 0.0 0.0 1.0
  outer loop
    vertex -573.7307309206751 125.59743535026699 3.0
    vertex -573.7307309206751 120.79743535026698 3.0
    vertex -573.251208892653 121.95510393377488 3.0
  endloop
endfacet
facet normal 0.0 0.0 1.0
  outer loop
    vertex -573.7307309206751 125.59743535026699 3.0
    vertex -573.251208892653 121.95510393377488 3.0
    vertex -573.251208892653 124.43976676675909 3.0
  endloop
endfacet
facet normal 0.0 0.0 1.0
  outer loop
    vertex -573.251208892653 124.43976676675909 3.0
    vertex -573.251208892653 121.95510393377488 3.0
    vertex -573.0876528588406 123.19743535026697 3.0
  endloop
endfacet
facet normal 0.4999999999999976 0.0 0.86602540378444
  outer loop
    vertex -586.8876528588405 118.39743535026699 3.2679491924311224
    vertex -587.3018664212136 127.99743535026698 3.585786437626904
    vertex -587.3018664212136 118.39743535026699 3.585786437626904
  endloop
endfacet
facet normal 0.707106781186534 0.0 0.707106781186561
  outer loop
    vertex -587.3018664212136 127.99743535026698 3.585786437626904
    vertex -586.8876528588405 118.39743535026699 3.2679491924311224
    vertex -586.8876528588405 127.99743535026698 3.2679491924311224
  endloop
endfacet
endsolid iTopie
