 0
SECTION
 2
ENTITIES
  0
LINE
 8
Grouper#3
10
-2.469989271765901
20
20.433747236259162
30
-8.125761375426963e-13
11
2.726141771890364
21
20.222289719322685
31
4.3163495999823646e-14
  0
LINE
 8
Grouper#3
10
-3.6612125082126554
20
15.375506402718736
30
-9.017445407503305e-13
11
-2.469989271765901
21
20.433747236259162
31
-8.125761375426963e-13
  0
LINE
 8
Grouper#3
10
-7.877296107833903
20
13.502297570196504
30
-1.7574845958768477e-12
11
-3.6612125082126554
21
15.375506402718736
31
-9.017445407503305e-13
  0
LINE
 8
Grouper#3
10
-12.211700263105696
20
16.29324274558011
30
-9.895457891946059e-13
11
-7.877296107833903
21
13.502297570196504
31
-1.7574845958768477e-12
  0
LINE
 8
Grouper#3
10
-16.035442804165847
20
12.768546292833989
30
-8.074232105901678e-13
11
-12.211700263105696
21
16.29324274558011
31
-9.895457891946059e-13
  0
LINE
 8
Grouper#3
10
-13.301048438293362
20
8.349507870162084
30
-1.308293647831111e-13
11
-16.035442804165847
21
12.768546292833989
31
-8.074232105901678e-13
  0
LINE
 8
Grouper#3
10
-14.957711073579677
20
4.043727898765703
30
1.4099162575904062e-13
11
-13.301048438293362
21
8.349507870162084
31
-1.308293647831111e-13
  0
LINE
 8
Grouper#3
10
-19.99609390360946
20
2.9523375876033873
30
5.241913652540895e-14
11
-14.957711073579677
21
4.043727898765703
31
1.4099162575904062e-13
  0
LINE
 8
Grouper#3
10
-20.2075514205435
20
-2.2437934560526074
30
1.885733411287887e-13
11
-19.99609390360946
21
2.9523375876033873
31
5.241913652540895e-14
  0
LINE
 8
Grouper#3
10
-15.149310587003255
20
-3.4350166924994516
30
1.1347313851758642e-12
11
-20.2075514205435
21
-2.2437934560526074
31
1.885733411287887e-13
  0
LINE
 8
Grouper#3
10
-13.276101754480841
20
-7.651100292120429
30
-2.188206957782216e-13
11
-15.149310587003255
21
-3.4350166924994516
31
1.1347313851758642e-12
  0
LINE
 8
Grouper#3
10
-16.067046929864627
20
-11.985504447392401
30
8.203757458846613e-13
11
-13.276101754480841
21
-7.651100292120429
31
-2.188206957782216e-13
  0
LINE
 8
Grouper#3
10
-12.542350477118417
20
-15.809246988452642
30
-8.04444221622805e-13
11
-16.067046929864627
21
-11.985504447392401
31
8.203757458846613e-13
  0
LINE
 8
Grouper#3
10
-8.123312054448677
20
-13.074852622580067
30
9.623299289765475e-14
11
-12.542350477118417
21
-15.809246988452642
31
-8.04444221622805e-13
  0
LINE
 8
Grouper#3
10
-6.018300552724541
20
-13.819927110085207
30
1.40825500231567e-13
11
-8.123312054448677
21
-13.074852622580067
31
9.623299289765475e-14
  0
LINE
 8
Grouper#3
10
-2.2544419330499195
20
-5.29527894950122
30
1.8361353778688567e-13
11
-6.018300552724541
21
-13.819927110085207
31
1.40825500231567e-13
  0
LINE
 8
Grouper#3
10
-2.786497548356634
20
-4.756377422414149
30
9.056087393063002e-13
11
-2.2544419330499195
21
-5.29527894950122
31
1.8361353778688567e-13
  0
LINE
 8
Grouper#3
10
-3.1689198991829484
20
-4.522335676533805
30
-4.1818173475066956e-14
11
-2.786497548356634
21
-4.756377422414149
31
9.056087393063002e-13
  0
LINE
 8
Grouper#3
10
-3.53179600750435
20
-4.259004472086121
30
-1.3198527170691853e-13
11
-3.1689198991829484
21
-4.522335676533805
31
-4.1818173475066956e-14
  0
LINE
 8
Grouper#3
10
-3.872887614027955
20
-3.968008064573029
30
-1.3192388169265878e-13
11
-3.53179600750435
21
-4.259004472086121
31
-1.3198527170691853e-13
  0
LINE
 8
Grouper#3
10
-4.190090828636677
20
-3.6511413514769084
30
-4.163438209257045e-14
11
-3.872887614027955
21
-3.968008064573029
31
-1.3192388169265878e-13
  0
LINE
 8
Grouper#3
10
-4.4814491074122325
20
-3.3103588011382334
30
9.376345143800708e-14
11
-4.190090828636677
21
-3.6511413514769084
31
-4.163438209257045e-14
  0
LINE
 8
Grouper#3
10
-4.745165320811019
20
-2.9477623973818012
30
9.379152073119225e-14
11
-4.4814491074122325
21
-3.3103588011382334
31
9.376345143800708e-14
  0
LINE
 8
Grouper#3
10
-4.979612838553676
20
-2.5655886742522203
30
1.3892750753559805e-13
11
-4.745165320811019
21
-2.9477623973818012
31
9.379152073119225e-14
  0
LINE
 8
Grouper#3
10
-5.18334556285901
20
-2.166194920829019
30
-6.732179644802792e-13
11
-4.979612838553676
21
-2.5655886742522203
31
1.3892750753559805e-13
  0
LINE
 8
Grouper#3
10
-5.355106848130263
20
-1.7520446412102784
30
1.3892557925643923e-13
11
-5.18334556285901
21
-2.166194920829019
31
-6.732179644802792e-13
  0
LINE
 8
Grouper#3
10
-5.493837252084459
20
-1.3256923593527168
30
2.742655309497763e-13
11
-5.355106848130263
21
-1.7520446412102784
31
1.3892557925643923e-13
  0
LINE
 8
Grouper#3
10
-5.5986810705054
20
-0.8897678624895703
30
4.8638250381744756e-14
11
-5.493837252084459
21
-1.3256923593527168
31
2.742655309497763e-13
  0
LINE
 8
Grouper#3
10
-5.668991615320335
20
-0.4469599803169231
30
8.60747297704755e-13
11
-5.5986810705054
21
-0.8897678624895703
31
4.8638250381744756e-14
  0
LINE
 8
Grouper#3
10
-5.704335203444272
20
-2.8199664825478975e-15
30
9.366403185509592e-14
11
-5.668991615320335
21
-0.4469599803169231
31
8.60747297704755e-13
  0
LINE
 8
Grouper#3
10
-5.704493831783027
20
0.44835518070327607
30
9.057512363879636e-13
11
-5.704335203444272
21
-2.8199664825478975e-15
31
9.366403185509592e-14
  0
LINE
 8
Grouper#3
10
-5.669466521898651
20
0.8953400582871559
30
4.8407912877620975e-14
11
-5.704493831783027
21
0.44835518070327607
31
9.057512363879636e-13
  0
LINE
 8
Grouper#3
10
-5.599469326048215
20
1.3381975814246643
30
1.8368287428432527e-13
11
-5.669466521898651
21
0.8953400582871559
31
4.8407912877620975e-14
  0
LINE
 8
Grouper#3
10
-5.4949339945465185
20
1.7741961567596958
30
-6.736797685018397e-13
11
-5.599469326048215
21
1.3381975814246643
31
1.8368287428432527e-13
  0
LINE
 8
Grouper#3
10
-5.356505312684315
20
2.200646497672079
30
1.3836891664277632e-13
11
-5.4949339945465185
21
1.7741961567596958
31
-6.736797685018397e-13
  0
LINE
 8
Grouper#3
10
-5.185037123623012
20
2.6149182120898047
30
-7.190107585573209e-13
11
-5.356505312684315
21
2.200646497672079
31
1.3836891664277632e-13
  0
LINE
 8
Grouper#3
10
-4.981587061797829
20
3.014456027033079
30
4.7902735170029044e-14
11
-5.185037123623012
21
2.6149182120898047
31
-7.190107585573209e-13
  0
LINE
 8
Grouper#3
10
-4.74741002931148
20
3.3967955498165017
30
1.380174721371e-13
11
-4.981587061797829
21
3.014456027033079
31
4.7902735170029044e-14
  0
LINE
 8
Grouper#3
10
-4.483950455562749
20
3.7595784686903597
30
1.130515448591065e-12
11
-4.74741002931148
21
3.3967955498165017
31
1.380174721371e-13
  0
LINE
 8
Grouper#3
10
-4.192833387849985
20
4.100567099164607
30
2.7311018080962077e-13
11
-4.483950455562749
21
3.7595784686903597
31
1.130515448591065e-12
  0
LINE
 8
Grouper#3
10
-3.87585446790067
20
4.417658186289602
30
-8.098968017456028e-13
11
-4.192833387849985
21
4.100567099164607
31
2.7311018080962077e-13
  0
LINE
 8
Grouper#3
10
-3.5349688561587937
20
4.708895877761575
30
3.179464044768718e-13
11
-3.87585446790067
21
4.417658186289602
31
-8.098968017456028e-13
  0
LINE
 8
Grouper#3
10
-3.1722791721437757
20
4.972483787832452
30
2.7268090484492157e-13
11
-3.5349688561587937
21
4.708895877761575
31
3.179464044768718e-13
  0
LINE
 8
Grouper#3
10
-2.7900225252630846
20
5.206796077612134
30
8.59086148954579e-13
11
-3.1722791721437757
21
4.972483787832452
31
2.7268090484492157e-13
  0
LINE
 8
Grouper#3
10
-2.3905567160782497
20
5.41038748341958
30
9.19066446415117e-14
11
-2.7900225252630846
21
5.206796077612134
31
8.59086148954579e-13
  0
LINE
 8
Grouper#3
10
-1.9763456931354555
20
5.582002231326728
30
1.3687756721336278e-13
11
-2.3905567160782497
21
5.41038748341958
31
9.19066446415117e-14
  0
LINE
 8
Grouper#3
10
-1.5499443550632677
20
5.720581782908332
30
-8.886729641030252e-14
11
-1.9763456931354555
21
5.582002231326728
31
1.3687756721336278e-13
  0
LINE
 8
Grouper#3
10
-1.1139827916784086
20
5.825271364421809
30
9.036152666295312e-13
11
-1.5499443550632677
21
5.720581782908332
31
-8.886729641030252e-14
  0
LINE
 8
Grouper#3
10
-0.6711500613074819
20
5.895425239145431
30
8.583529686106049e-13
11
-1.1139827916784086
21
5.825271364421809
31
9.036152666295312e-13
  0
LINE
 8
Grouper#3
10
-0.22417760438229245
20
5.930610690351597
30
-8.112063378195617e-13
11
-0.6711500613074819
21
5.895425239145431
31
8.583529686106049e-13
  0
LINE
 8
Grouper#3
10
0.22417760438231502
20
5.930610690351597
30
9.104833165499547e-14
11
-0.22417760438229245
21
5.930610690351597
31
-8.112063378195617e-13
  0
LINE
 8
Grouper#3
10
0.6711500613078654
20
5.895425239145431
30
1.3603856451394412e-13
11
0.22417760438231502
21
5.930610690351597
31
9.104833165499547e-14
  0
LINE
 8
Grouper#3
10
1.113982791678431
20
5.825271364421809
30
1.3591550484108518e-13
11
0.6711500613078654
21
5.895425239145431
31
1.3603856451394412e-13
  0
LINE
 8
Grouper#3
10
1.5499443550632903
20
5.7205817829082415
30
9.06799116818626e-14
11
1.113982791678431
21
5.825271364421809
31
1.3591550484108518e-13
  0
LINE
 8
Grouper#3
10
1.976345693135839
20
5.582002231326728
30
8.576023120298403e-13
11
1.5499443550632903
21
5.7205817829082415
31
9.06799116818626e-14
  0
LINE
 8
Grouper#3
10
2.390556716078272
20
5.41038748341958
30
4.535179781875474e-14
11
1.976345693135839
21
5.582002231326728
31
8.576023120298403e-13
  0
LINE
 8
Grouper#3
10
2.7900225252631072
20
5.206796077612044
30
9.03800278124016e-14
11
2.390556716078272
21
5.41038748341958
31
4.535179781875474e-14
  0
LINE
 8
Grouper#3
10
3.1722791721441594
20
4.972483787832452
30
1.128045955912628e-12
11
2.7900225252631072
21
5.206796077612044
31
9.03800278124016e-14
  0
LINE
 8
Grouper#3
10
3.5349688561591774
20
4.708895877761575
30
1.127974218850596e-12
11
3.1722791721441594
21
4.972483787832452
31
1.128045955912628e-12
  0
LINE
 8
Grouper#3
10
3.8758544679006928
20
4.417658186289512
30
9.016525910830519e-14
11
3.5349688561591774
21
4.708895877761575
31
1.127974218850596e-12
  0
LINE
 8
Grouper#3
10
4.192833387850008
20
4.1005670991645164
30
1.1278624514877063e-12
11
3.8758544679006928
21
4.417658186289512
31
9.016525910830519e-14
  0
LINE
 8
Grouper#3
10
4.483950455563133
20
3.7595784686903597
30
2.705532998855341e-13
11
4.192833387850008
21
4.1005670991645164
31
1.1278624514877063e-12
  0
LINE
 8
Grouper#3
10
4.747410029311503
20
3.3967955498165017
30
1.351669427652339e-13
11
4.483950455563133
21
3.7595784686903597
31
2.705532998855341e-13
  0
LINE
 8
Grouper#3
10
4.981587061798212
20
3.014456027033079
30
4.491159681237915e-14
11
4.747410029311503
21
3.3967955498165017
31
1.351669427652339e-13
  0
LINE
 8
Grouper#3
10
5.185037123623395
20
2.6149182120898047
30
1.351457544604331e-13
11
4.981587061798212
21
3.014456027033079
31
4.491159681237915e-14
  0
LINE
 8
Grouper#3
10
5.356505312684699
20
2.200646497672079
30
9.003319908463523e-14
11
5.185037123623395
21
2.6149182120898047
31
1.351457544604331e-13
  0
LINE
 8
Grouper#3
10
5.494933994546901
20
1.7741961567596958
30
-6.769791402963996e-13
11
5.356505312684699
21
2.200646497672079
31
9.003319908463523e-14
  0
LINE
 8
Grouper#3
10
5.599469326048599
20
1.3381975814246643
30
9.473516186695881e-13
11
5.494933994546901
21
1.7741961567596958
31
-6.769791402963996e-13
  0
LINE
 8
Grouper#3
10
5.669466521899035
20
0.8953400582871559
30
4.500374497476372e-14
11
5.599469326048599
21
1.3381975814246643
31
9.473516186695881e-13
  0
LINE
 8
Grouper#3
10
5.70449383178305
20
0.44835518070327607
30
1.3529515347475663e-13
11
5.669466521899035
21
0.8953400582871559
31
4.500374497476372e-14
  0
LINE
 8
Grouper#3
10
5.704335203444655
20
-2.8199664825478975e-15
30
0.0
11
5.70449383178305
21
0.44835518070327607
31
1.3529515347475663e-13
  0
LINE
 8
Grouper#3
10
5.668991615320719
20
-0.44695998031701334
30
1.3543199542199147e-13
11
5.704335203444655
21
-2.8199664825478975e-15
31
0.0
  0
LINE
 8
Grouper#3
10
5.598681070505422
20
-0.8897678624896606
30
1.3551551225475662e-13
11
5.668991615320719
21
-0.44695998031701334
31
1.3543199542199147e-13
  0
LINE
 8
Grouper#3
10
5.493837252084843
20
-1.3256923593528072
30
3.160862814027543e-13
11
5.598681070505422
21
-0.8897678624896606
31
1.3551551225475662e-13
  0
LINE
 8
Grouper#3
10
5.355106848130647
20
-1.7520446412102784
30
4.5471237669966584e-14
11
5.493837252084843
21
-1.3256923593528072
31
3.160862814027543e-13
  0
LINE
 8
Grouper#3
10
5.183345562859032
20
-2.166194920829019
30
1.8093956421625796e-13
11
5.355106848130647
21
-1.7520446412102784
31
4.5471237669966584e-14
  0
LINE
 8
Grouper#3
10
4.979612838553699
20
-2.5655886742522203
30
8.578489741105255e-13
11
5.183345562859032
21
-2.166194920829019
31
1.8093956421625796e-13
  0
LINE
 8
Grouper#3
10
4.745165320811041
20
-2.9477623973818012
30
1.3606180289026088e-13
11
4.979612838553699
21
-2.5655886742522203
31
8.578489741105255e-13
  0
LINE
 8
Grouper#3
10
4.481449107412616
20
-3.3103588011382334
30
-4.428577582867958e-14
11
4.745165320811041
21
-2.9477623973818012
31
1.3606180289026088e-13
  0
LINE
 8
Grouper#3
10
4.190090828637061
20
-3.6511413514769084
30
9.120811579232643e-14
11
4.481449107412616
21
-3.3103588011382334
31
-4.428577582867958e-14
  0
LINE
 8
Grouper#3
10
3.872887614028339
20
-3.968008064573029
30
1.8158693220558514e-13
11
4.190090828637061
21
-3.6511413514769084
31
9.120811579232643e-14
  0
LINE
 8
Grouper#3
10
3.5317960075047337
20
-4.259004472086121
30
9.149141939840933e-14
11
3.872887614028339
21
-3.968008064573029
31
1.8158693220558514e-13
  0
LINE
 8
Grouper#3
10
3.168919899183332
20
-4.522335676533805
30
-8.884037978472706e-14
11
3.5317960075047337
21
-4.259004472086121
31
9.149141939840933e-14
  0
LINE
 8
Grouper#3
10
2.7864975483566563
20
-4.756377422414239
30
4.6665807255635364e-14
11
3.168919899183332
21
-4.522335676533805
31
-8.884037978472706e-14
  0
LINE
 8
Grouper#3
10
2.3868877776669803
20
-4.959686114790469
30
2.272922865738513e-13
11
2.7864975483566563
21
-4.756377422414239
31
4.6665807255635364e-14
  0
LINE
 8
Grouper#3
10
5.676948112366476
20
-13.677522566358137
30
-8.830302928658898e-14
11
2.3868877776669803
21
-4.959686114790469
31
2.272922865738513e-13
  0
LINE
 8
Grouper#3
10
7.877296107834287
20
-13.049905938767637
30
1.3654524739125932e-13
11
5.676948112366476
21
-13.677522566358137
31
-8.830302928658898e-14
  0
LINE
 8
Grouper#3
10
12.2117002631068
20
-15.840851114151242
30
1.0380265983773728e-12
11
7.877296107834287
21
-13.049905938767637
31
1.3654524739125932e-13
  0
LINE
 8
Grouper#3
10
16.03544280416695
20
-12.316154661405122
30
4.375367279914011e-14
11
12.2117002631068
21
-15.840851114151242
31
1.0380265983773728e-12
  0
LINE
 8
Grouper#3
10
13.301048438294467
20
-7.897116238735473
30
1.3419071024511167e-13
11
16.03544280416695
21
-12.316154661405122
31
4.375367279914011e-14
  0
LINE
 8
Grouper#3
10
14.957711073580782
20
-3.591336267339002
30
8.796703830679175e-14
11
13.301048438294467
21
-7.897116238735473
31
1.3419071024511167e-13
  0
LINE
 8
Grouper#3
10
19.996093903610205
20
-2.4999459561766866
30
-4.905779106340806e-14
11
14.957711073580782
21
-3.591336267339002
31
8.796703830679175e-14
  0
LINE
 8
Grouper#3
10
20.207551420544604
20
2.6961850874792175
30
8.550478665781003e-14
11
19.996093903610205
21
-2.4999459561766866
31
-4.905779106340806e-14
  0
LINE
 8
Grouper#3
10
15.149310587003999
20
3.8874083239260617
30
-6.801754025061999e-13
11
20.207551420544604
21
2.6961850874792175
31
8.550478665781003e-14
  0
LINE
 8
Grouper#3
10
13.276101754481946
20
8.10349192354713
30
1.3194311379868946e-13
11
15.149310587003999
21
3.8874083239260617
31
-6.801754025061999e-13
  0
LINE
 8
Grouper#3
10
16.06704692986537
20
12.437896078819012
30
1.3049433771343344e-13
11
13.276101754481946
21
8.10349192354713
31
1.3194311379868946e-13
  0
LINE
 8
Grouper#3
10
12.542350477119161
20
16.261638619879253
30
1.3101361127331037e-13
11
16.06704692986537
21
12.437896078819012
31
1.3049433771343344e-13
  0
LINE
 8
Grouper#3
10
8.123312054449059
20
13.527244254006769
30
-8.147830669679156e-13
11
12.542350477119161
21
16.261638619879253
31
1.3101361127331037e-13
  0
LINE
 8
Grouper#3
10
3.8175320830524995
20
15.183906889293084
30
1.7890432774283312e-13
11
8.123312054449059
21
13.527244254006769
31
-8.147830669679156e-13
  0
LINE
 8
Grouper#3
10
2.726141771890364
20
20.222289719322685
30
4.3163495999823646e-14
11
3.8175320830524995
21
15.183906889293084
31
1.7890432774283312e-13
  0
LINE
 8
Grouper#3
10
70.32380368875607
20
-1.0440664482635427
30
-6.509253633170464e-13
11
60.632636301480154
21
-1.0440664482635427
31
-4.675380317809702e-13
  0
LINE
 8
Grouper#3
10
70.32380368875607
20
2.2172059421008044
30
-6.965044626586415e-13
11
70.32380368875607
21
-1.0440664482635427
31
-6.509253633170464e-13
  0
LINE
 8
Grouper#3
10
70.11765791976293
20
5.392777282434393
30
-8.773679857064376e-13
11
70.32380368875607
21
2.2172059421008044
31
-6.965044626586415e-13
  0
LINE
 8
Grouper#3
10
69.49922061278352
20
7.766927992749391
30
-6.519196071102071e-13
11
70.11765791976293
21
5.392777282434393
31
-8.773679857064376e-13
  0
LINE
 8
Grouper#3
10
68.36889325021399
20
9.545803842039117
30
-1.057906144710435e-12
11
69.49922061278352
21
7.766927992749391
31
-6.519196071102071e-13
  0
LINE
 8
Grouper#3
10
66.62707731445121
20
10.935550599296619
30
-6.966233754262221e-13
11
68.36889325021399
21
9.545803842039117
31
-1.057906144710435e-12
  0
LINE
 8
Grouper#3
10
64.3038839852358
20
11.831937257727752
30
-7.411717058995098e-13
11
66.62707731445121
21
10.935550599296619
31
-6.966233754262221e-13
  0
LINE
 8
Grouper#3
10
61.42942444230799
20
12.13073281053819
30
-5.147535302208181e-13
11
64.3038839852358
21
11.831937257727752
31
-7.411717058995098e-13
  0
LINE
 8
Grouper#3
10
59.00200010629807
20
11.88289463882725
30
-6.944676954817956e-13
11
61.42942444230799
21
12.13073281053819
31
-5.147535302208181e-13
  0
LINE
 8
Grouper#3
10
56.871055078503076
20
11.139380123694425
30
-7.388426190352211e-13
11
59.00200010629807
21
11.88289463882725
31
-6.944676954817956e-13
  0
LINE
 8
Grouper#3
10
55.16629905626708
20
9.930300444880313
30
-6.479214860460062e-13
11
56.871055078503076
21
11.139380123694425
31
-7.388426190352211e-13
  0
LINE
 8
Grouper#3
10
54.01744173693416
20
8.285766782125508
30
-6.47344800282894e-13
11
55.16629905626708
21
9.930300444880313
31
-6.479214860460062e-13
  0
LINE
 8
Grouper#3
10
53.36426076102312
20
6.083018171872297
30
-7.370771801991129e-13
11
54.01744173693416
21
8.285766782125508
31
-6.47344800282894e-13
  0
LINE
 8
Grouper#3
10
53.14653376905277
20
3.199293650562876
30
-1.9517182471562938e-13
11
53.36426076102312
21
6.083018171872297
31
-7.370771801991129e-13
  0
LINE
 8
Grouper#3
10
53.14653376905277
20
-3.9717996168860092
30
-5.551168584291425e-13
11
53.14653376905277
21
3.199293650562876
31
-1.9517182471562938e-13
  0
LINE
 8
Grouper#3
10
53.24381604206074
20
-6.38764272991872
30
-6.450445089774358e-13
11
53.14653376905277
21
-3.9717996168860092
31
-5.551168584291425e-13
  0
LINE
 8
Grouper#3
10
53.535662861085
20
-8.150304867040392
30
-6.448837018418388e-13
11
53.24381604206074
21
-6.38764272991872
31
-6.450445089774358e-13
  0
LINE
 8
Grouper#3
10
54.07998034101087
20
-9.526154156725443
30
-5.094948165801711e-13
11
53.535662861085
21
-8.150304867040392
31
-6.448837018418388e-13
  0
LINE
 8
Grouper#3
10
54.93467459672438
20
-10.781558727448115
30
-6.449328699579167e-13
11
54.07998034101087
21
-9.526154156725443
31
-5.094948165801711e-13
  0
LINE
 8
Grouper#3
10
56.14607052013364
20
-11.849347485940944
30
-6.451460630472121e-13
11
54.93467459672438
21
-10.781558727448115
31
-6.449328699579167e-13
  0
LINE
 8
Grouper#3
10
57.76049300314785
20
-12.662349338936652
30
-7.808745527316893e-13
11
56.14607052013364
21
-11.849347485940944
31
-6.451460630472121e-13
  0
LINE
 8
Grouper#3
10
59.7154034416903
20
-13.176555639121922
30
-6.911500564110838e-13
11
57.76049300314785
21
-12.662349338936652
31
-7.808745527316893e-13
  0
LINE
 8
Grouper#3
10
61.948263231683924
20
-13.347957739183709
30
-6.466767835758597e-13
11
59.7154034416903
21
-13.176555639121922
31
-6.911500564110838e-13
  0
LINE
 8
Grouper#3
10
64.1880717554641
20
-13.174239394526499
30
-4.668958461404252e-13
11
61.948263231683924
21
-13.347957739183709
31
-6.466767835758597e-13
  0
LINE
 8
Grouper#3
10
66.01558874125762
20
-12.653084360554958
30
-7.382347348492259e-13
11
64.1880717554641
21
-13.174239394526499
31
-4.668958461404252e-13
  0
LINE
 8
Grouper#3
10
67.49566903773709
20
-11.784492637268997
30
-6.485625734135262e-13
11
66.01558874125762
21
-12.653084360554958
31
-7.382347348492259e-13
  0
LINE
 8
Grouper#3
10
68.693167493574
20
-10.568464224668615
30
-7.844518608883468e-13
11
67.49566903773709
21
-11.784492637268997
31
-6.485625734135262e-13
  0
LINE
 8
Grouper#3
10
69.5571267276692
20
-9.220409870128734
30
-4.690649836117203e-13
11
68.693167493574
21
-10.568464224668615
31
-7.844518608883468e-13
  0
LINE
 8
Grouper#3
10
70.03658935892284
20
-7.955740321024369
30
-1.0559401953561656e-12
11
69.5571267276692
21
-9.220409870128734
31
-4.690649836117203e-13
  0
LINE
 8
Grouper#3
10
70.32380368875607
20
-4.453578492735261
30
-7.406837626095309e-13
11
70.03658935892284
21
-7.955740321024369
31
-1.0559401953561656e-12
  0
LINE
 8
Grouper#3
10
70.32380368875607
20
-2.63764272991876
30
-7.409396960802197e-13
11
70.32380368875607
21
-4.453578492735261
31
-7.406837626095309e-13
  0
LINE
 8
Grouper#3
10
63.22683024836092
20
-2.63764272991876
30
-6.034506556672455e-13
11
70.32380368875607
21
-2.63764272991876
31
-7.409396960802197e-13
  0
LINE
 8
Grouper#3
10
63.22683024836092
20
-5.880385163519719
30
-4.225157767293786e-13
11
63.22683024836092
21
-2.63764272991876
31
-6.034506556672455e-13
  0
LINE
 8
Grouper#3
10
62.939615918527686
20
-8.354134391438196
30
-6.476782239490033e-13
11
63.22683024836092
21
-5.880385163519719
31
-4.225157767293786e-13
  0
LINE
 8
Grouper#3
10
62.51111066837354
20
-8.833597022692025
30
-6.474820040803365e-13
11
62.939615918527686
21
-8.354134391438196
31
-6.476782239490033e-13
  0
LINE
 8
Grouper#3
10
61.80002357757646
20
-8.993417899776695
30
-4.216486785654849e-13
11
62.51111066837354
21
-8.833597022692025
31
-6.474820040803365e-13
  0
LINE
 8
Grouper#3
10
61.22559491791
20
-8.872973180814315
30
-1.9589588050174284e-13
11
61.80002357757646
21
-8.993417899776695
31
-4.216486785654849e-13
  0
LINE
 8
Grouper#3
10
60.87352573940491
20
-8.511639023927353
30
-6.470357452423387e-13
11
61.22559491791
21
-8.872973180814315
31
-1.9589588050174284e-13
  0
LINE
 8
Grouper#3
10
60.632636301480154
20
-6.362164039369062
30
-7.375052946556942e-13
11
60.87352573940491
21
-8.511639023927353
31
-6.470357452423387e-13
  0
LINE
 8
Grouper#3
10
60.632636301480154
20
-1.0440664482635427
30
-4.675380317809702e-13
11
60.632636301480154
21
-6.362164039369062
31
-7.375052946556942e-13
  0
LINE
 8
Grouper#3
10
62.81917119956549
20
2.9584042126391976
30
-7.845948163273726e-13
11
62.81917119956549
21
4.755810018692311
31
-8.299676019528001e-13
  0
LINE
 8
Grouper#3
10
60.63263630148033
20
2.9584042126391976
30
-8.290578398090276e-13
11
62.81917119956549
21
2.9584042126391976
31
-7.845948163273726e-13
  0
LINE
 8
Grouper#3
10
60.63263630148033
20
4.755810018692311
30
-9.195500891552214e-13
11
60.63263630148033
21
2.9584042126391976
31
-8.290578398090276e-13
  0
LINE
 8
Grouper#3
10
60.81793586911493
20
7.303679073664519
30
-6.492480276881341e-13
11
60.63263630148033
21
4.755810018692311
31
-9.195500891552214e-13
  0
LINE
 8
Grouper#3
10
61.15147509085663
20
7.65806449676521
30
-3.786813265155396e-13
11
60.81793586911493
21
7.303679073664519
31
-6.492480276881341e-13
  0
LINE
 8
Grouper#3
10
61.78149362081326
20
7.776192971132077
30
-1.05567907485817e-12
11
61.15147509085663
21
7.65806449676521
31
-3.786813265155396e-13
  0
LINE
 8
Grouper#3
10
62.30496489938022
20
7.637218295406309
30
-8.753387894735842e-13
11
61.78149362081326
21
7.776192971132077
31
-1.05567907485817e-12
  0
LINE
 8
Grouper#3
10
62.61534167516786
20
7.220294268229094
30
-9.204926740943699e-13
11
62.30496489938022
21
7.637218295406309
31
-8.753387894735842e-13
  0
LINE
 8
Grouper#3
10
62.81917119956549
20
4.755810018692311
30
-8.299676019528001e-13
11
62.61534167516786
21
7.220294268229094
31
-9.204926740943699e-13
  0
LINE
 8
Grouper#3
10
50.68204951951626
20
17.096761223138802
30
-8.393429712249085e-13
11
50.68204951951626
21
13.186940346054174
31
-7.936724670723531e-13
  0
LINE
 8
Grouper#3
10
42.97358750592751
20
17.096761223138802
30
-7.919092775086306e-13
11
50.68204951951626
21
17.096761223138802
31
-8.393429712249085e-13
  0
LINE
 8
Grouper#3
10
42.97358750592751
20
13.186940346054174
30
-6.108803821937761e-13
11
42.97358750592751
21
17.096761223138802
31
-7.919092775086306e-13
  0
LINE
 8
Grouper#3
10
50.68204951951626
20
13.186940346054174
30
-7.936724670723531e-13
11
42.97358750592751
21
13.186940346054174
31
-6.108803821937761e-13
  0
LINE
 8
Grouper#3
10
50.68204951951626
20
11.686013848215984
30
-1.0980173103393035e-12
11
50.68204951951626
21
-12.903238776861052
31
-9.140739073378303e-13
  0
LINE
 8
Grouper#3
10
42.97358750592751
20
11.686013848215984
30
-9.60344689181493e-13
11
50.68204951951626
21
11.686013848215984
31
-1.0980173103393035e-12
  0
LINE
 8
Grouper#3
10
42.97358750592751
20
-12.903238776861052
30
-9.11759677342319e-13
11
42.97358750592751
21
11.686013848215984
31
-9.60344689181493e-13
  0
LINE
 8
Grouper#3
10
50.68204951951626
20
-12.903238776861052
30
-9.140739073378303e-13
11
42.97358750592751
21
-12.903238776861052
31
-9.11759677342319e-13
  0
LINE
 8
Grouper#3
10
-17.324196352155194
20
10.325348155166122
30
-1.0774087458019738e-12
11
-18.878069803913437
21
4.526213484672181
31
-1.3017222457995852e-12
  0
LINE
 8
Grouper#3
10
-33.790875046150404
20
14.737581413244847
30
-9.377285870947498e-13
11
-17.324196352155194
21
10.325348155166122
31
-1.0774087458019738e-12
  0
LINE
 8
Grouper#3
10
-35.344748497908654
20
8.938446742750816
30
-7.559669136054643e-13
11
-33.790875046150404
21
14.737581413244847
31
-9.377285870947498e-13
  0
LINE
 8
Grouper#3
10
-30.888006112251254
20
7.74426621964049
30
-1.4790480289189068e-12
11
-35.344748497908654
21
8.938446742750816
31
-7.559669136054643e-13
  0
LINE
 8
Grouper#3
10
-37.09870401356867
20
-15.434373898537167
30
-9.776026159687014e-13
11
-30.888006112251254
21
7.74426621964049
31
-1.4790480289189068e-12
  0
LINE
 8
Grouper#3
10
-29.563408654686178
20
-17.453450204680134
30
-1.1149386855401455e-12
11
-37.09870401356867
21
-15.434373898537167
31
-9.776026159687014e-13
  0
LINE
 8
Grouper#3
10
-23.35271075336876
20
5.725189913497975
30
-1.1200699975619208e-12
11
-29.563408654686178
21
-17.453450204680134
31
-1.1149386855401455e-12
  0
LINE
 8
Grouper#3
10
-18.878069803913437
20
4.526213484672181
30
-1.3017222457995852e-12
11
-23.35271075336876
21
5.725189913497975
31
-1.1200699975619208e-12
  0
LINE
 8
Grouper#3
10
-39.47082262378233
20
7.7860138482158785
30
-9.80163083601596e-13
11
-39.47082262378233
21
-16.803238776861157
31
-6.157418257170573e-13
  0
LINE
 8
Grouper#3
10
-47.17928463737072
20
7.7860138482158785
30
-1.0229683173268508e-12
11
-39.47082262378233
21
7.7860138482158785
31
-9.80163083601596e-13
  0
LINE
 8
Grouper#3
10
-47.17928463737072
20
-16.803238776861157
30
-5.231886682800133e-13
11
-47.17928463737072
21
7.7860138482158785
31
-1.0229683173268508e-12
  0
LINE
 8
Grouper#3
10
-39.47082262378233
20
-16.803238776861157
30
-6.157418257170573e-13
11
-47.17928463737072
21
-16.803238776861157
31
-5.231886682800133e-13
  0
LINE
 8
Grouper#3
10
-39.47082262378233
20
13.196761223138607
30
-7.666082082079671e-13
11
-39.47082262378233
21
9.286940346053978
31
-8.111766314969445e-13
  0
LINE
 8
Grouper#3
10
-47.17928463737072
20
13.196761223138607
30
-8.09413441933222e-13
11
-39.47082262378233
21
13.196761223138607
31
-7.666082082079671e-13
  0
LINE
 8
Grouper#3
10
-47.17928463737072
20
9.286940346053978
30
-8.539818652221994e-13
11
-47.17928463737072
21
13.196761223138607
31
-8.09413441933222e-13
  0
LINE
 8
Grouper#3
10
-39.47082262378233
20
9.286940346053978
30
-8.111766314969445e-13
11
-47.17928463737072
21
9.286940346053978
31
-8.539818652221994e-13
  0
LINE
 8
Grouper#3
10
40.1107091859769
20
-10.244189981308338
30
-9.676742750492079e-13
11
39.50385310197469
21
-11.518124508794397
31
-8.319541487409048e-13
  0
LINE
 8
Grouper#3
10
40.40950473878734
20
-8.3425531684609
30
-8.777930637988314e-13
11
40.1107091859769
21
-10.244189981308338
31
-9.676742750492079e-13
  0
LINE
 8
Grouper#3
10
40.509103256390816
20
-5.4727261147240185
30
-8.331079677757609e-13
11
40.40950473878734
21
-8.3425531684609
31
-8.777930637988314e-13
  0
LINE
 8
Grouper#3
10
40.509103256390816
20
4.8855197160355734
30
-6.540899783020322e-13
11
40.509103256390816
21
-5.4727261147240185
31
-8.331079677757609e-13
  0
LINE
 8
Grouper#3
10
40.19409399141251
20
9.036230031044783
30
-8.801777157971547e-13
11
40.509103256390816
21
4.8855197160355734
31
-6.540899783020322e-13
  0
LINE
 8
Grouper#3
10
39.64051153310495
20
10.187403594973128
30
-8.801737631320037e-13
11
40.19409399141251
21
9.036230031044783
31
-8.801777157971547e-13
  0
LINE
 8
Grouper#3
10
38.60978268813889
20
11.194969993984948
30
-9.251257859394053e-13
11
39.64051153310495
21
10.187403594973128
31
-8.801737631320037e-13
  0
LINE
 8
Grouper#3
10
37.22235217547672
20
11.89679210639997
30
-6.089719193734022e-13
11
38.60978268813889
21
11.194969993984948
31
-9.251257859394053e-13
  0
LINE
 8
Grouper#3
10
35.59866471408082
20
12.13073281053837
30
-8.341147464902614e-13
11
37.22235217547672
21
11.89679210639997
31
-6.089719193734022e-13
  0
LINE
 8
Grouper#3
10
34.22744791358652
20
11.968306158283884
30
-7.885607248483727e-13
11
35.59866471408082
21
12.13073281053837
31
-8.341147464902614e-13
  0
LINE
 8
Grouper#3
10
32.96741085367328
20
11.481026201520422
30
-9.23472152389874e-13
11
34.22744791358652
21
11.968306158283884
31
-7.885607248483727e-13
  0
LINE
 8
Grouper#3
10
31.81392104514933
20
10.664260451057139
30
-6.974134208108434e-13
11
32.96741085367328
21
11.481026201520422
31
-9.23472152389874e-13
  0
LINE
 8
Grouper#3
10
30.762345998824372
20
9.51337641770328
30
-6.969355148265184e-13
11
31.81392104514933
21
10.664260451057139
31
-6.974134208108434e-13
  0
LINE
 8
Grouper#3
10
30.892055696168445
20
11.686013848215893
30
-8.326390534756512e-13
11
30.762345998824372
21
9.51337641770328
31
-6.969355148265184e-13
  0
LINE
 8
Grouper#3
10
23.276243466396995
20
11.686013848215893
30
-8.303526387445088e-13
11
30.892055696168445
21
11.686013848215893
31
-8.326390534756512e-13
  0
LINE
 8
Grouper#3
10
23.276243466396995
20
-16.40540060515016
30
-8.263935046469158e-13
11
23.276243466396995
21
11.686013848215893
31
-8.303526387445088e-13
  0
LINE
 8
Grouper#3
10
30.762345998824372
20
-16.40540060515016
30
-1.054238296611773e-12
11
23.276243466396995
21
-16.40540060515016
31
-8.263935046469158e-13
  0
LINE
 8
Grouper#3
10
30.762345998824372
20
-10.767661259875302
30
-6.940771558094897e-13
11
30.762345998824372
21
-16.40540060515016
31
-1.054238296611773e-12
  0
LINE
 8
Grouper#3
10
31.79539108838594
20
-11.890750358084082
30
-6.942290106225113e-13
11
30.762345998824372
21
-10.767661259875302
31
-6.940771558094897e-13
  0
LINE
 8
Grouper#3
10
32.93035094014614
20
-12.69825113016558
30
-9.200532590640757e-13
11
31.79539108838594
21
-11.890750358084082
31
-6.942290106225113e-13
  0
LINE
 8
Grouper#3
10
34.167225554105336
20
-13.185531086929043
30
-4.691612796103622e-13
11
32.93035094014614
21
-12.69825113016558
31
-9.200532590640757e-13
  0
LINE
 8
Grouper#3
10
35.50601493026352
20
-13.34795773918353
30
-8.304960279381675e-13
11
34.167225554105336
21
-13.185531086929043
31
-4.691612796103622e-13
  0
LINE
 8
Grouper#3
10
37.12043741327773
20
-13.137179480999453
30
-6.956520243210628e-13
11
35.50601493026352
21
-13.34795773918353
31
-8.304960279381675e-13
  0
LINE
 8
Grouper#3
10
38.48007299079482
20
-12.504844706447315
30
-6.961493330163659e-13
11
37.12043741327773
21
-13.137179480999453
31
-6.956520243210628e-13
  0
LINE
 8
Grouper#3
10
39.50385310197469
20
-11.518124508794397
30
-8.319541487409048e-13
11
38.48007299079482
21
-12.504844706447315
31
-6.961493330163659e-13
  0
LINE
 8
Grouper#3
10
32.541221848114276
20
6.555748252169766
30
-7.760117886548878e-13
11
31.929733274920682
21
6.676192971132057
31
-9.11203574251529e-13
  0
LINE
 8
Grouper#3
10
32.85623111309223
20
6.194414095282534
30
-2.797413340877779e-13
11
32.541221848114276
21
6.555748252169766
31
-7.760117886548878e-13
  0
LINE
 8
Grouper#3
10
32.99952159658952
20
3.8184044546608162
30
-9.11121975874087e-13
11
32.85623111309223
21
6.194414095282534
31
-2.797413340877779e-13
  0
LINE
 8
Grouper#3
10
32.99865834875561
20
-5.255029882809907
30
-5.488872196717537e-13
11
32.99952159658952
21
3.8184044546608162
31
-9.11121975874087e-13
  0
LINE
 8
Grouper#3
10
32.846966134710534
20
-7.383844088781889
30
-2.778248666181966e-13
11
32.99865834875561
21
-5.255029882809907
31
-5.488872196717537e-13
  0
LINE
 8
Grouper#3
10
32.53427311432774
20
-7.766024447027211
30
-6.837523000385321e-13
11
32.846966134710534
21
-7.383844088781889
31
-2.778248666181966e-13
  0
LINE
 8
Grouper#3
10
31.94826323168443
20
-7.893417899775861
30
-8.189168051372579e-13
11
32.53427311432774
21
-7.766024447027211
31
-6.837523000385321e-13
  0
LINE
 8
Grouper#3
10
31.33677465849083
20
-7.754443224050093
30
-8.638722748583937e-13
11
31.94826323168443
21
-7.893417899775861
31
-8.189168051372579e-13
  0
LINE
 8
Grouper#3
10
30.984705479985745
20
-7.337519196872969
30
-8.638253370894082e-13
11
31.33677465849083
21
-7.754443224050093
31
-8.638722748583937e-13
  0
LINE
 8
Grouper#3
10
30.793357507171027
20
-4.948576576741489
30
-6.836267274611603e-13
11
30.984705479985745
21
-7.337519196872969
31
-8.638253370894082e-13
  0
LINE
 8
Grouper#3
10
30.79251019819953
20
3.81094748179149
30
-1.0006972646662483e-12
11
30.793357507171027
21
-4.948576576741489
31
-6.836267274611603e-13
  0
LINE
 8
Grouper#3
10
30.97544050160369
20
6.120294268228983
30
-8.657192663269374e-13
11
30.79251019819953
21
3.81094748179149
31
-1.0006972646662483e-12
  0
LINE
 8
Grouper#3
10
31.32056094632296
20
6.537218295406288
30
-1.0914789570261617e-12
11
30.97544050160369
21
6.120294268228983
31
-8.657192663269374e-13
  0
LINE
 8
Grouper#3
10
31.929733274920682
20
6.676192971132057
30
-9.11203574251529e-13
11
31.32056094632296
21
6.537218295406288
31
-1.0914789570261617e-12
 0
ENDSEC
 0
EOF
