  0
SECTION
  2
HEADER
  9
$ACADVER
  1
AC1015
  9
$ACADMAINTVER
 70
     6
  9
$DWGCODEPAGE
  3
ANSI_1252
  9
$INSBASE
 10
0.0
 20
0.0
 30
0.0
  9
$EXTMIN
 10
-344.8558966685
 20
-343.8200189928
 30
0.0
  9
$EXTMAX
 10
458.7332232532
 20
192.0997783471
 30
0.0
  9
$LIMMIN
 10
0.0
 20
0.0
  9
$LIMMAX
 10
420.0
 20
297.0
  9
$ORTHOMODE
 70
     0
  9
$REGENMODE
 70
     1
  9
$FILLMODE
 70
     1
  9
$QTEXTMODE
 70
     0
  9
$MIRRTEXT
 70
     1
  9
$LTSCALE
 40
1.0
  9
$ATTMODE
 70
     1
  9
$TEXTSIZE
 40
3.5
  9
$TRACEWID
 40
1.0
  9
$TEXTSTYLE
  7
Standard
  9
$CLAYER
  8
0
  9
$CELTYPE
  6
ByLayer
  9
$CECOLOR
 62
   256
  9
$CELTSCALE
 40
1.0
  9
$DISPSILH
 70
     0
  9
$DIMSCALE
 40
1.0
  9
$DIMASZ
 40
3.302
  9
$DIMEXO
 40
1.0
  9
$DIMDLI
 40
3.75
  9
$DIMRND
 40
0.0
  9
$DIMDLE
 40
0.0
  9
$DIMEXE
 40
1.0
  9
$DIMTP
 40
0.0
  9
$DIMTM
 40
0.0
  9
$DIMTXT
 40
3.5
  9
$DIMCEN
 40
2.5
  9
$DIMTSZ
 40
0.0
  9
$DIMTOL
 70
     0
  9
$DIMLIM
 70
     0
  9
$DIMTIH
 70
     1
  9
$DIMTOH
 70
     1
  9
$DIMSE1
 70
     0
  9
$DIMSE2
 70
     0
  9
$DIMTAD
 70
     1
  9
$DIMZIN
 70
     0
  9
$DIMBLK
  1

  9
$DIMASO
 70
     1
  9
$DIMSHO
 70
     1
  9
$DIMPOST
  1

  9
$DIMAPOST
  1

  9
$DIMALT
 70
     0
  9
$DIMALTD
 70
     3
  9
$DIMALTF
 40
0.0393700787
  9
$DIMLFAC
 40
1.0
  9
$DIMTOFL
 70
     1
  9
$DIMTVP
 40
0.0
  9
$DIMTIX
 70
     0
  9
$DIMSOXD
 70
     0
  9
$DIMSAH
 70
     0
  9
$DIMBLK1
  1

  9
$DIMBLK2
  1

  9
$DIMSTYLE
  2
ISO-25
  9
$DIMCLRD
 70
     0
  9
$DIMCLRE
 70
     0
  9
$DIMCLRT
 70
     0
  9
$DIMTFAC
 40
1.0
  9
$DIMGAP
 40
1.524
  9
$DIMJUST
 70
     0
  9
$DIMSD1
 70
     0
  9
$DIMSD2
 70
     0
  9
$DIMTOLJ
 70
     0
  9
$DIMTZIN
 70
     0
  9
$DIMALTZ
 70
     0
  9
$DIMALTTZ
 70
     0
  9
$DIMUPT
 70
     0
  9
$DIMDEC
 70
     2
  9
$DIMTDEC
 70
     2
  9
$DIMALTU
 70
     2
  9
$DIMALTTD
 70
     3
  9
$DIMTXSTY
  7
Standard
  9
$DIMAUNIT
 70
     0
  9
$DIMADEC
 70
     2
  9
$DIMALTRND
 40
0.0
  9
$DIMAZIN
 70
     0
  9
$DIMDSEP
 70
    44
  9
$DIMATFIT
 70
     3
  9
$DIMFRAC
 70
     0
  9
$DIMLDRBLK
  1

  9
$DIMLUNIT
 70
     2
  9
$DIMLWD
 70
    -2
  9
$DIMLWE
 70
    -2
  9
$DIMTMOVE
 70
     0
  9
$LUNITS
 70
     2
  9
$LUPREC
 70
     2
  9
$SKETCHINC
 40
1.0
  9
$FILLETRAD
 40
10.0
  9
$AUNITS
 70
     0
  9
$AUPREC
 70
     2
  9
$MENU
  1
.
  9
$ELEVATION
 40
0.0
  9
$PELEVATION
 40
0.0
  9
$THICKNESS
 40
0.0
  9
$LIMCHECK
 70
     0
  9
$CHAMFERA
 40
10.0
  9
$CHAMFERB
 40
10.0
  9
$CHAMFERC
 40
20.0
  9
$CHAMFERD
 40
0.0
  9
$SKPOLY
 70
     0
  9
$TDCREATE
 40
2457102.451665845
  9
$TDUCREATE
 40
2457102.409999178
  9
$TDUPDATE
 40
2457102.451912639
  9
$TDUUPDATE
 40
2457102.410245972
  9
$TDINDWG
 40
0.0000000116
  9
$TDUSRTIMER
 40
0.0000000116
  9
$USRTIMER
 70
     1
  9
$ANGBASE
 50
0.0
  9
$ANGDIR
 70
     0
  9
$PDMODE
 70
     0
  9
$PDSIZE
 40
-1.0
  9
$PLINEWID
 40
0.0
  9
$SPLFRAME
 70
     0
  9
$SPLINETYPE
 70
     6
  9
$SPLINESEGS
 70
     8
  9
$HANDSEED
  5
24D
  9
$SURFTAB1
 70
     6
  9
$SURFTAB2
 70
     6
  9
$SURFTYPE
 70
     6
  9
$SURFU
 70
     6
  9
$SURFV
 70
     6
  9
$UCSBASE
  2

  9
$UCSNAME
  2

  9
$UCSORG
 10
0.0
 20
0.0
 30
0.0
  9
$UCSXDIR
 10
1.0
 20
0.0
 30
0.0
  9
$UCSYDIR
 10
0.0
 20
1.0
 30
0.0
  9
$UCSORTHOREF
  2

  9
$UCSORTHOVIEW
 70
     0
  9
$UCSORGTOP
 10
0.0
 20
0.0
 30
0.0
  9
$UCSORGBOTTOM
 10
0.0
 20
0.0
 30
0.0
  9
$UCSORGLEFT
 10
0.0
 20
0.0
 30
0.0
  9
$UCSORGRIGHT
 10
0.0
 20
0.0
 30
0.0
  9
$UCSORGFRONT
 10
0.0
 20
0.0
 30
0.0
  9
$UCSORGBACK
 10
0.0
 20
0.0
 30
0.0
  9
$PUCSBASE
  2

  9
$PUCSNAME
  2

  9
$PUCSORG
 10
0.0
 20
0.0
 30
0.0
  9
$PUCSXDIR
 10
1.0
 20
0.0
 30
0.0
  9
$PUCSYDIR
 10
0.0
 20
1.0
 30
0.0
  9
$PUCSORTHOREF
  2

  9
$PUCSORTHOVIEW
 70
     0
  9
$PUCSORGTOP
 10
0.0
 20
0.0
 30
0.0
  9
$PUCSORGBOTTOM
 10
0.0
 20
0.0
 30
0.0
  9
$PUCSORGLEFT
 10
0.0
 20
0.0
 30
0.0
  9
$PUCSORGRIGHT
 10
0.0
 20
0.0
 30
0.0
  9
$PUCSORGFRONT
 10
0.0
 20
0.0
 30
0.0
  9
$PUCSORGBACK
 10
0.0
 20
0.0
 30
0.0
  9
$USERI1
 70
     0
  9
$USERI2
 70
     0
  9
$USERI3
 70
     0
  9
$USERI4
 70
     0
  9
$USERI5
 70
     0
  9
$USERR1
 40
0.0
  9
$USERR2
 40
0.0
  9
$USERR3
 40
0.0
  9
$USERR4
 40
0.0
  9
$USERR5
 40
0.0
  9
$WORLDVIEW
 70
     1
  9
$SHADEDGE
 70
     3
  9
$SHADEDIF
 70
    70
  9
$TILEMODE
 70
     1
  9
$MAXACTVP
 70
    64
  9
$PINSBASE
 10
0.0
 20
0.0
 30
0.0
  9
$PLIMCHECK
 70
     0
  9
$PEXTMIN
 10
1.0000000000E+20
 20
1.0000000000E+20
 30
1.0000000000E+20
  9
$PEXTMAX
 10
-1.0000000000E+20
 20
-1.0000000000E+20
 30
-1.0000000000E+20
  9
$PLIMMIN
 10
0.0
 20
0.0
  9
$PLIMMAX
 10
420.0
 20
297.0
  9
$UNITMODE
 70
     0
  9
$VISRETAIN
 70
     1
  9
$PLINEGEN
 70
     0
  9
$PSLTSCALE
 70
     1
  9
$TREEDEPTH
 70
  3020
  9
$CMLSTYLE
  2
Standard
  9
$CMLJUST
 70
     0
  9
$CMLSCALE
 40
20.0
  9
$PROXYGRAPHICS
 70
     1
  9
$MEASUREMENT
 70
     1
  9
$CELWEIGHT
370
    -1
  9
$ENDCAPS
280
     0
  9
$JOINSTYLE
280
     0
  9
$LWDISPLAY
290
     1
  9
$INSUNITS
 70
     4
  9
$HYPERLINKBASE
  1

  9
$STYLESHEET
  1

  9
$XEDIT
290
     1
  9
$CEPSNTYPE
380
     0
  9
$PSTYLEMODE
290
     1
  9
$FINGERPRINTGUID
  2
{EA6AED64-A7F5-4910-BFB6-7C7596DFE629}
  9
$VERSIONGUID
  2
{FAEB1C32-E019-11D5-929B-00C0DF256EC4}
  9
$EXTNAMES
290
     1
  9
$PSVPSCALE
 40
0.0
  9
$OLESTARTUP
290
     0
  0
ENDSEC
  0
SECTION
  2
CLASSES
  0
CLASS
  1
ACDBDICTIONARYWDFLT
  2
AcDbDictionaryWithDefault
  3
ObjectDBX Classes
 90
        0
280
     0
281
     0
  0
CLASS
  1
VISUALSTYLE
  2
AcDbVisualStyle
  3
ObjectDBX Classes
 90
     4095
280
     0
281
     0
  0
CLASS
  1
MATERIAL
  2
AcDbMaterial
  3
ObjectDBX Classes
 90
     1153
280
     0
281
     0
  0
CLASS
  1
SCALE
  2
AcDbScale
  3
ObjectDBX Classes
 90
     1153
280
     0
281
     0
  0
CLASS
  1
DICTIONARYVAR
  2
AcDbDictionaryVar
  3
ObjectDBX Classes
 90
        0
280
     0
281
     0
  0
CLASS
  1
ACDBPLACEHOLDER
  2
AcDbPlaceHolder
  3
ObjectDBX Classes
 90
        0
280
     0
281
     0
  0
CLASS
  1
LAYOUT
  2
AcDbLayout
  3
ObjectDBX Classes
 90
        0
280
     0
281
     0
  0
ENDSEC
  0
SECTION
  2
TABLES
  0
TABLE
  2
VPORT
  5
8
330
0
100
AcDbSymbolTable
 70
     1
  0
VPORT
  5
29
330
8
100
AcDbSymbolTableRecord
100
AcDbViewportTableRecord
  2
*Active
 70
     0
 10
0.0
 20
0.0
 11
1.0
 21
1.0
 12
56.9386632924
 22
-75.8601203229
 13
0.0
 23
0.0
 14
10.0
 24
10.0
 15
10.0
 25
10.0
 16
0.0
 26
0.0
 36
1.0
 17
0.0
 27
0.0
 37
0.0
 40
546.6381932867
 41
1.4994577993
 42
50.0
 43
0.0
 44
0.0
 50
0.0
 51
0.0
 71
     0
 72
   100
 73
     1
 74
     3
 75
     0
 76
     0
 77
     0
 78
     0
281
     0
 65
     1
110
0.0
120
0.0
130
0.0
111
1.0
121
0.0
131
0.0
112
0.0
122
1.0
132
0.0
 79
     0
146
0.0
  0
ENDTAB
  0
TABLE
  2
LTYPE
  5
5
330
0
100
AcDbSymbolTable
 70
     6
  0
LTYPE
  5
14
330
5
100
AcDbSymbolTableRecord
100
AcDbLinetypeTableRecord
  2
ByBlock
 70
     0
  3

 72
    65
 73
     0
 40
0.0
  0
LTYPE
  5
15
330
5
100
AcDbSymbolTableRecord
100
AcDbLinetypeTableRecord
  2
ByLayer
 70
     0
  3

 72
    65
 73
     0
 40
0.0
  0
LTYPE
  5
16
330
5
100
AcDbSymbolTableRecord
100
AcDbLinetypeTableRecord
  2
Continuous
 70
     0
  3
Solid line
 72
    65
 73
     0
 40
0.0
  0
LTYPE
  5
3F
330
5
100
AcDbSymbolTableRecord
100
AcDbLinetypeTableRecord
  2
HIDDEN
 70
     0
  3
Hidden __ __ __ __ __ __ __ __ __ __ __ __ __ __
 72
    65
 73
     2
 40
1.905
 49
1.27
 74
     0
 49
-0.635
 74
     0
  0
LTYPE
  5
40
330
5
100
AcDbSymbolTableRecord
100
AcDbLinetypeTableRecord
  2
PHANTOM
 70
     0
  3
Phantom ______  __  __  ______  __  __  ______
 72
    65
 73
     6
 40
12.7
 49
6.35
 74
     0
 49
-1.27
 74
     0
 49
1.27
 74
     0
 49
-1.27
 74
     0
 49
1.27
 74
     0
 49
-1.27
 74
     0
  0
LTYPE
  5
41
330
5
100
AcDbSymbolTableRecord
100
AcDbLinetypeTableRecord
  2
CENTER
 70
     0
  3
Center ____ _ ____ _ ____ _ ____ _ ____ _ ____
 72
    65
 73
     4
 40
10.16
 49
6.35
 74
     0
 49
-1.27
 74
     0
 49
1.27
 74
     0
 49
-1.27
 74
     0
  0
LTYPE
  5
42
330
5
100
AcDbSymbolTableRecord
100
AcDbLinetypeTableRecord
  2
CENTERX2
 70
     0
  3
Center (2x) ________  __  ________  __  _____
 72
    65
 73
     4
 40
20.32
 49
12.7
 74
     0
 49
-2.54
 74
     0
 49
2.54
 74
     0
 49
-2.54
 74
     0
  0
LTYPE
  5
43
330
5
100
AcDbSymbolTableRecord
100
AcDbLinetypeTableRecord
  2
DOT2
 70
     0
  3
Dot (.5x) ........................................
 72
    65
 73
     2
 40
0.635
 49
0.0
 74
     0
 49
-0.635
 74
     0
  0
ENDTAB
  0
TABLE
  2
LAYER
  5
2
330
0
100
AcDbSymbolTable
 70
     1
  0
LAYER
  5
10
330
2
100
AcDbSymbolTableRecord
100
AcDbLayerTableRecord
  2
0
 70
     0
 62
     7
  6
Continuous
370
    -3
390
F
  0
ENDTAB
  0
TABLE
  2
STYLE
  5
3
330
0
100
AcDbSymbolTable
 70
     1
  0
STYLE
  5
11
330
3
100
AcDbSymbolTableRecord
100
AcDbTextStyleTableRecord
  2
Standard
 70
     0
 40
0.0
 41
1.0
 50
0.0
 71
     0
 42
3.5
  3
txt
  4

  0
ENDTAB
  0
TABLE
  2
VIEW
  5
6
330
0
100
AcDbSymbolTable
 70
     0
  0
ENDTAB
  0
TABLE
  2
UCS
  5
7
330
0
100
AcDbSymbolTable
 70
     0
  0
ENDTAB
  0
TABLE
  2
APPID
  5
9
330
0
100
AcDbSymbolTable
 70
     1
  0
APPID
  5
12
330
9
100
AcDbSymbolTableRecord
100
AcDbRegAppTableRecord
  2
ACAD
 70
     0
  0
ENDTAB
  0
TABLE
  2
DIMSTYLE
  5
A
330
0
100
AcDbSymbolTable
 70
     1
100
AcDbDimStyleTable
  0
DIMSTYLE
105
27
330
A
100
AcDbSymbolTableRecord
100
AcDbDimStyleTableRecord
  2
ISO-25
 70
     0
 41
2.5
 42
0.625
 43
3.75
 44
1.25
 73
     0
 74
     0
 77
     1
 78
     8
140
2.5
141
2.5
143
0.0393700787
147
0.625
171
     3
172
     1
178
     0
271
     2
272
     2
274
     3
278
    44
283
     0
284
     8
340
11
  0
ENDTAB
  0
TABLE
  2
BLOCK_RECORD
  5
1
330
0
100
AcDbSymbolTable
 70
     1
  0
BLOCK_RECORD
  5
1F
330
1
100
AcDbSymbolTableRecord
100
AcDbBlockTableRecord
  2
*Model_Space
340
22
  0
BLOCK_RECORD
  5
1B
330
1
100
AcDbSymbolTableRecord
100
AcDbBlockTableRecord
  2
*Paper_Space
340
1E
  0
BLOCK_RECORD
  5
23
330
1
100
AcDbSymbolTableRecord
100
AcDbBlockTableRecord
  2
*Paper_Space0
340
26
  0
ENDTAB
  0
ENDSEC
  0
SECTION
  2
BLOCKS
  0
BLOCK
  5
20
330
1F
100
AcDbEntity
  8
0
100
AcDbBlockBegin
  2
*Model_Space
 70
     0
 10
0.0
 20
0.0
 30
0.0
  3
*Model_Space
  1

  0
ENDBLK
  5
21
330
1F
100
AcDbEntity
  8
0
100
AcDbBlockEnd
  0
BLOCK
  5
1C
330
1B
100
AcDbEntity
 67
     1
  8
0
100
AcDbBlockBegin
  2
*Paper_Space
 70
     0
 10
0.0
 20
0.0
 30
0.0
  3
*Paper_Space
  1

  0
ENDBLK
  5
1D
330
1B
100
AcDbEntity
 67
     1
  8
0
100
AcDbBlockEnd
  0
BLOCK
  5
24
330
23
100
AcDbEntity
  8
0
100
AcDbBlockBegin
  2
*Paper_Space0
 70
     0
 10
0.0
 20
0.0
 30
0.0
  3
*Paper_Space0
  1

  0
ENDBLK
  5
25
330
23
100
AcDbEntity
  8
0
100
AcDbBlockEnd
  0
ENDSEC
  0
SECTION
  2
ENTITIES
  0
ARC
  5
44
330
1F
100
AcDbEntity
  8
0
  6
Continuous
 62
     7
100
AcDbCircle
 10
-310.0492941519
 20
121.8900924598
 30
0.0
 40
4.0
100
AcDbArc
 50
270.0
 51
0.0
  0
ARC
  5
45
330
1F
100
AcDbEntity
  8
0
  6
Continuous
 62
     7
100
AcDbCircle
 10
-318.8561962642
 20
121.8900924598
 30
0.0
 40
4.0
100
AcDbArc
 50
180.0
 51
270.0
  0
ARC
  5
46
330
1F
100
AcDbEntity
  8
0
  6
Continuous
 62
     7
100
AcDbCircle
 10
-318.8561962642
 20
134.6969401002
 30
0.0
 40
4.000000000000028
100
AcDbArc
 50
90.0
 51
180.0
  0
ARC
  5
47
330
1F
100
AcDbEntity
  8
0
  6
Continuous
 62
     7
100
AcDbCircle
 10
-310.0492941519
 20
134.6969401002
 30
0.0
 40
4.0
100
AcDbArc
 50
0.0
 51
90.0
  0
ARC
  5
48
330
1F
100
AcDbEntity
  8
0
  6
Continuous
 62
     7
100
AcDbCircle
 10
-288.0495937475
 20
177.1963613359
 30
0.0
 40
4.0
100
AcDbArc
 50
0.0
 51
90.0
  0
ARC
  5
49
330
1F
100
AcDbEntity
  8
0
  6
Continuous
 62
     7
100
AcDbCircle
 10
-288.0495937475
 20
168.3894592236
 30
0.0
 40
4.0
100
AcDbArc
 50
270.0
 51
0.0
  0
ARC
  5
4A
330
1F
100
AcDbEntity
  8
0
  6
Continuous
 62
     7
100
AcDbCircle
 10
-300.8564413878
 20
168.3894592236
 30
0.0
 40
4.000000000000028
100
AcDbArc
 50
180.0
 51
270.0
  0
ARC
  5
4B
330
1F
100
AcDbEntity
  8
0
  6
Continuous
 62
     7
100
AcDbCircle
 10
-300.8564413878
 20
177.1963613359
 30
0.0
 40
4.000000000000028
100
AcDbArc
 50
90.0
 51
180.0
  0
ARC
  5
4C
330
1F
100
AcDbEntity
  8
0
  6
Continuous
 62
     7
100
AcDbCircle
 10
11.1393098015
 20
121.8900924598
 30
0.0
 40
4.000000000000001
100
AcDbArc
 50
180.0
 51
270.0
  0
ARC
  5
4D
330
1F
100
AcDbEntity
  8
0
  6
Continuous
 62
     7
100
AcDbCircle
 10
19.9462119138
 20
121.8900924598
 30
0.0
 40
4.000000000000004
100
AcDbArc
 50
270.0
 51
0.0
  0
ARC
  5
4E
330
1F
100
AcDbEntity
  8
0
  6
Continuous
 62
     7
100
AcDbCircle
 10
19.9462119138
 20
134.6969401002
 30
0.0
 40
4.0
100
AcDbArc
 50
0.0
 51
90.0
  0
ARC
  5
4F
330
1F
100
AcDbEntity
  8
0
  6
Continuous
 62
     7
100
AcDbCircle
 10
11.1393098015
 20
134.6969401002
 30
0.0
 40
4.000000000000028
100
AcDbArc
 50
90.0
 51
180.0
  0
ARC
  5
50
330
1F
100
AcDbEntity
  8
0
  6
Continuous
 62
     7
100
AcDbCircle
 10
-10.8603906028
 20
168.3894592236
 30
0.0
 40
4.0
100
AcDbArc
 50
180.0
 51
270.0
  0
ARC
  5
51
330
1F
100
AcDbEntity
  8
0
  6
Continuous
 62
     7
100
AcDbCircle
 10
1.9464570375
 20
168.3894592236
 30
0.0
 40
4.000000000000028
100
AcDbArc
 50
270.0
 51
0.0
  0
ARC
  5
52
330
1F
100
AcDbEntity
  8
0
  6
Continuous
 62
     7
100
AcDbCircle
 10
1.9464570375
 20
177.1963613359
 30
0.0
 40
4.000000000000002
100
AcDbArc
 50
0.0
 51
90.0
  0
ARC
  5
53
330
1F
100
AcDbEntity
  8
0
  6
Continuous
 62
     7
100
AcDbCircle
 10
-10.8603906028
 20
177.1963613359
 30
0.0
 40
4.0
100
AcDbArc
 50
90.0
 51
180.0
  0
ARC
  5
54
330
1F
100
AcDbEntity
  8
0
  6
Continuous
 62
     7
100
AcDbCircle
 10
-143.051568355
 20
177.1963613359
 30
0.0
 40
4.000000000000028
100
AcDbArc
 50
0.0
 51
90.0
  0
ARC
  5
55
330
1F
100
AcDbEntity
  8
0
  6
Continuous
 62
     7
100
AcDbCircle
 10
-143.051568355
 20
168.3894592236
 30
0.0
 40
4.0
100
AcDbArc
 50
270.0
 51
0.0
  0
ARC
  5
56
330
1F
100
AcDbEntity
  8
0
  6
Continuous
 62
     7
100
AcDbCircle
 10
-155.8584159953
 20
168.3894592236
 30
0.0
 40
4.0
100
AcDbArc
 50
180.0
 51
270.0
  0
ARC
  5
57
330
1F
100
AcDbEntity
  8
0
  6
Continuous
 62
     7
100
AcDbCircle
 10
-155.8584159953
 20
177.1963613359
 30
0.0
 40
4.0
100
AcDbArc
 50
90.0
 51
180.0
  0
ARC
  5
58
330
1F
100
AcDbEntity
  8
0
  6
Continuous
 62
     7
100
AcDbCircle
 10
-10.8603906028
 20
-234.6050527294
 30
0.0
 40
4.0
100
AcDbArc
 50
180.0
 51
270.0
  0
ARC
  5
59
330
1F
100
AcDbEntity
  8
0
  6
Continuous
 62
     7
100
AcDbCircle
 10
1.9464570375
 20
-234.6050527294
 30
0.0
 40
4.0
100
AcDbArc
 50
270.0
 51
0.0
  0
ARC
  5
5A
330
1F
100
AcDbEntity
  8
0
  6
Continuous
 62
     7
100
AcDbCircle
 10
1.9464570375
 20
-225.7981506171
 30
0.0
 40
4.000000000000001
100
AcDbArc
 50
0.0
 51
90.0
  0
ARC
  5
5B
330
1F
100
AcDbEntity
  8
0
  6
Continuous
 62
     7
100
AcDbCircle
 10
-10.8603906028
 20
-225.7981506171
 30
0.0
 40
4.0
100
AcDbArc
 50
90.0
 51
180.0
  0
ARC
  5
5C
330
1F
100
AcDbEntity
  8
0
  6
Continuous
 62
     7
100
AcDbCircle
 10
-143.051568355
 20
-234.6050527294
 30
0.0
 40
4.0
100
AcDbArc
 50
270.0
 51
0.0
  0
ARC
  5
5D
330
1F
100
AcDbEntity
  8
0
  6
Continuous
 62
     7
100
AcDbCircle
 10
-143.051568355
 20
-225.7981506171
 30
0.0
 40
4.000000000000028
100
AcDbArc
 50
0.0
 51
90.0
  0
ARC
  5
5E
330
1F
100
AcDbEntity
  8
0
  6
Continuous
 62
     7
100
AcDbCircle
 10
-155.8584159953
 20
-225.7981506171
 30
0.0
 40
4.0
100
AcDbArc
 50
90.0
 51
180.0
  0
ARC
  5
5F
330
1F
100
AcDbEntity
  8
0
  6
Continuous
 62
     7
100
AcDbCircle
 10
-155.8584159953
 20
-234.6050527294
 30
0.0
 40
4.0
100
AcDbArc
 50
180.0
 51
270.0
  0
ARC
  5
60
330
1F
100
AcDbEntity
  8
0
  6
Continuous
 62
     7
100
AcDbCircle
 10
-300.8564413878
 20
-234.6050527294
 30
0.0
 40
4.0
100
AcDbArc
 50
180.0
 51
270.0
  0
ARC
  5
61
330
1F
100
AcDbEntity
  8
0
  6
Continuous
 62
     7
100
AcDbCircle
 10
-288.0495937475
 20
-234.6050527294
 30
0.0
 40
4.000000000000057
100
AcDbArc
 50
270.0
 51
0.0
  0
ARC
  5
62
330
1F
100
AcDbEntity
  8
0
  6
Continuous
 62
     7
100
AcDbCircle
 10
-288.0495937475
 20
-225.7981506171
 30
0.0
 40
4.000000000000057
100
AcDbArc
 50
0.0
 51
90.0
  0
ARC
  5
63
330
1F
100
AcDbEntity
  8
0
  6
Continuous
 62
     7
100
AcDbCircle
 10
-300.8564413878
 20
-225.7981506171
 30
0.0
 40
4.0
100
AcDbArc
 50
90.0
 51
180.0
  0
ARC
  5
64
330
1F
100
AcDbEntity
  8
0
  6
Continuous
 62
     7
100
AcDbCircle
 10
-308.4528813879
 20
41.2947560965
 30
0.0
 40
4.000000000000057
100
AcDbArc
 50
270.0
 51
0.0
  0
ARC
  5
65
330
1F
100
AcDbEntity
  8
0
  6
Continuous
 62
     7
100
AcDbCircle
 10
-308.4528813879
 20
50.1016582088
 30
0.0
 40
4.000000000000057
100
AcDbArc
 50
0.0
 51
90.0
  0
ARC
  5
66
330
1F
100
AcDbEntity
  8
0
  6
Continuous
 62
     7
100
AcDbCircle
 10
371.541532775
 20
79.3119563251
 30
0.0
 40
4.0
100
AcDbArc
 50
90.0
 51
180.0
  0
ARC
  5
67
330
1F
100
AcDbEntity
  8
0
  6
Continuous
 62
     7
100
AcDbCircle
 10
371.541532775
 20
-38.9934546181
 30
0.0
 40
4.0
100
AcDbArc
 50
180.0
 51
270.0
  0
ARC
  5
68
330
1F
100
AcDbEntity
  8
0
  6
Continuous
 62
     7
100
AcDbCircle
 10
371.541532775
 20
-66.9931822585
 30
0.0
 40
4.000000000000057
100
AcDbArc
 50
90.0
 51
180.0
  0
ARC
  5
69
330
1F
100
AcDbEntity
  8
0
  6
Continuous
 62
     7
100
AcDbCircle
 10
371.541532775
 20
-165.2988655613
 30
0.0
 40
4.000000000000057
100
AcDbArc
 50
180.0
 51
270.0
  0
ARC
  5
6A
330
1F
100
AcDbEntity
  8
0
  6
Continuous
 62
     7
100
AcDbCircle
 10
371.541532775
 20
-193.2985932016
 30
0.0
 40
3.999999999999972
100
AcDbArc
 50
90.0
 51
180.0
  0
ARC
  5
6B
330
1F
100
AcDbEntity
  8
0
  6
Continuous
 62
     7
100
AcDbCircle
 10
306.1388585239
 20
-213.701880842
 30
0.0
 40
4.0
100
AcDbArc
 50
90.0
 51
180.0
  0
ARC
  5
6C
330
1F
100
AcDbEntity
  8
0
  6
Continuous
 62
     7
100
AcDbCircle
 10
278.1391308836
 20
-213.7018808419
 30
0.0
 40
4.000000000000853
100
AcDbArc
 50
0.0
 51
90.0
  0
ARC
  5
6D
330
1F
100
AcDbEntity
  8
0
  6
Continuous
 62
     7
100
AcDbCircle
 10
157.1407780792
 20
-204.7018944599
 30
0.0
 40
4.0
100
AcDbArc
 50
270.0
 51
0.0
  0
ARC
  5
6E
330
1F
100
AcDbEntity
  8
0
  6
Continuous
 62
     7
100
AcDbCircle
 10
157.1407780792
 20
-58.3967558763
 30
0.0
 40
4.000000000000007
100
AcDbArc
 50
270.0
 51
0.0
  0
ARC
  5
6F
330
1F
100
AcDbEntity
  8
0
  6
Continuous
 62
     7
100
AcDbCircle
 10
157.1407780792
 20
-86.3964835167
 30
0.0
 40
4.000000000000014
100
AcDbArc
 50
0.0
 51
90.0
  0
ARC
  5
70
330
1F
100
AcDbEntity
  8
0
  6
Continuous
 62
     7
100
AcDbCircle
 10
157.1407780792
 20
39.9089274265
 30
0.0
 40
4.0
100
AcDbArc
 50
0.0
 51
90.0
  0
ARC
  5
71
330
1F
100
AcDbEntity
  8
0
  6
Continuous
 62
     7
100
AcDbCircle
 10
157.1407780792
 20
67.9086550668
 30
0.0
 40
4.000000000000028
100
AcDbArc
 50
270.0
 51
0.0
  0
ARC
  5
72
330
1F
100
AcDbEntity
  8
0
  6
Continuous
 62
     7
100
AcDbCircle
 10
249.3324999708
 20
86.2941427073
 30
0.0
 40
4.000000000000043
100
AcDbArc
 50
180.0
 51
270.0
  0
ARC
  5
73
330
1F
100
AcDbEntity
  8
0
  6
Continuous
 62
     7
100
AcDbCircle
 10
222.5434523302
 20
88.3119427072
 30
0.0
 40
4.000000000000028
100
AcDbArc
 50
270.0
 51
0.0
  0
ARC
  5
74
330
1F
100
AcDbEntity
  8
0
  6
Continuous
 62
     7
100
AcDbCircle
 10
8.7357770375
 20
50.1016582088
 30
0.0
 40
4.000000000000001
100
AcDbArc
 50
90.0
 51
180.0
  0
ARC
  5
75
330
1F
100
AcDbEntity
  8
0
  6
Continuous
 62
     7
100
AcDbCircle
 10
8.7357770375
 20
41.2947560965
 30
0.0
 40
4.000000000000001
100
AcDbArc
 50
180.0
 51
270.0
  0
ARC
  5
76
330
1F
100
AcDbEntity
  8
0
  6
Continuous
 62
     7
100
AcDbCircle
 10
424.7336774039
 20
-23.6079261237
 30
0.0
 40
4.0
100
AcDbArc
 50
180.0
 51
270.0
  0
ARC
  5
77
330
1F
100
AcDbEntity
  8
0
  6
Continuous
 62
     7
100
AcDbCircle
 10
433.5405795162
 20
-23.6079261237
 30
0.0
 40
4.0
100
AcDbArc
 50
270.0
 51
0.0
  0
ARC
  5
78
330
1F
100
AcDbEntity
  8
0
  6
Continuous
 62
     7
100
AcDbCircle
 10
433.5405795162
 20
-10.8010784834
 30
0.0
 40
4.000000000000001
100
AcDbArc
 50
0.0
 51
90.0
  0
ARC
  5
79
330
1F
100
AcDbEntity
  8
0
  6
Continuous
 62
     7
100
AcDbCircle
 10
424.7336774039
 20
-10.8010784834
 30
0.0
 40
4.0
100
AcDbArc
 50
90.0
 51
180.0
  0
ARC
  5
7A
330
1F
100
AcDbEntity
  8
0
  6
Continuous
 62
     7
100
AcDbCircle
 10
433.5405795162
 20
121.8900924598
 30
0.0
 40
4.000000000000057
100
AcDbArc
 50
270.0
 51
0.0
  0
ARC
  5
7B
330
1F
100
AcDbEntity
  8
0
  6
Continuous
 62
     7
100
AcDbCircle
 10
424.7336774039
 20
121.8900924598
 30
0.0
 40
4.000000000000028
100
AcDbArc
 50
180.0
 51
270.0
  0
ARC
  5
7C
330
1F
100
AcDbEntity
  8
0
  6
Continuous
 62
     7
100
AcDbCircle
 10
424.7336774039
 20
134.6969401001
 30
0.0
 40
4.0
100
AcDbArc
 50
90.0
 51
180.0
  0
ARC
  5
7D
330
1F
100
AcDbEntity
  8
0
  6
Continuous
 62
     7
100
AcDbCircle
 10
433.5405795162
 20
134.6969401001
 30
0.0
 40
4.0
100
AcDbArc
 50
0.0
 51
90.0
  0
ARC
  5
7E
330
1F
100
AcDbEntity
  8
0
  6
Continuous
 62
     7
100
AcDbCircle
 10
103.5450734505
 20
134.6969401001
 30
0.0
 40
4.000000000000028
100
AcDbArc
 50
0.0
 51
90.0
  0
ARC
  5
7F
330
1F
100
AcDbEntity
  8
0
  6
Continuous
 62
     7
100
AcDbCircle
 10
103.5450734505
 20
121.8900924598
 30
0.0
 40
4.000000000000014
100
AcDbArc
 50
270.0
 51
0.0
  0
ARC
  5
80
330
1F
100
AcDbEntity
  8
0
  6
Continuous
 62
     7
100
AcDbCircle
 10
94.7381713382
 20
121.8900924598
 30
0.0
 40
4.000000000000114
100
AcDbArc
 50
180.0
 51
270.0
  0
ARC
  5
81
330
1F
100
AcDbEntity
  8
0
  6
Continuous
 62
     7
100
AcDbCircle
 10
94.7381713382
 20
134.6969401001
 30
0.0
 40
4.000000000000028
100
AcDbArc
 50
90.0
 51
180.0
  0
ARC
  5
82
330
1F
100
AcDbEntity
  8
0
  6
Continuous
 62
     7
100
AcDbCircle
 10
103.5450734505
 20
-10.8010784834
 30
0.0
 40
4.0
100
AcDbArc
 50
0.0
 51
90.0
  0
ARC
  5
83
330
1F
100
AcDbEntity
  8
0
  6
Continuous
 62
     7
100
AcDbCircle
 10
103.5450734505
 20
-23.6079261237
 30
0.0
 40
4.000000000000014
100
AcDbArc
 50
270.0
 51
0.0
  0
ARC
  5
84
330
1F
100
AcDbEntity
  8
0
  6
Continuous
 62
     7
100
AcDbCircle
 10
94.7381713382
 20
-23.6079261237
 30
0.0
 40
4.000000000000085
100
AcDbArc
 50
180.0
 51
270.0
  0
ARC
  5
85
330
1F
100
AcDbEntity
  8
0
  6
Continuous
 62
     7
100
AcDbCircle
 10
94.7381713382
 20
-10.8010784834
 30
0.0
 40
4.000000000000001
100
AcDbArc
 50
90.0
 51
180.0
  0
ARC
  5
86
330
1F
100
AcDbEntity
  8
0
  6
Continuous
 62
     7
100
AcDbCircle
 10
103.5450734505
 20
-136.2993694265
 30
0.0
 40
4.0
100
AcDbArc
 50
0.0
 51
90.0
  0
ARC
  5
87
330
1F
100
AcDbEntity
  8
0
  6
Continuous
 62
     7
100
AcDbCircle
 10
94.7381713382
 20
-136.2993694265
 30
0.0
 40
3.999999999999972
100
AcDbArc
 50
90.0
 51
180.0
  0
ARC
  5
88
330
1F
100
AcDbEntity
  8
0
  6
Continuous
 62
     7
100
AcDbCircle
 10
94.7381713382
 20
-149.1062170669
 30
0.0
 40
4.000000000000028
100
AcDbArc
 50
180.0
 51
270.0
  0
ARC
  5
89
330
1F
100
AcDbEntity
  8
0
  6
Continuous
 62
     7
100
AcDbCircle
 10
103.5450734505
 20
-149.1062170669
 30
0.0
 40
4.0
100
AcDbArc
 50
270.0
 51
0.0
  0
ARC
  5
8A
330
1F
100
AcDbEntity
  8
0
  6
Continuous
 62
     7
100
AcDbCircle
 10
112.7379262145
 20
-176.2988247072
 30
0.0
 40
3.999999999999986
100
AcDbArc
 50
90.0
 51
180.0
  0
ARC
  5
8B
330
1F
100
AcDbEntity
  8
0
  6
Continuous
 62
     7
100
AcDbCircle
 10
414.7337046399
 20
-176.2988247072
 30
0.0
 40
4.000000000000028
100
AcDbArc
 50
0.0
 51
90.0
  0
ARC
  5
8C
330
1F
100
AcDbEntity
  8
0
  6
Continuous
 62
     7
100
AcDbCircle
 10
433.5405795162
 20
-149.1062170669
 30
0.0
 40
4.000000000000028
100
AcDbArc
 50
270.0
 51
0.0
  0
ARC
  5
8D
330
1F
100
AcDbEntity
  8
0
  6
Continuous
 62
     7
100
AcDbCircle
 10
433.5405795162
 20
-136.2993694265
 30
0.0
 40
4.000000000000057
100
AcDbArc
 50
0.0
 51
90.0
  0
ARC
  5
8E
330
1F
100
AcDbEntity
  8
0
  6
Continuous
 62
     7
100
AcDbCircle
 10
424.7336774039
 20
-136.2993694265
 30
0.0
 40
4.000000000000028
100
AcDbArc
 50
90.0
 51
180.0
  0
ARC
  5
8F
330
1F
100
AcDbEntity
  8
0
  6
Continuous
 62
     7
100
AcDbCircle
 10
424.7336774039
 20
-149.1062170669
 30
0.0
 40
4.0
100
AcDbArc
 50
180.0
 51
270.0
  0
ARC
  5
90
330
1F
100
AcDbEntity
  8
0
  6
Continuous
 62
     7
100
AcDbCircle
 10
-308.4528813878
 20
-279.8008717494
 30
0.0
 40
4.000000000000057
100
AcDbArc
 50
270.0
 51
0.0
  0
ARC
  5
91
330
1F
100
AcDbEntity
  8
0
  6
Continuous
 62
     7
100
AcDbCircle
 10
-280.4531537475
 20
-279.8008717494
 30
0.0
 40
4.000000000000057
100
AcDbArc
 50
180.0
 51
270.0
  0
ARC
  5
92
330
1F
100
AcDbEntity
  8
0
  6
Continuous
 62
     7
100
AcDbCircle
 10
-162.6477359953
 20
-279.8008717494
 30
0.0
 40
3.999999999999972
100
AcDbArc
 50
270.0
 51
0.0
  0
ARC
  5
93
330
1F
100
AcDbEntity
  8
0
  6
Continuous
 62
     7
100
AcDbCircle
 10
-134.648008355
 20
-279.8008717494
 30
0.0
 40
4.000000000000057
100
AcDbArc
 50
180.0
 51
270.0
  0
ARC
  5
94
330
1F
100
AcDbEntity
  8
0
  6
Continuous
 62
     7
100
AcDbCircle
 10
-16.8425906028
 20
-279.8008717494
 30
0.0
 40
4.000000000000004
100
AcDbArc
 50
270.0
 51
0.0
  0
ARC
  5
95
330
1F
100
AcDbEntity
  8
0
  6
Continuous
 62
     7
100
AcDbCircle
 10
11.1571370375
 20
-279.8008717494
 30
0.0
 40
4.000000000000057
100
AcDbArc
 50
180.0
 51
270.0
  0
ARC
  5
96
330
1F
100
AcDbEntity
  8
0
  6
Continuous
 62
     7
100
AcDbCircle
 10
424.7515046399
 20
-279.8008717494
 30
0.0
 40
4.000000000000057
100
AcDbArc
 50
180.0
 51
270.0
  0
ARC
  5
97
330
1F
100
AcDbEntity
  8
0
  6
Continuous
 62
     7
100
AcDbCircle
 10
396.7517769996
 20
-279.8008717494
 30
0.0
 40
4.000000000000057
100
AcDbArc
 50
270.0
 51
0.0
  0
ARC
  5
98
330
1F
100
AcDbEntity
  8
0
  6
Continuous
 62
     7
100
AcDbCircle
 10
278.9463592474
 20
-279.8008717494
 30
0.0
 40
4.000000000000057
100
AcDbArc
 50
180.0
 51
270.0
  0
ARC
  5
99
330
1F
100
AcDbEntity
  8
0
  6
Continuous
 62
     7
100
AcDbCircle
 10
250.9466316071
 20
-279.8008717494
 30
0.0
 40
3.999999999999943
100
AcDbArc
 50
270.0
 51
0.0
  0
ARC
  5
9A
330
1F
100
AcDbEntity
  8
0
  6
Continuous
 62
     7
100
AcDbCircle
 10
133.1412138549
 20
-279.8008717494
 30
0.0
 40
4.000000000000028
100
AcDbArc
 50
180.0
 51
270.0
  0
ARC
  5
9B
330
1F
100
AcDbEntity
  8
0
  6
Continuous
 62
     7
100
AcDbCircle
 10
105.1414862146
 20
-279.8008717494
 30
0.0
 40
4.000000000000057
100
AcDbArc
 50
270.0
 51
0.0
  0
ARC
  5
9C
330
1F
100
AcDbEntity
  8
0
  6
Continuous
 62
     7
100
AcDbCircle
 10
78.738334754
 20
-333.8001908502
 30
0.0
 40
9.999863820172493
100
AcDbArc
 50
180.0
 51
270.0
  0
ARC
  5
9D
330
1F
100
AcDbEntity
  8
0
  6
Continuous
 62
     7
100
AcDbCircle
 10
99.3169398796
 20
-334.4410929229
 30
0.0
 40
9.358961747506628
100
AcDbArc
 50
270.0
 51
356.25
  0
ARC
  5
9E
330
1F
100
AcDbEntity
  8
0
  6
Continuous
 62
     7
100
AcDbCircle
 10
118.1532457427
 20
-333.1531070109
 30
0.0
 40
9.352775829834346
100
AcDbArc
 50
90.0
 51
176.25
  0
ARC
  5
9F
330
1F
100
AcDbEntity
  8
0
  6
Continuous
 62
     7
100
AcDbCircle
 10
409.2253743467
 20
-333.2536710205
 30
0.0
 40
9.453339839365071
100
AcDbArc
 50
4.6034809666
 51
90.0
  0
ARC
  5
A0
330
1F
100
AcDbEntity
  8
0
  6
Continuous
 62
     7
100
AcDbCircle
 10
429.4328666935
 20
-332.9747536273
 30
0.0
 40
10.82530519409539
100
AcDbArc
 50
191.3513268422
 51
270.0
  0
ARC
  5
A1
330
1F
100
AcDbEntity
  8
0
  6
Continuous
 62
     7
100
AcDbCircle
 10
448.7333594331
 20
-333.8001950013
 30
0.0
 40
9.999863820172493
100
AcDbArc
 50
270.0
 51
0.0
  0
ARC
  5
A2
330
1F
100
AcDbEntity
  8
0
  6
Continuous
 62
     7
100
AcDbCircle
 10
35.138928498
 20
-333.8001908502
 30
0.0
 40
9.999863820152086
100
AcDbArc
 50
270.0
 51
0.0
  0
ARC
  5
A3
330
1F
100
AcDbEntity
  8
0
  6
Continuous
 62
     7
100
AcDbCircle
 10
-4.8605267827
 20
-333.8001908502
 30
0.0
 40
9.999863820191422
100
AcDbArc
 50
7.4999999999
 51
90.0
  0
ARC
  5
A4
330
1F
100
AcDbEntity
  8
0
  6
Continuous
 62
     7
100
AcDbCircle
 10
14.5293538946
 20
-334.4955880344
 30
0.0
 40
9.324430958385802
100
AcDbArc
 50
183.75
 51
273.7500000003
  0
ARC
  5
A5
330
1F
100
AcDbEntity
  8
0
  6
Continuous
 62
     7
100
AcDbCircle
 10
-314.8563052081
 20
-333.8001908502
 30
0.0
 40
9.999863820172493
100
AcDbArc
 50
270.0
 51
352.5
  0
ARC
  5
A6
330
1F
100
AcDbEntity
  8
0
  6
Continuous
 62
     7
100
AcDbCircle
 10
-295.4664245307
 20
-333.104793666
 30
0.0
 40
9.324430958419143
100
AcDbArc
 50
86.25
 51
176.25
  0
ARC
  5
A7
330
1F
100
AcDbEntity
  8
0
  6
Continuous
 62
     7
100
AcDbCircle
 10
-334.8560328484
 20
-333.8001908502
 30
0.0
 40
9.999863820172493
100
AcDbArc
 50
180.0
 51
270.0
  0
ARC
  5
A8
330
1F
100
AcDbEntity
  8
0
  6
Continuous
 62
     7
100
AcDbCircle
 10
-335.8560192304
 20
-239.7014723024
 30
0.0
 40
8.999877438155465
100
AcDbArc
 50
180.0
 51
270.0
  0
ARC
  5
A9
330
1F
100
AcDbEntity
  8
0
  6
Continuous
 62
     7
100
AcDbCircle
 10
36.13891488
 20
-239.7014723024
 30
0.0
 40
8.99987743815521
100
AcDbArc
 50
270.0
 51
0.0
  0
ARC
  5
AA
330
1F
100
AcDbEntity
  8
0
  6
Continuous
 62
     7
100
AcDbCircle
 10
78.738334754
 20
-238.7014859204
 30
0.0
 40
9.999863820172664
100
AcDbArc
 50
180.0
 51
270.0
  0
ARC
  5
AB
330
1F
100
AcDbEntity
  8
0
  6
Continuous
 62
     7
100
AcDbCircle
 10
98.7380623943
 20
-238.7014859204
 30
0.0
 40
9.999863820161934
100
AcDbArc
 50
270.0
 51
0.0
  0
ARC
  5
AC
330
1F
100
AcDbEntity
  8
0
  6
Continuous
 62
     7
100
AcDbCircle
 10
205.4864316102
 20
-215.8880711176
 30
0.0
 40
12.8135509825824
100
AcDbArc
 50
270.0
 51
347.3152327454
  0
ARC
  5
AD
330
1F
100
AcDbEntity
  8
0
  6
Continuous
 62
     7
100
AcDbCircle
 10
428.7335684601
 20
-238.7014859204
 30
0.0
 40
9.99986382017255
100
AcDbArc
 50
180.0
 51
270.0
  0
ARC
  5
AE
330
1F
100
AcDbEntity
  8
0
  6
Continuous
 62
     7
100
AcDbCircle
 10
448.7332961004
 20
-238.7014859204
 30
0.0
 40
9.999863820172607
100
AcDbArc
 50
270.0
 51
0.0
  0
ARC
  5
AF
330
1F
100
AcDbEntity
  8
0
  6
Continuous
 62
     7
100
AcDbCircle
 10
321.9851992442
 20
88.480332983
 30
0.0
 40
12.81355098255338
100
AcDbArc
 50
90.0
 51
167.3152327454
  0
ARC
  5
B0
330
1F
100
AcDbEntity
  8
0
  6
Continuous
 62
     7
100
AcDbCircle
 10
389.1376731794
 20
121.6971716058
 30
0.0
 40
9.999863820185283
100
AcDbArc
 50
0.0
 51
90.0
  0
ARC
  5
B1
330
1F
100
AcDbEntity
  8
0
  6
Continuous
 62
     7
100
AcDbCircle
 10
448.7332961004
 20
181.2927945269
 30
0.0
 40
9.999863820172607
100
AcDbArc
 50
0.0
 51
90.0
  0
ARC
  5
B2
330
1F
100
AcDbEntity
  8
0
  6
Continuous
 62
     7
100
AcDbCircle
 10
-66.8594708924
 20
-178.7022983003
 30
0.0
 40
29.9995914605125
100
AcDbArc
 50
270.0
 51
0.0
  0
ARC
  5
B3
330
1F
100
AcDbEntity
  8
0
  6
Continuous
 62
     7
100
AcDbCircle
 10
-117.8587763753
 20
-198.7020259407
 30
0.0
 40
9.999863820166937
100
AcDbArc
 50
180.0
 51
270.0
  0
ARC
  5
B4
330
1F
100
AcDbEntity
  8
0
  6
Continuous
 62
     7
100
AcDbCircle
 10
-132.8586778932
 20
-189.7021533505
 30
0.0
 40
4.999932060215798
100
AcDbArc
 50
0.0
 51
180.0
  0
ARC
  5
B5
330
1F
100
AcDbEntity
  8
0
  6
Continuous
 62
     7
100
AcDbCircle
 10
-166.8583206695
 20
-189.702153276
 30
0.0
 40
4.999931910086389
100
AcDbArc
 50
0.0
 51
180.0
  0
CIRCLE
  5
B6
330
1F
100
AcDbEntity
  8
0
  6
Continuous
 62
     7
100
AcDbCircle
 10
-149.8585521379
 20
-196.7020578756
 30
0.0
 40
2.499965955043137
  0
CIRCLE
  5
B7
330
1F
100
AcDbEntity
  8
0
  6
Continuous
 62
     7
100
AcDbCircle
 10
-149.8585521379
 20
-196.7020578756
 30
0.0
 40
4.999931910086356
  0
ARC
  5
B8
330
1F
100
AcDbEntity
  8
0
  6
Continuous
 62
     7
100
AcDbCircle
 10
-149.8585521752
 20
-196.7020580396
 30
0.0
 40
11.9998365842072
100
AcDbArc
 50
180.0
 51
0.0
  0
ARC
  5
B9
330
1F
100
AcDbEntity
  8
0
  6
Continuous
 62
     7
100
AcDbCircle
 10
-181.8581163997
 20
-198.7020306397
 30
0.0
 40
9.999863820172749
100
AcDbArc
 50
270.0
 51
0.0
  0
ARC
  5
BA
330
1F
100
AcDbEntity
  8
0
  6
Continuous
 62
     7
100
AcDbCircle
 10
-232.9083645851
 20
-178.7023029993
 30
0.0
 40
29.9995914605181
100
AcDbArc
 50
180.0
 51
270.0
  0
ARC
  5
BB
330
1F
100
AcDbEntity
  8
0
  6
Continuous
 62
     7
100
AcDbCircle
 10
-232.1223634843
 20
-171.026878988
 30
0.0
 40
24.09197287019665
100
AcDbArc
 50
96.7668269292
 51
128.2331730732
  0
ARC
  5
BC
330
1F
100
AcDbEntity
  8
0
  6
Continuous
 62
     7
100
AcDbCircle
 10
-266.8809730936
 20
-132.2536931394
 30
0.0
 40
17.07083533835787
100
AcDbArc
 50
315.0
 51
0.0
  0
ARC
  5
BD
330
1F
100
AcDbEntity
  8
0
  6
Continuous
 62
     7
100
AcDbCircle
 10
-254.3100764743
 20
-151.6026720467
 30
0.0
 40
5.499925101104282
100
AcDbArc
 50
180.0
 51
270.0
  0
CIRCLE
  5
BE
330
1F
100
AcDbEntity
  8
0
  6
Continuous
 62
     7
100
AcDbCircle
 10
-254.3100764743
 20
-151.6026720467
 30
0.0
 40
2.500000000000012
  0
ARC
  5
BF
330
1F
100
AcDbEntity
  8
0
  6
Continuous
 62
     7
100
AcDbCircle
 10
-249.8101377559
 20
-147.1027333276
 30
0.0
 40
14.84904018818048
100
AcDbArc
 50
0.0
 51
89.9999999974
  0
ARC
  5
C0
330
1F
100
AcDbEntity
  8
0
  6
Continuous
 62
     7
100
AcDbCircle
 10
-32.742026014
 20
-132.2536931394
 30
0.0
 40
17.07083533835686
100
AcDbArc
 50
180.0
 51
225.0
  0
ARC
  5
C1
330
1F
100
AcDbEntity
  8
0
  6
Continuous
 62
     7
100
AcDbCircle
 10
-64.6619015406
 20
-164.1735686659
 30
0.0
 40
17.07083533835843
100
AcDbArc
 50
45.0
 51
90.0
  0
ARC
  5
C2
330
1F
100
AcDbEntity
  8
0
  6
Continuous
 62
     7
100
AcDbCircle
 10
-49.8128613524
 20
-147.1027333276
 30
0.0
 40
14.84904018818948
100
AcDbArc
 50
89.9999999996
 51
180.0
  0
ARC
  5
C3
330
1F
100
AcDbEntity
  8
0
  6
Continuous
 62
     7
100
AcDbCircle
 10
-45.3129226332
 20
-151.6026720467
 30
0.0
 40
5.49992510108946
100
AcDbArc
 50
270.0
 51
0.0
  0
CIRCLE
  5
C4
330
1F
100
AcDbEntity
  8
0
  6
Continuous
 62
     7
100
AcDbCircle
 10
-45.3129226332
 20
-151.6026720467
 30
0.0
 40
2.499999999999996
  0
CIRCLE
  5
C5
330
1F
100
AcDbEntity
  8
0
  6
Continuous
 62
     7
100
AcDbCircle
 10
-149.8114995535
 20
-151.6026720467
 30
0.0
 40
2.500000000000004
  0
ARC
  5
C6
330
1F
100
AcDbEntity
  8
0
  6
Continuous
 62
     7
100
AcDbCircle
 10
-149.8114995542
 20
-151.6574450646
 30
0.0
 40
9.968618026084474
100
AcDbArc
 50
27.1875744765
 51
152.8124255235
  0
ARC
  5
C7
330
1F
100
AcDbEntity
  8
0
  6
Continuous
 62
     7
100
AcDbCircle
 10
-149.8114995542
 20
-152.3267509228
 30
0.0
 40
5.358361220867256
100
AcDbArc
 50
187.5000000003
 51
352.5
  0
ARC
  5
C8
330
1F
100
AcDbEntity
  8
0
  6
Continuous
 62
     7
100
AcDbCircle
 10
-161.0032349723
 20
-152.3520130907
 30
0.0
 40
5.740924723873827
100
AcDbArc
 50
7.5000000003
 51
66.1151945166
  0
ARC
  5
C9
330
1F
100
AcDbEntity
  8
0
  6
Continuous
 62
     7
100
AcDbCircle
 10
-139.2593651372
 20
-151.8733981238
 30
0.0
 40
5.059457636934623
100
AcDbArc
 50
109.4521052552
 51
176.9327002287
  0
ARC
  5
CA
330
1F
100
AcDbEntity
  8
0
  6
Continuous
 62
     7
100
AcDbCircle
 10
-149.8114995535
 20
-151.6200301671
 30
0.0
 40
19.84583681724632
100
AcDbArc
 50
51.4334198766
 51
128.5665801233
  0
ARC
  5
CB
330
1F
100
AcDbEntity
  8
0
  6
Continuous
 62
     7
100
AcDbCircle
 10
-46.0193420293
 20
-47.1040951259
 30
0.0
 40
19.28520595054496
100
AcDbArc
 50
140.0927361486
 51
219.9072638514
  0
ARC
  5
CC
330
1F
100
AcDbEntity
  8
0
  6
Continuous
 62
     7
100
AcDbCircle
 10
-44.7264329357
 20
-36.1299874281
 30
0.0
 40
5.505510445566726
100
AcDbArc
 50
202.5000000014
 51
263.8848054837
  0
ARC
  5
CD
330
1F
100
AcDbEntity
  8
0
  6
Continuous
 62
     7
100
AcDbCircle
 10
-45.6076398656
 20
-47.1040951258
 30
0.0
 40
5.507815752610922
100
AcDbArc
 50
273.0672997715
 51
86.9327002284
  0
ARC
  5
CE
330
1F
100
AcDbEntity
  8
0
  6
Continuous
 62
     7
100
AcDbCircle
 10
-45.0421965562
 20
-57.6562295427
 30
0.0
 40
5.059457636900126
100
AcDbArc
 50
93.0672997715
 51
160.5478947454
  0
ARC
  5
CF
330
1F
100
AcDbEntity
  8
0
  6
Continuous
 62
     7
100
AcDbCircle
 10
-46.1399302571
 20
-47.1040951258
 30
0.0
 40
9.597831482811138
100
AcDbArc
 50
112.5000000009
 51
247.4999999991
  0
CIRCLE
  5
D0
330
1F
100
AcDbEntity
  8
0
  6
Continuous
 62
     7
100
AcDbCircle
 10
-45.3129226327
 20
-47.1040951259
 30
0.0
 40
2.500000000000001
  0
ARC
  5
D1
330
1F
100
AcDbEntity
  8
0
  6
Continuous
 62
     7
100
AcDbCircle
 10
-232.1223634843
 20
76.8186887363
 30
0.0
 40
24.09197287019499
100
AcDbArc
 50
231.7668269268
 51
263.2331730709
  0
CIRCLE
  5
D2
330
1F
100
AcDbEntity
  8
0
  6
Continuous
 62
     7
100
AcDbCircle
 10
-191.8579802199
 20
161.2930668865
 30
0.0
 40
2.500000000000004
  0
ARC
  5
D3
330
1F
100
AcDbEntity
  8
0
  6
Continuous
 62
     7
100
AcDbCircle
 10
-254.3100764743
 20
57.3944817949
 30
0.0
 40
5.499925101106378
100
AcDbArc
 50
90.0
 51
180.0
  0
ARC
  5
D4
330
1F
100
AcDbEntity
  8
0
  6
Continuous
 62
     7
100
AcDbCircle
 10
-266.8809730936
 20
38.0455028877
 30
0.0
 40
17.07083533835788
100
AcDbArc
 50
0.0
 51
45.0
  0
ARC
  5
D5
330
1F
100
AcDbEntity
  8
0
  6
Continuous
 62
     7
100
AcDbCircle
 10
-249.8101377559
 20
52.8945430758
 30
0.0
 40
14.84904018818054
100
AcDbArc
 50
270.0000000026
 51
0.0
  0
CIRCLE
  5
D6
330
1F
100
AcDbEntity
  8
0
  6
Continuous
 62
     7
100
AcDbCircle
 10
-207.8577623322
 20
161.2930668865
 30
0.0
 40
2.500000000000004
  0
CIRCLE
  5
D7
330
1F
100
AcDbEntity
  8
0
  6
Continuous
 62
     7
100
AcDbCircle
 10
-239.8573265567
 20
172.7929102797
 30
0.0
 40
2.499999999999976
  0
CIRCLE
  5
D8
330
1F
100
AcDbEntity
  8
0
  6
Continuous
 62
     7
100
AcDbCircle
 10
-254.3100764743
 20
57.3944817949
 30
0.0
 40
2.500000000000005
  0
ARC
  5
D9
330
1F
100
AcDbEntity
  8
0
  6
Continuous
 62
     7
100
AcDbCircle
 10
-45.3129226332
 20
57.3944817949
 30
0.0
 40
5.49992510108946
100
AcDbArc
 50
0.0
 51
90.0
  0
CIRCLE
  5
DA
330
1F
100
AcDbEntity
  8
0
  6
Continuous
 62
     7
100
AcDbCircle
 10
-45.3129226332
 20
57.3944817949
 30
0.0
 40
2.499999999999999
  0
ARC
  5
DB
330
1F
100
AcDbEntity
  8
0
  6
Continuous
 62
     7
100
AcDbCircle
 10
-32.742026014
 20
38.0455028876
 30
0.0
 40
17.07083533835685
100
AcDbArc
 50
135.0
 51
180.0
  0
ARC
  5
DC
330
1F
100
AcDbEntity
  8
0
  6
Continuous
 62
     7
100
AcDbCircle
 10
-64.6619015406
 20
69.9653784142
 30
0.0
 40
17.07083533835843
100
AcDbArc
 50
270.0
 51
315.0
  0
ARC
  5
DD
330
1F
100
AcDbEntity
  8
0
  6
Continuous
 62
     7
100
AcDbCircle
 10
-49.8128613524
 20
52.8945430758
 30
0.0
 40
14.84904018818948
100
AcDbArc
 50
180.0
 51
270.0000000004
  0
ARC
  5
DE
330
1F
100
AcDbEntity
  8
0
  6
Continuous
 62
     7
100
AcDbCircle
 10
-149.8114995535
 20
-85.9944384759
 30
0.0
 40
10.99985020219074
100
AcDbArc
 50
45.0
 51
135.0
  0
ARC
  5
DF
330
1F
100
AcDbEntity
  8
0
  6
Continuous
 62
     7
100
AcDbCircle
 10
-149.8114995535
 20
-8.2137517758
 30
0.0
 40
10.99985020219075
100
AcDbArc
 50
225.0
 51
315.0
  0
ARC
  5
E0
330
1F
100
AcDbEntity
  8
0
  6
Continuous
 62
     7
100
AcDbCircle
 10
-106.6583904631
 20
-47.1041016595
 30
0.0
 40
11.01412623779025
100
AcDbArc
 50
135.0
 51
224.9257837268
  0
ARC
  5
E1
330
1F
100
AcDbEntity
  8
0
  6
Continuous
 62
     7
100
AcDbCircle
 10
-192.9646151776
 20
-47.1040951259
 30
0.0
 40
11.01412623779149
100
AcDbArc
 50
315.0
 51
45.0
  0
ARC
  5
E2
330
1F
100
AcDbEntity
  8
0
  6
Continuous
 62
     7
100
AcDbCircle
 10
-232.8574218826
 20
121.2426689034
 30
0.0
 40
30.05053416299828
100
AcDbArc
 50
90.0
 51
180.0
  0
ARC
  5
E3
330
1F
100
AcDbEntity
  8
0
  6
Continuous
 62
     7
100
AcDbCircle
 10
-251.0061015731
 20
121.2426689034
 30
0.0
 40
11.90185447247714
100
AcDbArc
 50
180.0
 51
260.8043499236
  0
ARC
  5
E4
330
1F
100
AcDbEntity
  8
0
  6
Continuous
 62
     7
100
AcDbCircle
 10
-246.1081848277
 20
101.2938839655
 30
0.0
 40
8.199888332541633
100
AcDbArc
 50
270.0
 51
90.0
  0
ARC
  5
E5
330
1F
100
AcDbEntity
  8
0
  6
Continuous
 62
     7
100
AcDbCircle
 10
-252.9080922254
 20
83.0941318128
 30
0.0
 40
9.999863820172635
100
AcDbArc
 50
90.0
 51
180.0
  0
CIRCLE
  5
E6
330
1F
100
AcDbEntity
  8
0
  6
Continuous
 62
     7
100
AcDbCircle
 10
-246.1081848277
 20
101.2938839655
 30
0.0
 40
2.500000000000008
  0
CIRCLE
  5
E7
330
1F
100
AcDbEntity
  8
0
  6
Continuous
 62
     7
100
AcDbCircle
 10
-255.7571100308
 20
101.2938839655
 30
0.0
 40
2.500000000000008
  0
ARC
  5
E8
330
1F
100
AcDbEntity
  8
0
  6
Continuous
 62
     7
100
AcDbCircle
 10
-184.7795634351
 20
141.2933392462
 30
0.0
 40
9.999863820172607
100
AcDbArc
 50
0.0
 51
90.0
  0
ARC
  5
E9
330
1F
100
AcDbEntity
  8
0
  6
Continuous
 62
     7
100
AcDbCircle
 10
-168.2801761564
 20
134.2934345721
 30
0.0
 40
6.499911483112386
100
AcDbArc
 50
179.3739403939
 51
0.0
  0
ARC
  5
EA
330
1F
100
AcDbEntity
  8
0
  6
Continuous
 62
     7
100
AcDbCircle
 10
-131.3474640109
 20
134.3462818369
 30
0.0
 40
6.488782961500027
100
AcDbArc
 50
206.234300914
 51
0.0
  0
ARC
  5
EB
330
1F
100
AcDbEntity
  8
0
  6
Continuous
 62
     7
100
AcDbCircle
 10
-149.7643534116
 20
139.2210852286
 30
0.0
 40
12.01591126168971
100
AcDbArc
 50
59.2708287126
 51
196.8488640403
  0
ARC
  5
EC
330
1F
100
AcDbEntity
  8
0
  6
Continuous
 62
     7
100
AcDbCircle
 10
-147.4030176017
 20
137.5037144322
 30
0.0
 40
11.87720916283967
100
AcDbArc
 50
275.3127342474
 51
43.2806711643
  0
ARC
  5
ED
330
1F
100
AcDbEntity
  8
0
  6
Continuous
 62
     7
100
AcDbCircle
 10
-155.0863601581
 20
130.2681908758
 30
0.0
 40
22.43119201176961
100
AcDbArc
 50
43.2806711643
 51
59.2708287126
  0
ARC
  5
EE
330
1F
100
AcDbEntity
  8
0
  6
Continuous
 62
     7
100
AcDbCircle
 10
-147.6230230625
 20
139.8695841668
 30
0.0
 40
14.2532861825343
100
AcDbArc
 50
196.8488640403
 51
275.3127342474
  0
ARC
  5
EF
330
1F
100
AcDbEntity
  8
0
  6
Continuous
 62
     7
100
AcDbCircle
 10
-114.8588172292
 20
141.2933439452
 30
0.0
 40
9.999863820172735
100
AcDbArc
 50
90.0
 51
180.0
  0
ARC
  5
F0
330
1F
100
AcDbEntity
  8
0
  6
Continuous
 62
     7
100
AcDbCircle
 10
-66.8594708924
 20
121.2936163048
 30
0.0
 40
29.99959146052174
100
AcDbArc
 50
0.0
 51
90.0
  0
ARC
  5
F1
330
1F
100
AcDbEntity
  8
0
  6
Continuous
 62
     7
100
AcDbCircle
 10
36.13891488
 20
183.0999009089
 30
0.0
 40
8.999877438155181
100
AcDbArc
 50
0.0
 51
90.0
  0
ARC
  5
F2
330
1F
100
AcDbEntity
  8
0
  6
Continuous
 62
     7
100
AcDbCircle
 10
-335.8560192304
 20
183.0999009089
 30
0.0
 40
8.999877438155465
100
AcDbArc
 50
90.0
 51
180.0
  0
ARC
  5
F3
330
1F
100
AcDbEntity
  8
0
  6
Continuous
 62
     7
100
AcDbCircle
 10
139.141077675
 20
121.6971716058
 30
0.0
 40
9.999863820178405
100
AcDbArc
 50
90.0
 51
180.0
  0
ARC
  5
F4
330
1F
100
AcDbEntity
  8
0
  6
Continuous
 62
     7
100
AcDbCircle
 10
78.738334754
 20
181.2927945269
 30
0.0
 40
9.999863820172976
100
AcDbArc
 50
90.0
 51
180.0
  0
ARC
  5
F5
330
1F
100
AcDbEntity
  8
0
  6
Continuous
 62
     7
100
AcDbCircle
 10
-165.1079740081
 20
123.5462217087
 30
0.0
 40
1.500035906800768
100
AcDbArc
 50
45.7850017942
 51
225.3333333333
  0
ARC
  5
F6
330
1F
100
AcDbEntity
  8
0
  6
Continuous
 62
     7
100
AcDbCircle
 10
-161.4241114617
 20
120.3438218366
 30
0.0
 40
1.49998522493243
100
AcDbArc
 50
232.6666666667
 51
52.2126228917
  0
ARC
  5
F7
330
1F
100
AcDbEntity
  8
0
  6
Continuous
 62
     7
100
AcDbCircle
 10
-134.7494707769
 20
154.7482097569
 30
0.0
 40
42.03389082396323
100
AcDbArc
 50
225.7850017942
 51
232.2126228917
  0
ARC
  5
F8
330
1F
100
AcDbEntity
  8
0
  6
Continuous
 62
     7
100
AcDbCircle
 10
-138.2799625544
 20
150.6882215028
 30
0.0
 40
39.66324268216421
100
AcDbArc
 50
225.3333333333
 51
232.6666666667
  0
ARC
  5
F9
330
1F
100
AcDbEntity
  8
0
  6
Continuous
 62
     7
100
AcDbCircle
 10
-128.7803260421
 20
119.2888575842
 30
0.0
 40
3.924142441563542
100
AcDbArc
 50
270.0
 51
1.8787399647
  0
ARC
  5
FA
330
1F
100
AcDbEntity
  8
0
  6
Continuous
 62
     7
100
AcDbCircle
 10
-134.1629909532
 20
123.7947982503
 30
0.0
 40
1.500035906801072
100
AcDbArc
 50
90.3333333333
 51
270.9555317044
  0
ARC
  5
FB
330
1F
100
AcDbEntity
  8
0
  6
Continuous
 62
     7
100
AcDbCircle
 10
-130.3659301866
 20
124.0939854565
 30
0.0
 40
1.500038949572176
100
AcDbArc
 50
278.0549357588
 51
98.6773167999
  0
ARC
  5
FC
330
1F
100
AcDbEntity
  8
0
  6
Continuous
 62
     7
100
AcDbCircle
 10
-134.6759379709
 20
154.5493763964
 30
0.0
 40
32.25889140542752
100
AcDbArc
 50
270.9555317044
 51
278.0549357588
  0
ARC
  5
FD
330
1F
100
AcDbEntity
  8
0
  6
Continuous
 62
     7
100
AcDbCircle
 10
-134.3152833521
 20
149.9716380496
 30
0.0
 40
24.67724689431094
100
AcDbArc
 50
270.3333333333
 51
278.6773167999
  0
ARC
  5
FE
330
1F
100
AcDbEntity
  8
0
  6
Continuous
 62
     7
100
AcDbCircle
 10
-170.7797540868
 20
119.3646606707
 30
0.0
 40
3.999945528069077
100
AcDbArc
 50
180.0
 51
270.0
  0
ARC
  5
FF
330
1F
100
AcDbEntity
  8
0
  6
Continuous
 62
     7
100
AcDbCircle
 10
-165.3582880816
 20
154.7963108835
 30
0.0
 40
1.500035906800766
100
AcDbArc
 50
0.4965609791
 51
180.120527665
  0
ARC
  5
100
330
1F
100
AcDbEntity
  8
0
  6
Continuous
 62
     7
100
AcDbCircle
 10
-133.3507554508
 20
154.8636421755
 30
0.0
 40
33.50763935684895
100
AcDbArc
 50
180.120527665
 51
187.879472335
  0
ARC
  5
101
330
1F
100
AcDbEntity
  8
0
  6
Continuous
 62
     7
100
AcDbCircle
 10
-142.0712699865
 20
154.3184958642
 30
0.0
 40
21.7925663249856
100
AcDbArc
 50
178.7094676449
 51
189.6031173322
  0
ARC
  5
102
330
1F
100
AcDbEntity
  8
0
  6
Continuous
 62
     7
100
AcDbCircle
 10
-165.0472345424
 20
150.4547845596
 30
0.0
 40
1.506169528226021
100
AcDbArc
 50
187.0435964105
 51
8.7153482595
  0
CIRCLE
  5
103
330
1F
100
AcDbEntity
  8
0
  6
Continuous
 62
     7
100
AcDbCircle
 10
-134.3587632539
 20
154.7931554034
 30
0.0
 40
2.499999999999984
  0
CIRCLE
  5
104
330
1F
100
AcDbEntity
  8
0
  6
Continuous
 62
     7
100
AcDbCircle
 10
-107.8591241304
 20
161.2930668865
 30
0.0
 40
2.500000000000004
  0
CIRCLE
  5
105
330
1F
100
AcDbEntity
  8
0
  6
Continuous
 62
     7
100
AcDbCircle
 10
-91.8593420182
 20
161.2930668865
 30
0.0
 40
2.49999999999999
  0
CIRCLE
  5
106
330
1F
100
AcDbEntity
  8
0
  6
Continuous
 62
     7
100
AcDbCircle
 10
-59.8597777936
 20
172.7929102797
 30
0.0
 40
2.499999999999996
  0
CIRCLE
  5
107
330
1F
100
AcDbEntity
  8
0
  6
Continuous
 62
     7
100
AcDbCircle
 10
15.1392008577
 20
156.2931349764
 30
0.0
 40
2.500000000000005
  0
CIRCLE
  5
108
330
1F
100
AcDbEntity
  8
0
  6
Continuous
 62
     7
100
AcDbCircle
 10
15.1392008577
 20
91.2940201453
 30
0.0
 40
2.500000000000003
  0
CIRCLE
  5
109
330
1F
100
AcDbEntity
  8
0
  6
Continuous
 62
     7
100
AcDbCircle
 10
15.1392008577
 20
8.2951504379
 30
0.0
 40
11.99983658420717
  0
CIRCLE
  5
10A
330
1F
100
AcDbEntity
  8
0
  6
Continuous
 62
     7
100
AcDbCircle
 10
32.1542128885
 20
8.2951510179
 30
0.0
 40
3.99994552806908
  0
CIRCLE
  5
10B
330
1F
100
AcDbEntity
  8
0
  6
Continuous
 62
     7
100
AcDbCircle
 10
-0.3605880603
 20
23.7949393191
 30
0.0
 40
2.499999999999998
  0
CIRCLE
  5
10C
330
1F
100
AcDbEntity
  8
0
  6
Continuous
 62
     7
100
AcDbCircle
 10
30.638989779
 20
23.7949393591
 30
0.0
 40
2.500000000000002
  0
CIRCLE
  5
10D
330
1F
100
AcDbEntity
  8
0
  6
Continuous
 62
     7
100
AcDbCircle
 10
-0.3605880636
 20
-7.2046384834
 30
0.0
 40
2.5
  0
CIRCLE
  5
10E
330
1F
100
AcDbEntity
  8
0
  6
Continuous
 62
     7
100
AcDbCircle
 10
30.638989779
 20
-7.2046384834
 30
0.0
 40
2.500000000000002
  0
CIRCLE
  5
10F
330
1F
100
AcDbEntity
  8
0
  6
Continuous
 62
     7
100
AcDbCircle
 10
-314.8563052081
 20
156.2931349764
 30
0.0
 40
2.500000000000012
  0
CIRCLE
  5
110
330
1F
100
AcDbEntity
  8
0
  6
Continuous
 62
     7
100
AcDbCircle
 10
-314.8563052081
 20
91.2940201453
 30
0.0
 40
2.500000000000008
  0
CIRCLE
  5
111
330
1F
100
AcDbEntity
  8
0
  6
Continuous
 62
     7
100
AcDbCircle
 10
-330.3560941293
 20
23.7949393591
 30
0.0
 40
2.500000000000061
  0
CIRCLE
  5
112
330
1F
100
AcDbEntity
  8
0
  6
Continuous
 62
     7
100
AcDbCircle
 10
-314.8563052081
 20
8.2951504379
 30
0.0
 40
11.99983658420714
  0
CIRCLE
  5
113
330
1F
100
AcDbEntity
  8
0
  6
Continuous
 62
     7
100
AcDbCircle
 10
-299.3565162868
 20
23.7949393591
 30
0.0
 40
2.500000000000007
  0
CIRCLE
  5
114
330
1F
100
AcDbEntity
  8
0
  6
Continuous
 62
     7
100
AcDbCircle
 10
-331.8549043278
 20
8.2951510179
 30
0.0
 40
3.999945528069098
  0
CIRCLE
  5
115
330
1F
100
AcDbEntity
  8
0
  6
Continuous
 62
     7
100
AcDbCircle
 10
-299.3565162868
 20
-7.2046384834
 30
0.0
 40
2.500000000000006
  0
CIRCLE
  5
116
330
1F
100
AcDbEntity
  8
0
  6
Continuous
 62
     7
100
AcDbCircle
 10
-330.3560941293
 20
-7.2046384834
 30
0.0
 40
2.50000000000006
  0
CIRCLE
  5
117
330
1F
100
AcDbEntity
  8
0
  6
Continuous
 62
     7
100
AcDbCircle
 10
-239.8573265567
 20
-230.2016016732
 30
0.0
 40
2.500000000000004
  0
CIRCLE
  5
118
330
1F
100
AcDbEntity
  8
0
  6
Continuous
 62
     7
100
AcDbCircle
 10
-207.8577623322
 20
-218.70175828
 30
0.0
 40
2.499999999999976
  0
CIRCLE
  5
119
330
1F
100
AcDbEntity
  8
0
  6
Continuous
 62
     7
100
AcDbCircle
 10
-191.8579802199
 20
-218.70175828
 30
0.0
 40
2.500000000000004
  0
CIRCLE
  5
11A
330
1F
100
AcDbEntity
  8
0
  6
Continuous
 62
     7
100
AcDbCircle
 10
-91.8593420182
 20
-218.70175828
 30
0.0
 40
2.49999999999999
  0
CIRCLE
  5
11B
330
1F
100
AcDbEntity
  8
0
  6
Continuous
 62
     7
100
AcDbCircle
 10
-107.8591241304
 20
-218.70175828
 30
0.0
 40
2.500000000000004
  0
CIRCLE
  5
11C
330
1F
100
AcDbEntity
  8
0
  6
Continuous
 62
     7
100
AcDbCircle
 10
-59.8597777936
 20
-230.2016016732
 30
0.0
 40
2.499999999999996
  0
CIRCLE
  5
11D
330
1F
100
AcDbEntity
  8
0
  6
Continuous
 62
     7
100
AcDbCircle
 10
-211.8106552386
 20
-95.1034414627
 30
0.0
 40
2.500000000000008
  0
CIRCLE
  5
11E
330
1F
100
AcDbEntity
  8
0
  6
Continuous
 62
     7
100
AcDbCircle
 10
-187.8109820701
 20
-95.1034414627
 30
0.0
 40
2.500000000000008
  0
CIRCLE
  5
11F
330
1F
100
AcDbEntity
  8
0
  6
Continuous
 62
     7
100
AcDbCircle
 10
-87.8123438684
 20
-95.1034414627
 30
0.0
 40
2.499999999999994
  0
CIRCLE
  5
120
330
1F
100
AcDbEntity
  8
0
  6
Continuous
 62
     7
100
AcDbCircle
 10
-111.8120170368
 20
-95.1034414627
 30
0.0
 40
2.49999999999999
  0
CIRCLE
  5
121
330
1F
100
AcDbEntity
  8
0
  6
Continuous
 62
     7
100
AcDbCircle
 10
-244.3102126541
 20
-51.0329756193
 30
0.0
 40
2.500000000000008
  0
CIRCLE
  5
122
330
1F
100
AcDbEntity
  8
0
  6
Continuous
 62
     7
100
AcDbCircle
 10
-244.3102126541
 20
-40.0331254171
 30
0.0
 40
2.500000000000005
  0
CIRCLE
  5
123
330
1F
100
AcDbEntity
  8
0
  6
Continuous
 62
     7
100
AcDbCircle
 10
-211.8106552386
 20
0.895251211
 30
0.0
 40
2.499999999999979
  0
CIRCLE
  5
124
330
1F
100
AcDbEntity
  8
0
  6
Continuous
 62
     7
100
AcDbCircle
 10
-187.8109820702
 20
0.895251211
 30
0.0
 40
2.500000000000006
  0
CIRCLE
  5
125
330
1F
100
AcDbEntity
  8
0
  6
Continuous
 62
     7
100
AcDbCircle
 10
-147.8115267895
 20
-39.1042040697
 30
0.0
 40
2.500000000000005
  0
CIRCLE
  5
126
330
1F
100
AcDbEntity
  8
0
  6
Continuous
 62
     7
100
AcDbCircle
 10
-147.8115267895
 20
-55.103986182
 30
0.0
 40
2.49999999999998
  0
CIRCLE
  5
127
330
1F
100
AcDbEntity
  8
0
  6
Continuous
 62
     7
100
AcDbCircle
 10
-87.8123438684
 20
0.895251211
 30
0.0
 40
2.499999999999992
  0
CIRCLE
  5
128
330
1F
100
AcDbEntity
  8
0
  6
Continuous
 62
     7
100
AcDbCircle
 10
-111.8120170368
 20
0.895251211
 30
0.0
 40
2.499999999999992
  0
CIRCLE
  5
129
330
1F
100
AcDbEntity
  8
0
  6
Continuous
 62
     7
100
AcDbCircle
 10
87.7382121921
 20
180.2928081449
 30
0.0
 40
2.49999999999999
  0
CIRCLE
  5
12A
330
1F
100
AcDbEntity
  8
0
  6
Continuous
 62
     7
100
AcDbCircle
 10
107.7379398325
 20
180.2928081449
 30
0.0
 40
2.49999999999999
  0
CIRCLE
  5
12B
330
1F
100
AcDbEntity
  8
0
  6
Continuous
 62
     7
100
AcDbCircle
 10
98.7380623943
 20
58.5444661343
 30
0.0
 40
2.500000000000008
  0
CIRCLE
  5
12C
330
1F
100
AcDbEntity
  8
0
  6
Continuous
 62
     7
100
AcDbCircle
 10
98.7380623943
 20
-76.9536886291
 30
0.0
 40
2.499999999999994
  0
CIRCLE
  5
12D
330
1F
100
AcDbEntity
  8
0
  6
Continuous
 62
     7
100
AcDbCircle
 10
419.7336910219
 20
180.2928081449
 30
0.0
 40
2.500000000000004
  0
CIRCLE
  5
12E
330
1F
100
AcDbEntity
  8
0
  6
Continuous
 62
     7
100
AcDbCircle
 10
439.7334186623
 20
180.2928081449
 30
0.0
 40
2.500000000000004
  0
CIRCLE
  5
12F
330
1F
100
AcDbEntity
  8
0
  6
Continuous
 62
     7
100
AcDbCircle
 10
428.7335684601
 20
58.5444661343
 30
0.0
 40
2.50000000000006
  0
CIRCLE
  5
130
330
1F
100
AcDbEntity
  8
0
  6
Continuous
 62
     7
100
AcDbCircle
 10
428.7335684601
 20
-76.9536886291
 30
0.0
 40
2.500000000000062
  0
LINE
  5
131
330
1F
100
AcDbEntity
  8
0
  6
Continuous
 62
     7
100
AcDbLine
 10
-137.858715591
 20
-189.7021533505
 30
0.0
 11
-137.858715591
 21
-196.7020580396
 31
0.0
  0
LINE
  5
132
330
1F
100
AcDbEntity
  8
0
  6
Continuous
 62
     7
100
AcDbLine
 10
45.1387923182
 20
183.0999009089
 30
0.0
 11
45.1387923182
 21
54.1016582088
 31
0.0
  0
LINE
  5
133
330
1F
100
AcDbEntity
  8
0
  6
Continuous
 62
     7
100
AcDbLine
 10
-335.8560192304
 20
192.0997783471
 30
0.0
 11
36.13891488
 21
192.0997783471
 31
0.0
  0
LINE
  5
134
330
1F
100
AcDbEntity
  8
0
  6
Continuous
 62
     7
100
AcDbLine
 10
-344.8558966685
 20
54.1016582088
 30
0.0
 11
-344.8558966685
 21
183.0999009089
 31
0.0
  0
LINE
  5
135
330
1F
100
AcDbEntity
  8
0
  6
Continuous
 62
     7
100
AcDbLine
 10
-344.8558966685
 20
54.1016582088
 30
0.0
 11
-308.4528813879
 21
54.1016582088
 31
0.0
  0
LINE
  5
136
330
1F
100
AcDbEntity
  8
0
  6
Continuous
 62
     7
100
AcDbLine
 10
-304.4528813879
 20
50.1016582088
 30
0.0
 11
-304.4528813879
 21
41.2947560965
 31
0.0
  0
LINE
  5
137
330
1F
100
AcDbEntity
  8
0
  6
Continuous
 62
     7
100
AcDbLine
 10
-308.4528813879
 20
37.2947560965
 30
0.0
 11
-344.8558966685
 21
37.2947560965
 31
0.0
  0
LINE
  5
138
330
1F
100
AcDbEntity
  8
0
  6
Continuous
 62
     7
100
AcDbLine
 10
-344.8558966685
 20
-239.7014723024
 30
0.0
 11
-344.8558966685
 21
37.2947560965
 31
0.0
  0
LINE
  5
139
330
1F
100
AcDbEntity
  8
0
  6
CENTERX2
 62
     7
100
AcDbLine
 10
-137.858715591
 20
-189.7021533505
 30
0.0
 11
-127.8586401954
 21
-189.7021533505
 31
0.0
  0
LINE
  5
13A
330
1F
100
AcDbEntity
  8
0
  6
CENTERX2
 62
     7
100
AcDbLine
 10
-171.8582525795
 20
-189.702153276
 30
0.0
 11
-161.8583887594
 21
-189.702153276
 31
0.0
  0
LINE
  5
13B
330
1F
100
AcDbEntity
  8
0
  6
CENTERX2
 62
     7
100
AcDbLine
 10
-238.810287553
 20
-47.1040951259
 30
0.0
 11
-149.8114995535
 21
-47.1040951259
 31
0.0
  0
LINE
  5
13C
330
1F
100
AcDbEntity
  8
0
  6
CENTERX2
 62
     7
100
AcDbLine
 10
-149.8114995535
 20
-85.9944384759
 30
0.0
 11
-149.8114995535
 21
-44.0732274438
 31
0.0
  0
LINE
  5
13D
330
1F
100
AcDbEntity
  8
0
  6
Continuous
 62
     7
100
AcDbLine
 10
-114.4566354289
 20
-54.8821703296
 30
0.0
 11
-71.8125617561
 21
-97.5262440023
 31
0.0
  0
LINE
  5
13E
330
1F
100
AcDbEntity
  8
0
  6
Continuous
 62
     7
100
AcDbLine
 10
36.13891488
 20
-248.7013497405
 30
0.0
 11
-335.8560192304
 21
-248.7013497405
 31
0.0
  0
LINE
  5
13F
330
1F
100
AcDbEntity
  8
0
  6
Continuous
 62
     7
100
AcDbLine
 10
45.1387923182
 20
37.2947560965
 30
0.0
 11
45.1387923182
 21
-239.7014723024
 31
0.0
  0
LINE
  5
140
330
1F
100
AcDbEntity
  8
0
  6
Continuous
 62
     7
100
AcDbLine
 10
8.7357770375
 20
37.2947560965
 30
0.0
 11
45.1387923182
 21
37.2947560965
 31
0.0
  0
LINE
  5
141
330
1F
100
AcDbEntity
  8
0
  6
Continuous
 62
     7
100
AcDbLine
 10
4.7357770375
 20
50.1016582088
 30
0.0
 11
4.7357770375
 21
41.2947560965
 31
0.0
  0
LINE
  5
142
330
1F
100
AcDbEntity
  8
0
  6
Continuous
 62
     7
100
AcDbLine
 10
45.1387923182
 20
54.1016582088
 30
0.0
 11
8.7357770375
 21
54.1016582088
 31
0.0
  0
LINE
  5
143
330
1F
100
AcDbEntity
  8
0
  6
Continuous
 62
     7
100
AcDbLine
 10
-288.0495937475
 20
-221.7981506171
 30
0.0
 11
-300.8564413878
 21
-221.7981506171
 31
0.0
  0
LINE
  5
144
330
1F
100
AcDbEntity
  8
0
  6
Continuous
 62
     7
100
AcDbLine
 10
-284.0495937475
 20
-234.6050527294
 30
0.0
 11
-284.0495937475
 21
-225.7981506171
 31
0.0
  0
LINE
  5
145
330
1F
100
AcDbEntity
  8
0
  6
Continuous
 62
     7
100
AcDbLine
 10
-300.8564413878
 20
-238.6050527294
 30
0.0
 11
-288.0495937475
 21
-238.6050527294
 31
0.0
  0
LINE
  5
146
330
1F
100
AcDbEntity
  8
0
  6
Continuous
 62
     7
100
AcDbLine
 10
-304.8564413878
 20
-225.7981506171
 30
0.0
 11
-304.8564413878
 21
-234.6050527294
 31
0.0
  0
LINE
  5
147
330
1F
100
AcDbEntity
  8
0
  6
Continuous
 62
     7
100
AcDbLine
 10
-143.051568355
 20
-221.7981506171
 30
0.0
 11
-155.8584159953
 21
-221.7981506171
 31
0.0
  0
LINE
  5
148
330
1F
100
AcDbEntity
  8
0
  6
Continuous
 62
     7
100
AcDbLine
 10
-139.051568355
 20
-234.6050527294
 30
0.0
 11
-139.051568355
 21
-225.7981506171
 31
0.0
  0
LINE
  5
149
330
1F
100
AcDbEntity
  8
0
  6
Continuous
 62
     7
100
AcDbLine
 10
-155.8584159953
 20
-238.6050527294
 30
0.0
 11
-143.051568355
 21
-238.6050527294
 31
0.0
  0
LINE
  5
14A
330
1F
100
AcDbEntity
  8
0
  6
Continuous
 62
     7
100
AcDbLine
 10
-159.8584159953
 20
-225.7981506171
 30
0.0
 11
-159.8584159953
 21
-234.6050527294
 31
0.0
  0
LINE
  5
14B
330
1F
100
AcDbEntity
  8
0
  6
Continuous
 62
     7
100
AcDbLine
 10
1.9464570375
 20
-221.7981506171
 30
0.0
 11
-10.8603906028
 21
-221.7981506171
 31
0.0
  0
LINE
  5
14C
330
1F
100
AcDbEntity
  8
0
  6
Continuous
 62
     7
100
AcDbLine
 10
5.9464570375
 20
-234.6050527294
 30
0.0
 11
5.9464570375
 21
-225.7981506171
 31
0.0
  0
LINE
  5
14D
330
1F
100
AcDbEntity
  8
0
  6
Continuous
 62
     7
100
AcDbLine
 10
-10.8603906028
 20
-238.6050527294
 30
0.0
 11
1.9464570375
 21
-238.6050527294
 31
0.0
  0
LINE
  5
14E
330
1F
100
AcDbEntity
  8
0
  6
Continuous
 62
     7
100
AcDbLine
 10
-14.8603906028
 20
-225.7981506171
 30
0.0
 11
-14.8603906028
 21
-234.6050527294
 31
0.0
  0
LINE
  5
14F
330
1F
100
AcDbEntity
  8
0
  6
Continuous
 62
     7
100
AcDbLine
 10
-306.0492941519
 20
134.6969401002
 30
0.0
 11
-306.0492941519
 21
121.8900924598
 31
0.0
  0
LINE
  5
150
330
1F
100
AcDbEntity
  8
0
  6
Continuous
 62
     7
100
AcDbLine
 10
-310.0492941519
 20
117.8900924598
 30
0.0
 11
-318.8561962642
 21
117.8900924598
 31
0.0
  0
LINE
  5
151
330
1F
100
AcDbEntity
  8
0
  6
Continuous
 62
     7
100
AcDbLine
 10
-322.8561962642
 20
121.8900924598
 30
0.0
 11
-322.8561962642
 21
134.6969401002
 31
0.0
  0
LINE
  5
152
330
1F
100
AcDbEntity
  8
0
  6
Continuous
 62
     7
100
AcDbLine
 10
-318.8561962642
 20
138.6969401002
 30
0.0
 11
-310.0492941519
 21
138.6969401002
 31
0.0
  0
LINE
  5
153
330
1F
100
AcDbEntity
  8
0
  6
Continuous
 62
     7
100
AcDbLine
 10
11.1393098015
 20
117.8900924598
 30
0.0
 11
19.9462119138
 21
117.8900924598
 31
0.0
  0
LINE
  5
154
330
1F
100
AcDbEntity
  8
0
  6
Continuous
 62
     7
100
AcDbLine
 10
7.1393098015
 20
134.6969401002
 30
0.0
 11
7.1393098015
 21
121.8900924598
 31
0.0
  0
LINE
  5
155
330
1F
100
AcDbEntity
  8
0
  6
Continuous
 62
     7
100
AcDbLine
 10
19.9462119138
 20
138.6969401002
 30
0.0
 11
11.1393098015
 21
138.6969401002
 31
0.0
  0
LINE
  5
156
330
1F
100
AcDbEntity
  8
0
  6
Continuous
 62
     7
100
AcDbLine
 10
23.9462119138
 20
121.8900924598
 30
0.0
 11
23.9462119138
 21
134.6969401002
 31
0.0
  0
LINE
  5
157
330
1F
100
AcDbEntity
  8
0
  6
Continuous
 62
     7
100
AcDbLine
 10
5.9464570375
 20
177.1963613359
 30
0.0
 11
5.9464570375
 21
168.3894592236
 31
0.0
  0
LINE
  5
158
330
1F
100
AcDbEntity
  8
0
  6
Continuous
 62
     7
100
AcDbLine
 10
1.9464570375
 20
164.3894592236
 30
0.0
 11
-10.8603906028
 21
164.3894592236
 31
0.0
  0
LINE
  5
159
330
1F
100
AcDbEntity
  8
0
  6
Continuous
 62
     7
100
AcDbLine
 10
-14.8603906028
 20
168.3894592236
 30
0.0
 11
-14.8603906028
 21
177.1963613359
 31
0.0
  0
LINE
  5
15A
330
1F
100
AcDbEntity
  8
0
  6
Continuous
 62
     7
100
AcDbLine
 10
-10.8603906028
 20
181.1963613359
 30
0.0
 11
1.9464570375
 21
181.1963613359
 31
0.0
  0
LINE
  5
15B
330
1F
100
AcDbEntity
  8
0
  6
Continuous
 62
     7
100
AcDbLine
 10
-155.8584159953
 20
164.3894592236
 30
0.0
 11
-143.051568355
 21
164.3894592236
 31
0.0
  0
LINE
  5
15C
330
1F
100
AcDbEntity
  8
0
  6
Continuous
 62
     7
100
AcDbLine
 10
-159.8584159953
 20
177.1963613359
 30
0.0
 11
-159.8584159953
 21
168.3894592236
 31
0.0
  0
LINE
  5
15D
330
1F
100
AcDbEntity
  8
0
  6
Continuous
 62
     7
100
AcDbLine
 10
-143.051568355
 20
181.1963613359
 30
0.0
 11
-155.8584159953
 21
181.1963613359
 31
0.0
  0
LINE
  5
15E
330
1F
100
AcDbEntity
  8
0
  6
Continuous
 62
     7
100
AcDbLine
 10
-139.051568355
 20
168.3894592236
 30
0.0
 11
-139.051568355
 21
177.1963613359
 31
0.0
  0
LINE
  5
15F
330
1F
100
AcDbEntity
  8
0
  6
Continuous
 62
     7
100
AcDbLine
 10
-304.8564413878
 20
168.3894592236
 30
0.0
 11
-304.8564413878
 21
177.1963613359
 31
0.0
  0
LINE
  5
160
330
1F
100
AcDbEntity
  8
0
  6
Continuous
 62
     7
100
AcDbLine
 10
-300.8564413878
 20
181.1963613359
 30
0.0
 11
-288.0495937475
 21
181.1963613359
 31
0.0
  0
LINE
  5
161
330
1F
100
AcDbEntity
  8
0
  6
Continuous
 62
     7
100
AcDbLine
 10
-284.0495937475
 20
177.1963613359
 30
0.0
 11
-284.0495937475
 21
168.3894592236
 31
0.0
  0
LINE
  5
162
330
1F
100
AcDbEntity
  8
0
  6
Continuous
 62
     7
100
AcDbLine
 10
-288.0495937475
 20
164.3894592236
 30
0.0
 11
-300.8564413878
 21
164.3894592236
 31
0.0
  0
LINE
  5
163
330
1F
100
AcDbEntity
  8
0
  6
Continuous
 62
     7
100
AcDbLine
 10
-174.7796996149
 20
141.2933392462
 30
0.0
 11
-174.7796996149
 21
134.3644564009
 31
0.0
  0
LINE
  5
164
330
1F
100
AcDbEntity
  8
0
  6
Continuous
 62
     7
100
AcDbLine
 10
-124.8586810494
 20
141.2933439452
 30
0.0
 11
-124.8586810494
 21
134.3462818369
 31
0.0
  0
LINE
  5
165
330
1F
100
AcDbEntity
  8
0
  6
Continuous
 62
     7
100
AcDbLine
 10
-103.858967027
 20
151.2932077654
 30
0.0
 11
-114.8588172292
 21
151.2932077654
 31
0.0
  0
LINE
  5
166
330
1F
100
AcDbEntity
  8
0
  6
Continuous
 62
     7
100
AcDbLine
 10
-66.8594708924
 20
151.2932077654
 30
0.0
 11
-95.8590759709
 21
151.2932077654
 31
0.0
  0
LINE
  5
167
330
1F
100
AcDbEntity
  8
0
  6
Continuous
 62
     7
100
AcDbLine
 10
-36.8598794319
 20
-178.7022983003
 30
0.0
 11
-36.8598794319
 21
121.2936163048
 31
0.0
  0
LINE
  5
168
330
1F
100
AcDbEntity
  8
0
  6
Continuous
 62
     7
100
AcDbLine
 10
-95.8590759709
 20
-208.7018897609
 30
0.0
 11
-66.8594708924
 21
-208.7018897609
 31
0.0
  0
LINE
  5
169
330
1F
100
AcDbEntity
  8
0
  6
Continuous
 62
     7
100
AcDbLine
 10
-117.8587763753
 20
-208.7018897609
 30
0.0
 11
-103.858967027
 21
-208.7018897609
 31
0.0
  0
LINE
  5
16A
330
1F
100
AcDbEntity
  8
0
  6
Continuous
 62
     7
100
AcDbLine
 10
-127.8586401954
 20
-198.7020259407
 30
0.0
 11
-127.8586401954
 21
-189.7021533505
 31
0.0
  0
LINE
  5
16B
330
1F
100
AcDbEntity
  8
0
  6
Continuous
 62
     7
100
AcDbLine
 10
-171.8582525795
 20
-189.702153276
 30
0.0
 11
-171.8582525795
 21
-198.7020306397
 31
0.0
  0
LINE
  5
16C
330
1F
100
AcDbEntity
  8
0
  6
Continuous
 62
     7
100
AcDbLine
 10
-195.9088684504
 20
-208.7018944599
 30
0.0
 11
-181.8581163997
 21
-208.7018944599
 31
0.0
  0
LINE
  5
16D
330
1F
100
AcDbEntity
  8
0
  6
Continuous
 62
     7
100
AcDbLine
 10
-232.9083645851
 20
-208.7018944599
 30
0.0
 11
-203.9087595066
 21
-208.7018944599
 31
0.0
  0
LINE
  5
16E
330
1F
100
AcDbEntity
  8
0
  6
Continuous
 62
     7
100
AcDbLine
 10
-203.8578168041
 20
151.2932030664
 30
0.0
 11
-232.8574218826
 21
151.2932030664
 31
0.0
  0
LINE
  5
16F
330
1F
100
AcDbEntity
  8
0
  6
Continuous
 62
     7
100
AcDbLine
 10
-184.7795634351
 20
151.2932030664
 30
0.0
 11
-195.857925748
 21
151.2932030664
 31
0.0
  0
LINE
  5
170
330
1F
100
AcDbEntity
  8
0
  6
Continuous
 62
     7
100
AcDbLine
 10
-234.9610975677
 20
-147.1027333276
 30
0.0
 11
-158.6787396176
 21
-147.1027333276
 31
0.0
  0
LINE
  5
171
330
1F
100
AcDbEntity
  8
0
  6
Continuous
 62
     7
100
AcDbLine
 10
-140.9442594907
 20
-147.1027333276
 30
0.0
 11
-64.6619015406
 21
-147.1027333276
 31
0.0
  0
LINE
  5
172
330
1F
100
AcDbEntity
  8
0
  6
Continuous
 62
     7
100
AcDbLine
 10
-49.8128613523
 20
-132.2536931394
 30
0.0
 11
-49.8128613523
 21
-55.9713351892
 31
0.0
  0
LINE
  5
173
330
1F
100
AcDbEntity
  8
0
  6
Continuous
 62
     7
100
AcDbLine
 10
-49.8128613523
 20
-38.2368550624
 30
0.0
 11
-49.8128613523
 21
38.0455028876
 31
0.0
  0
LINE
  5
174
330
1F
100
AcDbEntity
  8
0
  6
Continuous
 62
     7
100
AcDbLine
 10
-64.6619015406
 20
52.8945430758
 30
0.0
 11
-234.9610975677
 21
52.8945430758
 31
0.0
  0
LINE
  5
175
330
1F
100
AcDbEntity
  8
0
  6
Continuous
 62
     7
100
AcDbLine
 10
-249.8101377552
 20
38.0455028877
 30
0.0
 11
-249.8101377552
 21
-132.2536931394
 31
0.0
  0
LINE
  5
176
330
1F
100
AcDbEntity
  8
0
  6
Continuous
 62
     7
100
AcDbLine
 10
-60.812711554
 20
-59.4764589526
 30
0.0
 11
-60.812711554
 21
-92.9699568645
 31
0.0
  0
LINE
  5
177
330
1F
100
AcDbEntity
  8
0
  6
Continuous
 62
     7
100
AcDbLine
 10
-71.8125617561
 20
3.3180537506
 30
0.0
 11
-114.4465538147
 21
-39.315938308
 31
0.0
  0
LINE
  5
178
330
1F
100
AcDbEntity
  8
0
  6
Continuous
 62
     7
100
AcDbLine
 10
-60.812711554
 20
-1.2382333873
 30
0.0
 11
-60.812711554
 21
-34.7317312991
 31
0.0
  0
LINE
  5
179
330
1F
100
AcDbEntity
  8
0
  6
Continuous
 62
     7
100
AcDbLine
 10
-199.919944203
 20
41.8946928737
 30
0.0
 11
-99.703054904
 21
41.8946928737
 31
0.0
  0
LINE
  5
17A
330
1F
100
AcDbEntity
  8
0
  6
Continuous
 62
     7
100
AcDbLine
 10
-95.1467677662
 20
30.8948426715
 30
0.0
 11
-142.0334308835
 21
-15.9918204459
 31
0.0
  0
LINE
  5
17B
330
1F
100
AcDbEntity
  8
0
  6
Continuous
 62
     7
100
AcDbLine
 10
-157.5895682235
 20
-15.9918204459
 30
0.0
 11
-204.4762313408
 21
30.8948426715
 31
0.0
  0
LINE
  5
17C
330
1F
100
AcDbEntity
  8
0
  6
Continuous
 62
     7
100
AcDbLine
 10
-99.703054904
 20
-136.1028831254
 30
0.0
 11
-137.4391357267
 21
-136.1028831254
 31
0.0
  0
LINE
  5
17D
330
1F
100
AcDbEntity
  8
0
  6
Continuous
 62
     7
100
AcDbLine
 10
-162.1838633803
 20
-136.1028831254
 30
0.0
 11
-199.919944203
 21
-136.1028831254
 31
0.0
  0
LINE
  5
17E
330
1F
100
AcDbEntity
  8
0
  6
Continuous
 62
     7
100
AcDbLine
 10
-199.919944203
 20
-136.1028831254
 30
0.0
 11
-200.9138127401
 21
-136.0793316018
 31
0.0
  0
LINE
  5
17F
330
1F
100
AcDbEntity
  8
0
  6
Continuous
 62
     7
100
AcDbLine
 10
-204.4762313408
 20
-125.1030329232
 30
0.0
 11
-157.5895682235
 21
-78.2163698059
 31
0.0
  0
LINE
  5
180
330
1F
100
AcDbEntity
  8
0
  6
Continuous
 62
     7
100
AcDbLine
 10
-142.5587943559
 20
-77.7243132176
 30
0.0
 11
-142.0334308835
 21
-78.2163698059
 31
0.0
  0
LINE
  5
181
330
1F
100
AcDbEntity
  8
0
  6
Continuous
 62
     7
100
AcDbLine
 10
-142.0334308835
 20
-78.2163698059
 30
0.0
 11
-95.1467677662
 21
-125.1030329232
 31
0.0
  0
LINE
  5
182
330
1F
100
AcDbEntity
  8
0
  6
Continuous
 62
     7
100
AcDbLine
 10
-227.8104373508
 20
3.3180537506
 30
0.0
 11
-185.176451826
 21
-39.3159317743
 31
0.0
  0
LINE
  5
183
330
1F
100
AcDbEntity
  8
0
  6
Continuous
 62
     7
100
AcDbLine
 10
-185.176451826
 20
-54.8922584775
 30
0.0
 11
-227.8104373508
 21
-97.5262440023
 31
0.0
  0
LINE
  5
184
330
1F
100
AcDbEntity
  8
0
  6
Continuous
 62
     7
100
AcDbLine
 10
-238.810287553
 20
-92.9699568645
 30
0.0
 11
-238.810287553
 21
-1.2382333873
 31
0.0
  0
LINE
  5
185
330
1F
100
AcDbEntity
  8
0
  6
Continuous
 62
     7
100
AcDbLine
 10
-247.0320009953
 20
57.8944749859
 30
0.0
 11
-252.0319329054
 21
62.894406896
 31
0.0
  0
LINE
  5
186
330
1F
100
AcDbEntity
  8
0
  6
Continuous
 62
     7
100
AcDbLine
 10
-252.0319329054
 20
62.894406896
 30
0.0
 11
-254.3100764743
 21
62.894406896
 31
0.0
  0
LINE
  5
187
330
1F
100
AcDbEntity
  8
0
  6
Continuous
 62
     7
100
AcDbLine
 10
-259.8100015754
 20
57.3944817949
 30
0.0
 11
-259.8100015754
 21
55.116338226
 31
0.0
  0
LINE
  5
188
330
1F
100
AcDbEntity
  8
0
  6
Continuous
 62
     7
100
AcDbLine
 10
-259.8100015754
 20
55.116338226
 30
0.0
 11
-254.8100696653
 21
50.1164063159
 31
0.0
  0
LINE
  5
189
330
1F
100
AcDbEntity
  8
0
  6
Continuous
 62
     7
100
AcDbLine
 10
-254.8100696653
 20
-144.3245965677
 30
0.0
 11
-259.8100015754
 21
-149.3245284778
 31
0.0
  0
LINE
  5
18A
330
1F
100
AcDbEntity
  8
0
  6
Continuous
 62
     7
100
AcDbLine
 10
-259.8100015754
 20
-149.3245284778
 30
0.0
 11
-259.8100015754
 21
-151.6026720467
 31
0.0
  0
LINE
  5
18B
330
1F
100
AcDbEntity
  8
0
  6
Continuous
 62
     7
100
AcDbLine
 10
-254.3100764743
 20
-157.1025971478
 30
0.0
 11
-252.0319329054
 21
-157.1025971478
 31
0.0
  0
LINE
  5
18C
330
1F
100
AcDbEntity
  8
0
  6
Continuous
 62
     7
100
AcDbLine
 10
-252.0319329054
 20
-157.1025971478
 30
0.0
 11
-247.0320009953
 21
-152.1026652377
 31
0.0
  0
LINE
  5
18D
330
1F
100
AcDbEntity
  8
0
  6
Continuous
 62
     7
100
AcDbLine
 10
-155.3114246553
 20
-151.6026720466
 30
0.0
 11
-155.124019252
 21
-153.0261574095
 31
0.0
  0
LINE
  5
18E
330
1F
100
AcDbEntity
  8
0
  6
Continuous
 62
     7
100
AcDbLine
 10
-144.4989798563
 20
-153.0261574095
 30
0.0
 11
-144.3115744531
 21
-151.6026720467
 31
0.0
  0
LINE
  5
18F
330
1F
100
AcDbEntity
  8
0
  6
Continuous
 62
     7
100
AcDbLine
 10
-52.5909981124
 20
-152.1026652377
 30
0.0
 11
-47.5910662023
 21
-157.1025971478
 31
0.0
  0
LINE
  5
190
330
1F
100
AcDbEntity
  8
0
  6
Continuous
 62
     7
100
AcDbLine
 10
-47.5910662023
 20
-157.1025971478
 30
0.0
 11
-45.3129226332
 21
-157.1025971478
 31
0.0
  0
LINE
  5
191
330
1F
100
AcDbEntity
  8
0
  6
Continuous
 62
     7
100
AcDbLine
 10
-39.8129975322
 20
-151.6026720467
 30
0.0
 11
-39.8129975322
 21
-149.3245284777
 31
0.0
  0
LINE
  5
192
330
1F
100
AcDbEntity
  8
0
  6
Continuous
 62
     7
100
AcDbLine
 10
-39.8129975322
 20
-149.3245284777
 30
0.0
 11
-44.8129294422
 21
-144.3245965677
 31
0.0
  0
LINE
  5
193
330
1F
100
AcDbEntity
  8
0
  6
Continuous
 62
     7
100
AcDbLine
 10
-44.8129294422
 20
50.1164063159
 30
0.0
 11
-39.8129975322
 21
55.116338226
 31
0.0
  0
LINE
  5
194
330
1F
100
AcDbEntity
  8
0
  6
Continuous
 62
     7
100
AcDbLine
 10
-39.8129975322
 20
55.116338226
 30
0.0
 11
-39.8129975322
 21
57.3944817949
 31
0.0
  0
LINE
  5
195
330
1F
100
AcDbEntity
  8
0
  6
Continuous
 62
     7
100
AcDbLine
 10
-45.3129226332
 20
62.894406896
 30
0.0
 11
-47.5910662023
 21
62.894406896
 31
0.0
  0
LINE
  5
196
330
1F
100
AcDbEntity
  8
0
  6
Continuous
 62
     7
100
AcDbLine
 10
-47.5910662023
 20
62.894406896
 30
0.0
 11
-52.5909981124
 21
57.8944749859
 31
0.0
  0
LINE
  5
197
330
1F
100
AcDbEntity
  8
0
  6
Continuous
 62
     7
100
AcDbLine
 10
-195.9088684504
 20
-228.7016221002
 30
0.0
 11
-203.9087595066
 21
-228.7016221002
 31
0.0
  0
LINE
  5
198
330
1F
100
AcDbEntity
  8
0
  6
Continuous
 62
     7
100
AcDbLine
 10
-195.9088684504
 20
-208.7018944599
 30
0.0
 11
-195.9088684504
 21
-228.7016221002
 31
0.0
  0
LINE
  5
199
330
1F
100
AcDbEntity
  8
0
  6
Continuous
 62
     7
100
AcDbLine
 10
-203.9087595066
 20
-208.7018944599
 30
0.0
 11
-195.9088684504
 21
-208.7018944599
 31
0.0
  0
LINE
  5
19A
330
1F
100
AcDbEntity
  8
0
  6
Continuous
 62
     7
100
AcDbLine
 10
-203.9087595066
 20
-228.7016221002
 30
0.0
 11
-203.9087595066
 21
-208.7018944599
 31
0.0
  0
LINE
  5
19B
330
1F
100
AcDbEntity
  8
0
  6
Continuous
 62
     7
100
AcDbLine
 10
-103.858967027
 20
-208.7018897609
 30
0.0
 11
-95.8590759709
 21
-208.7018897609
 31
0.0
  0
LINE
  5
19C
330
1F
100
AcDbEntity
  8
0
  6
Continuous
 62
     7
100
AcDbLine
 10
-103.858967027
 20
-228.7016174012
 30
0.0
 11
-103.858967027
 21
-208.7018897609
 31
0.0
  0
LINE
  5
19D
330
1F
100
AcDbEntity
  8
0
  6
Continuous
 62
     7
100
AcDbLine
 10
-95.8590759709
 20
-228.7016174012
 30
0.0
 11
-103.858967027
 21
-228.7016174012
 31
0.0
  0
LINE
  5
19E
330
1F
100
AcDbEntity
  8
0
  6
Continuous
 62
     7
100
AcDbLine
 10
-95.8590759709
 20
-208.7018897609
 30
0.0
 11
-95.8590759709
 21
-228.7016174012
 31
0.0
  0
LINE
  5
19F
330
1F
100
AcDbEntity
  8
0
  6
Continuous
 62
     7
100
AcDbLine
 10
-95.8590759709
 20
151.2932077654
 30
0.0
 11
-103.858967027
 21
151.2932077654
 31
0.0
  0
LINE
  5
1A0
330
1F
100
AcDbEntity
  8
0
  6
Continuous
 62
     7
100
AcDbLine
 10
-95.8590759709
 20
151.2932077654
 30
0.0
 11
-95.8590759709
 21
171.2929354057
 31
0.0
  0
LINE
  5
1A1
330
1F
100
AcDbEntity
  8
0
  6
Continuous
 62
     7
100
AcDbLine
 10
-95.8590759709
 20
171.2929354057
 30
0.0
 11
-103.858967027
 21
171.2929354057
 31
0.0
  0
LINE
  5
1A2
330
1F
100
AcDbEntity
  8
0
  6
Continuous
 62
     7
100
AcDbLine
 10
-103.858967027
 20
171.2929354057
 30
0.0
 11
-103.858967027
 21
151.2932077654
 31
0.0
  0
LINE
  5
1A3
330
1F
100
AcDbEntity
  8
0
  6
Continuous
 62
     7
100
AcDbLine
 10
-195.857925748
 20
151.2932030664
 30
0.0
 11
-203.8578168041
 21
151.2932030664
 31
0.0
  0
LINE
  5
1A4
330
1F
100
AcDbEntity
  8
0
  6
Continuous
 62
     7
100
AcDbLine
 10
-195.857925748
 20
151.2932030664
 30
0.0
 11
-195.857925748
 21
171.2929307067
 31
0.0
  0
LINE
  5
1A5
330
1F
100
AcDbEntity
  8
0
  6
Continuous
 62
     7
100
AcDbLine
 10
-195.857925748
 20
171.2929307067
 30
0.0
 11
-203.8578168041
 21
171.2929307067
 31
0.0
  0
LINE
  5
1A6
330
1F
100
AcDbEntity
  8
0
  6
Continuous
 62
     7
100
AcDbLine
 10
-203.8578168041
 20
171.2929307067
 30
0.0
 11
-203.8578168041
 21
151.2932030664
 31
0.0
  0
LINE
  5
1A7
330
1F
100
AcDbEntity
  8
0
  6
Continuous
 62
     7
100
AcDbLine
 10
-161.8583887594
 20
-196.7020580396
 30
0.0
 11
-161.8583887594
 21
-189.702153276
 31
0.0
  0
LINE
  5
1A8
330
1F
100
AcDbEntity
  8
0
  6
Continuous
 62
     7
100
AcDbLine
 10
-132.8586778932
 20
-184.7022212903
 30
0.0
 11
-166.8583207067
 21
-184.7022212903
 31
0.0
  0
LINE
  5
1A9
330
1F
100
AcDbEntity
  8
0
  6
Continuous
 62
     7
100
AcDbLine
 10
-252.9080922254
 20
109.493772298
 30
0.0
 11
-246.1081848277
 21
109.493772298
 31
0.0
  0
LINE
  5
1AA
330
1F
100
AcDbEntity
  8
0
  6
Continuous
 62
     7
100
AcDbLine
 10
-262.9079560456
 20
121.2426689034
 30
0.0
 11
-262.9079560456
 21
83.0941318128
 31
0.0
  0
LINE
  5
1AB
330
1F
100
AcDbEntity
  8
0
  6
Continuous
 62
     7
100
AcDbLine
 10
-252.9080922254
 20
93.093995633
 30
0.0
 11
-246.1081848277
 21
93.093995633
 31
0.0
  0
LINE
  5
1AC
330
1F
100
AcDbEntity
  8
0
  6
Continuous
 62
     7
100
AcDbLine
 10
-161.7802646733
 20
134.2934345721
 30
0.0
 11
-161.7802646733
 21
139.2210852286
 31
0.0
  0
LINE
  5
1AD
330
1F
100
AcDbEntity
  8
0
  6
Continuous
 62
     7
100
AcDbLine
 10
-174.7796996149
 20
134.3644564009
 30
0.0
 11
-174.7796996149
 21
119.3646606707
 31
0.0
  0
LINE
  5
1AE
330
1F
100
AcDbEntity
  8
0
  6
Continuous
 62
     7
100
AcDbLine
 10
-128.7803260421
 20
115.3647151426
 30
0.0
 11
-170.7797540868
 21
115.3647151426
 31
0.0
  0
LINE
  5
1AF
330
1F
100
AcDbEntity
  8
0
  6
Continuous
 62
     7
100
AcDbLine
 10
-124.8586810494
 20
134.3462818369
 30
0.0
 11
-124.8582930248
 21
119.4175079355
 31
0.0
  0
LINE
  5
1B0
330
1F
100
AcDbEntity
  8
0
  6
Continuous
 62
     7
100
AcDbLine
 10
-262.9079560456
 20
83.0941318128
 30
0.0
 11
-262.9079560456
 21
-178.7023029993
 31
0.0
  0
LINE
  5
1B1
330
1F
100
AcDbEntity
  8
0
  6
Continuous
 62
     7
100
AcDbLine
 10
139.141077675
 20
131.697035426
 30
0.0
 11
389.1376731794
 21
131.697035426
 31
0.0
  0
LINE
  5
1B2
330
1F
100
AcDbEntity
  8
0
  6
Continuous
 62
     7
100
AcDbLine
 10
399.1375369995
 20
121.6971716058
 30
0.0
 11
399.1375369995
 21
-172.2988247072
 31
0.0
  0
LINE
  5
1B3
330
1F
100
AcDbEntity
  8
0
  6
Continuous
 62
     7
100
AcDbLine
 10
399.1375369995
 20
-172.2988247072
 30
0.0
 11
414.7337046399
 21
-172.2988247072
 31
0.0
  0
LINE
  5
1B4
330
1F
100
AcDbEntity
  8
0
  6
Continuous
 62
     7
100
AcDbLine
 10
418.7337046399
 20
-176.2988247072
 30
0.0
 11
418.7337046399
 21
-238.7014859204
 31
0.0
  0
LINE
  5
1B5
330
1F
100
AcDbEntity
  8
0
  6
Continuous
 62
     7
100
AcDbLine
 10
428.7335684601
 20
-248.7013497405
 30
0.0
 11
448.7332961004
 21
-248.7013497405
 31
0.0
  0
LINE
  5
1B6
330
1F
100
AcDbEntity
  8
0
  6
Continuous
 62
     7
100
AcDbLine
 10
458.7331599206
 20
-238.7014859204
 30
0.0
 11
458.7331599206
 21
181.2927945269
 31
0.0
  0
LINE
  5
1B7
330
1F
100
AcDbEntity
  8
0
  6
Continuous
 62
     7
100
AcDbLine
 10
448.7332961004
 20
191.2926583471
 30
0.0
 11
78.738334754
 21
191.2926583471
 31
0.0
  0
LINE
  5
1B8
330
1F
100
AcDbEntity
  8
0
  6
Continuous
 62
     7
100
AcDbLine
 10
68.7384709338
 20
181.2927945269
 30
0.0
 11
68.7384709338
 21
-238.7014859204
 31
0.0
  0
LINE
  5
1B9
330
1F
100
AcDbEntity
  8
0
  6
Continuous
 62
     7
100
AcDbLine
 10
78.738334754
 20
-248.7013497405
 30
0.0
 11
98.7380623943
 21
-248.7013497405
 31
0.0
  0
LINE
  5
1BA
330
1F
100
AcDbEntity
  8
0
  6
Continuous
 62
     7
100
AcDbLine
 10
108.7379262145
 20
-176.2988247072
 30
0.0
 11
108.7379262145
 21
-238.7014859204
 31
0.0
  0
LINE
  5
1BB
330
1F
100
AcDbEntity
  8
0
  6
Continuous
 62
     7
100
AcDbLine
 10
129.1412138548
 20
-172.2988247072
 30
0.0
 11
112.7379262145
 21
-172.2988247072
 31
0.0
  0
LINE
  5
1BC
330
1F
100
AcDbEntity
  8
0
  6
Continuous
 62
     7
100
AcDbLine
 10
129.1412138548
 20
-172.2988247072
 30
0.0
 11
129.1412138548
 21
121.6971716058
 31
0.0
  0
LINE
  5
1BD
330
1F
100
AcDbEntity
  8
0
  6
Continuous
 62
     7
100
AcDbLine
 10
107.5450734505
 20
121.8900924598
 30
0.0
 11
107.5450734505
 21
134.6969401001
 31
0.0
  0
LINE
  5
1BE
330
1F
100
AcDbEntity
  8
0
  6
Continuous
 62
     7
100
AcDbLine
 10
94.7381713382
 20
117.8900924598
 30
0.0
 11
103.5450734505
 21
117.8900924598
 31
0.0
  0
LINE
  5
1BF
330
1F
100
AcDbEntity
  8
0
  6
Continuous
 62
     7
100
AcDbLine
 10
90.7381713382
 20
134.6969401001
 30
0.0
 11
90.7381713382
 21
121.8900924598
 31
0.0
  0
LINE
  5
1C0
330
1F
100
AcDbEntity
  8
0
  6
Continuous
 62
     7
100
AcDbLine
 10
103.5450734505
 20
138.6969401001
 30
0.0
 11
94.7381713382
 21
138.6969401001
 31
0.0
  0
LINE
  5
1C1
330
1F
100
AcDbEntity
  8
0
  6
Continuous
 62
     7
100
AcDbLine
 10
94.7381713382
 20
-132.2993694265
 30
0.0
 11
103.5450734505
 21
-132.2993694265
 31
0.0
  0
LINE
  5
1C2
330
1F
100
AcDbEntity
  8
0
  6
Continuous
 62
     7
100
AcDbLine
 10
107.5450734505
 20
-136.2993694265
 30
0.0
 11
107.5450734505
 21
-149.1062170669
 31
0.0
  0
LINE
  5
1C3
330
1F
100
AcDbEntity
  8
0
  6
Continuous
 62
     7
100
AcDbLine
 10
103.5450734505
 20
-153.1062170669
 30
0.0
 11
94.7381713382
 21
-153.1062170669
 31
0.0
  0
LINE
  5
1C4
330
1F
100
AcDbEntity
  8
0
  6
Continuous
 62
     7
100
AcDbLine
 10
90.7381713382
 20
-149.1062170669
 30
0.0
 11
90.7381713382
 21
-136.2993694265
 31
0.0
  0
LINE
  5
1C5
330
1F
100
AcDbEntity
  8
0
  6
Continuous
 62
     7
100
AcDbLine
 10
107.5450734505
 20
-23.6079261237
 30
0.0
 11
107.5450734505
 21
-10.8010784834
 31
0.0
  0
LINE
  5
1C6
330
1F
100
AcDbEntity
  8
0
  6
Continuous
 62
     7
100
AcDbLine
 10
94.7381713382
 20
-27.6079261237
 30
0.0
 11
103.5450734505
 21
-27.6079261237
 31
0.0
  0
LINE
  5
1C7
330
1F
100
AcDbEntity
  8
0
  6
Continuous
 62
     7
100
AcDbLine
 10
90.7381713382
 20
-10.8010784834
 30
0.0
 11
90.7381713382
 21
-23.6079261237
 31
0.0
  0
LINE
  5
1C8
330
1F
100
AcDbEntity
  8
0
  6
Continuous
 62
     7
100
AcDbLine
 10
103.5450734505
 20
-6.8010784834
 30
0.0
 11
94.7381713382
 21
-6.8010784834
 31
0.0
  0
LINE
  5
1C9
330
1F
100
AcDbEntity
  8
0
  6
Continuous
 62
     7
100
AcDbLine
 10
433.5405795162
 20
-132.2993694265
 30
0.0
 11
424.7336774039
 21
-132.2993694265
 31
0.0
  0
LINE
  5
1CA
330
1F
100
AcDbEntity
  8
0
  6
Continuous
 62
     7
100
AcDbLine
 10
437.5405795162
 20
-149.1062170669
 30
0.0
 11
437.5405795162
 21
-136.2993694265
 31
0.0
  0
LINE
  5
1CB
330
1F
100
AcDbEntity
  8
0
  6
Continuous
 62
     7
100
AcDbLine
 10
433.5405795162
 20
-153.1062170669
 30
0.0
 11
424.7336774039
 21
-153.1062170669
 31
0.0
  0
LINE
  5
1CC
330
1F
100
AcDbEntity
  8
0
  6
Continuous
 62
     7
100
AcDbLine
 10
420.7336774039
 20
-149.1062170669
 30
0.0
 11
420.7336774039
 21
-136.2993694265
 31
0.0
  0
LINE
  5
1CD
330
1F
100
AcDbEntity
  8
0
  6
Continuous
 62
     7
100
AcDbLine
 10
424.7336774039
 20
-6.8010784834
 30
0.0
 11
433.5405795162
 21
-6.8010784834
 31
0.0
  0
LINE
  5
1CE
330
1F
100
AcDbEntity
  8
0
  6
Continuous
 62
     7
100
AcDbLine
 10
437.5405795162
 20
-10.8010784834
 30
0.0
 11
437.5405795162
 21
-23.6079261237
 31
0.0
  0
LINE
  5
1CF
330
1F
100
AcDbEntity
  8
0
  6
Continuous
 62
     7
100
AcDbLine
 10
433.5405795162
 20
-27.6079261237
 30
0.0
 11
424.7336774039
 21
-27.6079261237
 31
0.0
  0
LINE
  5
1D0
330
1F
100
AcDbEntity
  8
0
  6
Continuous
 62
     7
100
AcDbLine
 10
420.7336774039
 20
-23.6079261237
 30
0.0
 11
420.7336774039
 21
-10.8010784834
 31
0.0
  0
LINE
  5
1D1
330
1F
100
AcDbEntity
  8
0
  6
Continuous
 62
     7
100
AcDbLine
 10
437.5405795162
 20
121.8900924598
 30
0.0
 11
437.5405795162
 21
134.6969401001
 31
0.0
  0
LINE
  5
1D2
330
1F
100
AcDbEntity
  8
0
  6
Continuous
 62
     7
100
AcDbLine
 10
424.7336774039
 20
117.8900924598
 30
0.0
 11
433.5405795162
 21
117.8900924598
 31
0.0
  0
LINE
  5
1D3
330
1F
100
AcDbEntity
  8
0
  6
Continuous
 62
     7
100
AcDbLine
 10
420.7336774039
 20
134.6969401001
 30
0.0
 11
420.7336774039
 21
121.8900924598
 31
0.0
  0
LINE
  5
1D4
330
1F
100
AcDbEntity
  8
0
  6
Continuous
 62
     7
100
AcDbLine
 10
433.5405795162
 20
138.6969401001
 30
0.0
 11
424.7336774039
 21
138.6969401001
 31
0.0
  0
LINE
  5
1D5
330
1F
100
AcDbEntity
  8
0
  6
Continuous
 62
     7
100
AcDbLine
 10
-304.7708911667
 20
-332.4949467031
 30
0.0
 11
-304.9419916091
 21
-335.1054349974
 31
0.0
  0
LINE
  5
1D6
330
1F
100
AcDbEntity
  8
0
  6
Continuous
 62
     7
100
AcDbLine
 10
-294.8565775677
 20
-323.80032703
 30
0.0
 11
-4.8605267827
 21
-323.80032703
 31
0.0
  0
LINE
  5
1D7
330
1F
100
AcDbEntity
  8
0
  6
Continuous
 62
     7
100
AcDbLine
 10
5.0537868163
 20
-332.4949467031
 30
0.0
 11
5.2248872587
 21
-335.1054349974
 31
0.0
  0
LINE
  5
1D8
330
1F
100
AcDbEntity
  8
0
  6
Continuous
 62
     7
100
AcDbLine
 10
15.1392008577
 20
-343.8000546704
 30
0.0
 11
35.138928498
 21
-343.8000546704
 31
0.0
  0
LINE
  5
1D9
330
1F
100
AcDbEntity
  8
0
  6
Continuous
 62
     7
100
AcDbLine
 10
45.1387923181
 20
-283.8008717494
 30
0.0
 11
45.1387923181
 21
-333.8001908502
 31
0.0
  0
LINE
  5
1DA
330
1F
100
AcDbEntity
  8
0
  6
Continuous
 62
     7
100
AcDbLine
 10
11.1571370375
 20
-283.8008717494
 30
0.0
 11
45.1387923181
 21
-283.8008717494
 31
0.0
  0
LINE
  5
1DB
330
1F
100
AcDbEntity
  8
0
  6
Continuous
 62
     7
100
AcDbLine
 10
7.1571370375
 20
-279.8008717494
 30
0.0
 11
7.1571370375
 21
-267.3975296372
 31
0.0
  0
LINE
  5
1DC
330
1F
100
AcDbEntity
  8
0
  6
Continuous
 62
     7
100
AcDbLine
 10
-12.8425906028
 20
-267.3975296372
 30
0.0
 11
7.1571370375
 21
-267.3975296372
 31
0.0
  0
LINE
  5
1DD
330
1F
100
AcDbEntity
  8
0
  6
Continuous
 62
     7
100
AcDbLine
 10
-12.8425906028
 20
-279.8008717494
 30
0.0
 11
-12.8425906028
 21
-267.3975296372
 31
0.0
  0
LINE
  5
1DE
330
1F
100
AcDbEntity
  8
0
  6
Continuous
 62
     7
100
AcDbLine
 10
-134.648008355
 20
-283.8008717494
 30
0.0
 11
-16.8425906028
 21
-283.8008717494
 31
0.0
  0
LINE
  5
1DF
330
1F
100
AcDbEntity
  8
0
  6
Continuous
 62
     7
100
AcDbLine
 10
-138.648008355
 20
-279.8008717494
 30
0.0
 11
-138.648008355
 21
-267.3975296372
 31
0.0
  0
LINE
  5
1E0
330
1F
100
AcDbEntity
  8
0
  6
Continuous
 62
     7
100
AcDbLine
 10
-158.6477359953
 20
-267.3975296372
 30
0.0
 11
-138.648008355
 21
-267.3975296372
 31
0.0
  0
LINE
  5
1E1
330
1F
100
AcDbEntity
  8
0
  6
Continuous
 62
     7
100
AcDbLine
 10
-158.6477359953
 20
-279.8008717494
 30
0.0
 11
-158.6477359953
 21
-267.3975296372
 31
0.0
  0
LINE
  5
1E2
330
1F
100
AcDbEntity
  8
0
  6
Continuous
 62
     7
100
AcDbLine
 10
-280.4531537475
 20
-283.8008717494
 30
0.0
 11
-162.6477359953
 21
-283.8008717494
 31
0.0
  0
LINE
  5
1E3
330
1F
100
AcDbEntity
  8
0
  6
Continuous
 62
     7
100
AcDbLine
 10
-284.4531537475
 20
-279.8008717494
 30
0.0
 11
-284.4531537475
 21
-267.3975296371
 31
0.0
  0
LINE
  5
1E4
330
1F
100
AcDbEntity
  8
0
  6
Continuous
 62
     7
100
AcDbLine
 10
-304.4528813878
 20
-267.3975296371
 30
0.0
 11
-284.4531537475
 21
-267.3975296371
 31
0.0
  0
LINE
  5
1E5
330
1F
100
AcDbEntity
  8
0
  6
Continuous
 62
     7
100
AcDbLine
 10
-304.4528813878
 20
-279.8008717494
 30
0.0
 11
-304.4528813878
 21
-267.3975296371
 31
0.0
  0
LINE
  5
1E6
330
1F
100
AcDbEntity
  8
0
  6
Continuous
 62
     7
100
AcDbLine
 10
-344.8558966685
 20
-283.8008717494
 30
0.0
 11
-308.4528813878
 21
-283.8008717494
 31
0.0
  0
LINE
  5
1E7
330
1F
100
AcDbEntity
  8
0
  6
Continuous
 62
     7
100
AcDbLine
 10
-344.8558966685
 20
-283.8008717494
 30
0.0
 11
-344.8558966685
 21
-333.8001908502
 31
0.0
  0
LINE
  5
1E8
330
1F
100
AcDbEntity
  8
0
  6
Continuous
 62
     7
100
AcDbLine
 10
-334.8560328484
 20
-343.8000546704
 30
0.0
 11
-314.8563052081
 21
-343.8000546704
 31
0.0
  0
LINE
  5
1E9
330
1F
100
AcDbEntity
  8
0
  6
Continuous
 62
     7
100
AcDbLine
 10
309.484389137
 20
91.2940201453
 30
0.0
 11
241.7361156029
 21
-209.7018808419
 31
0.0
  0
LINE
  5
1EA
330
1F
100
AcDbEntity
  8
0
  6
Continuous
 62
     7
100
AcDbLine
 10
241.7361156029
 20
-209.7018808419
 30
0.0
 11
278.1391308836
 21
-209.7018808419
 31
0.0
  0
LINE
  5
1EB
330
1F
100
AcDbEntity
  8
0
  6
Continuous
 62
     7
100
AcDbLine
 10
282.1391308836
 20
-213.7018808419
 30
0.0
 11
282.1391308836
 21
-226.1052229542
 31
0.0
  0
LINE
  5
1EC
330
1F
100
AcDbEntity
  8
0
  6
Continuous
 62
     7
100
AcDbLine
 10
282.1391308836
 20
-226.1052229542
 30
0.0
 11
302.1388585239
 21
-226.1052229542
 31
0.0
  0
LINE
  5
1ED
330
1F
100
AcDbEntity
  8
0
  6
Continuous
 62
     7
100
AcDbLine
 10
302.1388585239
 20
-213.701880842
 30
0.0
 11
302.1388585239
 21
-226.1052229542
 31
0.0
  0
LINE
  5
1EE
330
1F
100
AcDbEntity
  8
0
  6
Continuous
 62
     7
100
AcDbLine
 10
367.541532775
 20
-209.701880842
 30
0.0
 11
306.1388585239
 21
-209.701880842
 31
0.0
  0
LINE
  5
1EF
330
1F
100
AcDbEntity
  8
0
  6
Continuous
 62
     7
100
AcDbLine
 10
367.541532775
 20
-209.701880842
 30
0.0
 11
367.541532775
 21
-193.2985932016
 31
0.0
  0
LINE
  5
1F0
330
1F
100
AcDbEntity
  8
0
  6
Continuous
 62
     7
100
AcDbLine
 10
383.9448748872
 20
-189.2985932016
 30
0.0
 11
371.541532775
 21
-189.2985932016
 31
0.0
  0
LINE
  5
1F1
330
1F
100
AcDbEntity
  8
0
  6
Continuous
 62
     7
100
AcDbLine
 10
383.9448748872
 20
-169.2988655613
 30
0.0
 11
383.9448748872
 21
-189.2985932016
 31
0.0
  0
LINE
  5
1F2
330
1F
100
AcDbEntity
  8
0
  6
Continuous
 62
     7
100
AcDbLine
 10
371.541532775
 20
-169.2988655613
 30
0.0
 11
383.9448748872
 21
-169.2988655613
 31
0.0
  0
LINE
  5
1F3
330
1F
100
AcDbEntity
  8
0
  6
Continuous
 62
     7
100
AcDbLine
 10
367.541532775
 20
-66.9931822585
 30
0.0
 11
367.541532775
 21
-165.2988655613
 31
0.0
  0
LINE
  5
1F4
330
1F
100
AcDbEntity
  8
0
  6
Continuous
 62
     7
100
AcDbLine
 10
371.541532775
 20
-62.9931822585
 30
0.0
 11
383.9448748873
 21
-62.9931822585
 31
0.0
  0
LINE
  5
1F5
330
1F
100
AcDbEntity
  8
0
  6
Continuous
 62
     7
100
AcDbLine
 10
383.9448748873
 20
-42.9934546181
 30
0.0
 11
383.9448748873
 21
-62.9931822585
 31
0.0
  0
LINE
  5
1F6
330
1F
100
AcDbEntity
  8
0
  6
Continuous
 62
     7
100
AcDbLine
 10
371.541532775
 20
-42.9934546181
 30
0.0
 11
383.9448748873
 21
-42.9934546181
 31
0.0
  0
LINE
  5
1F7
330
1F
100
AcDbEntity
  8
0
  6
Continuous
 62
     7
100
AcDbLine
 10
367.541532775
 20
79.3119563251
 30
0.0
 11
367.541532775
 21
-38.9934546181
 31
0.0
  0
LINE
  5
1F8
330
1F
100
AcDbEntity
  8
0
  6
Continuous
 62
     7
100
AcDbLine
 10
371.541532775
 20
83.3119563251
 30
0.0
 11
383.9448748873
 21
83.3119563251
 31
0.0
  0
LINE
  5
1F9
330
1F
100
AcDbEntity
  8
0
  6
Continuous
 62
     7
100
AcDbLine
 10
383.9448748873
 20
101.2938839655
 30
0.0
 11
383.9448748873
 21
83.3119563251
 31
0.0
  0
LINE
  5
1FA
330
1F
100
AcDbEntity
  8
0
  6
Continuous
 62
     7
100
AcDbLine
 10
383.9448748873
 20
101.2938839655
 30
0.0
 11
321.9851992442
 21
101.2938839655
 31
0.0
  0
LINE
  5
1FB
330
1F
100
AcDbEntity
  8
0
  6
Continuous
 62
     7
100
AcDbLine
 10
217.9872417174
 20
-218.70175828
 30
0.0
 11
285.7355152516
 21
82.2941427073
 31
0.0
  0
LINE
  5
1FC
330
1F
100
AcDbEntity
  8
0
  6
Continuous
 62
     7
100
AcDbLine
 10
285.7355152516
 20
82.2941427073
 30
0.0
 11
249.3324999708
 21
82.2941427073
 31
0.0
  0
LINE
  5
1FD
330
1F
100
AcDbEntity
  8
0
  6
Continuous
 62
     7
100
AcDbLine
 10
245.3324999708
 20
86.2941427073
 30
0.0
 11
245.3324999708
 21
100.7152848195
 31
0.0
  0
LINE
  5
1FE
330
1F
100
AcDbEntity
  8
0
  6
Continuous
 62
     7
100
AcDbLine
 10
245.3324999708
 20
100.7152848195
 30
0.0
 11
226.5434523302
 21
100.7152848195
 31
0.0
  0
LINE
  5
1FF
330
1F
100
AcDbEntity
  8
0
  6
Continuous
 62
     7
100
AcDbLine
 10
226.5434523302
 20
88.3119427072
 30
0.0
 11
226.5434523302
 21
100.7152848195
 31
0.0
  0
LINE
  5
200
330
1F
100
AcDbEntity
  8
0
  6
Continuous
 62
     7
100
AcDbLine
 10
161.1407780792
 20
84.3119427072
 30
0.0
 11
222.5434523302
 21
84.3119427072
 31
0.0
  0
LINE
  5
201
330
1F
100
AcDbEntity
  8
0
  6
Continuous
 62
     7
100
AcDbLine
 10
161.1407780792
 20
84.3119427072
 30
0.0
 11
161.1407780792
 21
67.9086550668
 31
0.0
  0
LINE
  5
202
330
1F
100
AcDbEntity
  8
0
  6
Continuous
 62
     7
100
AcDbLine
 10
144.7374359669
 20
63.9086550668
 30
0.0
 11
157.1407780792
 21
63.9086550668
 31
0.0
  0
LINE
  5
203
330
1F
100
AcDbEntity
  8
0
  6
Continuous
 62
     7
100
AcDbLine
 10
144.7374359669
 20
43.9089274265
 30
0.0
 11
144.7374359669
 21
63.9086550668
 31
0.0
  0
LINE
  5
204
330
1F
100
AcDbEntity
  8
0
  6
Continuous
 62
     7
100
AcDbLine
 10
157.1407780792
 20
43.9089274265
 30
0.0
 11
144.7374359669
 21
43.9089274265
 31
0.0
  0
LINE
  5
205
330
1F
100
AcDbEntity
  8
0
  6
Continuous
 62
     7
100
AcDbLine
 10
161.1407780792
 20
-58.3967558763
 30
0.0
 11
161.1407780792
 21
39.9089274265
 31
0.0
  0
LINE
  5
206
330
1F
100
AcDbEntity
  8
0
  6
Continuous
 62
     7
100
AcDbLine
 10
157.1407780792
 20
-62.3967558763
 30
0.0
 11
144.7374359669
 21
-62.3967558763
 31
0.0
  0
LINE
  5
207
330
1F
100
AcDbEntity
  8
0
  6
Continuous
 62
     7
100
AcDbLine
 10
144.7374359669
 20
-82.3964835167
 30
0.0
 11
144.7374359669
 21
-62.3967558763
 31
0.0
  0
LINE
  5
208
330
1F
100
AcDbEntity
  8
0
  6
Continuous
 62
     7
100
AcDbLine
 10
157.1407780792
 20
-82.3964835167
 30
0.0
 11
144.7374359669
 21
-82.3964835167
 31
0.0
  0
LINE
  5
209
330
1F
100
AcDbEntity
  8
0
  6
Continuous
 62
     7
100
AcDbLine
 10
161.1407780792
 20
-204.7018944599
 30
0.0
 11
161.1407780792
 21
-86.3964835167
 31
0.0
  0
LINE
  5
20A
330
1F
100
AcDbEntity
  8
0
  6
Continuous
 62
     7
100
AcDbLine
 10
157.1407780792
 20
-208.7018944599
 30
0.0
 11
144.7374359671
 21
-208.7018944599
 31
0.0
  0
LINE
  5
20B
330
1F
100
AcDbEntity
  8
0
  6
Continuous
 62
     7
100
AcDbLine
 10
144.737435967
 20
-228.7016221002
 30
0.0
 11
144.7374359671
 21
-208.7018944599
 31
0.0
  0
LINE
  5
20C
330
1F
100
AcDbEntity
  8
0
  6
Continuous
 62
     7
100
AcDbLine
 10
144.737435967
 20
-228.7016221002
 30
0.0
 11
205.4864316102
 21
-228.7016221002
 31
0.0
  0
LINE
  5
20D
330
1F
100
AcDbEntity
  8
0
  6
Continuous
 62
     7
100
AcDbLine
 10
108.8204949239
 20
-332.5414062047
 30
0.0
 11
108.6558633716
 21
-335.0531983075
 31
0.0
  0
LINE
  5
20E
330
1F
100
AcDbEntity
  8
0
  6
Continuous
 62
     7
100
AcDbLine
 10
118.1532457427
 20
-323.8003311811
 30
0.0
 11
409.2253743467
 21
-323.8003311811
 31
0.0
  0
LINE
  5
20F
330
1F
100
AcDbEntity
  8
0
  6
Continuous
 62
     7
100
AcDbLine
 10
418.6482177513
 20
-332.4949508541
 30
0.0
 11
418.8193181938
 21
-335.1054391484
 31
0.0
  0
LINE
  5
210
330
1F
100
AcDbEntity
  8
0
  6
Continuous
 62
     7
100
AcDbLine
 10
429.4328666935
 20
-343.8000588214
 30
0.0
 11
448.7333594331
 21
-343.8000588214
 31
0.0
  0
LINE
  5
211
330
1F
100
AcDbEntity
  8
0
  6
Continuous
 62
     7
100
AcDbLine
 10
458.7332232532
 20
-283.8008717494
 30
0.0
 11
458.7332232532
 21
-333.8001950013
 31
0.0
  0
LINE
  5
212
330
1F
100
AcDbEntity
  8
0
  6
Continuous
 62
     7
100
AcDbLine
 10
424.7515046399
 20
-283.8008717494
 30
0.0
 11
458.7332232532
 21
-283.8008717494
 31
0.0
  0
LINE
  5
213
330
1F
100
AcDbEntity
  8
0
  6
Continuous
 62
     7
100
AcDbLine
 10
420.7515046399
 20
-279.8008717494
 30
0.0
 11
420.7515046399
 21
-267.3975296371
 31
0.0
  0
LINE
  5
214
330
1F
100
AcDbEntity
  8
0
  6
Continuous
 62
     7
100
AcDbLine
 10
400.7517769996
 20
-267.3975296371
 30
0.0
 11
420.7515046399
 21
-267.3975296371
 31
0.0
  0
LINE
  5
215
330
1F
100
AcDbEntity
  8
0
  6
Continuous
 62
     7
100
AcDbLine
 10
400.7517769996
 20
-279.8008717494
 30
0.0
 11
400.7517769996
 21
-267.3975296371
 31
0.0
  0
LINE
  5
216
330
1F
100
AcDbEntity
  8
0
  6
Continuous
 62
     7
100
AcDbLine
 10
278.9463592474
 20
-283.8008717494
 30
0.0
 11
396.7517769996
 21
-283.8008717494
 31
0.0
  0
LINE
  5
217
330
1F
100
AcDbEntity
  8
0
  6
Continuous
 62
     7
100
AcDbLine
 10
274.9463592474
 20
-279.8008717494
 30
0.0
 11
274.9463592474
 21
-267.3975296371
 31
0.0
  0
LINE
  5
218
330
1F
100
AcDbEntity
  8
0
  6
Continuous
 62
     7
100
AcDbLine
 10
254.9466316071
 20
-267.3975296371
 30
0.0
 11
274.9463592474
 21
-267.3975296371
 31
0.0
  0
LINE
  5
219
330
1F
100
AcDbEntity
  8
0
  6
Continuous
 62
     7
100
AcDbLine
 10
254.9466316071
 20
-279.8008717494
 30
0.0
 11
254.9466316071
 21
-267.3975296371
 31
0.0
  0
LINE
  5
21A
330
1F
100
AcDbEntity
  8
0
  6
Continuous
 62
     7
100
AcDbLine
 10
133.1412138549
 20
-283.8008717494
 30
0.0
 11
250.9466316071
 21
-283.8008717494
 31
0.0
  0
LINE
  5
21B
330
1F
100
AcDbEntity
  8
0
  6
Continuous
 62
     7
100
AcDbLine
 10
129.1412138549
 20
-279.8008717494
 30
0.0
 11
129.1412138549
 21
-267.3975296371
 31
0.0
  0
LINE
  5
21C
330
1F
100
AcDbEntity
  8
0
  6
Continuous
 62
     7
100
AcDbLine
 10
109.1414862146
 20
-267.3975296371
 30
0.0
 11
129.1412138549
 21
-267.3975296371
 31
0.0
  0
LINE
  5
21D
330
1F
100
AcDbEntity
  8
0
  6
Continuous
 62
     7
100
AcDbLine
 10
109.1414862146
 20
-279.8008717494
 30
0.0
 11
109.1414862146
 21
-267.3975296371
 31
0.0
  0
LINE
  5
21E
330
1F
100
AcDbEntity
  8
0
  6
Continuous
 62
     7
100
AcDbLine
 10
68.7384709338
 20
-283.8008717494
 30
0.0
 11
105.1414862146
 21
-283.8008717494
 31
0.0
  0
LINE
  5
21F
330
1F
100
AcDbEntity
  8
0
  6
Continuous
 62
     7
100
AcDbLine
 10
68.7384709338
 20
-283.8008717494
 30
0.0
 11
68.7384709338
 21
-333.8001908502
 31
0.0
  0
LINE
  5
220
330
1F
100
AcDbEntity
  8
0
  6
Continuous
 62
     7
100
AcDbLine
 10
78.738334754
 20
-343.8000546704
 30
0.0
 11
99.3169398796
 21
-343.8000546704
 31
0.0
  0
LWPOLYLINE
  5
221
330
1F
100
AcDbEntity
  8
0
  6
Continuous
 62
     7
100
AcDbPolyline
 90
        5
 70
   128
 43
0.0
 10
-95.146715641
 20
-125.1030329232
 10
-92.1972654346
 20
-129.1453430524
 10
-91.8355005183
 20
-132.6454534493
 10
-94.2684410103
 20
-135.1243161337
 10
-99.703054904
 20
-136.1028831254
  0
LWPOLYLINE
  5
222
330
1F
100
AcDbEntity
  8
0
  6
Continuous
 62
     7
100
AcDbPolyline
 90
        5
 70
   128
 43
0.0
 10
-204.4761180878
 20
-125.1030329232
 10
-207.425237509
 20
-129.124583251
 10
-207.7875663999
 20
-132.6482907167
 10
-205.3551559768
 20
-135.1493318363
 10
-199.919944203
 20
-136.1028831254
  0
LWPOLYLINE
  5
223
330
1F
100
AcDbEntity
  8
0
  6
Continuous
 62
     7
100
AcDbPolyline
 90
        5
 70
   128
 43
0.0
 10
-95.146715641
 20
30.8948426715
 10
-92.1972654346
 20
34.9371528006
 10
-91.8355005183
 20
38.4372631975
 10
-94.2684410103
 20
40.916125882
 10
-99.703054904
 20
41.8946928737
  0
LWPOLYLINE
  5
224
330
1F
100
AcDbEntity
  8
0
  6
Continuous
 62
     7
100
AcDbPolyline
 90
        5
 70
   128
 43
0.0
 10
-204.4761180878
 20
30.8948426715
 10
-207.425237509
 20
34.9163929992
 10
-207.7875663999
 20
38.440100465
 10
-205.3551559768
 20
40.9411415845
 10
-199.919944203
 20
41.8946928737
  0
LWPOLYLINE
  5
225
330
1F
100
AcDbEntity
  8
0
  6
Continuous
 62
     7
100
AcDbPolyline
 90
        5
 70
   128
 43
0.0
 10
-71.8125104904
 20
-97.5262440023
 10
-67.0558533169
 20
-100.7420603199
 10
-63.5888203911
 20
-100.5269243946
 10
-61.4836955972
 20
-97.6723764886
 10
-60.812711554
 20
-92.9699568645
  0
LWPOLYLINE
  5
226
330
1F
100
AcDbEntity
  8
0
  6
Continuous
 62
     7
100
AcDbPolyline
 90
        5
 70
   128
 43
0.0
 10
-71.8125104904
 20
3.3180537506
 10
-67.5165104185
 20
6.3677261341
 10
-64.0344930861
 20
6.5398352827
 10
-61.6915475383
 20
3.9619818808
 10
-60.812711554
 20
-1.2382333873
  0
LWPOLYLINE
  5
227
330
1F
100
AcDbEntity
  8
0
  6
Continuous
 62
     7
100
AcDbPolyline
 90
        5
 70
   128
 43
0.0
 10
-238.8101816177
 20
-92.9699568645
 10
-237.9446972768
 20
-98.1877077465
 10
-235.5885060208
 20
-100.7480255345
 10
-232.0932429804
 20
-100.5583807719
 10
-227.8104373508
 20
-97.5262440023
  0
LWPOLYLINE
  5
228
330
1F
100
AcDbEntity
  8
0
  6
Continuous
 62
     7
100
AcDbPolyline
 90
        5
 70
   128
 43
0.0
 10
-238.8101816177
 20
-1.2382333873
 10
-237.9017916993
 20
3.93271622
 10
-235.5885060208
 20
6.5398352827
 10
-232.136148558
 20
6.3969917949
 10
-227.8104373508
 20
3.3180537506
  0
ENDSEC
  0
SECTION
  2
OBJECTS
  0
DICTIONARY
  5
C
330
0
100
AcDbDictionary
281
     1
  3
ACAD_GROUP
350
D
  3
ACAD_LAYOUT
350
1A
  3
ACAD_MLINESTYLE
350
17
  3
ACAD_PLOTSETTINGS
350
19
  3
ACAD_PLOTSTYLENAME
350
E
  3
ACAD_SCALELIST
350
229
  3
AcDbVariableDictionary
350
24B
  0
DICTIONARY
  5
D
102
{ACAD_REACTORS
330
C
102
}
330
C
100
AcDbDictionary
281
     1
  0
DICTIONARY
  5
1A
102
{ACAD_REACTORS
330
C
102
}
330
C
100
AcDbDictionary
281
     1
  3
Layout1
350
1E
  3
Layout2
350
26
  3
Model
350
22
  0
DICTIONARY
  5
17
102
{ACAD_REACTORS
330
C
102
}
330
C
100
AcDbDictionary
281
     1
  3
Standard
350
18
  0
DICTIONARY
  5
19
102
{ACAD_REACTORS
330
C
102
}
330
C
100
AcDbDictionary
281
     1
  0
ACDBDICTIONARYWDFLT
  5
E
102
{ACAD_REACTORS
330
C
102
}
330
C
100
AcDbDictionary
281
     1
  3
Normal
350
F
100
AcDbDictionaryWithDefault
340
F
  0
DICTIONARY
  5
229
102
{ACAD_REACTORS
330
C
102
}
330
C
100
AcDbDictionary
281
     1
  3
A0
350
22A
  3
A1
350
22B
  3
A2
350
22C
  3
A3
350
22D
  3
A4
350
22E
  3
A5
350
22F
  3
A6
350
230
  3
A7
350
231
  3
A8
350
232
  3
A9
350
233
  3
B0
350
234
  3
B1
350
235
  3
B2
350
236
  3
B3
350
237
  3
B4
350
238
  3
B5
350
239
  3
B6
350
23A
  3
B7
350
23B
  3
B8
350
23C
  3
B9
350
23D
  3
C0
350
23E
  3
C1
350
23F
  3
C2
350
240
  3
C3
350
241
  3
C4
350
242
  3
C5
350
243
  3
C6
350
244
  3
C7
350
245
  3
C8
350
246
  3
C9
350
247
  3
D0
350
248
  3
D1
350
249
  3
D2
350
24A
  0
DICTIONARY
  5
24B
102
{ACAD_REACTORS
330
C
102
}
330
C
100
AcDbDictionary
281
     1
  3
CANNOSCALE
350
24C
  0
LAYOUT
  5
1E
102
{ACAD_REACTORS
330
1A
102
}
330
1A
100
AcDbPlotSettings
  1

  2
none_device
  4

  6

 40
0.0
 41
0.0
 42
0.0
 43
0.0
 44
0.0
 45
0.0
 46
0.0
 47
0.0
 48
0.0
 49
0.0
140
0.0
141
0.0
142
1.0
143
1.0
 70
   688
 72
     0
 73
     0
 74
     5
  7

 75
    16
147
1.0
148
0.0
149
0.0
100
AcDbLayout
  1
Layout1
 70
     1
 71
     1
 10
0.0
 20
0.0
 11
420.0
 21
297.0
 12
0.0
 22
0.0
 32
0.0
 14
1.0000000000E+20
 24
1.0000000000E+20
 34
1.0000000000E+20
 15
-1.0000000000E+20
 25
-1.0000000000E+20
 35
-1.0000000000E+20
146
0.0
 13
0.0
 23
0.0
 33
0.0
 16
1.0
 26
0.0
 36
0.0
 17
0.0
 27
1.0
 37
0.0
 76
     0
330
1B
  0
LAYOUT
  5
26
102
{ACAD_REACTORS
330
1A
102
}
330
1A
100
AcDbPlotSettings
  1

  2
none_device
  4

  6

 40
0.0
 41
0.0
 42
0.0
 43
0.0
 44
0.0
 45
0.0
 46
0.0
 47
0.0
 48
0.0
 49
0.0
140
0.0
141
0.0
142
1.0
143
1.0
 70
   688
 72
     0
 73
     0
 74
     5
  7

 75
    16
147
1.0
148
0.0
149
0.0
100
AcDbLayout
  1
Layout2
 70
     1
 71
     2
 10
0.0
 20
0.0
 11
0.0
 21
0.0
 12
0.0
 22
0.0
 32
0.0
 14
0.0
 24
0.0
 34
0.0
 15
0.0
 25
0.0
 35
0.0
146
0.0
 13
0.0
 23
0.0
 33
0.0
 16
1.0
 26
0.0
 36
0.0
 17
0.0
 27
1.0
 37
0.0
 76
     0
330
23
  0
LAYOUT
  5
22
102
{ACAD_REACTORS
330
1A
102
}
330
1A
100
AcDbPlotSettings
  1

  2
none_device
  4
ANSI_A_(11.00_x_8.50_Inches)
  6

 40
6.35
 41
19.05
 42
6.35000508
 43
19.05000254
 44
279.4
 45
215.9
 46
113.7509567211
 47
115.0120551551
 48
0.0
 49
0.0
140
0.0
141
0.0
142
0.0135517016
143
1.0
 70
  1696
 72
     0
 73
     0
 74
     0
  7

 75
     0
147
0.0179189148
148
0.0
149
0.0
100
AcDbLayout
  1
Model
 70
     1
 71
     0
 10
0.0
 20
0.0
 11
420.0
 21
297.0
 12
0.0
 22
0.0
 32
0.0
 14
-344.8558966685
 24
-343.8200189928
 34
0.0
 15
458.7332232532
 25
192.0997783471
 35
0.0
146
0.0
 13
0.0
 23
0.0
 33
0.0
 16
1.0
 26
0.0
 36
0.0
 17
0.0
 27
1.0
 37
0.0
 76
     0
330
1F
331
29
  0
MLINESTYLE
  5
18
102
{ACAD_REACTORS
330
17
102
}
330
17
100
AcDbMlineStyle
  2
Standard
 70
     0
  3

 62
   256
 51
90.0
 52
90.0
 71
     2
 49
0.5
 62
   256
  6
BYLAYER
 49
-0.5
 62
   256
  6
BYLAYER
  0
ACDBPLACEHOLDER
  5
F
102
{ACAD_REACTORS
330
E
102
}
330
E
  0
SCALE
  5
22A
102
{ACAD_REACTORS
330
229
102
}
330
229
100
AcDbScale
 70
     0
300
1:1
140
1.0
141
1.0
290
     1
  0
SCALE
  5
22B
102
{ACAD_REACTORS
330
229
102
}
330
229
100
AcDbScale
 70
     0
300
1:2
140
1.0
141
2.0
290
     0
  0
SCALE
  5
22C
102
{ACAD_REACTORS
330
229
102
}
330
229
100
AcDbScale
 70
     0
300
1:4
140
1.0
141
4.0
290
     0
  0
SCALE
  5
22D
102
{ACAD_REACTORS
330
229
102
}
330
229
100
AcDbScale
 70
     0
300
1:5
140
1.0
141
5.0
290
     0
  0
SCALE
  5
22E
102
{ACAD_REACTORS
330
229
102
}
330
229
100
AcDbScale
 70
     0
300
1:8
140
1.0
141
8.0
290
     0
  0
SCALE
  5
22F
102
{ACAD_REACTORS
330
229
102
}
330
229
100
AcDbScale
 70
     0
300
1:10
140
1.0
141
10.0
290
     0
  0
SCALE
  5
230
102
{ACAD_REACTORS
330
229
102
}
330
229
100
AcDbScale
 70
     0
300
1:16
140
1.0
141
16.0
290
     0
  0
SCALE
  5
231
102
{ACAD_REACTORS
330
229
102
}
330
229
100
AcDbScale
 70
     0
300
1:20
140
1.0
141
20.0
290
     0
  0
SCALE
  5
232
102
{ACAD_REACTORS
330
229
102
}
330
229
100
AcDbScale
 70
     0
300
1:30
140
1.0
141
30.0
290
     0
  0
SCALE
  5
233
102
{ACAD_REACTORS
330
229
102
}
330
229
100
AcDbScale
 70
     0
300
1:40
140
1.0
141
40.0
290
     0
  0
SCALE
  5
234
102
{ACAD_REACTORS
330
229
102
}
330
229
100
AcDbScale
 70
     0
300
1:50
140
1.0
141
50.0
290
     0
  0
SCALE
  5
235
102
{ACAD_REACTORS
330
229
102
}
330
229
100
AcDbScale
 70
     0
300
1:100
140
1.0
141
100.0
290
     0
  0
SCALE
  5
236
102
{ACAD_REACTORS
330
229
102
}
330
229
100
AcDbScale
 70
     0
300
2:1
140
2.0
141
1.0
290
     0
  0
SCALE
  5
237
102
{ACAD_REACTORS
330
229
102
}
330
229
100
AcDbScale
 70
     0
300
4:1
140
4.0
141
1.0
290
     0
  0
SCALE
  5
238
102
{ACAD_REACTORS
330
229
102
}
330
229
100
AcDbScale
 70
     0
300
8:1
140
8.0
141
1.0
290
     0
  0
SCALE
  5
239
102
{ACAD_REACTORS
330
229
102
}
330
229
100
AcDbScale
 70
     0
300
10:1
140
10.0
141
1.0
290
     0
  0
SCALE
  5
23A
102
{ACAD_REACTORS
330
229
102
}
330
229
100
AcDbScale
 70
     0
300
100:1
140
100.0
141
1.0
290
     0
  0
SCALE
  5
23B
102
{ACAD_REACTORS
330
229
102
}
330
229
100
AcDbScale
 70
     0
300
1/128" = 1'-0"
140
0.0078125
141
12.0
290
     0
  0
SCALE
  5
23C
102
{ACAD_REACTORS
330
229
102
}
330
229
100
AcDbScale
 70
     0
300
1/64" = 1'-0"
140
0.015625
141
12.0
290
     0
  0
SCALE
  5
23D
102
{ACAD_REACTORS
330
229
102
}
330
229
100
AcDbScale
 70
     0
300
1/32" = 1'-0"
140
0.03125
141
12.0
290
     0
  0
SCALE
  5
23E
102
{ACAD_REACTORS
330
229
102
}
330
229
100
AcDbScale
 70
     0
300
1/16" = 1'-0"
140
0.0625
141
12.0
290
     0
  0
SCALE
  5
23F
102
{ACAD_REACTORS
330
229
102
}
330
229
100
AcDbScale
 70
     0
300
3/32" = 1'-0"
140
0.09375
141
12.0
290
     0
  0
SCALE
  5
240
102
{ACAD_REACTORS
330
229
102
}
330
229
100
AcDbScale
 70
     0
300
1/8" = 1'-0"
140
0.125
141
12.0
290
     0
  0
SCALE
  5
241
102
{ACAD_REACTORS
330
229
102
}
330
229
100
AcDbScale
 70
     0
300
3/16" = 1'-0"
140
0.1875
141
12.0
290
     0
  0
SCALE
  5
242
102
{ACAD_REACTORS
330
229
102
}
330
229
100
AcDbScale
 70
     0
300
1/4" = 1'-0"
140
0.25
141
12.0
290
     0
  0
SCALE
  5
243
102
{ACAD_REACTORS
330
229
102
}
330
229
100
AcDbScale
 70
     0
300
3/8" = 1'-0"
140
0.375
141
12.0
290
     0
  0
SCALE
  5
244
102
{ACAD_REACTORS
330
229
102
}
330
229
100
AcDbScale
 70
     0
300
1/2" = 1'-0"
140
0.5
141
12.0
290
     0
  0
SCALE
  5
245
102
{ACAD_REACTORS
330
229
102
}
330
229
100
AcDbScale
 70
     0
300
3/4" = 1'-0"
140
0.75
141
12.0
290
     0
  0
SCALE
  5
246
102
{ACAD_REACTORS
330
229
102
}
330
229
100
AcDbScale
 70
     0
300
1" = 1'-0"
140
1.0
141
12.0
290
     0
  0
SCALE
  5
247
102
{ACAD_REACTORS
330
229
102
}
330
229
100
AcDbScale
 70
     0
300
1-1/2" = 1'-0"
140
1.5
141
12.0
290
     0
  0
SCALE
  5
248
102
{ACAD_REACTORS
330
229
102
}
330
229
100
AcDbScale
 70
     0
300
3" = 1'-0"
140
3.0
141
12.0
290
     0
  0
SCALE
  5
249
102
{ACAD_REACTORS
330
229
102
}
330
229
100
AcDbScale
 70
     0
300
6" = 1'-0"
140
6.0
141
12.0
290
     0
  0
SCALE
  5
24A
102
{ACAD_REACTORS
330
229
102
}
330
229
100
AcDbScale
 70
     0
300
1'-0" = 1'-0"
140
12.0
141
12.0
290
     0
  0
DICTIONARYVAR
  5
24C
102
{ACAD_REACTORS
330
24B
102
}
330
24B
100
DictionaryVariables
280
     0
  1
1:1
  0
ENDSEC
  0
EOF
