solid iTopie
facet normal -0.5000000000000051 -0.8660254037844359 2.0381933655107005e-14
  outer loop
    vertex -486.31446727741786 80.43970394328066 3.592218533743363e-09
    vertex -486.74859299623284 80.61952470378884 5.000000003592254
    vertex -486.74859299623336 80.619524703789 3.592262948215463e-09
  endloop
endfacet
facet normal -0.2588190451025191 -0.9659258262890688 -5.764860767810213e-15
  outer loop
    vertex -486.74859299623284 80.61952470378884 5.000000003592254
    vertex -486.31446727741786 80.43970394328066 3.592218533743363e-09
    vertex -486.3144672774174 80.4397039432805 5.000000003592209
  endloop
endfacet
facet normal 0.5000000000000087 -0.8660254037844337 -7.49740783864557e-14
  outer loop
    vertex -496.31446727741786 80.43970394328069 3.5931752073725672e-09
    vertex -496.6872594835531 80.15365042260433 5.00000000359319
    vertex -496.68725948355365 80.1536504226045 3.593199177087669e-09
  endloop
endfacet
facet normal 0.707106781186537 -0.7071067811865581 -8.97140325008224e-14
  outer loop
    vertex -496.6872594835531 80.15365042260433 5.00000000359319
    vertex -496.31446727741786 80.43970394328069 3.5931752073725672e-09
    vertex -496.3144672774174 80.43970394328053 5.000000003593166
  endloop
endfacet
facet normal -0.25881904510250137 0.9659258262890736 5.512476473057118e-14
  outer loop
    vertex -486.7485929962329 77.1421917291482 5.000000003592144
    vertex -486.31446727741786 77.32201248965667 3.5921205399080946e-09
    vertex -486.74859299623336 77.14219172914835 3.5921536745142644e-09
  endloop
endfacet
facet normal -0.5000000000000062 0.8660254037844353 7.497407838645552e-14
  outer loop
    vertex -486.31446727741786 77.32201248965667 3.5921205399080946e-09
    vertex -486.7485929962329 77.1421917291482 5.000000003592144
    vertex -486.3144672774173 77.3220124896565 5.0000000035921115
  endloop
endfacet
facet normal -0.8660254037844257 0.5000000000000224 9.83401235597081e-14
  outer loop
    vertex -485.6556215506059 77.98085821646865 3.59208247036058e-09
    vertex -485.9416750712816 77.6080660103327 5.0000000035920875
    vertex -485.65562155060536 77.98085821646849 5.000000003592073
  endloop
endfacet
facet normal -0.7071067811865444 0.7071067811865507 8.971403250082286e-14
  outer loop
    vertex -485.9416750712816 77.6080660103327 5.0000000035920875
    vertex -485.6556215506059 77.98085821646865 3.59208247036058e-09
    vertex -485.9416750712821 77.60806601033286 3.5920965701929927e-09
  endloop
endfacet
facet normal 0.7071067811865309 0.7071067811865641 -4.513973298216324e-14
  outer loop
    vertex -496.6872594835531 77.60806601033276 5.00000000359311
    vertex -496.31446727741786 77.32201248965673 3.593077213537299e-09
    vertex -496.68725948355365 77.60806601033292 3.5931188080429163e-09
  endloop
endfacet
facet normal 0.5000000000000077 0.8660254037844343 -2.0381933655107304e-14
  outer loop
    vertex -496.31446727741786 77.32201248965673 3.593077213537299e-09
    vertex -496.6872594835531 77.60806601033276 5.00000000359311
    vertex -496.3144672774174 77.32201248965657 5.000000003593068
  endloop
endfacet
facet normal 1.0 -5.661194525609952e-15 -9.535601204156166e-14
  outer loop
    vertex -497.21446727741784 78.88085821646874 3.593206931995496e-09
    vertex -497.15313376473773 79.3467324976531 5.000000003593207
    vertex -497.2144672774174 78.88085821646857 5.000000003593198
  endloop
endfacet
facet normal 0.9659258262890698 -0.2588190451025156 -1.0026449771273819e-13
  outer loop
    vertex -497.15313376473773 79.3467324976531 5.000000003593207
    vertex -497.21446727741784 78.88085821646874 3.593206931995496e-09
    vertex -497.1531337647382 79.34673249765325 3.593215391894944e-09
  endloop
endfacet
facet normal -0.9659258262890726 -0.25881904510250486 8.394917173301392e-14
  outer loop
    vertex -485.47580079009754 79.34673249765318 3.592109965033785e-09
    vertex -485.41446727741743 78.88085821646851 5.00000000359208
    vertex -485.4758007900971 79.34673249765302 5.000000003592101
  endloop
endfacet
facet normal -1.0 5.598816756340423e-15 9.535601204156166e-14
  outer loop
    vertex -485.41446727741743 78.88085821646851 5.00000000359208
    vertex -485.47580079009754 79.34673249765318 3.592109965033785e-09
    vertex -485.4144672774179 78.88085821646867 3.5920895202767863e-09
  endloop
endfacet
facet normal -0.9659258262890698 0.25881904510251563 1.0026449771273819e-13
  outer loop
    vertex -485.47580079009754 78.4149839352841 3.5920803553857183e-09
    vertex -485.65562155060536 77.98085821646849 5.000000003592073
    vertex -485.4758007900971 78.41498393528394 5.0000000035920715
  endloop
endfacet
facet normal -0.866025403784426 0.5000000000000219 9.834012355970812e-14
  outer loop
    vertex -485.65562155060536 77.98085821646849 5.000000003592073
    vertex -485.47580079009754 78.4149839352841 3.5920803553857183e-09
    vertex -485.6556215506059 77.98085821646865 3.59208247036058e-09
  endloop
endfacet
facet normal 0.7071067811865319 0.7071067811865633 -4.513973298216336e-14
  outer loop
    vertex -496.68725948355365 77.60806601033292 3.5931188080429163e-09
    vertex -496.97331300422934 77.98085821646855 5.000000003593147
    vertex -496.6872594835531 77.60806601033276 5.00000000359311
  endloop
endfacet
facet normal 0.8660254037844315 0.5000000000000128 -6.682133410342442e-14
  outer loop
    vertex -496.97331300422934 77.98085821646855 5.000000003593147
    vertex -496.68725948355365 77.60806601033292 3.5931188080429163e-09
    vertex -496.9733130042298 77.98085821646872 3.59315617259881e-09
  endloop
endfacet
facet normal 0.2588190451025121 -0.9659258262890706 -5.512476473057211e-14
  outer loop
    vertex -495.8803415586023 80.61952470378904 3.5931420727663974e-09
    vertex -496.3144672774174 80.43970394328053 5.000000003593166
    vertex -496.31446727741786 80.43970394328069 3.5931752073725672e-09
  endloop
endfacet
facet normal 0.5000000000000075 -0.8660254037844345 -7.497407838645563e-14
  outer loop
    vertex -496.3144672774174 80.43970394328053 5.000000003593166
    vertex -495.8803415586023 80.61952470378904 3.5931420727663974e-09
    vertex -495.88034155860186 80.61952470378888 5.000000003593133
  endloop
endfacet
facet normal 0.06540312923014653 0.9978589232386034 2.5214723730205272e-14
  outer loop
    vertex -495.41446727741743 77.08085821646857 5.00000000359298
    vertex -487.21446727741784 77.08085821646868 3.5921931540450203e-09
    vertex -495.4144672774179 77.08085821646873 3.5929890895847192e-09
  endloop
endfacet
facet normal -0.06540312923013811 0.9978589232386038 3.768788688705579e-14
  outer loop
    vertex -487.21446727741784 77.08085821646868 3.5921931540450203e-09
    vertex -495.41446727741743 77.08085821646857 5.00000000359298
    vertex -487.2144672774174 77.08085821646853 5.000000003592184
  endloop
endfacet
facet normal 0.866025403784426 -0.5000000000000219 -9.834012355970812e-14
  outer loop
    vertex -496.9733130042298 79.7808582164687 3.593213276920082e-09
    vertex -496.6872594835531 80.15365042260433 5.00000000359319
    vertex -496.97331300422934 79.78085821646854 5.000000003593204
  endloop
endfacet
facet normal 0.707106781186537 -0.7071067811865581 -8.97140325008224e-14
  outer loop
    vertex -496.6872594835531 80.15365042260433 5.00000000359319
    vertex -496.9733130042298 79.7808582164687 3.593213276920082e-09
    vertex -496.68725948355365 80.1536504226045 3.593199177087669e-09
  endloop
endfacet
facet normal 0.9659258262890728 0.25881904510250453 -8.394917173301395e-14
  outer loop
    vertex -497.1531337647382 78.41498393528417 3.5931864872384976e-09
    vertex -497.2144672774174 78.88085821646857 5.000000003593198
    vertex -497.1531337647376 78.41498393528401 5.000000003593177
  endloop
endfacet
facet normal 1.0 -5.5364389870708954e-15 -9.535601204156166e-14
  outer loop
    vertex -497.2144672774174 78.88085821646857 5.000000003593198
    vertex -497.1531337647382 78.41498393528417 3.5931864872384976e-09
    vertex -497.21446727741784 78.88085821646874 3.593206931995496e-09
  endloop
endfacet
facet normal -1.0 5.598816756340423e-15 9.535601204156166e-14
  outer loop
    vertex -485.4144672774179 78.88085821646867 3.5920895202767863e-09
    vertex -485.4758007900971 78.41498393528394 5.0000000035920715
    vertex -485.41446727741743 78.88085821646851 5.00000000359208
  endloop
endfacet
facet normal -0.9659258262890698 0.2588190451025152 1.0026449771273817e-13
  outer loop
    vertex -485.4758007900971 78.41498393528394 5.0000000035920715
    vertex -485.4144672774179 78.88085821646867 3.5920895202767863e-09
    vertex -485.47580079009754 78.4149839352841 3.5920803553857183e-09
  endloop
endfacet
facet normal -0.06540312923013851 0.9978589232386038 3.7687886887055834e-14
  outer loop
    vertex -487.2144672774174 77.08085821646853 5.000000003592184
    vertex -486.74859299623336 77.14219172914835 3.5921536745142644e-09
    vertex -487.21446727741784 77.08085821646868 3.5921931540450203e-09
  endloop
endfacet
facet normal -0.2588190451024999 0.9659258262890739 5.5124764730571055e-14
  outer loop
    vertex -486.74859299623336 77.14219172914835 3.5921536745142644e-09
    vertex -487.2144672774174 77.08085821646853 5.000000003592184
    vertex -486.7485929962329 77.1421917291482 5.000000003592144
  endloop
endfacet
facet normal -0.06540312923014657 -0.9978589232386034 -2.5214723730205265e-14
  outer loop
    vertex -487.21446727741784 80.68085821646868 3.5923073626875634e-09
    vertex -495.4144672774173 80.68085821646856 5.000000003593094
    vertex -495.4144672774179 80.68085821646872 3.593102593235642e-09
  endloop
endfacet
facet normal 0.06540312923013811 -0.9978589232386038 -3.768788688705579e-14
  outer loop
    vertex -495.4144672774173 80.68085821646856 5.000000003593094
    vertex -487.21446727741784 80.68085821646868 3.5923073626875634e-09
    vertex -487.2144672774174 80.68085821646851 5.000000003592298
  endloop
endfacet
facet normal 0.25881904510252846 0.9659258262890663 5.7648607678092436e-15
  outer loop
    vertex -495.88034155860186 77.14219172914824 5.000000003593024
    vertex -495.4144672774179 77.08085821646873 3.5929890895847192e-09
    vertex -495.8803415586023 77.1421917291484 3.5930327990651987e-09
  endloop
endfacet
facet normal 0.06540312923014696 0.9978589232386034 2.521472373020523e-14
  outer loop
    vertex -495.4144672774179 77.08085821646873 3.5929890895847192e-09
    vertex -495.88034155860186 77.14219172914824 5.000000003593024
    vertex -495.41446727741743 77.08085821646857 5.00000000359298
  endloop
endfacet
facet normal 0.5000000000000066 0.8660254037844349 -2.0381933655107175e-14
  outer loop
    vertex -496.3144672774174 77.32201248965657 5.000000003593068
    vertex -495.8803415586023 77.1421917291484 3.5930327990651987e-09
    vertex -496.31446727741786 77.32201248965673 3.593077213537299e-09
  endloop
endfacet
facet normal 0.25881904510252984 0.965925826289066 5.764860767809101e-15
  outer loop
    vertex -495.8803415586023 77.1421917291484 3.5930327990651987e-09
    vertex -496.3144672774174 77.32201248965657 5.000000003593068
    vertex -495.88034155860186 77.14219172914824 5.000000003593024
  endloop
endfacet
facet normal -0.7071067811865377 -0.7071067811865573 4.513973298216408e-14
  outer loop
    vertex -485.9416750712821 80.15365042260443 3.5921769392377455e-09
    vertex -486.3144672774174 80.4397039432805 5.000000003592209
    vertex -486.31446727741786 80.43970394328066 3.592218533743363e-09
  endloop
endfacet
facet normal -0.5000000000000064 -0.8660254037844352 2.038193365510715e-14
  outer loop
    vertex -486.3144672774174 80.4397039432805 5.000000003592209
    vertex -485.9416750712821 80.15365042260443 3.5921769392377455e-09
    vertex -485.9416750712816 80.15365042260427 5.0000000035921675
  endloop
endfacet
facet normal -0.7071067811865377 -0.7071067811865573 4.513973298216408e-14
  outer loop
    vertex -485.9416750712821 80.15365042260443 3.5921769392377455e-09
    vertex -485.65562155060536 79.78085821646849 5.00000000359213
    vertex -485.9416750712816 80.15365042260427 5.0000000035921675
  endloop
endfacet
facet normal -0.8660254037844318 -0.5000000000000122 6.682133410342446e-14
  outer loop
    vertex -485.65562155060536 79.78085821646849 5.00000000359213
    vertex -485.9416750712821 80.15365042260443 3.5921769392377455e-09
    vertex -485.6556215506059 79.78085821646864 3.5921395746818517e-09
  endloop
endfacet
facet normal 0.9659258262890698 -0.25881904510251524 -1.0026449771273817e-13
  outer loop
    vertex -497.1531337647382 79.34673249765325 3.593215391894944e-09
    vertex -496.97331300422934 79.78085821646854 5.000000003593204
    vertex -497.15313376473773 79.3467324976531 5.000000003593207
  endloop
endfacet
facet normal 0.8660254037844257 -0.5000000000000224 -9.83401235597081e-14
  outer loop
    vertex -496.97331300422934 79.78085821646854 5.000000003593204
    vertex -497.1531337647382 79.34673249765325 3.593215391894944e-09
    vertex -496.9733130042298 79.7808582164687 3.593213276920082e-09
  endloop
endfacet
facet normal 0.06540312923013852 -0.9978589232386038 -3.7687886887055834e-14
  outer loop
    vertex -495.4144672774179 80.68085821646872 3.593102593235642e-09
    vertex -495.88034155860186 80.61952470378888 5.000000003593133
    vertex -495.8803415586023 80.61952470378904 3.5931420727663974e-09
  endloop
endfacet
facet normal 0.2588190451025107 -0.9659258262890711 -5.512476473057199e-14
  outer loop
    vertex -495.88034155860186 80.61952470378888 5.000000003593133
    vertex -495.4144672774179 80.68085821646872 3.593102593235642e-09
    vertex -495.4144672774173 80.68085821646856 5.000000003593094
  endloop
endfacet
facet normal 0.8660254037844315 0.5000000000000128 -6.682133410342442e-14
  outer loop
    vertex -496.97331300422934 77.98085821646855 5.000000003593147
    vertex -497.1531337647382 78.41498393528417 3.5931864872384976e-09
    vertex -497.1531337647376 78.41498393528401 5.000000003593177
  endloop
endfacet
facet normal 0.9659258262890728 0.25881904510250453 -8.394917173301395e-14
  outer loop
    vertex -497.1531337647382 78.41498393528417 3.5931864872384976e-09
    vertex -496.97331300422934 77.98085821646855 5.000000003593147
    vertex -496.9733130042298 77.98085821646872 3.59315617259881e-09
  endloop
endfacet
facet normal -0.5000000000000072 0.8660254037844345 7.497407838645559e-14
  outer loop
    vertex -486.3144672774173 77.3220124896565 5.0000000035921115
    vertex -485.9416750712821 77.60806601033286 3.5920965701929927e-09
    vertex -486.31446727741786 77.32201248965667 3.5921205399080946e-09
  endloop
endfacet
facet normal -0.7071067811865436 0.7071067811865515 8.971403250082281e-14
  outer loop
    vertex -485.9416750712821 77.60806601033286 3.5920965701929927e-09
    vertex -486.3144672774173 77.3220124896565 5.0000000035921115
    vertex -485.9416750712816 77.6080660103327 5.0000000035920875
  endloop
endfacet
facet normal -0.8660254037844315 -0.5000000000000128 6.682133410342442e-14
  outer loop
    vertex -485.6556215506059 79.78085821646864 3.5921395746818517e-09
    vertex -485.4758007900971 79.34673249765302 5.000000003592101
    vertex -485.65562155060536 79.78085821646849 5.00000000359213
  endloop
endfacet
facet normal -0.9659258262890726 -0.2588190451025044 8.394917173301394e-14
  outer loop
    vertex -485.4758007900971 79.34673249765302 5.000000003592101
    vertex -485.6556215506059 79.78085821646864 3.5921395746818517e-09
    vertex -485.47580079009754 79.34673249765318 3.592109965033785e-09
  endloop
endfacet
facet normal -0.25881904510251774 -0.9659258262890693 -5.764860767810358e-15
  outer loop
    vertex -486.74859299623336 80.619524703789 3.592262948215463e-09
    vertex -487.2144672774174 80.68085821646851 5.000000003592298
    vertex -487.21446727741784 80.68085821646868 3.5923073626875634e-09
  endloop
endfacet
facet normal -0.06540312923014692 -0.9978589232386034 -2.5214723730205234e-14
  outer loop
    vertex -487.2144672774174 80.68085821646851 5.000000003592298
    vertex -486.74859299623336 80.619524703789 3.592262948215463e-09
    vertex -486.74859299623284 80.61952470378884 5.000000003592254
  endloop
endfacet
facet normal -0.25881904510252507 -0.9659258262890673 -7.09691069124864e-14
  outer loop
    vertex -496.65679869390965 74.24441425028152 3.5933035158475235e-09
    vertex -495.41446727741743 74.08085821646861 5.000000003592885
    vertex -496.6567986939095 74.2444142502811 5.000000003592933
  endloop
endfacet
facet normal -0.06540312923016188 -0.9978589232386023 -7.027365753790262e-14
  outer loop
    vertex -495.41446727741743 74.08085821646861 5.000000003592885
    vertex -496.65679869390965 74.24441425028152 3.5933035158475235e-09
    vertex -495.4144672774176 74.08085821646904 3.59325557641732e-09
  endloop
endfacet
facet normal -0.5000000000000036 -0.8660254037844366 -5.2089834146868824e-14
  outer loop
    vertex -497.8144672774176 74.72393627830375 3.5933768349760696e-09
    vertex -496.6567986939095 74.2444142502811 5.000000003592933
    vertex -497.8144672774174 74.72393627830333 5.000000003593007
  endloop
endfacet
facet normal -0.2588190451025225 -0.965925826289068 -7.096910691248655e-14
  outer loop
    vertex -496.6567986939095 74.2444142502811 5.000000003592933
    vertex -497.8144672774176 74.72393627830375 3.5933768349760696e-09
    vertex -496.65679869390965 74.24441425028152 3.5933035158475235e-09
  endloop
endfacet
facet normal -0.7071067811865513 -0.7071067811865437 -3.075593406554471e-14
  outer loop
    vertex -498.808579827113 75.4867456667736 3.5934889286437507e-09
    vertex -497.8144672774174 74.72393627830333 5.000000003593007
    vertex -498.8085798271128 75.48674566677317 5.000000003593107
  endloop
endfacet
facet normal -0.5000000000000024 -0.8660254037844375 -5.208983414686892e-14
  outer loop
    vertex -497.8144672774174 74.72393627830333 5.000000003593007
    vertex -498.808579827113 75.4867456667736 3.5934889286437507e-09
    vertex -497.8144672774176 74.72393627830375 3.5933768349760696e-09
  endloop
endfacet
facet normal -0.8660254037844365 -0.500000000000004 -7.326067904238933e-15
  outer loop
    vertex -499.5713892155829 76.48085821646902 3.593610892194121e-09
    vertex -498.8085798271128 75.48674566677317 5.000000003593107
    vertex -499.5713892155827 76.48085821646859 5.00000000359323
  endloop
endfacet
facet normal -0.7071067811865513 -0.7071067811865437 -3.0755934065544704e-14
  outer loop
    vertex -498.8085798271128 75.48674566677317 5.000000003593107
    vertex -499.5713892155829 76.48085821646902 3.593610892194121e-09
    vertex -498.808579827113 75.4867456667736 3.5934889286437507e-09
  endloop
endfacet
facet normal -0.9659258262890698 -0.2588190451025157 1.6603057677842817e-14
  outer loop
    vertex -500.0509112436051 77.6385267999769 3.5937349707193532e-09
    vertex -499.5713892155827 76.48085821646859 5.00000000359323
    vertex -500.05091124360484 77.63852679997652 5.000000003593353
  endloop
endfacet
facet normal -0.8660254037844368 -0.5000000000000034 -7.326067904238895e-15
  outer loop
    vertex -499.5713892155827 76.48085821646859 5.00000000359323
    vertex -500.0509112436051 77.6385267999769 3.5937349707193532e-09
    vertex -499.5713892155829 76.48085821646902 3.593610892194121e-09
  endloop
endfacet
facet normal -1.0 4.814639085525259e-15 3.9400712317028745e-14
  outer loop
    vertex -500.2144672774176 78.88085821646902 3.5938562292781027e-09
    vertex -500.05091124360484 77.63852679997652 5.000000003593353
    vertex -500.2144672774174 78.8808582164686 5.000000003593486
  endloop
endfacet
facet normal -0.9659258262890704 -0.2588190451025132 1.6603057677843045e-14
  outer loop
    vertex -500.05091124360484 77.63852679997652 5.000000003593353
    vertex -500.2144672774176 78.88085821646902 3.5938562292781027e-09
    vertex -500.0509112436051 77.6385267999769 3.5937349707193532e-09
  endloop
endfacet
facet normal -0.9659258262890678 0.2588190451025233 5.951327352456481e-14
  outer loop
    vertex -500.0509112436051 80.1231896329611 3.5939711429122666e-09
    vertex -500.2144672774174 78.8808582164686 5.000000003593486
    vertex -500.05091124360484 80.12318963296072 5.000000003593601
  endloop
endfacet
facet normal -1.0 6.757261042776285e-15 3.9400712317028897e-14
  outer loop
    vertex -500.2144672774174 78.8808582164686 5.000000003593486
    vertex -500.0509112436051 80.1231896329611 3.5939711429122666e-09
    vertex -500.2144672774176 78.88085821646902 3.5938562292781027e-09
  endloop
endfacet
facet normal -0.8660254037844323 0.5000000000000113 7.557010349173717e-14
  outer loop
    vertex -499.5713892155829 81.28085821646897 3.5940775966469826e-09
    vertex -500.05091124360484 80.12318963296072 5.000000003593601
    vertex -499.5713892155826 81.28085821646859 5.0000000035937076
  endloop
endfacet
facet normal -0.9659258262890666 0.2588190451025275 5.951327352456513e-14
  outer loop
    vertex -500.05091124360484 80.12318963296072 5.000000003593601
    vertex -499.5713892155829 81.28085821646897 3.5940775966469826e-09
    vertex -500.0509112436051 80.1231896329611 3.5939711429122666e-09
  endloop
endfacet
facet normal -0.7071067811865427 0.7071067811865526 8.647695579144755e-14
  outer loop
    vertex -498.80857982711296 82.27497076616437 3.5941544407336322e-09
    vertex -499.5713892155826 81.28085821646859 5.0000000035937076
    vertex -498.8085798271128 82.27497076616399 5.000000003593784
  endloop
endfacet
facet normal -0.8660254037844298 0.5000000000000155 7.557010349173743e-14
  outer loop
    vertex -499.5713892155826 81.28085821646859 5.0000000035937076
    vertex -498.80857982711296 82.27497076616437 3.5941544407336322e-09
    vertex -499.5713892155829 81.28085821646897 3.5940775966469826e-09
  endloop
endfacet
facet normal -0.49999999999999223 0.8660254037844431 9.149054646389754e-14
  outer loop
    vertex -497.8144672774173 83.03778015463388 5.000000003593832
    vertex -498.80857982711296 82.27497076616437 3.5941544407336322e-09
    vertex -498.8085798271128 82.27497076616399 5.000000003593784
  endloop
endfacet
facet normal -0.7071067811865427 0.7071067811865526 8.647695579144755e-14
  outer loop
    vertex -498.80857982711296 82.27497076616437 3.5941544407336322e-09
    vertex -497.8144672774173 83.03778015463388 5.000000003593832
    vertex -497.8144672774176 83.0377801546343 3.5942023801638356e-09
  endloop
endfacet
facet normal -0.25881904510251075 0.965925826289071 9.081212383194874e-14
  outer loop
    vertex -496.6567986939094 83.5173021826561 5.000000003593858
    vertex -497.8144672774176 83.0377801546343 3.5942023801638356e-09
    vertex -497.8144672774173 83.03778015463388 5.000000003593832
  endloop
endfacet
facet normal -0.4999999999999957 0.8660254037844412 9.149054646389752e-14
  outer loop
    vertex -497.8144672774176 83.0377801546343 3.5942023801638356e-09
    vertex -496.6567986939094 83.5173021826561 5.000000003593858
    vertex -496.65679869390965 83.51730218265654 3.5942277598621783e-09
  endloop
endfacet
facet normal -0.06540312923013705 0.9978589232386039 7.542042975340666e-14
  outer loop
    vertex -495.4144672774173 83.68085821646855 5.000000003593843
    vertex -496.65679869390965 83.51730218265654 3.5942277598621783e-09
    vertex -496.6567986939094 83.5173021826561 5.000000003593858
  endloop
endfacet
facet normal -0.2588190451025146 0.9659258262890699 9.081212383194876e-14
  outer loop
    vertex -496.65679869390965 83.51730218265654 3.5942277598621783e-09
    vertex -495.4144672774173 83.68085821646855 5.000000003593843
    vertex -495.4144672774176 83.68085821646898 3.5942122500465244e-09
  endloop
endfacet
facet normal -7.572822160840744e-14 9.660169950117826e-14 -1.0
  outer loop
    vertex -500.0509112436051 77.6385267999769 3.5937349707193532e-09
    vertex -495.4144672774179 77.08085821646873 3.5929890895847192e-09
    vertex -499.5713892155829 76.48085821646902 3.593610892194121e-09
  endloop
endfacet
facet normal -7.572822160840744e-14 9.660169950117826e-14 -1.0
  outer loop
    vertex -495.4144672774179 77.08085821646873 3.5929890895847192e-09
    vertex -500.0509112436051 77.6385267999769 3.5937349707193532e-09
    vertex -495.8803415586023 77.1421917291484 3.5930327990651987e-09
  endloop
endfacet
facet normal -7.572822160840744e-14 9.660169950117826e-14 -1.0
  outer loop
    vertex -495.8803415586023 77.1421917291484 3.5930327990651987e-09
    vertex -500.0509112436051 77.6385267999769 3.5937349707193532e-09
    vertex -496.31446727741786 77.32201248965673 3.593077213537299e-09
  endloop
endfacet
facet normal -7.572822160840744e-14 9.660169950117826e-14 -1.0
  outer loop
    vertex -496.31446727741786 77.32201248965673 3.593077213537299e-09
    vertex -500.0509112436051 77.6385267999769 3.5937349707193532e-09
    vertex -496.68725948355365 77.60806601033292 3.5931188080429163e-09
  endloop
endfacet
facet normal -7.572822160840744e-14 9.660169950117826e-14 -1.0
  outer loop
    vertex -496.68725948355365 77.60806601033292 3.5931188080429163e-09
    vertex -500.0509112436051 77.6385267999769 3.5937349707193532e-09
    vertex -496.9733130042298 77.98085821646872 3.59315617259881e-09
  endloop
endfacet
facet normal -7.572822160840744e-14 9.660169950117826e-14 -1.0
  outer loop
    vertex -496.9733130042298 77.98085821646872 3.59315617259881e-09
    vertex -500.0509112436051 77.6385267999769 3.5937349707193532e-09
    vertex -500.2144672774176 78.88085821646902 3.5938562292781027e-09
  endloop
endfacet
facet normal -7.572822160840744e-14 9.660169950117826e-14 -1.0
  outer loop
    vertex -496.9733130042298 77.98085821646872 3.59315617259881e-09
    vertex -500.2144672774176 78.88085821646902 3.5938562292781027e-09
    vertex -497.1531337647382 78.41498393528417 3.5931864872384976e-09
  endloop
endfacet
facet normal -7.572822160840744e-14 9.660169950117826e-14 -1.0
  outer loop
    vertex -497.1531337647382 78.41498393528417 3.5931864872384976e-09
    vertex -500.2144672774176 78.88085821646902 3.5938562292781027e-09
    vertex -497.21446727741784 78.88085821646874 3.593206931995496e-09
  endloop
endfacet
facet normal -7.572822160840744e-14 9.660169950117826e-14 -1.0
  outer loop
    vertex -497.21446727741784 78.88085821646874 3.593206931995496e-09
    vertex -500.2144672774176 78.88085821646902 3.5938562292781027e-09
    vertex -497.1531337647382 79.34673249765325 3.593215391894944e-09
  endloop
endfacet
facet normal -7.572822160840744e-14 9.660169950117826e-14 -1.0
  outer loop
    vertex -497.1531337647382 79.34673249765325 3.593215391894944e-09
    vertex -500.2144672774176 78.88085821646902 3.5938562292781027e-09
    vertex -500.0509112436051 80.1231896329611 3.5939711429122666e-09
  endloop
endfacet
facet normal -7.572822160840744e-14 9.660169950117826e-14 -1.0
  outer loop
    vertex -497.1531337647382 79.34673249765325 3.593215391894944e-09
    vertex -500.0509112436051 80.1231896329611 3.5939711429122666e-09
    vertex -496.9733130042298 79.7808582164687 3.593213276920082e-09
  endloop
endfacet
facet normal -7.572822160840744e-14 9.660169950117826e-14 -1.0
  outer loop
    vertex -496.9733130042298 79.7808582164687 3.593213276920082e-09
    vertex -500.0509112436051 80.1231896329611 3.5939711429122666e-09
    vertex -496.68725948355365 80.1536504226045 3.593199177087669e-09
  endloop
endfacet
facet normal -7.572822160840744e-14 9.660169950117826e-14 -1.0
  outer loop
    vertex -496.68725948355365 80.1536504226045 3.593199177087669e-09
    vertex -500.0509112436051 80.1231896329611 3.5939711429122666e-09
    vertex -499.5713892155829 81.28085821646897 3.5940775966469826e-09
  endloop
endfacet
facet normal -7.572822160840744e-14 9.660169950117826e-14 -1.0
  outer loop
    vertex -496.68725948355365 80.1536504226045 3.593199177087669e-09
    vertex -499.5713892155829 81.28085821646897 3.5940775966469826e-09
    vertex -496.31446727741786 80.43970394328069 3.5931752073725672e-09
  endloop
endfacet
facet normal -7.572822160840744e-14 9.660169950117826e-14 -1.0
  outer loop
    vertex -496.31446727741786 80.43970394328069 3.5931752073725672e-09
    vertex -499.5713892155829 81.28085821646897 3.5940775966469826e-09
    vertex -495.8803415586023 80.61952470378904 3.5931420727663974e-09
  endloop
endfacet
facet normal -7.572822160840744e-14 9.660169950117826e-14 -1.0
  outer loop
    vertex -495.8803415586023 80.61952470378904 3.5931420727663974e-09
    vertex -499.5713892155829 81.28085821646897 3.5940775966469826e-09
    vertex -495.4144672774179 80.68085821646872 3.593102593235642e-09
  endloop
endfacet
facet normal -7.572822160840744e-14 9.660169950117826e-14 -1.0
  outer loop
    vertex -495.4144672774179 80.68085821646872 3.593102593235642e-09
    vertex -499.5713892155829 81.28085821646897 3.5940775966469826e-09
    vertex -487.21446727741784 80.68085821646868 3.5923073626875634e-09
  endloop
endfacet
facet normal -7.572822160840744e-14 9.660169950117826e-14 -1.0
  outer loop
    vertex -478.2144672774176 74.0808582164686 3.592020431097964e-09
    vertex -485.9416750712821 77.60806601033286 3.5920965701929927e-09
    vertex -478.2144672774176 83.68085821646861 3.592525910089961e-09
  endloop
endfacet
facet normal -7.572822160840744e-14 9.660169950117826e-14 -1.0
  outer loop
    vertex -485.9416750712821 77.60806601033286 3.5920965701929927e-09
    vertex -478.2144672774176 74.0808582164686 3.592020431097964e-09
    vertex -486.31446727741786 77.32201248965667 3.5921205399080946e-09
  endloop
endfacet
facet normal -7.572822160840744e-14 9.660169950117826e-14 -1.0
  outer loop
    vertex -486.31446727741786 77.32201248965667 3.5921205399080946e-09
    vertex -478.2144672774176 74.0808582164686 3.592020431097964e-09
    vertex -486.74859299623336 77.14219172914835 3.5921536745142644e-09
  endloop
endfacet
facet normal -7.572822160840744e-14 9.660169950117826e-14 -1.0
  outer loop
    vertex -486.74859299623336 77.14219172914835 3.5921536745142644e-09
    vertex -478.2144672774176 74.0808582164686 3.592020431097964e-09
    vertex -495.4144672774176 74.08085821646904 3.59325557641732e-09
  endloop
endfacet
facet normal -7.572822160840744e-14 9.660169950117826e-14 -1.0
  outer loop
    vertex -486.74859299623336 77.14219172914835 3.5921536745142644e-09
    vertex -495.4144672774176 74.08085821646904 3.59325557641732e-09
    vertex -496.65679869390965 74.24441425028152 3.5933035158475235e-09
  endloop
endfacet
facet normal -7.572822160840744e-14 9.660169950117826e-14 -1.0
  outer loop
    vertex -486.74859299623336 77.14219172914835 3.5921536745142644e-09
    vertex -496.65679869390965 74.24441425028152 3.5933035158475235e-09
    vertex -497.8144672774176 74.72393627830375 3.5933768349760696e-09
  endloop
endfacet
facet normal -7.572822160840744e-14 9.660169950117826e-14 -1.0
  outer loop
    vertex -486.74859299623336 77.14219172914835 3.5921536745142644e-09
    vertex -497.8144672774176 74.72393627830375 3.5933768349760696e-09
    vertex -498.808579827113 75.4867456667736 3.5934889286437507e-09
  endloop
endfacet
facet normal -7.572822160840744e-14 9.660169950117826e-14 -1.0
  outer loop
    vertex -486.74859299623336 77.14219172914835 3.5921536745142644e-09
    vertex -498.808579827113 75.4867456667736 3.5934889286437507e-09
    vertex -487.21446727741784 77.08085821646868 3.5921931540450203e-09
  endloop
endfacet
facet normal -7.572822160840744e-14 9.660169950117826e-14 -1.0
  outer loop
    vertex -487.21446727741784 77.08085821646868 3.5921931540450203e-09
    vertex -498.808579827113 75.4867456667736 3.5934889286437507e-09
    vertex -499.5713892155829 76.48085821646902 3.593610892194121e-09
  endloop
endfacet
facet normal -7.572822160840744e-14 9.660169950117826e-14 -1.0
  outer loop
    vertex -487.21446727741784 77.08085821646868 3.5921931540450203e-09
    vertex -499.5713892155829 76.48085821646902 3.593610892194121e-09
    vertex -495.4144672774179 77.08085821646873 3.5929890895847192e-09
  endloop
endfacet
facet normal -7.572822160840744e-14 9.660169950117826e-14 -1.0
  outer loop
    vertex -478.2144672774176 83.68085821646861 3.592525910089961e-09
    vertex -485.9416750712821 77.60806601033286 3.5920965701929927e-09
    vertex -485.6556215506059 77.98085821646865 3.59208247036058e-09
  endloop
endfacet
facet normal -7.572822160840744e-14 9.660169950117826e-14 -1.0
  outer loop
    vertex -478.2144672774176 83.68085821646861 3.592525910089961e-09
    vertex -485.6556215506059 77.98085821646865 3.59208247036058e-09
    vertex -485.47580079009754 78.4149839352841 3.5920803553857183e-09
  endloop
endfacet
facet normal -7.572822160840744e-14 9.660169950117826e-14 -1.0
  outer loop
    vertex -478.2144672774176 83.68085821646861 3.592525910089961e-09
    vertex -485.47580079009754 78.4149839352841 3.5920803553857183e-09
    vertex -485.4144672774179 78.88085821646867 3.5920895202767863e-09
  endloop
endfacet
facet normal -7.572822160840744e-14 9.660169950117826e-14 -1.0
  outer loop
    vertex -478.2144672774176 83.68085821646861 3.592525910089961e-09
    vertex -485.4144672774179 78.88085821646867 3.5920895202767863e-09
    vertex -485.47580079009754 79.34673249765318 3.592109965033785e-09
  endloop
endfacet
facet normal -7.572822160840744e-14 9.660169950117826e-14 -1.0
  outer loop
    vertex -478.2144672774176 83.68085821646861 3.592525910089961e-09
    vertex -485.47580079009754 79.34673249765318 3.592109965033785e-09
    vertex -485.6556215506059 79.78085821646864 3.5921395746818517e-09
  endloop
endfacet
facet normal -7.572822160840744e-14 9.660169950117826e-14 -1.0
  outer loop
    vertex -478.2144672774176 83.68085821646861 3.592525910089961e-09
    vertex -485.6556215506059 79.78085821646864 3.5921395746818517e-09
    vertex -485.9416750712821 80.15365042260443 3.5921769392377455e-09
  endloop
endfacet
facet normal -7.572822160840744e-14 9.660169950117826e-14 -1.0
  outer loop
    vertex -478.2144672774176 83.68085821646861 3.592525910089961e-09
    vertex -485.9416750712821 80.15365042260443 3.5921769392377455e-09
    vertex -486.31446727741786 80.43970394328066 3.592218533743363e-09
  endloop
endfacet
facet normal -7.572822160840744e-14 9.660169950117826e-14 -1.0
  outer loop
    vertex -478.2144672774176 83.68085821646861 3.592525910089961e-09
    vertex -486.31446727741786 80.43970394328066 3.592218533743363e-09
    vertex -486.74859299623336 80.619524703789 3.592262948215463e-09
  endloop
endfacet
facet normal -7.572822160840744e-14 9.660169950117826e-14 -1.0
  outer loop
    vertex -478.2144672774176 83.68085821646861 3.592525910089961e-09
    vertex -486.74859299623336 80.619524703789 3.592262948215463e-09
    vertex -487.21446727741784 80.68085821646868 3.5923073626875634e-09
  endloop
endfacet
facet normal -7.572822160840744e-14 9.660169950117826e-14 -1.0
  outer loop
    vertex -478.2144672774176 83.68085821646861 3.592525910089961e-09
    vertex -487.21446727741784 80.68085821646868 3.5923073626875634e-09
    vertex -499.5713892155829 81.28085821646897 3.5940775966469826e-09
  endloop
endfacet
facet normal -7.572822160840744e-14 9.660169950117826e-14 -1.0
  outer loop
    vertex -478.2144672774176 83.68085821646861 3.592525910089961e-09
    vertex -499.5713892155829 81.28085821646897 3.5940775966469826e-09
    vertex -498.80857982711296 82.27497076616437 3.5941544407336322e-09
  endloop
endfacet
facet normal -7.572822160840744e-14 9.660169950117826e-14 -1.0
  outer loop
    vertex -478.2144672774176 83.68085821646861 3.592525910089961e-09
    vertex -498.80857982711296 82.27497076616437 3.5941544407336322e-09
    vertex -497.8144672774176 83.0377801546343 3.5942023801638356e-09
  endloop
endfacet
facet normal -7.572822160840744e-14 9.660169950117826e-14 -1.0
  outer loop
    vertex -478.2144672774176 83.68085821646861 3.592525910089961e-09
    vertex -497.8144672774176 83.0377801546343 3.5942023801638356e-09
    vertex -496.65679869390965 83.51730218265654 3.5942277598621783e-09
  endloop
endfacet
facet normal -7.572822160840744e-14 9.660169950117826e-14 -1.0
  outer loop
    vertex -478.2144672774176 83.68085821646861 3.592525910089961e-09
    vertex -496.65679869390965 83.51730218265654 3.5942277598621783e-09
    vertex -495.4144672774176 83.68085821646898 3.5942122500465244e-09
  endloop
endfacet
facet normal 1.5901733614315625e-13 0.06540312923007804 0.9978589232386078
  outer loop
    vertex -478.2144672774151 79.68085821646748 19.000000003591587
    vertex -482.21446727741534 78.08085821646752 19.000000003592078
    vertex -478.2144672774151 78.08085821646749 19.00000000359156
  endloop
endfacet
facet normal 1.3825201135372888e-13 -0.06540312923021006 0.9978589232385991
  outer loop
    vertex -482.21446727741534 78.08085821646752 19.000000003592078
    vertex -478.2144672774151 79.68085821646748 19.000000003591587
    vertex -482.21446727741534 79.68085821646751 19.00000000359226
  endloop
endfacet
facet normal -0.06540312923006947 -8.738828227557765e-14 0.9978589232386084
  outer loop
    vertex -484.21446727741744 74.08085821646847 5.000000003591935
    vertex -486.7485929962329 77.1421917291482 5.000000003592144
    vertex -495.41446727741743 74.08085821646861 5.000000003592885
  endloop
endfacet
facet normal 7.409945166625088e-14 -9.55391902092908e-14 1.0
  outer loop
    vertex -486.7485929962329 77.1421917291482 5.000000003592144
    vertex -484.21446727741744 74.08085821646847 5.000000003591935
    vertex -486.3144672774173 77.3220124896565 5.0000000035921115
  endloop
endfacet
facet normal 7.409945166625088e-14 -9.55391902092908e-14 1.0
  outer loop
    vertex -486.3144672774173 77.3220124896565 5.0000000035921115
    vertex -484.21446727741744 74.08085821646847 5.000000003591935
    vertex -485.9416750712816 77.6080660103327 5.0000000035920875
  endloop
endfacet
facet normal 7.409945166625088e-14 -9.55391902092908e-14 1.0
  outer loop
    vertex -485.9416750712816 77.6080660103327 5.0000000035920875
    vertex -484.21446727741744 74.08085821646847 5.000000003591935
    vertex -485.65562155060536 77.98085821646849 5.000000003592073
  endloop
endfacet
facet normal 7.409945166625088e-14 -9.55391902092908e-14 1.0
  outer loop
    vertex -485.65562155060536 77.98085821646849 5.000000003592073
    vertex -484.21446727741744 74.08085821646847 5.000000003591935
    vertex -485.4758007900971 78.41498393528394 5.0000000035920715
  endloop
endfacet
facet normal 7.409945166625088e-14 -9.55391902092908e-14 1.0
  outer loop
    vertex -485.4758007900971 78.41498393528394 5.0000000035920715
    vertex -484.21446727741744 74.08085821646847 5.000000003591935
    vertex -484.2144672774173 83.6808582164685 5.000000003592711
  endloop
endfacet
facet normal 7.409945166625088e-14 -9.55391902092908e-14 1.0
  outer loop
    vertex -495.41446727741743 74.08085821646861 5.000000003592885
    vertex -486.7485929962329 77.1421917291482 5.000000003592144
    vertex -496.6567986939095 74.2444142502811 5.000000003592933
  endloop
endfacet
facet normal 7.409945166625088e-14 -9.55391902092908e-14 1.0
  outer loop
    vertex -496.6567986939095 74.2444142502811 5.000000003592933
    vertex -486.7485929962329 77.1421917291482 5.000000003592144
    vertex -497.8144672774174 74.72393627830333 5.000000003593007
  endloop
endfacet
facet normal 7.409945166625088e-14 -9.55391902092908e-14 1.0
  outer loop
    vertex -497.8144672774174 74.72393627830333 5.000000003593007
    vertex -486.7485929962329 77.1421917291482 5.000000003592144
    vertex -498.8085798271128 75.48674566677317 5.000000003593107
  endloop
endfacet
facet normal 7.409945166625088e-14 -9.55391902092908e-14 1.0
  outer loop
    vertex -498.8085798271128 75.48674566677317 5.000000003593107
    vertex -486.7485929962329 77.1421917291482 5.000000003592144
    vertex -487.2144672774174 77.08085821646853 5.000000003592184
  endloop
endfacet
facet normal 7.409945166625088e-14 -9.55391902092908e-14 1.0
  outer loop
    vertex -498.8085798271128 75.48674566677317 5.000000003593107
    vertex -487.2144672774174 77.08085821646853 5.000000003592184
    vertex -499.5713892155827 76.48085821646859 5.00000000359323
  endloop
endfacet
facet normal 7.409945166625088e-14 -9.55391902092908e-14 1.0
  outer loop
    vertex -485.4758007900971 78.41498393528394 5.0000000035920715
    vertex -484.2144672774173 83.6808582164685 5.000000003592711
    vertex -485.41446727741743 78.88085821646851 5.00000000359208
  endloop
endfacet
facet normal 7.409945166625088e-14 -9.55391902092908e-14 1.0
  outer loop
    vertex -485.41446727741743 78.88085821646851 5.00000000359208
    vertex -484.2144672774173 83.6808582164685 5.000000003592711
    vertex -485.4758007900971 79.34673249765302 5.000000003592101
  endloop
endfacet
facet normal 7.409945166625088e-14 -9.55391902092908e-14 1.0
  outer loop
    vertex -485.4758007900971 79.34673249765302 5.000000003592101
    vertex -484.2144672774173 83.6808582164685 5.000000003592711
    vertex -485.65562155060536 79.78085821646849 5.00000000359213
  endloop
endfacet
facet normal 7.409945166625088e-14 -9.55391902092908e-14 1.0
  outer loop
    vertex -485.65562155060536 79.78085821646849 5.00000000359213
    vertex -484.2144672774173 83.6808582164685 5.000000003592711
    vertex -485.9416750712816 80.15365042260427 5.0000000035921675
  endloop
endfacet
facet normal 7.409945166625088e-14 -9.55391902092908e-14 1.0
  outer loop
    vertex -485.9416750712816 80.15365042260427 5.0000000035921675
    vertex -484.2144672774173 83.6808582164685 5.000000003592711
    vertex -486.3144672774174 80.4397039432805 5.000000003592209
  endloop
endfacet
facet normal 7.409945166625088e-14 -9.55391902092908e-14 1.0
  outer loop
    vertex -486.3144672774174 80.4397039432805 5.000000003592209
    vertex -484.2144672774173 83.6808582164685 5.000000003592711
    vertex -486.74859299623284 80.61952470378884 5.000000003592254
  endloop
endfacet
facet normal 7.409945166625088e-14 -9.55391902092908e-14 1.0
  outer loop
    vertex -486.74859299623284 80.61952470378884 5.000000003592254
    vertex -484.2144672774173 83.6808582164685 5.000000003592711
    vertex -487.2144672774174 80.68085821646851 5.000000003592298
  endloop
endfacet
facet normal 7.409945166625088e-14 -9.55391902092908e-14 1.0
  outer loop
    vertex -487.2144672774174 80.68085821646851 5.000000003592298
    vertex -484.2144672774173 83.6808582164685 5.000000003592711
    vertex -495.4144672774173 80.68085821646856 5.000000003593094
  endloop
endfacet
facet normal 7.409945166625088e-14 -9.55391902092908e-14 1.0
  outer loop
    vertex -495.4144672774173 80.68085821646856 5.000000003593094
    vertex -484.2144672774173 83.6808582164685 5.000000003592711
    vertex -499.5713892155826 81.28085821646859 5.0000000035937076
  endloop
endfacet
facet normal 7.409945166625088e-14 -9.55391902092908e-14 1.0
  outer loop
    vertex -499.5713892155826 81.28085821646859 5.0000000035937076
    vertex -484.2144672774173 83.6808582164685 5.000000003592711
    vertex -498.8085798271128 82.27497076616399 5.000000003593784
  endloop
endfacet
facet normal 7.409945166625088e-14 -9.55391902092908e-14 1.0
  outer loop
    vertex -498.8085798271128 82.27497076616399 5.000000003593784
    vertex -484.2144672774173 83.6808582164685 5.000000003592711
    vertex -497.8144672774173 83.03778015463388 5.000000003593832
  endloop
endfacet
facet normal 7.409945166625088e-14 -9.55391902092908e-14 1.0
  outer loop
    vertex -497.8144672774173 83.03778015463388 5.000000003593832
    vertex -484.2144672774173 83.6808582164685 5.000000003592711
    vertex -496.6567986939094 83.5173021826561 5.000000003593858
  endloop
endfacet
facet normal 7.409945166625088e-14 -9.55391902092908e-14 1.0
  outer loop
    vertex -496.6567986939094 83.5173021826561 5.000000003593858
    vertex -484.2144672774173 83.6808582164685 5.000000003592711
    vertex -495.4144672774173 83.68085821646855 5.000000003593843
  endloop
endfacet
facet normal 7.409945166625088e-14 -9.55391902092908e-14 1.0
  outer loop
    vertex -499.5713892155827 76.48085821646859 5.00000000359323
    vertex -495.41446727741743 77.08085821646857 5.00000000359298
    vertex -500.05091124360484 77.63852679997652 5.000000003593353
  endloop
endfacet
facet normal 7.409945166625088e-14 -9.55391902092908e-14 1.0
  outer loop
    vertex -495.41446727741743 77.08085821646857 5.00000000359298
    vertex -499.5713892155827 76.48085821646859 5.00000000359323
    vertex -487.2144672774174 77.08085821646853 5.000000003592184
  endloop
endfacet
facet normal 7.409945166625088e-14 -9.55391902092908e-14 1.0
  outer loop
    vertex -500.05091124360484 77.63852679997652 5.000000003593353
    vertex -495.41446727741743 77.08085821646857 5.00000000359298
    vertex -495.88034155860186 77.14219172914824 5.000000003593024
  endloop
endfacet
facet normal 7.409945166625088e-14 -9.55391902092908e-14 1.0
  outer loop
    vertex -500.05091124360484 77.63852679997652 5.000000003593353
    vertex -495.88034155860186 77.14219172914824 5.000000003593024
    vertex -496.3144672774174 77.32201248965657 5.000000003593068
  endloop
endfacet
facet normal 7.409945166625088e-14 -9.55391902092908e-14 1.0
  outer loop
    vertex -500.05091124360484 77.63852679997652 5.000000003593353
    vertex -496.3144672774174 77.32201248965657 5.000000003593068
    vertex -496.6872594835531 77.60806601033276 5.00000000359311
  endloop
endfacet
facet normal 7.409945166625088e-14 -9.55391902092908e-14 1.0
  outer loop
    vertex -500.05091124360484 77.63852679997652 5.000000003593353
    vertex -496.6872594835531 77.60806601033276 5.00000000359311
    vertex -496.97331300422934 77.98085821646855 5.000000003593147
  endloop
endfacet
facet normal 7.409945166625088e-14 -9.55391902092908e-14 1.0
  outer loop
    vertex -500.05091124360484 77.63852679997652 5.000000003593353
    vertex -496.97331300422934 77.98085821646855 5.000000003593147
    vertex -500.2144672774174 78.8808582164686 5.000000003593486
  endloop
endfacet
facet normal 7.409945166625088e-14 -9.55391902092908e-14 1.0
  outer loop
    vertex -500.2144672774174 78.8808582164686 5.000000003593486
    vertex -496.97331300422934 77.98085821646855 5.000000003593147
    vertex -497.1531337647376 78.41498393528401 5.000000003593177
  endloop
endfacet
facet normal 7.409945166625088e-14 -9.55391902092908e-14 1.0
  outer loop
    vertex -500.2144672774174 78.8808582164686 5.000000003593486
    vertex -497.1531337647376 78.41498393528401 5.000000003593177
    vertex -497.2144672774174 78.88085821646857 5.000000003593198
  endloop
endfacet
facet normal 7.409945166625088e-14 -9.55391902092908e-14 1.0
  outer loop
    vertex -500.2144672774174 78.8808582164686 5.000000003593486
    vertex -497.2144672774174 78.88085821646857 5.000000003593198
    vertex -497.15313376473773 79.3467324976531 5.000000003593207
  endloop
endfacet
facet normal 7.409945166625088e-14 -9.55391902092908e-14 1.0
  outer loop
    vertex -500.2144672774174 78.8808582164686 5.000000003593486
    vertex -497.15313376473773 79.3467324976531 5.000000003593207
    vertex -500.05091124360484 80.12318963296072 5.000000003593601
  endloop
endfacet
facet normal 7.409945166625088e-14 -9.55391902092908e-14 1.0
  outer loop
    vertex -500.05091124360484 80.12318963296072 5.000000003593601
    vertex -497.15313376473773 79.3467324976531 5.000000003593207
    vertex -496.97331300422934 79.78085821646854 5.000000003593204
  endloop
endfacet
facet normal 7.409945166625088e-14 -9.55391902092908e-14 1.0
  outer loop
    vertex -500.05091124360484 80.12318963296072 5.000000003593601
    vertex -496.97331300422934 79.78085821646854 5.000000003593204
    vertex -496.6872594835531 80.15365042260433 5.00000000359319
  endloop
endfacet
facet normal 7.409945166625088e-14 -9.55391902092908e-14 1.0
  outer loop
    vertex -500.05091124360484 80.12318963296072 5.000000003593601
    vertex -496.6872594835531 80.15365042260433 5.00000000359319
    vertex -499.5713892155826 81.28085821646859 5.0000000035937076
  endloop
endfacet
facet normal 7.409945166625088e-14 -9.55391902092908e-14 1.0
  outer loop
    vertex -499.5713892155826 81.28085821646859 5.0000000035937076
    vertex -496.6872594835531 80.15365042260433 5.00000000359319
    vertex -496.3144672774174 80.43970394328053 5.000000003593166
  endloop
endfacet
facet normal 7.409945166625088e-14 -9.55391902092908e-14 1.0
  outer loop
    vertex -499.5713892155826 81.28085821646859 5.0000000035937076
    vertex -496.3144672774174 80.43970394328053 5.000000003593166
    vertex -495.88034155860186 80.61952470378888 5.000000003593133
  endloop
endfacet
facet normal 7.409945166625088e-14 -9.55391902092908e-14 1.0
  outer loop
    vertex -499.5713892155826 81.28085821646859 5.0000000035937076
    vertex -495.88034155860186 80.61952470378888 5.000000003593133
    vertex -495.4144672774173 80.68085821646856 5.000000003593094
  endloop
endfacet
facet normal -0.7071067811864507 -5.244713756832553e-14 0.7071067811866445
  outer loop
    vertex -482.80025371504416 83.68085821646842 5.585786441219495
    vertex -482.4824164698484 74.08085821646843 6.000000003591802
    vertex -482.4824164698483 83.68085821646841 6.000000003592556
  endloop
endfacet
facet normal -0.8660254037843845 -3.4704519443840207e-14 0.500000000000094
  outer loop
    vertex -482.4824164698484 74.08085821646843 6.000000003591802
    vertex -482.80025371504416 83.68085821646842 5.585786441219495
    vertex -482.8002537150442 74.08085821646844 5.58578644121873
  endloop
endfacet
facet normal -0.4999999999998937 -6.67253814632306e-14 0.8660254037845002
  outer loop
    vertex -483.2144672774173 83.68085821646844 5.267949196023752
    vertex -483.69682918721236 74.08085821646846 5.068148351013764
    vertex -483.2144672774174 74.0808582164684 5.267949196022975
  endloop
endfacet
facet normal -0.2588190451024397 -7.609603577204519e-14 0.96592582628909
  outer loop
    vertex -483.69682918721236 74.08085821646846 5.068148351013764
    vertex -483.2144672774173 83.68085821646844 5.267949196023752
    vertex -483.69682918721236 83.6808582164685 5.068148351014529
  endloop
endfacet
facet normal -0.8660254037843862 -3.470451944383998e-14 0.5000000000000913
  outer loop
    vertex -482.4824164698483 83.68085821646841 6.000000003592556
    vertex -482.2826156248391 74.08085821646836 6.482361913386737
    vertex -482.282615624839 83.68085821646838 6.482361913387503
  endloop
endfacet
facet normal -0.9659258262890323 -1.5066351984926644e-14 0.25881904510265485
  outer loop
    vertex -482.2826156248391 74.08085821646836 6.482361913386737
    vertex -482.4824164698483 83.68085821646841 6.000000003592556
    vertex -482.4824164698484 74.08085821646843 6.000000003591802
  endloop
endfacet
facet normal -0.707106781186444 -5.2447137568326115e-14 0.707106781186651
  outer loop
    vertex -482.8002537150442 74.08085821646844 5.58578644121873
    vertex -483.2144672774173 83.68085821646844 5.267949196023752
    vertex -483.2144672774174 74.0808582164684 5.267949196022975
  endloop
endfacet
facet normal -0.4999999999998937 -6.67253814632306e-14 0.8660254037845002
  outer loop
    vertex -483.2144672774173 83.68085821646844 5.267949196023752
    vertex -482.8002537150442 74.08085821646844 5.58578644121873
    vertex -482.80025371504416 83.68085821646842 5.585786441219495
  endloop
endfacet
facet normal -0.25881904510243475 -7.609603577204534e-14 0.9659258262890914
  outer loop
    vertex -483.69682918721236 83.6808582164685 5.068148351014529
    vertex -484.21446727741744 74.08085821646847 5.000000003591935
    vertex -483.69682918721236 74.08085821646846 5.068148351013764
  endloop
endfacet
facet normal -0.06540312923006947 -8.738828227557765e-14 0.9978589232386084
  outer loop
    vertex -484.21446727741744 74.08085821646847 5.000000003591935
    vertex -483.69682918721236 83.6808582164685 5.068148351014529
    vertex -484.2144672774173 83.6808582164685 5.000000003592711
  endloop
endfacet
facet normal -0.9659258262890326 -1.50663519849266e-14 0.2588190451026543
  outer loop
    vertex -482.282615624839 83.68085821646838 6.482361913387503
    vertex -482.2144672774171 74.08085821646834 7.000000003591776
    vertex -482.2144672774171 83.68085821646832 7.00000000359253
  endloop
endfacet
facet normal -0.9978589232385924 2.608997209790928e-16 0.06540312923031483
  outer loop
    vertex -482.2144672774171 74.08085821646834 7.000000003591776
    vertex -482.282615624839 83.68085821646838 6.482361913387503
    vertex -482.2826156248391 74.08085821646836 6.482361913386737
  endloop
endfacet
facet normal -0.06540312923016113 -0.9978589232386024 -7.027365753790252e-14
  outer loop
    vertex -495.4144672774176 74.08085821646904 3.59325557641732e-09
    vertex -484.21446727741744 74.08085821646847 5.000000003591935
    vertex -495.41446727741743 74.08085821646861 5.000000003592885
  endloop
endfacet
facet normal -1.748050653353274e-14 -1.0 -6.103055600545268e-14
  outer loop
    vertex -484.21446727741744 74.08085821646847 5.000000003591935
    vertex -495.4144672774176 74.08085821646904 3.59325557641732e-09
    vertex -478.2144672774176 74.0808582164686 3.592020431097964e-09
  endloop
endfacet
facet normal -1.748050653353274e-14 -1.0 -6.103055600545268e-14
  outer loop
    vertex -484.21446727741744 74.08085821646847 5.000000003591935
    vertex -478.2144672774176 74.0808582164686 3.592020431097964e-09
    vertex -483.69682918721236 74.08085821646846 5.068148351013764
  endloop
endfacet
facet normal -1.748050653353274e-14 -1.0 -6.103055600545268e-14
  outer loop
    vertex -483.69682918721236 74.08085821646846 5.068148351013764
    vertex -478.2144672774176 74.0808582164686 3.592020431097964e-09
    vertex -483.2144672774174 74.0808582164684 5.267949196022975
  endloop
endfacet
facet normal -1.748050653353274e-14 -1.0 -6.103055600545268e-14
  outer loop
    vertex -483.2144672774174 74.0808582164684 5.267949196022975
    vertex -478.2144672774176 74.0808582164686 3.592020431097964e-09
    vertex -482.8002537150442 74.08085821646844 5.58578644121873
  endloop
endfacet
facet normal -1.748050653353274e-14 -1.0 -6.103055600545268e-14
  outer loop
    vertex -482.8002537150442 74.08085821646844 5.58578644121873
    vertex -478.2144672774176 74.0808582164686 3.592020431097964e-09
    vertex -482.4824164698484 74.08085821646843 6.000000003591802
  endloop
endfacet
facet normal -1.748050653353274e-14 -1.0 -6.103055600545268e-14
  outer loop
    vertex -482.4824164698484 74.08085821646843 6.000000003591802
    vertex -478.2144672774176 74.0808582164686 3.592020431097964e-09
    vertex -482.2826156248391 74.08085821646836 6.482361913386737
  endloop
endfacet
facet normal -1.748050653353274e-14 -1.0 -6.103055600545268e-14
  outer loop
    vertex -482.2826156248391 74.08085821646836 6.482361913386737
    vertex -478.2144672774176 74.0808582164686 3.592020431097964e-09
    vertex -482.2144672774171 74.08085821646834 7.000000003591776
  endloop
endfacet
facet normal -1.748050653353274e-14 -1.0 -6.103055600545268e-14
  outer loop
    vertex -482.2144672774171 74.08085821646834 7.000000003591776
    vertex -478.2144672774176 74.0808582164686 3.592020431097964e-09
    vertex -482.2144672774159 74.08085821646782 15.000000003591792
  endloop
endfacet
facet normal -8.38892377521083e-15 -0.9978589232386074 0.06540312923008583
  outer loop
    vertex -482.2144672774159 74.08085821646782 15.000000003591792
    vertex -478.2144672774176 74.0808582164686 3.592020431097964e-09
    vertex -478.2144672774156 74.08085821646776 15.000000003591321
  endloop
endfacet
facet normal 1.2642526145219217e-14 1.0 6.211154650399688e-14
  outer loop
    vertex -484.2144672774173 83.6808582164685 5.000000003592711
    vertex -495.4144672774176 83.68085821646898 3.5942122500465244e-09
    vertex -495.4144672774173 83.68085821646855 5.000000003593843
  endloop
endfacet
facet normal -0.06540312923013558 0.9978589232386041 7.542042975340637e-14
  outer loop
    vertex -495.4144672774176 83.68085821646898 3.5942122500465244e-09
    vertex -484.2144672774173 83.6808582164685 5.000000003592711
    vertex -478.2144672774176 83.68085821646861 3.592525910089961e-09
  endloop
endfacet
facet normal 1.2642526145219217e-14 1.0 6.211154650399688e-14
  outer loop
    vertex -478.2144672774176 83.68085821646861 3.592525910089961e-09
    vertex -484.2144672774173 83.6808582164685 5.000000003592711
    vertex -483.69682918721236 83.6808582164685 5.068148351014529
  endloop
endfacet
facet normal 1.2642526145219217e-14 1.0 6.211154650399688e-14
  outer loop
    vertex -478.2144672774176 83.68085821646861 3.592525910089961e-09
    vertex -483.69682918721236 83.6808582164685 5.068148351014529
    vertex -483.2144672774173 83.68085821646844 5.267949196023752
  endloop
endfacet
facet normal 1.2642526145219217e-14 1.0 6.211154650399688e-14
  outer loop
    vertex -478.2144672774176 83.68085821646861 3.592525910089961e-09
    vertex -483.2144672774173 83.68085821646844 5.267949196023752
    vertex -482.80025371504416 83.68085821646842 5.585786441219495
  endloop
endfacet
facet normal 1.2642526145219217e-14 1.0 6.211154650399688e-14
  outer loop
    vertex -478.2144672774176 83.68085821646861 3.592525910089961e-09
    vertex -482.80025371504416 83.68085821646842 5.585786441219495
    vertex -482.4824164698483 83.68085821646841 6.000000003592556
  endloop
endfacet
facet normal 1.2642526145219217e-14 1.0 6.211154650399688e-14
  outer loop
    vertex -478.2144672774176 83.68085821646861 3.592525910089961e-09
    vertex -482.4824164698483 83.68085821646841 6.000000003592556
    vertex -482.282615624839 83.68085821646838 6.482361913387503
  endloop
endfacet
facet normal 1.2642526145219217e-14 1.0 6.211154650399688e-14
  outer loop
    vertex -478.2144672774176 83.68085821646861 3.592525910089961e-09
    vertex -482.282615624839 83.68085821646838 6.482361913387503
    vertex -482.2144672774171 83.68085821646832 7.00000000359253
  endloop
endfacet
facet normal 1.2642526145219217e-14 1.0 6.211154650399688e-14
  outer loop
    vertex -478.2144672774176 83.68085821646861 3.592525910089961e-09
    vertex -482.2144672774171 83.68085821646832 7.00000000359253
    vertex -482.2144672774159 83.68085821646784 15.000000003592554
  endloop
endfacet
facet normal 1.2642526145219217e-14 1.0 6.211154650399688e-14
  outer loop
    vertex -478.2144672774176 83.68085821646861 3.592525910089961e-09
    vertex -482.2144672774159 83.68085821646784 15.000000003592554
    vertex -478.2144672774156 83.68085821646773 15.000000003591826
  endloop
endfacet
facet normal 1.381956868941219e-13 0.7071067811865019 0.7071067811865931
  outer loop
    vertex -478.2144672774153 82.50928534121377 17.82842712833795
    vertex -482.21446727741534 81.68085821646757 18.464101618730165
    vertex -478.21446727741517 81.6808582164675 18.464101618729465
  endloop
endfacet
facet normal 1.5760784585759035e-13 0.4999999999999354 0.866025403784476
  outer loop
    vertex -482.21446727741534 81.68085821646757 18.464101618730165
    vertex -478.2144672774153 82.50928534121377 17.82842712833795
    vertex -482.21446727741545 82.50928534121384 17.828427128338653
  endloop
endfacet
facet normal 7.196116928972267e-14 0.9659258262890517 0.25881904510258313
  outer loop
    vertex -482.21446727741574 83.54456152162408 16.035276184002626
    vertex -478.2144672774156 83.68085821646773 15.000000003591826
    vertex -482.2144672774159 83.68085821646784 15.000000003592554
  endloop
endfacet
facet normal 3.114399647510664e-14 0.9978589232385999 0.06540312923019805
  outer loop
    vertex -478.2144672774156 83.68085821646773 15.000000003591826
    vertex -482.21446727741574 83.54456152162408 16.035276184002626
    vertex -478.21446727741545 83.54456152162396 16.0352761840019
  endloop
endfacet
facet normal 5.395655863215877e-14 -0.8660254037844749 0.4999999999999376
  outer loop
    vertex -478.2144672774154 74.61675660132985 17.000000003591353
    vertex -482.21446727741557 75.25243109172139 17.828427128338063
    vertex -482.2144672774156 74.61675660132988 17.00000000359183
  endloop
endfacet
facet normal 8.304542207614193e-14 -0.7071067811865996 0.7071067811864955
  outer loop
    vertex -482.21446727741557 75.25243109172139 17.828427128338063
    vertex -478.2144672774154 74.61675660132985 17.000000003591353
    vertex -478.2144672774153 75.25243109172138 17.828427128337584
  endloop
endfacet
facet normal 1.6741482229051777e-13 0.2588190451024572 0.9659258262890854
  outer loop
    vertex -478.2144672774151 80.71613439687758 18.863703308747922
    vertex -482.21446727741534 79.68085821646751 19.00000000359226
    vertex -478.2144672774151 79.68085821646748 19.000000003591587
  endloop
endfacet
facet normal 1.5901733614315625e-13 0.06540312923007792 0.9978589232386079
  outer loop
    vertex -482.21446727741534 79.68085821646751 19.00000000359226
    vertex -478.2144672774151 80.71613439687758 18.863703308747922
    vertex -482.21446727741534 80.7161343968776 18.86370330874861
  endloop
endfacet
facet normal 1.1006738886065358e-13 0.8660254037844064 0.5000000000000561
  outer loop
    vertex -482.2144672774156 83.14495983160543 17.000000003592515
    vertex -478.21446727741545 83.54456152162396 16.0352761840019
    vertex -482.21446727741574 83.54456152162408 16.035276184002626
  endloop
endfacet
facet normal 7.196116928972173e-14 0.9659258262890531 0.25881904510257764
  outer loop
    vertex -478.21446727741545 83.54456152162396 16.0352761840019
    vertex -482.2144672774156 83.14495983160543 17.000000003592515
    vertex -478.2144672774154 83.14495983160532 17.000000003591794
  endloop
endfacet
facet normal 1.3825201135372883e-13 -0.06540312923021037 0.9978589232385993
  outer loop
    vertex -478.2144672774151 78.08085821646749 19.00000000359156
    vertex -482.21446727741534 77.04558203605747 18.863703308748278
    vertex -478.2144672774151 77.04558203605745 18.86370330874777
  endloop
endfacet
facet normal 1.2159662851811767e-13 -0.2588190451025799 0.9659258262890527
  outer loop
    vertex -482.21446727741534 77.04558203605747 18.863703308748278
    vertex -478.2144672774151 78.08085821646749 19.00000000359156
    vertex -482.21446727741534 78.08085821646752 19.000000003592078
  endloop
endfacet
facet normal 1.8963201563708334e-14 -0.9659258262890836 0.2588190451024639
  outer loop
    vertex -478.21446727741557 74.21715491131143 16.035276184001415
    vertex -482.2144672774156 74.61675660132988 17.00000000359183
    vertex -482.2144672774158 74.2171549113115 16.035276184001887
  endloop
endfacet
facet normal 5.395655863215834e-14 -0.8660254037844763 0.4999999999999347
  outer loop
    vertex -482.2144672774156 74.61675660132988 17.00000000359183
    vertex -478.21446727741557 74.21715491131143 16.035276184001415
    vertex -478.2144672774154 74.61675660132985 17.000000003591353
  endloop
endfacet
facet normal 1.0524910722140875e-13 -0.5000000000000507 0.8660254037844093
  outer loop
    vertex -478.21446727741517 76.0808582164675 18.46410161872919
    vertex -482.21446727741557 75.25243109172139 17.828427128338063
    vertex -478.2144672774153 75.25243109172138 17.828427128337584
  endloop
endfacet
facet normal 8.304542207614193e-14 -0.7071067811865996 0.7071067811864955
  outer loop
    vertex -482.21446727741557 75.25243109172139 17.828427128338063
    vertex -478.21446727741517 76.0808582164675 18.46410161872919
    vertex -482.21446727741545 76.08085821646753 18.46410161872969
  endloop
endfacet
facet normal 1.576078458575903e-13 0.49999999999993705 0.866025403784475
  outer loop
    vertex -478.21446727741517 81.6808582164675 18.464101618729465
    vertex -482.21446727741534 80.7161343968776 18.86370330874861
    vertex -478.2144672774151 80.71613439687758 18.863703308747922
  endloop
endfacet
facet normal 1.6741482229051785e-13 0.25881904510245507 0.965925826289086
  outer loop
    vertex -482.21446727741534 80.7161343968776 18.86370330874861
    vertex -478.21446727741517 81.6808582164675 18.464101618729465
    vertex -482.21446727741534 81.68085821646757 18.464101618730165
  endloop
endfacet
facet normal 1.2159662851811767e-13 -0.2588190451025793 0.9659258262890528
  outer loop
    vertex -478.2144672774151 77.04558203605745 18.86370330874777
    vertex -482.21446727741545 76.08085821646753 18.46410161872969
    vertex -478.21446727741517 76.0808582164675 18.46410161872919
  endloop
endfacet
facet normal 1.0524910722140864e-13 -0.5000000000000522 0.8660254037844085
  outer loop
    vertex -482.21446727741545 76.08085821646753 18.46410161872969
    vertex -478.2144672774151 77.04558203605745 18.86370330874777
    vertex -482.21446727741534 77.04558203605747 18.863703308748278
  endloop
endfacet
facet normal 1.3819568689412225e-13 0.7071067811864995 0.7071067811865956
  outer loop
    vertex -482.21446727741545 82.50928534121384 17.828427128338653
    vertex -478.2144672774154 83.14495983160532 17.000000003591794
    vertex -482.2144672774156 83.14495983160543 17.000000003592515
  endloop
endfacet
facet normal 1.100673888606531e-13 0.8660254037844084 0.5000000000000526
  outer loop
    vertex -478.2144672774154 83.14495983160532 17.000000003591794
    vertex -482.21446727741545 82.50928534121384 17.828427128338653
    vertex -478.2144672774153 82.50928534121377 17.82842712833795
  endloop
endfacet
facet normal -8.388923775210607e-15 -0.9978589232386071 0.06540312923008741
  outer loop
    vertex -478.2144672774156 74.08085821646776 15.000000003591321
    vertex -482.2144672774158 74.2171549113115 16.035276184001887
    vertex -482.2144672774159 74.08085821646782 15.000000003591792
  endloop
endfacet
facet normal 1.8963201563707858e-14 -0.9659258262890844 0.25881904510246057
  outer loop
    vertex -482.2144672774158 74.2171549113115 16.035276184001887
    vertex -478.2144672774156 74.08085821646776 15.000000003591321
    vertex -478.21446727741557 74.21715491131143 16.035276184001415
  endloop
endfacet
facet normal 1.0 -5.846589705702818e-15 -1.317218555034815e-13
  outer loop
    vertex -478.2144672774151 77.04558203605745 18.86370330874777
    vertex -478.2144672774151 79.68085821646748 19.000000003591587
    vertex -478.2144672774151 78.08085821646749 19.00000000359156
  endloop
endfacet
facet normal 1.0 -5.846589705702818e-15 -1.317218555034815e-13
  outer loop
    vertex -478.2144672774151 79.68085821646748 19.000000003591587
    vertex -478.2144672774151 77.04558203605745 18.86370330874777
    vertex -478.2144672774151 80.71613439687758 18.863703308747922
  endloop
endfacet
facet normal 1.0 -5.846589705702818e-15 -1.317218555034815e-13
  outer loop
    vertex -478.2144672774151 80.71613439687758 18.863703308747922
    vertex -478.2144672774151 77.04558203605745 18.86370330874777
    vertex -478.21446727741517 81.6808582164675 18.464101618729465
  endloop
endfacet
facet normal 1.0 -5.846589705702818e-15 -1.317218555034815e-13
  outer loop
    vertex -478.21446727741517 81.6808582164675 18.464101618729465
    vertex -478.2144672774151 77.04558203605745 18.86370330874777
    vertex -478.21446727741517 76.0808582164675 18.46410161872919
  endloop
endfacet
facet normal 1.0 -5.846589705702818e-15 -1.317218555034815e-13
  outer loop
    vertex -478.21446727741517 81.6808582164675 18.464101618729465
    vertex -478.21446727741517 76.0808582164675 18.46410161872919
    vertex -478.2144672774153 82.50928534121377 17.82842712833795
  endloop
endfacet
facet normal 1.0 -5.846589705702818e-15 -1.317218555034815e-13
  outer loop
    vertex -478.2144672774153 82.50928534121377 17.82842712833795
    vertex -478.21446727741517 76.0808582164675 18.46410161872919
    vertex -478.2144672774153 75.25243109172138 17.828427128337584
  endloop
endfacet
facet normal 1.0 -5.846589705702818e-15 -1.317218555034815e-13
  outer loop
    vertex -478.2144672774153 82.50928534121377 17.82842712833795
    vertex -478.2144672774153 75.25243109172138 17.828427128337584
    vertex -478.2144672774154 83.14495983160532 17.000000003591794
  endloop
endfacet
facet normal 1.0 -5.846589705702818e-15 -1.317218555034815e-13
  outer loop
    vertex -478.2144672774154 83.14495983160532 17.000000003591794
    vertex -478.2144672774153 75.25243109172138 17.828427128337584
    vertex -478.2144672774154 74.61675660132985 17.000000003591353
  endloop
endfacet
facet normal 1.0 -5.846589705702818e-15 -1.317218555034815e-13
  outer loop
    vertex -478.2144672774154 83.14495983160532 17.000000003591794
    vertex -478.2144672774154 74.61675660132985 17.000000003591353
    vertex -478.21446727741545 83.54456152162396 16.0352761840019
  endloop
endfacet
facet normal 1.0 -5.846589705702818e-15 -1.317218555034815e-13
  outer loop
    vertex -478.21446727741545 83.54456152162396 16.0352761840019
    vertex -478.2144672774154 74.61675660132985 17.000000003591353
    vertex -478.21446727741557 74.21715491131143 16.035276184001415
  endloop
endfacet
facet normal 1.0 -5.846589705702818e-15 -1.317218555034815e-13
  outer loop
    vertex -478.21446727741545 83.54456152162396 16.0352761840019
    vertex -478.21446727741557 74.21715491131143 16.035276184001415
    vertex -478.2144672774156 83.68085821646773 15.000000003591826
  endloop
endfacet
facet normal 1.0 -5.846589705702818e-15 -1.317218555034815e-13
  outer loop
    vertex -478.2144672774156 83.68085821646773 15.000000003591826
    vertex -478.21446727741557 74.21715491131143 16.035276184001415
    vertex -478.2144672774156 74.08085821646776 15.000000003591321
  endloop
endfacet
facet normal 1.0 -5.846589705702818e-15 -1.317218555034815e-13
  outer loop
    vertex -478.2144672774156 83.68085821646773 15.000000003591826
    vertex -478.2144672774156 74.08085821646776 15.000000003591321
    vertex -478.2144672774176 83.68085821646861 3.592525910089961e-09
  endloop
endfacet
facet normal 1.0 -5.846589705702818e-15 -1.317218555034815e-13
  outer loop
    vertex -478.2144672774176 83.68085821646861 3.592525910089961e-09
    vertex -478.2144672774156 74.08085821646776 15.000000003591321
    vertex -478.2144672774176 74.0808582164686 3.592020431097964e-09
  endloop
endfacet
facet normal -1.0 5.295061696488792e-15 1.4521246182497897e-13
  outer loop
    vertex -482.21446727741534 80.7161343968776 18.86370330874861
    vertex -482.21446727741534 78.08085821646752 19.000000003592078
    vertex -482.21446727741534 79.68085821646751 19.00000000359226
  endloop
endfacet
facet normal -1.0 5.295061696488792e-15 1.4521246182497897e-13
  outer loop
    vertex -482.21446727741534 78.08085821646752 19.000000003592078
    vertex -482.21446727741534 80.7161343968776 18.86370330874861
    vertex -482.21446727741534 77.04558203605747 18.863703308748278
  endloop
endfacet
facet normal -1.0 5.295061696488792e-15 1.4521246182497897e-13
  outer loop
    vertex -482.21446727741534 77.04558203605747 18.863703308748278
    vertex -482.21446727741534 80.7161343968776 18.86370330874861
    vertex -482.21446727741534 81.68085821646757 18.464101618730165
  endloop
endfacet
facet normal -1.0 5.295061696488792e-15 1.4521246182497897e-13
  outer loop
    vertex -482.21446727741534 77.04558203605747 18.863703308748278
    vertex -482.21446727741534 81.68085821646757 18.464101618730165
    vertex -482.21446727741545 76.08085821646753 18.46410161872969
  endloop
endfacet
facet normal -1.0 5.295061696488792e-15 1.4521246182497897e-13
  outer loop
    vertex -482.21446727741545 76.08085821646753 18.46410161872969
    vertex -482.21446727741534 81.68085821646757 18.464101618730165
    vertex -482.21446727741545 82.50928534121384 17.828427128338653
  endloop
endfacet
facet normal -1.0 5.295061696488792e-15 1.4521246182497897e-13
  outer loop
    vertex -482.21446727741545 76.08085821646753 18.46410161872969
    vertex -482.21446727741545 82.50928534121384 17.828427128338653
    vertex -482.21446727741557 75.25243109172139 17.828427128338063
  endloop
endfacet
facet normal -1.0 5.295061696488792e-15 1.4521246182497897e-13
  outer loop
    vertex -482.21446727741557 75.25243109172139 17.828427128338063
    vertex -482.21446727741545 82.50928534121384 17.828427128338653
    vertex -482.2144672774156 83.14495983160543 17.000000003592515
  endloop
endfacet
facet normal -1.0 5.295061696488792e-15 1.4521246182497897e-13
  outer loop
    vertex -482.21446727741557 75.25243109172139 17.828427128338063
    vertex -482.2144672774156 83.14495983160543 17.000000003592515
    vertex -482.2144672774156 74.61675660132988 17.00000000359183
  endloop
endfacet
facet normal -1.0 5.295061696488792e-15 1.4521246182497897e-13
  outer loop
    vertex -482.2144672774156 74.61675660132988 17.00000000359183
    vertex -482.2144672774156 83.14495983160543 17.000000003592515
    vertex -482.21446727741574 83.54456152162408 16.035276184002626
  endloop
endfacet
facet normal -1.0 5.295061696488792e-15 1.4521246182497897e-13
  outer loop
    vertex -482.2144672774156 74.61675660132988 17.00000000359183
    vertex -482.21446727741574 83.54456152162408 16.035276184002626
    vertex -482.2144672774158 74.2171549113115 16.035276184001887
  endloop
endfacet
facet normal -1.0 5.295061696488792e-15 1.4521246182497897e-13
  outer loop
    vertex -482.2144672774158 74.2171549113115 16.035276184001887
    vertex -482.21446727741574 83.54456152162408 16.035276184002626
    vertex -482.2144672774159 83.68085821646784 15.000000003592554
  endloop
endfacet
facet normal -1.0 5.295061696488792e-15 1.4521246182497897e-13
  outer loop
    vertex -482.2144672774158 74.2171549113115 16.035276184001887
    vertex -482.2144672774159 83.68085821646784 15.000000003592554
    vertex -482.2144672774159 74.08085821646782 15.000000003591792
  endloop
endfacet
facet normal -1.0 5.295061696488792e-15 1.4521246182497897e-13
  outer loop
    vertex -482.2144672774159 74.08085821646782 15.000000003591792
    vertex -482.2144672774159 83.68085821646784 15.000000003592554
    vertex -482.2144672774171 83.68085821646832 7.00000000359253
  endloop
endfacet
facet normal -1.0 5.295061696488792e-15 1.4521246182497897e-13
  outer loop
    vertex -482.2144672774159 74.08085821646782 15.000000003591792
    vertex -482.2144672774171 83.68085821646832 7.00000000359253
    vertex -482.2144672774171 74.08085821646834 7.000000003591776
  endloop
endfacet
endsolid iTopie
