solid iTopie
facet normal 0.8660254037844376 -0.5000000000000021 -8.949695053634987e-14
  outer loop
    vertex -283.17331300422956 86.00327711404725 3.5926528085816755e-09
    vertex -283.3531337647374 85.56915139523169 5.000000003592646
    vertex -283.35313376473783 85.5691513952318 3.592655628548158e-09
  endloop
endfacet
facet normal 0.9659258262890696 -0.2588190451025157 -9.233592568385655e-14
  outer loop
    vertex -283.3531337647374 85.56915139523169 5.000000003592646
    vertex -283.17331300422956 86.00327711404725 3.5926528085816755e-09
    vertex -283.1733130042291 86.00327711404714 5.0000000035926435
  endloop
endfacet
facet normal 0.8660254037844322 0.5000000000000117 -6.445181303328697e-14
  outer loop
    vertex -283.17331300422956 76.00327711404726 3.5924053565228317e-09
    vertex -282.8872594835529 75.63048490791142 5.000000003592359
    vertex -282.88725948355335 75.63048490791154 3.5923686969585587e-09
  endloop
endfacet
facet normal 0.7071067811865558 0.7071067811865394 -4.513973298216629e-14
  outer loop
    vertex -282.8872594835529 75.63048490791142 5.000000003592359
    vertex -283.17331300422956 76.00327711404726 3.5924053565228317e-09
    vertex -283.1733130042291 76.00327711404717 5.000000003592397
  endloop
endfacet
facet normal -0.9659258262890728 -0.2588190451025047 7.937160853784965e-14
  outer loop
    vertex -279.8758007900968 85.56915139523169 5.000000003592337
    vertex -280.0556215506055 86.00327711404731 3.592375746874765e-09
    vertex -279.87580079009723 85.5691513952318 3.5923461372266984e-09
  endloop
endfacet
facet normal -0.8660254037844334 -0.5000000000000091 6.445181303328714e-14
  outer loop
    vertex -280.0556215506055 86.00327711404731 3.592375746874765e-09
    vertex -279.8758007900968 85.56915139523169 5.000000003592337
    vertex -280.0556215506051 86.0032771140472 5.000000003592366
  endloop
endfacet
facet normal -0.5000000000000195 -0.8660254037844276 2.275145472524611e-14
  outer loop
    vertex -280.7144672774175 86.66212284085928 3.592455410927897e-09
    vertex -280.34167507128126 86.37606932018294 5.000000003592404
    vertex -280.71446727741704 86.66212284085917 5.000000003592446
  endloop
endfacet
facet normal -0.7071067811865482 -0.7071067811865468 4.513973298216543e-14
  outer loop
    vertex -280.34167507128126 86.37606932018294 5.000000003592404
    vertex -280.7144672774175 86.66212284085928 3.592455410927897e-09
    vertex -280.3416750712817 86.37606932018305 3.592413111430659e-09
  endloop
endfacet
facet normal -0.7071067811865666 0.7071067811865285 8.055890611049594e-14
  outer loop
    vertex -280.3416750712813 75.63048490791142 5.000000003592133
    vertex -280.05562155060557 76.00327711404732 3.5921282948159213e-09
    vertex -280.34167507128177 75.63048490791154 3.592142394648334e-09
  endloop
endfacet
facet normal -0.8660254037844359 0.5000000000000047 8.949695053634975e-14
  outer loop
    vertex -280.05562155060557 76.00327711404732 3.5921282948159213e-09
    vertex -280.3416750712813 75.63048490791142 5.000000003592133
    vertex -280.0556215506051 76.00327711404721 5.0000000035921195
  endloop
endfacet
facet normal 2.207829384443788e-15 1.0 2.504513750306185e-14
  outer loop
    vertex -281.6144672774176 75.1032771140473 3.592239683491982e-09
    vertex -282.0803415586016 75.16461062672686 5.000000003592273
    vertex -281.61446727741713 75.10327711404719 5.0000000035922305
  endloop
endfacet
facet normal 0.25881904510251225 0.9659258262890706 1.1872975726466905e-15
  outer loop
    vertex -282.0803415586016 75.16461062672686 5.000000003592273
    vertex -281.6144672774176 75.1032771140473 3.592239683491982e-09
    vertex -282.0803415586021 75.16461062672697 3.5922819829892203e-09
  endloop
endfacet
facet normal 0.2588190451025082 -0.9659258262890718 -4.719619270169017e-14
  outer loop
    vertex -282.0803415586021 86.8419436013676 3.5925823094196118e-09
    vertex -281.6144672774171 86.90327711404716 5.000000003592533
    vertex -282.0803415586016 86.84194360136749 5.000000003592573
  endloop
endfacet
facet normal -2.1454516151742597e-15 -1.0 -2.5045137503061856e-14
  outer loop
    vertex -281.6144672774171 86.90327711404716 5.000000003592533
    vertex -282.0803415586021 86.8419436013676 3.5925823094196118e-09
    vertex -281.61446727741753 86.90327711404727 3.592542829888856e-09
  endloop
endfacet
facet normal -0.2588190451025123 -0.9659258262890706 -1.187297572646689e-15
  outer loop
    vertex -281.148592996233 86.84194360136762 3.5924998253999973e-09
    vertex -280.71446727741704 86.66212284085917 5.000000003592446
    vertex -281.14859299623254 86.8419436013675 5.000000003592491
  endloop
endfacet
facet normal -0.500000000000019 -0.8660254037844279 2.2751454725246046e-14
  outer loop
    vertex -280.71446727741704 86.66212284085917 5.000000003592446
    vertex -281.148592996233 86.84194360136762 3.5924998253999973e-09
    vertex -280.7144672774175 86.66212284085928 3.592455410927897e-09
  endloop
endfacet
facet normal -0.7071067811865657 0.7071067811865294 8.055890611049589e-14
  outer loop
    vertex -280.34167507128177 75.63048490791154 3.592142394648334e-09
    vertex -280.7144672774171 75.34443138723519 5.000000003592157
    vertex -280.3416750712813 75.63048490791142 5.000000003592133
  endloop
endfacet
facet normal -0.5000000000000157 0.8660254037844296 6.613090536309745e-14
  outer loop
    vertex -280.7144672774171 75.34443138723519 5.000000003592157
    vertex -280.34167507128177 75.63048490791154 3.592142394648334e-09
    vertex -280.71446727741755 75.3444313872353 3.592166364363436e-09
  endloop
endfacet
facet normal 0.9659258262890699 0.2588190451025154 -7.937160853784912e-14
  outer loop
    vertex -283.3531337647379 76.43740283286277 3.5924349661708984e-09
    vertex -283.1733130042291 76.00327711404717 5.000000003592397
    vertex -283.17331300422956 76.00327711404726 3.5924053565228317e-09
  endloop
endfacet
facet normal 0.8660254037844326 0.5000000000000105 -6.445181303328703e-14
  outer loop
    vertex -283.1733130042291 76.00327711404717 5.000000003592397
    vertex -283.3531337647379 76.43740283286277 3.5924349661708984e-09
    vertex -283.35313376473744 76.43740283286266 5.000000003592426
  endloop
endfacet
facet normal -0.9978589232386036 0.06540312923014308 9.033008649735665e-14
  outer loop
    vertex -279.8144672774171 76.90327711404719 5.000000003592127
    vertex -279.8144672774175 85.10327711404729 3.5923263974613205e-09
    vertex -279.8144672774176 76.9032771140473 3.5921353447321277e-09
  endloop
endfacet
facet normal -0.9978589232386036 -0.06540312923014155 8.705402576795775e-14
  outer loop
    vertex -279.8144672774175 85.10327711404729 3.5923263974613205e-09
    vertex -279.8144672774171 76.90327711404719 5.000000003592127
    vertex -279.81446727741707 85.10327711404717 5.0000000035923176
  endloop
endfacet
facet normal 0.500000000000019 0.8660254037844279 -2.2751454725246046e-14
  outer loop
    vertex -282.51446727741757 75.34443138723529 3.5923263974613205e-09
    vertex -282.8872594835529 75.63048490791142 5.000000003592359
    vertex -282.5144672774171 75.34443138723518 5.0000000035923176
  endloop
endfacet
facet normal 0.7071067811865558 0.7071067811865394 -4.513973298216629e-14
  outer loop
    vertex -282.8872594835529 75.63048490791142 5.000000003592359
    vertex -282.51446727741757 75.34443138723529 3.5923263974613205e-09
    vertex -282.88725948355335 75.63048490791154 3.5923686969585587e-09
  endloop
endfacet
facet normal -0.25881904510250786 0.9659258262890719 4.719619270169015e-14
  outer loop
    vertex -281.148592996233 75.16461062672698 3.5922002039612266e-09
    vertex -281.61446727741713 75.10327711404719 5.0000000035922305
    vertex -281.1485929962326 75.16461062672687 5.000000003592191
  endloop
endfacet
facet normal 2.0830738459047314e-15 1.0 2.504513750306186e-14
  outer loop
    vertex -281.61446727741713 75.10327711404719 5.0000000035922305
    vertex -281.148592996233 75.16461062672698 3.5922002039612266e-09
    vertex -281.6144672774176 75.1032771140473 3.592239683491982e-09
  endloop
endfacet
facet normal -2.1454516151742597e-15 -1.0 -2.5045137503061856e-14
  outer loop
    vertex -281.61446727741753 86.90327711404727 3.592542829888856e-09
    vertex -281.14859299623254 86.8419436013675 5.000000003592491
    vertex -281.6144672774171 86.90327711404716 5.000000003592533
  endloop
endfacet
facet normal -0.2588190451025119 -0.9659258262890709 -1.1872975726467278e-15
  outer loop
    vertex -281.14859299623254 86.8419436013675 5.000000003592491
    vertex -281.61446727741753 86.90327711404727 3.592542829888856e-09
    vertex -281.148592996233 86.84194360136762 3.5924998253999973e-09
  endloop
endfacet
facet normal -0.9978589232386036 -0.06540312923014198 8.705402576795774e-14
  outer loop
    vertex -279.81446727741707 85.10327711404717 5.0000000035923176
    vertex -279.87580079009723 85.5691513952318 3.5923461372266984e-09
    vertex -279.8144672774175 85.10327711404729 3.5923263974613205e-09
  endloop
endfacet
facet normal -0.965925826289073 -0.25881904510250325 7.93716085378497e-14
  outer loop
    vertex -279.87580079009723 85.5691513952318 3.5923461372266984e-09
    vertex -279.81446727741707 85.10327711404717 5.0000000035923176
    vertex -279.8758007900968 85.56915139523169 5.000000003592337
  endloop
endfacet
facet normal 0.9978589232386037 -0.06540312923014312 -9.033008649735666e-14
  outer loop
    vertex -283.41446727741754 85.10327711404727 3.5926471686487103e-09
    vertex -283.41446727741715 76.90327711404719 5.000000003592446
    vertex -283.4144672774176 76.9032771140473 3.592455410927897e-09
  endloop
endfacet
facet normal 0.9978589232386036 0.06540312923014155 -8.705402576795775e-14
  outer loop
    vertex -283.41446727741715 76.90327711404719 5.000000003592446
    vertex -283.41446727741754 85.10327711404727 3.5926471686487103e-09
    vertex -283.4144672774171 85.10327711404716 5.000000003592638
  endloop
endfacet
facet normal -0.9659258262890672 0.2588190451025251 9.233592568385656e-14
  outer loop
    vertex -279.87580079009683 76.43740283286267 5.000000003592117
    vertex -279.8144672774176 76.9032771140473 3.5921353447321277e-09
    vertex -279.87580079009723 76.43740283286279 3.5921261798410598e-09
  endloop
endfacet
facet normal -0.9978589232386036 0.06540312923014348 9.033008649735666e-14
  outer loop
    vertex -279.8144672774176 76.9032771140473 3.5921353447321277e-09
    vertex -279.87580079009683 76.43740283286267 5.000000003592117
    vertex -279.8144672774171 76.90327711404719 5.000000003592127
  endloop
endfacet
facet normal -0.8660254037844366 0.5000000000000036 8.949695053634979e-14
  outer loop
    vertex -280.0556215506051 76.00327711404721 5.0000000035921195
    vertex -279.87580079009723 76.43740283286279 3.5921261798410598e-09
    vertex -280.05562155060557 76.00327711404732 3.5921282948159213e-09
  endloop
endfacet
facet normal -0.9659258262890668 0.2588190451025265 9.233592568385656e-14
  outer loop
    vertex -279.87580079009723 76.43740283286279 3.5921261798410598e-09
    vertex -280.0556215506051 76.00327711404721 5.0000000035921195
    vertex -279.87580079009683 76.43740283286267 5.000000003592117
  endloop
endfacet
facet normal 0.7071067811865598 -0.7071067811865352 -8.055890611049551e-14
  outer loop
    vertex -282.8872594835533 86.37606932018303 3.592639413740883e-09
    vertex -283.1733130042291 86.00327711404714 5.0000000035926435
    vertex -283.17331300422956 86.00327711404725 3.5926528085816755e-09
  endloop
endfacet
facet normal 0.8660254037844368 -0.5000000000000034 -8.949695053634981e-14
  outer loop
    vertex -283.1733130042291 86.00327711404714 5.0000000035926435
    vertex -282.8872594835533 86.37606932018303 3.592639413740883e-09
    vertex -282.88725948355284 86.37606932018292 5.00000000359263
  endloop
endfacet
facet normal 0.7071067811865598 -0.7071067811865352 -8.055890611049551e-14
  outer loop
    vertex -282.8872594835533 86.37606932018303 3.592639413740883e-09
    vertex -282.51446727741705 86.66212284085917 5.000000003592606
    vertex -282.88725948355284 86.37606932018292 5.00000000359263
  endloop
endfacet
facet normal 0.5000000000000151 -0.8660254037844299 -6.613090536309741e-14
  outer loop
    vertex -282.51446727741705 86.66212284085917 5.000000003592606
    vertex -282.8872594835533 86.37606932018303 3.592639413740883e-09
    vertex -282.5144672774175 86.66212284085927 3.5926154440257816e-09
  endloop
endfacet
facet normal 0.2588190451025119 0.9659258262890706 1.1872975726467228e-15
  outer loop
    vertex -282.0803415586021 75.16461062672697 3.5922819829892203e-09
    vertex -282.5144672774171 75.34443138723518 5.0000000035923176
    vertex -282.0803415586016 75.16461062672686 5.000000003592273
  endloop
endfacet
facet normal 0.5000000000000195 0.8660254037844276 -2.275145472524611e-14
  outer loop
    vertex -282.5144672774171 75.34443138723518 5.0000000035923176
    vertex -282.0803415586021 75.16461062672697 3.5922819829892203e-09
    vertex -282.51446727741757 75.34443138723529 3.5923263974613205e-09
  endloop
endfacet
facet normal 0.9978589232386036 0.06540312923014198 -8.705402576795774e-14
  outer loop
    vertex -283.4144672774176 76.9032771140473 3.592455410927897e-09
    vertex -283.35313376473744 76.43740283286266 5.000000003592426
    vertex -283.3531337647379 76.43740283286277 3.5924349661708984e-09
  endloop
endfacet
facet normal 0.9659258262890702 0.258819045102514 -7.937160853784918e-14
  outer loop
    vertex -283.35313376473744 76.43740283286266 5.000000003592426
    vertex -283.4144672774176 76.9032771140473 3.592455410927897e-09
    vertex -283.41446727741715 76.90327711404719 5.000000003592446
  endloop
endfacet
facet normal -0.5000000000000157 0.8660254037844296 6.613090536309745e-14
  outer loop
    vertex -280.7144672774171 75.34443138723519 5.000000003592157
    vertex -281.148592996233 75.16461062672698 3.5922002039612266e-09
    vertex -281.1485929962326 75.16461062672687 5.000000003592191
  endloop
endfacet
facet normal -0.25881904510250786 0.9659258262890719 4.719619270169015e-14
  outer loop
    vertex -281.148592996233 75.16461062672698 3.5922002039612266e-09
    vertex -280.7144672774171 75.34443138723519 5.000000003592157
    vertex -280.71446727741755 75.3444313872353 3.592166364363436e-09
  endloop
endfacet
facet normal -0.8660254037844328 -0.5000000000000102 6.445181303328705e-14
  outer loop
    vertex -280.0556215506051 86.0032771140472 5.000000003592366
    vertex -280.3416750712817 86.37606932018305 3.592413111430659e-09
    vertex -280.0556215506055 86.00327711404731 3.592375746874765e-09
  endloop
endfacet
facet normal -0.707106781186549 -0.707106781186546 4.513973298216551e-14
  outer loop
    vertex -280.3416750712817 86.37606932018305 3.592413111430659e-09
    vertex -280.0556215506051 86.0032771140472 5.000000003592366
    vertex -280.34167507128126 86.37606932018294 5.000000003592404
  endloop
endfacet
facet normal 0.5000000000000157 -0.8660254037844296 -6.613090536309745e-14
  outer loop
    vertex -282.5144672774175 86.66212284085927 3.5926154440257816e-09
    vertex -282.0803415586016 86.84194360136749 5.000000003592573
    vertex -282.51446727741705 86.66212284085917 5.000000003592606
  endloop
endfacet
facet normal 0.25881904510250775 -0.9659258262890718 -4.7196192701690135e-14
  outer loop
    vertex -282.0803415586016 86.84194360136749 5.000000003592573
    vertex -282.5144672774175 86.66212284085927 3.5926154440257816e-09
    vertex -282.0803415586021 86.8419436013676 3.5925823094196118e-09
  endloop
endfacet
facet normal 0.96592582628907 -0.2588190451025144 -9.233592568385654e-14
  outer loop
    vertex -283.35313376473783 85.5691513952318 3.592655628548158e-09
    vertex -283.4144672774171 85.10327711404716 5.000000003592638
    vertex -283.41446727741754 85.10327711404727 3.5926471686487103e-09
  endloop
endfacet
facet normal 0.9978589232386036 -0.06540312923014345 -9.033008649735666e-14
  outer loop
    vertex -283.4144672774171 85.10327711404716 5.000000003592638
    vertex -283.35313376473783 85.5691513952318 3.592655628548158e-09
    vertex -283.3531337647374 85.56915139523169 5.000000003592646
  endloop
endfacet
facet normal 0.9659258262890682 -0.25881904510252174 -1.5754017182853332e-13
  outer loop
    vertex -276.97802331123034 75.66094569755548 3.5921374597069897e-09
    vertex -276.8144672774172 76.90327711404717 5.000000003591859
    vertex -276.97802331122966 75.66094569755509 5.000000003591768
  endloop
endfacet
facet normal 0.9978589232386027 -0.06540312923015842 -1.3538902030505579e-13
  outer loop
    vertex -276.8144672774172 76.90327711404717 5.000000003591859
    vertex -276.97802331123034 75.66094569755548 3.5921374597069897e-09
    vertex -276.8144672774179 76.90327711404755 3.5922298136092933e-09
  endloop
endfacet
facet normal 0.8660254037844385 -0.5000000000000007 -1.6196871833832554e-13
  outer loop
    vertex -277.4575453392526 74.50327711404756 3.5920986851678547e-09
    vertex -276.97802331122966 75.66094569755509 5.000000003591768
    vertex -277.45754533925185 74.50327711404718 5.000000003591729
  endloop
endfacet
facet normal 0.9659258262890688 -0.2588190451025192 -1.5754017182853324e-13
  outer loop
    vertex -276.97802331122966 75.66094569755509 5.000000003591768
    vertex -277.4575453392526 74.50327711404756 3.5920986851678547e-09
    vertex -276.97802331123034 75.66094569755548 3.5921374597069897e-09
  endloop
endfacet
facet normal 0.7071067811865461 -0.7071067811865489 -1.564545731582052e-13
  outer loop
    vertex -278.22035472772245 73.50916456435215 3.5921346397405073e-09
    vertex -277.45754533925185 74.50327711404718 5.000000003591729
    vertex -278.2203547277217 73.50916456435176 5.000000003591754
  endloop
endfacet
facet normal 0.8660254037844392 -0.49999999999999944 -1.6196871833832554e-13
  outer loop
    vertex -277.45754533925185 74.50327711404718 5.000000003591729
    vertex -278.22035472772245 73.50916456435215 3.5921346397405073e-09
    vertex -277.4575453392526 74.50327711404756 3.5920986851678547e-09
  endloop
endfacet
facet normal 0.500000000000007 -0.8660254037844348 -1.402783073707609e-13
  outer loop
    vertex -279.21446727741784 72.74635517588226 3.592222058701466e-09
    vertex -278.2203547277217 73.50916456435176 5.000000003591754
    vertex -279.21446727741716 72.74635517588187 5.000000003591841
  endloop
endfacet
facet normal 0.7071067811865461 -0.7071067811865489 -1.5645457315820517e-13
  outer loop
    vertex -278.2203547277217 73.50916456435176 5.000000003591754
    vertex -279.21446727741784 72.74635517588226 3.592222058701466e-09
    vertex -278.22035472772245 73.50916456435215 3.5921346397405073e-09
  endloop
endfacet
facet normal 0.258819045102519 -0.9659258262890689 -1.1454230675686156e-13
  outer loop
    vertex -280.3721358609257 72.26683314786004 3.592354597126146e-09
    vertex -279.21446727741716 72.74635517588187 5.000000003591841
    vertex -280.372135860925 72.26683314785966 5.000000003591973
  endloop
endfacet
facet normal 0.5000000000000064 -0.8660254037844352 -1.4027830737076088e-13
  outer loop
    vertex -279.21446727741716 72.74635517588187 5.000000003591841
    vertex -280.3721358609257 72.26683314786004 3.592354597126146e-09
    vertex -279.21446727741784 72.74635517588226 3.592222058701466e-09
  endloop
endfacet
facet normal -1.3612739443623046e-15 -1.0 -8.10004372275948e-14
  outer loop
    vertex -281.6144672774179 72.10327711404757 3.592527320073202e-09
    vertex -280.372135860925 72.26683314785966 5.000000003591973
    vertex -281.61446727741713 72.10327711404719 5.000000003592157
  endloop
endfacet
facet normal 0.2588190451025165 -0.9659258262890695 -1.1454230675686128e-13
  outer loop
    vertex -280.372135860925 72.26683314785966 5.000000003591973
    vertex -281.6144672774179 72.10327711404757 3.592527320073202e-09
    vertex -280.3721358609257 72.26683314786004 3.592354597126146e-09
  endloop
endfacet
facet normal -0.25881904510251996 -0.9659258262890686 -4.1938521760819384e-14
  outer loop
    vertex -282.8567986939099 72.26683314786004 3.592733177626428e-09
    vertex -281.61446727741713 72.10327711404719 5.000000003592157
    vertex -282.85679869390924 72.26683314785966 5.000000003592363
  endloop
endfacet
facet normal -3.303895901613331e-15 -1.0 -8.100043722759455e-14
  outer loop
    vertex -281.61446727741713 72.10327711404719 5.000000003592157
    vertex -282.8567986939099 72.26683314786004 3.592733177626428e-09
    vertex -281.6144672774179 72.10327711404757 3.592527320073202e-09
  endloop
endfacet
facet normal -0.5000000000000083 -0.8660254037844339 -1.8565342726255045e-17
  outer loop
    vertex -284.0144672774178 72.74635517588226 3.592964414877997e-09
    vertex -282.85679869390924 72.26683314785966 5.000000003592363
    vertex -284.0144672774171 72.74635517588187 5.000000003592595
  endloop
endfacet
facet normal -0.2588190451025242 -0.9659258262890675 -4.19385217608187e-14
  outer loop
    vertex -282.85679869390924 72.26683314785966 5.000000003592363
    vertex -284.0144672774178 72.74635517588226 3.592964414877997e-09
    vertex -282.8567986939099 72.26683314786004 3.592733177626428e-09
  endloop
endfacet
facet normal -0.7071067811865501 -0.7071067811865451 4.190265627279042e-14
  outer loop
    vertex -285.00857982711324 73.50916456435218 3.59318930720498e-09
    vertex -284.0144672774171 72.74635517588187 5.000000003592595
    vertex -285.00857982711256 73.50916456435179 5.000000003592819
  endloop
endfacet
facet normal -0.5000000000000125 -0.8660254037844315 -1.8565342725459873e-17
  outer loop
    vertex -284.0144672774171 72.74635517588187 5.000000003592595
    vertex -285.00857982711324 73.50916456435218 3.59318930720498e-09
    vertex -284.0144672774178 72.74635517588226 3.592964414877997e-09
  endloop
endfacet
facet normal -0.8660254037844415 -0.4999999999999952 8.096828111073131e-14
  outer loop
    vertex -285.7713892155824 74.50327711404721 5.000000003593032
    vertex -285.00857982711324 73.50916456435218 3.59318930720498e-09
    vertex -285.00857982711256 73.50916456435179 5.000000003592819
  endloop
endfacet
facet normal -0.7071067811865501 -0.7071067811865451 4.190265627279042e-14
  outer loop
    vertex -285.00857982711324 73.50916456435218 3.59318930720498e-09
    vertex -285.7713892155824 74.50327711404721 5.000000003593032
    vertex -285.77138921558316 74.50327711404759 3.593401509682792e-09
  endloop
endfacet
facet normal -0.9659258262890701 -0.2588190451025141 1.1505896763922591e-13
  outer loop
    vertex -286.25091124360466 75.66094569755514 5.0000000035932235
    vertex -285.77138921558316 74.50327711404759 3.593401509682792e-09
    vertex -285.7713892155824 74.50327711404721 5.000000003593032
  endloop
endfacet
facet normal -0.8660254037844395 -0.4999999999999987 8.096828111073075e-14
  outer loop
    vertex -285.77138921558316 74.50327711404759 3.593401509682792e-09
    vertex -286.25091124360466 75.66094569755514 5.0000000035932235
    vertex -286.2509112436054 75.66094569755552 3.593593267403605e-09
  endloop
endfacet
facet normal -0.9978589232386037 -0.06540312923014051 1.2478656863430874e-13
  outer loop
    vertex -286.41446727741715 76.9032771140472 5.000000003593367
    vertex -286.2509112436054 75.66094569755552 3.593593267403605e-09
    vertex -286.25091124360466 75.66094569755514 5.0000000035932235
  endloop
endfacet
facet normal -0.9659258262890692 -0.25881904510251796 1.1505896763922546e-13
  outer loop
    vertex -286.2509112436054 75.66094569755552 3.593593267403605e-09
    vertex -286.41446727741715 76.9032771140472 5.000000003593367
    vertex -286.4144672774178 76.90327711404758 3.5937370856942152e-09
  endloop
endfacet
facet normal -1.539652701332356e-13 4.4672927936215853e-14 -1.0
  outer loop
    vertex -280.3721358609257 72.26683314786004 3.592354597126146e-09
    vertex -279.8144672774176 76.9032771140473 3.5921353447321277e-09
    vertex -279.21446727741784 72.74635517588226 3.592222058701466e-09
  endloop
endfacet
facet normal -1.539652701332356e-13 4.4672927936215853e-14 -1.0
  outer loop
    vertex -279.8144672774176 76.9032771140473 3.5921353447321277e-09
    vertex -280.3721358609257 72.26683314786004 3.592354597126146e-09
    vertex -279.87580079009723 76.43740283286279 3.5921261798410598e-09
  endloop
endfacet
facet normal -1.539652701332356e-13 4.4672927936215853e-14 -1.0
  outer loop
    vertex -279.87580079009723 76.43740283286279 3.5921261798410598e-09
    vertex -280.3721358609257 72.26683314786004 3.592354597126146e-09
    vertex -280.05562155060557 76.00327711404732 3.5921282948159213e-09
  endloop
endfacet
facet normal -1.539652701332356e-13 4.4672927936215853e-14 -1.0
  outer loop
    vertex -280.05562155060557 76.00327711404732 3.5921282948159213e-09
    vertex -280.3721358609257 72.26683314786004 3.592354597126146e-09
    vertex -280.34167507128177 75.63048490791154 3.592142394648334e-09
  endloop
endfacet
facet normal -1.539652701332356e-13 4.4672927936215853e-14 -1.0
  outer loop
    vertex -280.34167507128177 75.63048490791154 3.592142394648334e-09
    vertex -280.3721358609257 72.26683314786004 3.592354597126146e-09
    vertex -280.71446727741755 75.3444313872353 3.592166364363436e-09
  endloop
endfacet
facet normal -1.539652701332356e-13 4.4672927936215853e-14 -1.0
  outer loop
    vertex -280.71446727741755 75.3444313872353 3.592166364363436e-09
    vertex -280.3721358609257 72.26683314786004 3.592354597126146e-09
    vertex -281.6144672774179 72.10327711404757 3.592527320073202e-09
  endloop
endfacet
facet normal -1.539652701332356e-13 4.4672927936215853e-14 -1.0
  outer loop
    vertex -280.71446727741755 75.3444313872353 3.592166364363436e-09
    vertex -281.6144672774179 72.10327711404757 3.592527320073202e-09
    vertex -281.148592996233 75.16461062672698 3.5922002039612266e-09
  endloop
endfacet
facet normal -1.539652701332356e-13 4.4672927936215853e-14 -1.0
  outer loop
    vertex -281.148592996233 75.16461062672698 3.5922002039612266e-09
    vertex -281.6144672774179 72.10327711404757 3.592527320073202e-09
    vertex -281.6144672774176 75.1032771140473 3.592239683491982e-09
  endloop
endfacet
facet normal -1.539652701332356e-13 4.4672927936215853e-14 -1.0
  outer loop
    vertex -281.6144672774176 75.1032771140473 3.592239683491982e-09
    vertex -281.6144672774179 72.10327711404757 3.592527320073202e-09
    vertex -282.0803415586021 75.16461062672697 3.5922819829892203e-09
  endloop
endfacet
facet normal -1.539652701332356e-13 4.4672927936215853e-14 -1.0
  outer loop
    vertex -282.0803415586021 75.16461062672697 3.5922819829892203e-09
    vertex -281.6144672774179 72.10327711404757 3.592527320073202e-09
    vertex -282.8567986939099 72.26683314786004 3.592733177626428e-09
  endloop
endfacet
facet normal -1.539652701332356e-13 4.4672927936215853e-14 -1.0
  outer loop
    vertex -282.0803415586021 75.16461062672697 3.5922819829892203e-09
    vertex -282.8567986939099 72.26683314786004 3.592733177626428e-09
    vertex -282.51446727741757 75.34443138723529 3.5923263974613205e-09
  endloop
endfacet
facet normal -1.539652701332356e-13 4.4672927936215853e-14 -1.0
  outer loop
    vertex -282.51446727741757 75.34443138723529 3.5923263974613205e-09
    vertex -282.8567986939099 72.26683314786004 3.592733177626428e-09
    vertex -282.88725948355335 75.63048490791154 3.5923686969585587e-09
  endloop
endfacet
facet normal -1.539652701332356e-13 4.4672927936215853e-14 -1.0
  outer loop
    vertex -282.88725948355335 75.63048490791154 3.5923686969585587e-09
    vertex -282.8567986939099 72.26683314786004 3.592733177626428e-09
    vertex -284.0144672774178 72.74635517588226 3.592964414877997e-09
  endloop
endfacet
facet normal -1.539652701332356e-13 4.4672927936215853e-14 -1.0
  outer loop
    vertex -282.88725948355335 75.63048490791154 3.5923686969585587e-09
    vertex -284.0144672774178 72.74635517588226 3.592964414877997e-09
    vertex -283.17331300422956 76.00327711404726 3.5924053565228317e-09
  endloop
endfacet
facet normal -1.539652701332356e-13 4.4672927936215853e-14 -1.0
  outer loop
    vertex -283.17331300422956 76.00327711404726 3.5924053565228317e-09
    vertex -284.0144672774178 72.74635517588226 3.592964414877997e-09
    vertex -283.3531337647379 76.43740283286277 3.5924349661708984e-09
  endloop
endfacet
facet normal -1.539652701332356e-13 4.4672927936215853e-14 -1.0
  outer loop
    vertex -283.3531337647379 76.43740283286277 3.5924349661708984e-09
    vertex -284.0144672774178 72.74635517588226 3.592964414877997e-09
    vertex -283.4144672774176 76.9032771140473 3.592455410927897e-09
  endloop
endfacet
facet normal -1.539652701332356e-13 4.4672927936215853e-14 -1.0
  outer loop
    vertex -283.4144672774176 76.9032771140473 3.592455410927897e-09
    vertex -284.0144672774178 72.74635517588226 3.592964414877997e-09
    vertex -283.41446727741754 85.10327711404727 3.5926471686487103e-09
  endloop
endfacet
facet normal -1.539652701332356e-13 4.4672927936215853e-14 -1.0
  outer loop
    vertex -276.8144672774175 94.10327711404751 3.593065228679748e-09
    vertex -280.3416750712817 86.37606932018305 3.592413111430659e-09
    vertex -286.41446727741754 94.10327711404756 3.5941213061274624e-09
  endloop
endfacet
facet normal -1.539652701332356e-13 4.4672927936215853e-14 -1.0
  outer loop
    vertex -280.3416750712817 86.37606932018305 3.592413111430659e-09
    vertex -276.8144672774175 94.10327711404751 3.593065228679748e-09
    vertex -280.0556215506055 86.00327711404731 3.592375746874765e-09
  endloop
endfacet
facet normal -1.539652701332356e-13 4.4672927936215853e-14 -1.0
  outer loop
    vertex -280.0556215506055 86.00327711404731 3.592375746874765e-09
    vertex -276.8144672774175 94.10327711404751 3.593065228679748e-09
    vertex -279.87580079009723 85.5691513952318 3.5923461372266984e-09
  endloop
endfacet
facet normal -1.539652701332356e-13 4.4672927936215853e-14 -1.0
  outer loop
    vertex -279.87580079009723 85.5691513952318 3.5923461372266984e-09
    vertex -276.8144672774175 94.10327711404751 3.593065228679748e-09
    vertex -276.8144672774179 76.90327711404755 3.5922298136092933e-09
  endloop
endfacet
facet normal -1.539652701332356e-13 4.4672927936215853e-14 -1.0
  outer loop
    vertex -279.87580079009723 85.5691513952318 3.5923461372266984e-09
    vertex -276.8144672774179 76.90327711404755 3.5922298136092933e-09
    vertex -276.97802331123034 75.66094569755548 3.5921374597069897e-09
  endloop
endfacet
facet normal -1.539652701332356e-13 4.4672927936215853e-14 -1.0
  outer loop
    vertex -279.87580079009723 85.5691513952318 3.5923461372266984e-09
    vertex -276.97802331123034 75.66094569755548 3.5921374597069897e-09
    vertex -277.4575453392526 74.50327711404756 3.5920986851678547e-09
  endloop
endfacet
facet normal -1.539652701332356e-13 4.4672927936215853e-14 -1.0
  outer loop
    vertex -279.87580079009723 85.5691513952318 3.5923461372266984e-09
    vertex -277.4575453392526 74.50327711404756 3.5920986851678547e-09
    vertex -278.22035472772245 73.50916456435215 3.5921346397405073e-09
  endloop
endfacet
facet normal -1.539652701332356e-13 4.4672927936215853e-14 -1.0
  outer loop
    vertex -279.87580079009723 85.5691513952318 3.5923461372266984e-09
    vertex -278.22035472772245 73.50916456435215 3.5921346397405073e-09
    vertex -279.8144672774175 85.10327711404729 3.5923263974613205e-09
  endloop
endfacet
facet normal -1.539652701332356e-13 4.4672927936215853e-14 -1.0
  outer loop
    vertex -279.8144672774175 85.10327711404729 3.5923263974613205e-09
    vertex -278.22035472772245 73.50916456435215 3.5921346397405073e-09
    vertex -279.21446727741784 72.74635517588226 3.592222058701466e-09
  endloop
endfacet
facet normal -1.539652701332356e-13 4.4672927936215853e-14 -1.0
  outer loop
    vertex -279.8144672774175 85.10327711404729 3.5923263974613205e-09
    vertex -279.21446727741784 72.74635517588226 3.592222058701466e-09
    vertex -279.8144672774176 76.9032771140473 3.5921353447321277e-09
  endloop
endfacet
facet normal -1.539652701332356e-13 4.4672927936215853e-14 -1.0
  outer loop
    vertex -286.41446727741754 94.10327711404756 3.5941213061274624e-09
    vertex -280.3416750712817 86.37606932018305 3.592413111430659e-09
    vertex -280.7144672774175 86.66212284085928 3.592455410927897e-09
  endloop
endfacet
facet normal -1.539652701332356e-13 4.4672927936215853e-14 -1.0
  outer loop
    vertex -286.41446727741754 94.10327711404756 3.5941213061274624e-09
    vertex -280.7144672774175 86.66212284085928 3.592455410927897e-09
    vertex -281.148592996233 86.84194360136762 3.5924998253999973e-09
  endloop
endfacet
facet normal -1.539652701332356e-13 4.4672927936215853e-14 -1.0
  outer loop
    vertex -286.41446727741754 94.10327711404756 3.5941213061274624e-09
    vertex -281.148592996233 86.84194360136762 3.5924998253999973e-09
    vertex -281.61446727741753 86.90327711404727 3.592542829888856e-09
  endloop
endfacet
facet normal -1.539652701332356e-13 4.4672927936215853e-14 -1.0
  outer loop
    vertex -286.41446727741754 94.10327711404756 3.5941213061274624e-09
    vertex -281.61446727741753 86.90327711404727 3.592542829888856e-09
    vertex -282.0803415586021 86.8419436013676 3.5925823094196118e-09
  endloop
endfacet
facet normal -1.539652701332356e-13 4.4672927936215853e-14 -1.0
  outer loop
    vertex -286.41446727741754 94.10327711404756 3.5941213061274624e-09
    vertex -282.0803415586021 86.8419436013676 3.5925823094196118e-09
    vertex -282.5144672774175 86.66212284085927 3.5926154440257816e-09
  endloop
endfacet
facet normal -1.539652701332356e-13 4.4672927936215853e-14 -1.0
  outer loop
    vertex -286.41446727741754 94.10327711404756 3.5941213061274624e-09
    vertex -282.5144672774175 86.66212284085927 3.5926154440257816e-09
    vertex -282.8872594835533 86.37606932018303 3.592639413740883e-09
  endloop
endfacet
facet normal -1.539652701332356e-13 4.4672927936215853e-14 -1.0
  outer loop
    vertex -286.41446727741754 94.10327711404756 3.5941213061274624e-09
    vertex -282.8872594835533 86.37606932018303 3.592639413740883e-09
    vertex -283.17331300422956 86.00327711404725 3.5926528085816755e-09
  endloop
endfacet
facet normal -1.539652701332356e-13 4.4672927936215853e-14 -1.0
  outer loop
    vertex -286.41446727741754 94.10327711404756 3.5941213061274624e-09
    vertex -283.17331300422956 86.00327711404725 3.5926528085816755e-09
    vertex -283.35313376473783 85.5691513952318 3.592655628548158e-09
  endloop
endfacet
facet normal -1.539652701332356e-13 4.4672927936215853e-14 -1.0
  outer loop
    vertex -286.41446727741754 94.10327711404756 3.5941213061274624e-09
    vertex -283.35313376473783 85.5691513952318 3.592655628548158e-09
    vertex -283.41446727741754 85.10327711404727 3.5926471686487103e-09
  endloop
endfacet
facet normal -1.539652701332356e-13 4.4672927936215853e-14 -1.0
  outer loop
    vertex -286.41446727741754 94.10327711404756 3.5941213061274624e-09
    vertex -283.41446727741754 85.10327711404727 3.5926471686487103e-09
    vertex -284.0144672774178 72.74635517588226 3.592964414877997e-09
  endloop
endfacet
facet normal -1.539652701332356e-13 4.4672927936215853e-14 -1.0
  outer loop
    vertex -286.41446727741754 94.10327711404756 3.5941213061274624e-09
    vertex -284.0144672774178 72.74635517588226 3.592964414877997e-09
    vertex -285.00857982711324 73.50916456435218 3.59318930720498e-09
  endloop
endfacet
facet normal -1.539652701332356e-13 4.4672927936215853e-14 -1.0
  outer loop
    vertex -286.41446727741754 94.10327711404756 3.5941213061274624e-09
    vertex -285.00857982711324 73.50916456435218 3.59318930720498e-09
    vertex -285.77138921558316 74.50327711404759 3.593401509682792e-09
  endloop
endfacet
facet normal -1.539652701332356e-13 4.4672927936215853e-14 -1.0
  outer loop
    vertex -286.41446727741754 94.10327711404756 3.5941213061274624e-09
    vertex -285.77138921558316 74.50327711404759 3.593401509682792e-09
    vertex -286.2509112436054 75.66094569755552 3.593593267403605e-09
  endloop
endfacet
facet normal -1.539652701332356e-13 4.4672927936215853e-14 -1.0
  outer loop
    vertex -286.41446727741754 94.10327711404756 3.5941213061274624e-09
    vertex -286.2509112436054 75.66094569755552 3.593593267403605e-09
    vertex -286.4144672774178 76.90327711404758 3.5937370856942152e-09
  endloop
endfacet
facet normal -0.06540312923002081 3.8648113815261123e-14 0.9978589232386117
  outer loop
    vertex -282.41446727741527 94.10327711404774 19.000000003592955
    vertex -280.8144672774153 90.10327711404754 19.000000003592874
    vertex -280.8144672774153 94.10327711404776 19.000000003592834
  endloop
endfacet
facet normal 0.06540312923026731 1.8334510799048064e-14 0.9978589232385955
  outer loop
    vertex -280.8144672774153 90.10327711404754 19.000000003592874
    vertex -282.41446727741527 94.10327711404774 19.000000003592955
    vertex -282.4144672774153 90.10327711404753 19.000000003593147
  endloop
endfacet
facet normal 1.4485489398621046e-13 -0.06540312923018961 0.9978589232386005
  outer loop
    vertex -276.81446727741707 88.10327711404715 5.000000003592258
    vertex -279.8758007900968 85.56915139523169 5.000000003592337
    vertex -276.8144672774172 76.90327711404717 5.000000003591859
  endloop
endfacet
facet normal 1.5290276084134814e-13 -4.630169787837243e-14 1.0
  outer loop
    vertex -279.8758007900968 85.56915139523169 5.000000003592337
    vertex -276.81446727741707 88.10327711404715 5.000000003592258
    vertex -280.0556215506051 86.0032771140472 5.000000003592366
  endloop
endfacet
facet normal 1.5290276084134814e-13 -4.630169787837243e-14 1.0
  outer loop
    vertex -280.0556215506051 86.0032771140472 5.000000003592366
    vertex -276.81446727741707 88.10327711404715 5.000000003592258
    vertex -280.34167507128126 86.37606932018294 5.000000003592404
  endloop
endfacet
facet normal 1.5290276084134814e-13 -4.630169787837243e-14 1.0
  outer loop
    vertex -280.34167507128126 86.37606932018294 5.000000003592404
    vertex -276.81446727741707 88.10327711404715 5.000000003592258
    vertex -280.71446727741704 86.66212284085917 5.000000003592446
  endloop
endfacet
facet normal 1.5290276084134814e-13 -4.630169787837243e-14 1.0
  outer loop
    vertex -280.71446727741704 86.66212284085917 5.000000003592446
    vertex -276.81446727741707 88.10327711404715 5.000000003592258
    vertex -281.14859299623254 86.8419436013675 5.000000003592491
  endloop
endfacet
facet normal 1.5290276084134814e-13 -4.630169787837243e-14 1.0
  outer loop
    vertex -281.14859299623254 86.8419436013675 5.000000003592491
    vertex -276.81446727741707 88.10327711404715 5.000000003592258
    vertex -286.4144672774171 88.10327711404719 5.000000003593585
  endloop
endfacet
facet normal 1.5290276084134814e-13 -4.630169787837243e-14 1.0
  outer loop
    vertex -276.8144672774172 76.90327711404717 5.000000003591859
    vertex -279.8758007900968 85.56915139523169 5.000000003592337
    vertex -276.97802331122966 75.66094569755509 5.000000003591768
  endloop
endfacet
facet normal 1.5290276084134814e-13 -4.630169787837243e-14 1.0
  outer loop
    vertex -276.97802331122966 75.66094569755509 5.000000003591768
    vertex -279.8758007900968 85.56915139523169 5.000000003592337
    vertex -277.45754533925185 74.50327711404718 5.000000003591729
  endloop
endfacet
facet normal 1.5290276084134814e-13 -4.630169787837243e-14 1.0
  outer loop
    vertex -277.45754533925185 74.50327711404718 5.000000003591729
    vertex -279.8758007900968 85.56915139523169 5.000000003592337
    vertex -278.2203547277217 73.50916456435176 5.000000003591754
  endloop
endfacet
facet normal 1.5290276084134814e-13 -4.630169787837243e-14 1.0
  outer loop
    vertex -278.2203547277217 73.50916456435176 5.000000003591754
    vertex -279.8758007900968 85.56915139523169 5.000000003592337
    vertex -279.81446727741707 85.10327711404717 5.0000000035923176
  endloop
endfacet
facet normal 1.5290276084134814e-13 -4.630169787837243e-14 1.0
  outer loop
    vertex -278.2203547277217 73.50916456435176 5.000000003591754
    vertex -279.81446727741707 85.10327711404717 5.0000000035923176
    vertex -279.21446727741716 72.74635517588187 5.000000003591841
  endloop
endfacet
facet normal 1.5290276084134814e-13 -4.630169787837243e-14 1.0
  outer loop
    vertex -281.14859299623254 86.8419436013675 5.000000003592491
    vertex -286.4144672774171 88.10327711404719 5.000000003593585
    vertex -281.6144672774171 86.90327711404716 5.000000003592533
  endloop
endfacet
facet normal 1.5290276084134814e-13 -4.630169787837243e-14 1.0
  outer loop
    vertex -281.6144672774171 86.90327711404716 5.000000003592533
    vertex -286.4144672774171 88.10327711404719 5.000000003593585
    vertex -282.0803415586016 86.84194360136749 5.000000003592573
  endloop
endfacet
facet normal 1.5290276084134814e-13 -4.630169787837243e-14 1.0
  outer loop
    vertex -282.0803415586016 86.84194360136749 5.000000003592573
    vertex -286.4144672774171 88.10327711404719 5.000000003593585
    vertex -282.51446727741705 86.66212284085917 5.000000003592606
  endloop
endfacet
facet normal 1.5290276084134814e-13 -4.630169787837243e-14 1.0
  outer loop
    vertex -282.51446727741705 86.66212284085917 5.000000003592606
    vertex -286.4144672774171 88.10327711404719 5.000000003593585
    vertex -282.88725948355284 86.37606932018292 5.00000000359263
  endloop
endfacet
facet normal 1.5290276084134814e-13 -4.630169787837243e-14 1.0
  outer loop
    vertex -282.88725948355284 86.37606932018292 5.00000000359263
    vertex -286.4144672774171 88.10327711404719 5.000000003593585
    vertex -283.1733130042291 86.00327711404714 5.0000000035926435
  endloop
endfacet
facet normal 1.5290276084134814e-13 -4.630169787837243e-14 1.0
  outer loop
    vertex -283.1733130042291 86.00327711404714 5.0000000035926435
    vertex -286.4144672774171 88.10327711404719 5.000000003593585
    vertex -283.3531337647374 85.56915139523169 5.000000003592646
  endloop
endfacet
facet normal 1.5290276084134814e-13 -4.630169787837243e-14 1.0
  outer loop
    vertex -283.3531337647374 85.56915139523169 5.000000003592646
    vertex -286.4144672774171 88.10327711404719 5.000000003593585
    vertex -283.4144672774171 85.10327711404716 5.000000003592638
  endloop
endfacet
facet normal 1.5290276084134814e-13 -4.630169787837243e-14 1.0
  outer loop
    vertex -283.4144672774171 85.10327711404716 5.000000003592638
    vertex -286.4144672774171 88.10327711404719 5.000000003593585
    vertex -283.41446727741715 76.90327711404719 5.000000003592446
  endloop
endfacet
facet normal 1.5290276084134814e-13 -4.630169787837243e-14 1.0
  outer loop
    vertex -283.41446727741715 76.90327711404719 5.000000003592446
    vertex -286.4144672774171 88.10327711404719 5.000000003593585
    vertex -284.0144672774171 72.74635517588187 5.000000003592595
  endloop
endfacet
facet normal 1.5290276084134814e-13 -4.630169787837243e-14 1.0
  outer loop
    vertex -284.0144672774171 72.74635517588187 5.000000003592595
    vertex -286.4144672774171 88.10327711404719 5.000000003593585
    vertex -285.00857982711256 73.50916456435179 5.000000003592819
  endloop
endfacet
facet normal 1.5290276084134814e-13 -4.630169787837243e-14 1.0
  outer loop
    vertex -285.00857982711256 73.50916456435179 5.000000003592819
    vertex -286.4144672774171 88.10327711404719 5.000000003593585
    vertex -285.7713892155824 74.50327711404721 5.000000003593032
  endloop
endfacet
facet normal 1.5290276084134814e-13 -4.630169787837243e-14 1.0
  outer loop
    vertex -285.7713892155824 74.50327711404721 5.000000003593032
    vertex -286.4144672774171 88.10327711404719 5.000000003593585
    vertex -286.25091124360466 75.66094569755514 5.0000000035932235
  endloop
endfacet
facet normal 1.5290276084134814e-13 -4.630169787837243e-14 1.0
  outer loop
    vertex -286.25091124360466 75.66094569755514 5.0000000035932235
    vertex -286.4144672774171 88.10327711404719 5.000000003593585
    vertex -286.41446727741715 76.9032771140472 5.000000003593367
  endloop
endfacet
facet normal 1.5290276084134814e-13 -4.630169787837243e-14 1.0
  outer loop
    vertex -279.21446727741716 72.74635517588187 5.000000003591841
    vertex -279.8144672774171 76.90327711404719 5.000000003592127
    vertex -280.372135860925 72.26683314785966 5.000000003591973
  endloop
endfacet
facet normal 1.5290276084134814e-13 -4.630169787837243e-14 1.0
  outer loop
    vertex -279.8144672774171 76.90327711404719 5.000000003592127
    vertex -279.21446727741716 72.74635517588187 5.000000003591841
    vertex -279.81446727741707 85.10327711404717 5.0000000035923176
  endloop
endfacet
facet normal 1.5290276084134814e-13 -4.630169787837243e-14 1.0
  outer loop
    vertex -280.372135860925 72.26683314785966 5.000000003591973
    vertex -279.8144672774171 76.90327711404719 5.000000003592127
    vertex -279.87580079009683 76.43740283286267 5.000000003592117
  endloop
endfacet
facet normal 1.5290276084134814e-13 -4.630169787837243e-14 1.0
  outer loop
    vertex -280.372135860925 72.26683314785966 5.000000003591973
    vertex -279.87580079009683 76.43740283286267 5.000000003592117
    vertex -280.0556215506051 76.00327711404721 5.0000000035921195
  endloop
endfacet
facet normal 1.5290276084134814e-13 -4.630169787837243e-14 1.0
  outer loop
    vertex -280.372135860925 72.26683314785966 5.000000003591973
    vertex -280.0556215506051 76.00327711404721 5.0000000035921195
    vertex -280.3416750712813 75.63048490791142 5.000000003592133
  endloop
endfacet
facet normal 1.5290276084134814e-13 -4.630169787837243e-14 1.0
  outer loop
    vertex -280.372135860925 72.26683314785966 5.000000003591973
    vertex -280.3416750712813 75.63048490791142 5.000000003592133
    vertex -280.7144672774171 75.34443138723519 5.000000003592157
  endloop
endfacet
facet normal 1.5290276084134814e-13 -4.630169787837243e-14 1.0
  outer loop
    vertex -280.372135860925 72.26683314785966 5.000000003591973
    vertex -280.7144672774171 75.34443138723519 5.000000003592157
    vertex -281.61446727741713 72.10327711404719 5.000000003592157
  endloop
endfacet
facet normal 1.5290276084134814e-13 -4.630169787837243e-14 1.0
  outer loop
    vertex -281.61446727741713 72.10327711404719 5.000000003592157
    vertex -280.7144672774171 75.34443138723519 5.000000003592157
    vertex -281.1485929962326 75.16461062672687 5.000000003592191
  endloop
endfacet
facet normal 1.5290276084134814e-13 -4.630169787837243e-14 1.0
  outer loop
    vertex -281.61446727741713 72.10327711404719 5.000000003592157
    vertex -281.1485929962326 75.16461062672687 5.000000003592191
    vertex -281.61446727741713 75.10327711404719 5.0000000035922305
  endloop
endfacet
facet normal 1.5290276084134814e-13 -4.630169787837243e-14 1.0
  outer loop
    vertex -281.61446727741713 72.10327711404719 5.000000003592157
    vertex -281.61446727741713 75.10327711404719 5.0000000035922305
    vertex -282.0803415586016 75.16461062672686 5.000000003592273
  endloop
endfacet
facet normal 1.5290276084134814e-13 -4.630169787837243e-14 1.0
  outer loop
    vertex -281.61446727741713 72.10327711404719 5.000000003592157
    vertex -282.0803415586016 75.16461062672686 5.000000003592273
    vertex -282.85679869390924 72.26683314785966 5.000000003592363
  endloop
endfacet
facet normal 1.5290276084134814e-13 -4.630169787837243e-14 1.0
  outer loop
    vertex -282.85679869390924 72.26683314785966 5.000000003592363
    vertex -282.0803415586016 75.16461062672686 5.000000003592273
    vertex -282.5144672774171 75.34443138723518 5.0000000035923176
  endloop
endfacet
facet normal 1.5290276084134814e-13 -4.630169787837243e-14 1.0
  outer loop
    vertex -282.85679869390924 72.26683314785966 5.000000003592363
    vertex -282.5144672774171 75.34443138723518 5.0000000035923176
    vertex -282.8872594835529 75.63048490791142 5.000000003592359
  endloop
endfacet
facet normal 1.5290276084134814e-13 -4.630169787837243e-14 1.0
  outer loop
    vertex -282.85679869390924 72.26683314785966 5.000000003592363
    vertex -282.8872594835529 75.63048490791142 5.000000003592359
    vertex -284.0144672774171 72.74635517588187 5.000000003592595
  endloop
endfacet
facet normal 1.5290276084134814e-13 -4.630169787837243e-14 1.0
  outer loop
    vertex -284.0144672774171 72.74635517588187 5.000000003592595
    vertex -282.8872594835529 75.63048490791142 5.000000003592359
    vertex -283.1733130042291 76.00327711404717 5.000000003592397
  endloop
endfacet
facet normal 1.5290276084134814e-13 -4.630169787837243e-14 1.0
  outer loop
    vertex -284.0144672774171 72.74635517588187 5.000000003592595
    vertex -283.1733130042291 76.00327711404717 5.000000003592397
    vertex -283.35313376473744 76.43740283286266 5.000000003592426
  endloop
endfacet
facet normal 1.5290276084134814e-13 -4.630169787837243e-14 1.0
  outer loop
    vertex -284.0144672774171 72.74635517588187 5.000000003592595
    vertex -283.35313376473744 76.43740283286266 5.000000003592426
    vertex -283.41446727741715 76.90327711404719 5.000000003592446
  endloop
endfacet
facet normal 9.545120526456013e-14 -0.7071067811865358 0.7071067811865593
  outer loop
    vertex -286.414467277417 89.51749067642031 5.585786441220538
    vertex -276.81446727741695 89.83532792161607 6.000000003592333
    vertex -286.4144672774169 89.8353279216161 6.000000003593637
  endloop
endfacet
facet normal 6.6377006700663e-14 -0.8660254037844447 0.4999999999999898
  outer loop
    vertex -276.81446727741695 89.83532792161607 6.000000003592333
    vertex -286.414467277417 89.51749067642031 5.585786441220538
    vertex -276.814467277417 89.51749067642027 5.585786441219223
  endloop
endfacet
facet normal 1.1813037345295896e-13 -0.499999999999998 0.86602540378444
  outer loop
    vertex -286.41446727741703 89.10327711404717 5.2679491960247455
    vertex -276.81446727741707 88.62091520425217 5.068148351014149
    vertex -276.814467277417 89.10327711404713 5.267949196023419
  endloop
endfacet
facet normal 1.3239878680193328e-13 -0.258819045102556 0.9659258262890589
  outer loop
    vertex -276.81446727741707 88.62091520425217 5.068148351014149
    vertex -286.41446727741703 89.10327711404717 5.2679491960247455
    vertex -286.4144672774171 88.62091520425219 5.068148351015465
  endloop
endfacet
facet normal 6.637700670066262e-14 -0.8660254037844464 0.499999999999987
  outer loop
    vertex -286.4144672774169 89.8353279216161 6.000000003593637
    vertex -276.81446727741684 90.03512876662532 6.482361913387291
    vertex -286.4144672774169 90.03512876662532 6.482361913388608
  endloop
endfacet
facet normal 3.3248831137047877e-14 -0.9659258262890636 0.2588190451025386
  outer loop
    vertex -276.81446727741684 90.03512876662532 6.482361913387291
    vertex -286.4144672774169 89.8353279216161 6.000000003593637
    vertex -276.81446727741695 89.83532792161607 6.000000003592333
  endloop
endfacet
facet normal 9.545120526456107e-14 -0.7071067811865291 0.7071067811865659
  outer loop
    vertex -276.814467277417 89.51749067642027 5.585786441219223
    vertex -286.41446727741703 89.10327711404717 5.2679491960247455
    vertex -276.814467277417 89.10327711404713 5.267949196023419
  endloop
endfacet
facet normal 1.1813037345295896e-13 -0.499999999999998 0.86602540378444
  outer loop
    vertex -286.41446727741703 89.10327711404717 5.2679491960247455
    vertex -276.814467277417 89.51749067642027 5.585786441219223
    vertex -286.414467277417 89.51749067642031 5.585786441220538
  endloop
endfacet
facet normal 1.3239878680193348e-13 -0.25881904510255105 0.9659258262890603
  outer loop
    vertex -286.4144672774171 88.62091520425219 5.068148351015465
    vertex -276.81446727741707 88.10327711404715 5.000000003592258
    vertex -276.81446727741707 88.62091520425217 5.068148351014149
  endloop
endfacet
facet normal 1.4485489398621046e-13 -0.06540312923018961 0.9978589232386005
  outer loop
    vertex -276.81446727741707 88.10327711404715 5.000000003592258
    vertex -286.4144672774171 88.62091520425219 5.068148351015465
    vertex -286.4144672774171 88.10327711404719 5.000000003593585
  endloop
endfacet
facet normal 3.3248831137047795e-14 -0.9659258262890636 0.258819045102538
  outer loop
    vertex -286.4144672774169 90.03512876662532 6.482361913388608
    vertex -276.81446727741684 90.10327711404722 7.00000000359234
    vertex -286.4144672774168 90.10327711404724 7.000000003593644
  endloop
endfacet
facet normal 6.9368285234899615e-15 -0.9978589232386003 0.06540312923019469
  outer loop
    vertex -276.81446727741684 90.10327711404722 7.00000000359234
    vertex -286.4144672774169 90.03512876662532 6.482361913388608
    vertex -276.81446727741684 90.03512876662532 6.482361913387291
  endloop
endfacet
facet normal 0.9978589232386027 -0.06540312923015766 -1.353890203050556e-13
  outer loop
    vertex -276.8144672774179 76.90327711404755 3.5922298136092933e-09
    vertex -276.81446727741707 88.10327711404715 5.000000003592258
    vertex -276.8144672774172 76.90327711404717 5.000000003591859
  endloop
endfacet
facet normal 1.0 -1.4027141392357792e-14 -1.1839412663751196e-13
  outer loop
    vertex -276.81446727741707 88.10327711404715 5.000000003592258
    vertex -276.8144672774179 76.90327711404755 3.5922298136092933e-09
    vertex -276.8144672774175 94.10327711404751 3.593065228679748e-09
  endloop
endfacet
facet normal 1.0 -1.4027141392357792e-14 -1.1839412663751196e-13
  outer loop
    vertex -276.81446727741707 88.10327711404715 5.000000003592258
    vertex -276.8144672774175 94.10327711404751 3.593065228679748e-09
    vertex -276.81446727741707 88.62091520425217 5.068148351014149
  endloop
endfacet
facet normal 1.0 -1.4027141392357792e-14 -1.1839412663751196e-13
  outer loop
    vertex -276.81446727741707 88.62091520425217 5.068148351014149
    vertex -276.8144672774175 94.10327711404751 3.593065228679748e-09
    vertex -276.814467277417 89.10327711404713 5.267949196023419
  endloop
endfacet
facet normal 1.0 -1.4027141392357792e-14 -1.1839412663751196e-13
  outer loop
    vertex -276.814467277417 89.10327711404713 5.267949196023419
    vertex -276.8144672774175 94.10327711404751 3.593065228679748e-09
    vertex -276.814467277417 89.51749067642027 5.585786441219223
  endloop
endfacet
facet normal 1.0 -1.4027141392357792e-14 -1.1839412663751196e-13
  outer loop
    vertex -276.814467277417 89.51749067642027 5.585786441219223
    vertex -276.8144672774175 94.10327711404751 3.593065228679748e-09
    vertex -276.81446727741695 89.83532792161607 6.000000003592333
  endloop
endfacet
facet normal 1.0 -1.4027141392357792e-14 -1.1839412663751196e-13
  outer loop
    vertex -276.81446727741695 89.83532792161607 6.000000003592333
    vertex -276.8144672774175 94.10327711404751 3.593065228679748e-09
    vertex -276.81446727741684 90.03512876662532 6.482361913387291
  endloop
endfacet
facet normal 1.0 -1.4027141392357792e-14 -1.1839412663751196e-13
  outer loop
    vertex -276.81446727741684 90.03512876662532 6.482361913387291
    vertex -276.8144672774175 94.10327711404751 3.593065228679748e-09
    vertex -276.81446727741684 90.10327711404722 7.00000000359234
  endloop
endfacet
facet normal 1.0 -1.4027141392357792e-14 -1.1839412663751196e-13
  outer loop
    vertex -276.81446727741684 90.10327711404722 7.00000000359234
    vertex -276.8144672774175 94.10327711404751 3.593065228679748e-09
    vertex -276.8144672774159 90.10327711404742 15.000000003592357
  endloop
endfacet
facet normal 0.997858923238611 -1.2817564497013495e-14 0.06540312923002858
  outer loop
    vertex -276.8144672774159 90.10327711404742 15.000000003592357
    vertex -276.8144672774175 94.10327711404751 3.593065228679748e-09
    vertex -276.81446727741576 94.10327711404769 15.000000003592367
  endloop
endfacet
facet normal -1.0 9.189161004044139e-15 1.1947511713605559e-13
  outer loop
    vertex -286.4144672774171 88.10327711404719 5.000000003593585
    vertex -286.4144672774178 76.90327711404758 3.5937370856942152e-09
    vertex -286.41446727741715 76.9032771140472 5.000000003593367
  endloop
endfacet
facet normal -0.9978589232386039 -0.06540312923013904 1.2478656863430864e-13
  outer loop
    vertex -286.4144672774178 76.90327711404758 3.5937370856942152e-09
    vertex -286.4144672774171 88.10327711404719 5.000000003593585
    vertex -286.41446727741754 94.10327711404756 3.5941213061274624e-09
  endloop
endfacet
facet normal -1.0 9.189161004044139e-15 1.1947511713605559e-13
  outer loop
    vertex -286.41446727741754 94.10327711404756 3.5941213061274624e-09
    vertex -286.4144672774171 88.10327711404719 5.000000003593585
    vertex -286.4144672774171 88.62091520425219 5.068148351015465
  endloop
endfacet
facet normal -1.0 9.189161004044139e-15 1.1947511713605559e-13
  outer loop
    vertex -286.41446727741754 94.10327711404756 3.5941213061274624e-09
    vertex -286.4144672774171 88.62091520425219 5.068148351015465
    vertex -286.41446727741703 89.10327711404717 5.2679491960247455
  endloop
endfacet
facet normal -1.0 9.189161004044139e-15 1.1947511713605559e-13
  outer loop
    vertex -286.41446727741754 94.10327711404756 3.5941213061274624e-09
    vertex -286.41446727741703 89.10327711404717 5.2679491960247455
    vertex -286.414467277417 89.51749067642031 5.585786441220538
  endloop
endfacet
facet normal -1.0 9.189161004044139e-15 1.1947511713605559e-13
  outer loop
    vertex -286.41446727741754 94.10327711404756 3.5941213061274624e-09
    vertex -286.414467277417 89.51749067642031 5.585786441220538
    vertex -286.4144672774169 89.8353279216161 6.000000003593637
  endloop
endfacet
facet normal -1.0 9.189161004044139e-15 1.1947511713605559e-13
  outer loop
    vertex -286.41446727741754 94.10327711404756 3.5941213061274624e-09
    vertex -286.4144672774169 89.8353279216161 6.000000003593637
    vertex -286.4144672774169 90.03512876662532 6.482361913388608
  endloop
endfacet
facet normal -1.0 9.189161004044139e-15 1.1947511713605559e-13
  outer loop
    vertex -286.41446727741754 94.10327711404756 3.5941213061274624e-09
    vertex -286.4144672774169 90.03512876662532 6.482361913388608
    vertex -286.4144672774168 90.10327711404724 7.000000003593644
  endloop
endfacet
facet normal -1.0 9.189161004044139e-15 1.1947511713605559e-13
  outer loop
    vertex -286.41446727741754 94.10327711404756 3.5941213061274624e-09
    vertex -286.4144672774168 90.10327711404724 7.000000003593644
    vertex -286.41446727741584 90.10327711404744 15.00000000359367
  endloop
endfacet
facet normal -1.0 9.189161004044139e-15 1.1947511713605559e-13
  outer loop
    vertex -286.41446727741754 94.10327711404756 3.5941213061274624e-09
    vertex -286.41446727741584 90.10327711404744 15.00000000359367
    vertex -286.4144672774158 94.10327711404773 15.000000003593422
  endloop
endfacet
facet normal -0.7071067811864615 5.0617319679224776e-14 0.7071067811866336
  outer loop
    vertex -285.24289440216165 94.10327711404776 17.828427128339477
    vertex -284.4144672774154 90.10327711404753 18.46410161873116
    vertex -284.4144672774153 94.10327711404776 18.464101618730943
  endloop
endfacet
facet normal -0.4999999999998857 5.161070913650907e-14 0.8660254037845048
  outer loop
    vertex -284.4144672774154 90.10327711404753 18.46410161873116
    vertex -285.24289440216165 94.10327711404776 17.828427128339477
    vertex -285.2428944021617 90.10327711404751 17.828427128339705
  endloop
endfacet
facet normal -0.9659258262890368 3.746336415786975e-14 0.2588190451026386
  outer loop
    vertex -286.278170582572 90.10327711404747 16.035276184003735
    vertex -286.4144672774158 94.10327711404773 15.000000003593422
    vertex -286.41446727741584 90.10327711404744 15.00000000359367
  endloop
endfacet
facet normal -0.9978589232385963 1.9823413310660002e-14 0.06540312923025529
  outer loop
    vertex -286.4144672774158 94.10327711404773 15.000000003593422
    vertex -286.278170582572 90.10327711404747 16.035276184003735
    vertex -286.27817058257193 94.10327711404773 16.03527618400349
  endloop
endfacet
facet normal 0.8660254037845035 -3.253314199350631e-15 0.4999999999998879
  outer loop
    vertex -277.3503656622778 94.10327711404773 17.00000000359243
    vertex -277.98604015266926 90.1032771140475 17.828427128338696
    vertex -277.3503656622778 90.10327711404749 17.000000003592422
  endloop
endfacet
facet normal 0.7071067811866402 3.5085067972224656e-16 0.707106781186455
  outer loop
    vertex -277.98604015266926 90.1032771140475 17.828427128338696
    vertex -277.3503656622778 94.10327711404773 17.00000000359243
    vertex -277.98604015266926 94.10327711404773 17.828427128338696
  endloop
endfacet
facet normal -0.2588190451024018 5.022244576224435e-14 0.9659258262891002
  outer loop
    vertex -283.44974345782543 94.10327711404776 18.86370330874935
    vertex -282.4144672774153 90.10327711404753 19.000000003593147
    vertex -282.41446727741527 94.10327711404774 19.000000003592955
  endloop
endfacet
facet normal -0.06540312923002067 3.86481138152611e-14 0.9978589232386116
  outer loop
    vertex -282.4144672774153 90.10327711404753 19.000000003593147
    vertex -283.44974345782543 94.10327711404776 18.86370330874935
    vertex -283.44974345782543 90.10327711404754 18.863703308749553
  endloop
endfacet
facet normal -0.8660254037843778 4.6876112147540344e-14 0.5000000000001057
  outer loop
    vertex -285.87856889255335 90.1032771140475 17.0000000035936
    vertex -286.27817058257193 94.10327711404773 16.03527618400349
    vertex -286.278170582572 90.10327711404747 16.035276184003735
  endloop
endfacet
facet normal -0.9659258262890382 3.7463364157869456e-14 0.2588190451026331
  outer loop
    vertex -286.27817058257193 94.10327711404773 16.03527618400349
    vertex -285.87856889255335 90.1032771140475 17.0000000035936
    vertex -285.87856889255323 94.10327711404774 17.00000000359336
  endloop
endfacet
facet normal 0.0654031292302676 1.8334510799048013e-14 0.9978589232385954
  outer loop
    vertex -280.8144672774153 94.10327711404776 19.000000003592834
    vertex -279.77919109700525 90.10327711404753 18.863703308749013
    vertex -279.77919109700525 94.10327711404776 18.863703308748985
  endloop
endfacet
facet normal 0.2588190451026353 6.191845326302821e-15 0.9659258262890376
  outer loop
    vertex -279.77919109700525 90.10327711404753 18.863703308749013
    vertex -280.8144672774153 94.10327711404776 19.000000003592834
    vertex -280.8144672774153 90.10327711404754 19.000000003592874
  endloop
endfacet
facet normal 0.9659258262890985 -8.863214413209873e-15 0.25881904510240844
  outer loop
    vertex -276.9507639722594 94.1032771140477 16.035276184002466
    vertex -277.3503656622778 90.10327711404749 17.000000003592422
    vertex -276.95076397225944 90.10327711404744 16.035276184002456
  endloop
endfacet
facet normal 0.866025403784505 -3.253314199350706e-15 0.49999999999988504
  outer loop
    vertex -277.3503656622778 90.10327711404749 17.000000003592422
    vertex -276.9507639722594 94.1032771140477 16.035276184002466
    vertex -277.3503656622778 94.10327711404773 17.00000000359243
  endloop
endfacet
facet normal 0.5000000000001004 2.7053356415029992e-15 0.8660254037843806
  outer loop
    vertex -278.8144672774153 94.10327711404774 18.464101618730353
    vertex -277.98604015266926 90.1032771140475 17.828427128338696
    vertex -277.98604015266926 94.10327711404773 17.828427128338696
  endloop
endfacet
facet normal 0.7071067811866402 3.5085067972224656e-16 0.707106781186455
  outer loop
    vertex -277.98604015266926 90.1032771140475 17.828427128338696
    vertex -278.8144672774153 94.10327711404774 18.464101618730353
    vertex -278.81446727741536 90.10327711404751 18.464101618730368
  endloop
endfacet
facet normal -0.49999999999988726 5.161070913650905e-14 0.8660254037845038
  outer loop
    vertex -284.4144672774153 94.10327711404776 18.464101618730943
    vertex -283.44974345782543 90.10327711404754 18.863703308749553
    vertex -283.44974345782543 94.10327711404776 18.86370330874935
  endloop
endfacet
facet normal -0.2588190451023997 5.022244576224435e-14 0.9659258262891008
  outer loop
    vertex -283.44974345782543 90.10327711404754 18.863703308749553
    vertex -284.4144672774153 94.10327711404776 18.464101618730943
    vertex -284.4144672774154 90.10327711404753 18.46410161873116
  endloop
endfacet
facet normal 0.25881904510263476 6.191845326302821e-15 0.9659258262890379
  outer loop
    vertex -279.77919109700525 94.10327711404776 18.863703308748985
    vertex -278.81446727741536 90.10327711404751 18.464101618730368
    vertex -278.8144672774153 94.10327711404774 18.464101618730353
  endloop
endfacet
facet normal 0.5000000000001018 2.7053356415029874e-15 0.8660254037843799
  outer loop
    vertex -278.81446727741536 90.10327711404751 18.464101618730368
    vertex -279.77919109700525 94.10327711404776 18.863703308748985
    vertex -279.77919109700525 90.10327711404753 18.863703308749013
  endloop
endfacet
facet normal -0.7071067811864589 5.061731967922478e-14 0.7071067811866362
  outer loop
    vertex -285.2428944021617 90.10327711404751 17.828427128339705
    vertex -285.87856889255323 94.10327711404774 17.00000000359336
    vertex -285.87856889255335 90.1032771140475 17.0000000035936
  endloop
endfacet
facet normal -0.8660254037843798 4.687611214754028e-14 0.5000000000001021
  outer loop
    vertex -285.87856889255323 94.10327711404774 17.00000000359336
    vertex -285.2428944021617 90.10327711404751 17.828427128339705
    vertex -285.24289440216165 94.10327711404776 17.828427128339477
  endloop
endfacet
facet normal 0.997858923238611 -1.2817564497013466e-14 0.06540312923003018
  outer loop
    vertex -276.81446727741576 94.10327711404769 15.000000003592367
    vertex -276.95076397225944 90.10327711404744 16.035276184002456
    vertex -276.8144672774159 90.10327711404742 15.000000003592357
  endloop
endfacet
facet normal 0.9659258262890993 -8.863214413209946e-15 0.2588190451024051
  outer loop
    vertex -276.95076397225944 90.10327711404744 16.035276184002456
    vertex -276.81446727741576 94.10327711404769 15.000000003592367
    vertex -276.9507639722594 94.1032771140477 16.035276184002466
  endloop
endfacet
facet normal 2.3932245645345684e-15 1.0 -1.132070595885799e-14
  outer loop
    vertex -279.77919109700525 94.10327711404776 18.863703308748985
    vertex -282.41446727741527 94.10327711404774 19.000000003592955
    vertex -280.8144672774153 94.10327711404776 19.000000003592834
  endloop
endfacet
facet normal 2.3932245645345684e-15 1.0 -1.132070595885799e-14
  outer loop
    vertex -282.41446727741527 94.10327711404774 19.000000003592955
    vertex -279.77919109700525 94.10327711404776 18.863703308748985
    vertex -283.44974345782543 94.10327711404776 18.86370330874935
  endloop
endfacet
facet normal 2.3932245645345684e-15 1.0 -1.132070595885799e-14
  outer loop
    vertex -283.44974345782543 94.10327711404776 18.86370330874935
    vertex -279.77919109700525 94.10327711404776 18.863703308748985
    vertex -284.4144672774153 94.10327711404776 18.464101618730943
  endloop
endfacet
facet normal 2.3932245645345684e-15 1.0 -1.132070595885799e-14
  outer loop
    vertex -284.4144672774153 94.10327711404776 18.464101618730943
    vertex -279.77919109700525 94.10327711404776 18.863703308748985
    vertex -278.8144672774153 94.10327711404774 18.464101618730353
  endloop
endfacet
facet normal 2.3932245645345684e-15 1.0 -1.132070595885799e-14
  outer loop
    vertex -284.4144672774153 94.10327711404776 18.464101618730943
    vertex -278.8144672774153 94.10327711404774 18.464101618730353
    vertex -285.24289440216165 94.10327711404776 17.828427128339477
  endloop
endfacet
facet normal 2.3932245645345684e-15 1.0 -1.132070595885799e-14
  outer loop
    vertex -285.24289440216165 94.10327711404776 17.828427128339477
    vertex -278.8144672774153 94.10327711404774 18.464101618730353
    vertex -277.98604015266926 94.10327711404773 17.828427128338696
  endloop
endfacet
facet normal 2.3932245645345684e-15 1.0 -1.132070595885799e-14
  outer loop
    vertex -285.24289440216165 94.10327711404776 17.828427128339477
    vertex -277.98604015266926 94.10327711404773 17.828427128338696
    vertex -285.87856889255323 94.10327711404774 17.00000000359336
  endloop
endfacet
facet normal 2.3932245645345684e-15 1.0 -1.132070595885799e-14
  outer loop
    vertex -285.87856889255323 94.10327711404774 17.00000000359336
    vertex -277.98604015266926 94.10327711404773 17.828427128338696
    vertex -277.3503656622778 94.10327711404773 17.00000000359243
  endloop
endfacet
facet normal 2.3932245645345684e-15 1.0 -1.132070595885799e-14
  outer loop
    vertex -285.87856889255323 94.10327711404774 17.00000000359336
    vertex -277.3503656622778 94.10327711404773 17.00000000359243
    vertex -286.27817058257193 94.10327711404773 16.03527618400349
  endloop
endfacet
facet normal 2.3932245645345684e-15 1.0 -1.132070595885799e-14
  outer loop
    vertex -286.27817058257193 94.10327711404773 16.03527618400349
    vertex -277.3503656622778 94.10327711404773 17.00000000359243
    vertex -276.9507639722594 94.1032771140477 16.035276184002466
  endloop
endfacet
facet normal 2.3932245645345684e-15 1.0 -1.132070595885799e-14
  outer loop
    vertex -286.27817058257193 94.10327711404773 16.03527618400349
    vertex -276.9507639722594 94.1032771140477 16.035276184002466
    vertex -286.4144672774158 94.10327711404773 15.000000003593422
  endloop
endfacet
facet normal 2.3932245645345684e-15 1.0 -1.132070595885799e-14
  outer loop
    vertex -286.4144672774158 94.10327711404773 15.000000003593422
    vertex -276.9507639722594 94.1032771140477 16.035276184002466
    vertex -276.81446727741576 94.10327711404769 15.000000003592367
  endloop
endfacet
facet normal 2.3932245645345684e-15 1.0 -1.132070595885799e-14
  outer loop
    vertex -286.4144672774158 94.10327711404773 15.000000003593422
    vertex -276.81446727741576 94.10327711404769 15.000000003592367
    vertex -286.41446727741754 94.10327711404756 3.5941213061274624e-09
  endloop
endfacet
facet normal 2.3932245645345684e-15 1.0 -1.132070595885799e-14
  outer loop
    vertex -286.41446727741754 94.10327711404756 3.5941213061274624e-09
    vertex -276.81446727741576 94.10327711404769 15.000000003592367
    vertex -276.8144672774175 94.10327711404751 3.593065228679748e-09
  endloop
endfacet
facet normal -1.8416965553197685e-15 -1.0 2.481131228035546e-14
  outer loop
    vertex -283.44974345782543 90.10327711404754 18.863703308749553
    vertex -280.8144672774153 90.10327711404754 19.000000003592874
    vertex -282.4144672774153 90.10327711404753 19.000000003593147
  endloop
endfacet
facet normal -1.8416965553197685e-15 -1.0 2.481131228035546e-14
  outer loop
    vertex -280.8144672774153 90.10327711404754 19.000000003592874
    vertex -283.44974345782543 90.10327711404754 18.863703308749553
    vertex -279.77919109700525 90.10327711404753 18.863703308749013
  endloop
endfacet
facet normal -1.8416965553197685e-15 -1.0 2.481131228035546e-14
  outer loop
    vertex -279.77919109700525 90.10327711404753 18.863703308749013
    vertex -283.44974345782543 90.10327711404754 18.863703308749553
    vertex -284.4144672774154 90.10327711404753 18.46410161873116
  endloop
endfacet
facet normal -1.8416965553197685e-15 -1.0 2.481131228035546e-14
  outer loop
    vertex -279.77919109700525 90.10327711404753 18.863703308749013
    vertex -284.4144672774154 90.10327711404753 18.46410161873116
    vertex -278.81446727741536 90.10327711404751 18.464101618730368
  endloop
endfacet
facet normal -1.8416965553197685e-15 -1.0 2.481131228035546e-14
  outer loop
    vertex -278.81446727741536 90.10327711404751 18.464101618730368
    vertex -284.4144672774154 90.10327711404753 18.46410161873116
    vertex -285.2428944021617 90.10327711404751 17.828427128339705
  endloop
endfacet
facet normal -1.8416965553197685e-15 -1.0 2.481131228035546e-14
  outer loop
    vertex -278.81446727741536 90.10327711404751 18.464101618730368
    vertex -285.2428944021617 90.10327711404751 17.828427128339705
    vertex -277.98604015266926 90.1032771140475 17.828427128338696
  endloop
endfacet
facet normal -1.8416965553197685e-15 -1.0 2.481131228035546e-14
  outer loop
    vertex -277.98604015266926 90.1032771140475 17.828427128338696
    vertex -285.2428944021617 90.10327711404751 17.828427128339705
    vertex -285.87856889255335 90.1032771140475 17.0000000035936
  endloop
endfacet
facet normal -1.8416965553197685e-15 -1.0 2.481131228035546e-14
  outer loop
    vertex -277.98604015266926 90.1032771140475 17.828427128338696
    vertex -285.87856889255335 90.1032771140475 17.0000000035936
    vertex -277.3503656622778 90.10327711404749 17.000000003592422
  endloop
endfacet
facet normal -1.8416965553197685e-15 -1.0 2.481131228035546e-14
  outer loop
    vertex -277.3503656622778 90.10327711404749 17.000000003592422
    vertex -285.87856889255335 90.1032771140475 17.0000000035936
    vertex -286.278170582572 90.10327711404747 16.035276184003735
  endloop
endfacet
facet normal -1.8416965553197685e-15 -1.0 2.481131228035546e-14
  outer loop
    vertex -277.3503656622778 90.10327711404749 17.000000003592422
    vertex -286.278170582572 90.10327711404747 16.035276184003735
    vertex -276.95076397225944 90.10327711404744 16.035276184002456
  endloop
endfacet
facet normal -1.8416965553197685e-15 -1.0 2.481131228035546e-14
  outer loop
    vertex -276.95076397225944 90.10327711404744 16.035276184002456
    vertex -286.278170582572 90.10327711404747 16.035276184003735
    vertex -286.41446727741584 90.10327711404744 15.00000000359367
  endloop
endfacet
facet normal -1.8416965553197685e-15 -1.0 2.481131228035546e-14
  outer loop
    vertex -276.95076397225944 90.10327711404744 16.035276184002456
    vertex -286.41446727741584 90.10327711404744 15.00000000359367
    vertex -276.8144672774159 90.10327711404742 15.000000003592357
  endloop
endfacet
facet normal -1.8416965553197685e-15 -1.0 2.481131228035546e-14
  outer loop
    vertex -276.8144672774159 90.10327711404742 15.000000003592357
    vertex -286.41446727741584 90.10327711404744 15.00000000359367
    vertex -286.4144672774168 90.10327711404724 7.000000003593644
  endloop
endfacet
facet normal -1.8416965553197685e-15 -1.0 2.481131228035546e-14
  outer loop
    vertex -276.8144672774159 90.10327711404742 15.000000003592357
    vertex -286.4144672774168 90.10327711404724 7.000000003593644
    vertex -276.81446727741684 90.10327711404722 7.00000000359234
  endloop
endfacet
endsolid iTopie
