solid iTopie
facet normal 3.311754330938615e-14 0.4999999999999729 0.8660254037844545
  outer loop
    vertex -291.11446727741645 80.20327711404822 3.2411542731881253
    vertex -286.11446727741645 80.63740283286364 3.0613335126796373
    vertex -291.11446727741645 80.63740283286369 3.061333512679815
  endloop
endfacet
facet normal 3.5680830927475013e-14 0.2588190451024833 0.9659258262890783
  outer loop
    vertex -286.11446727741645 80.63740283286364 3.0613335126796373
    vertex -291.11446727741645 80.20327711404822 3.2411542731881253
    vertex -286.11446727741645 80.20327711404819 3.2411542731879477
  endloop
endfacet
facet normal 2.89115762638741e-14 -0.5000000000000409 0.8660254037844153
  outer loop
    vertex -291.1144672774164 90.2032771140482 3.2411542731884864
    vertex -286.1144672774164 90.5760693201839 3.5272077938645117
    vertex -291.1144672774164 90.57606932018393 3.5272077938646893
  endloop
endfacet
facet normal 2.2349214205433964e-14 -0.7071067811865632 0.7071067811865319
  outer loop
    vertex -286.1144672774164 90.5760693201839 3.5272077938645117
    vertex -291.1144672774164 90.2032771140482 3.2411542731884864
    vertex -286.1144672774164 90.20327711404818 3.2411542731883087
  endloop
endfacet
facet normal -3.350366217857115e-14 0.25881904510253717 -0.9659258262890641
  outer loop
    vertex -286.11446727741634 80.63740283286353 6.538666487320283
    vertex -291.11446727741634 80.20327711404808 6.3588457268121
    vertex -291.11446727741634 80.63740283286359 6.5386664873204605
  endloop
endfacet
facet normal -2.8911576263874156e-14 0.5000000000000383 -0.8660254037844165
  outer loop
    vertex -291.11446727741634 80.20327711404808 6.3588457268121
    vertex -286.11446727741634 80.63740283286353 6.538666487320283
    vertex -286.11446727741634 80.20327711404803 6.358845726811922
  endloop
endfacet
facet normal -1.4263790132716087e-14 0.8660254037844443 -0.49999999999999023
  outer loop
    vertex -291.11446727741634 79.54443138723612 5.7000000000001
    vertex -286.1144672774164 79.83048490791231 6.072792206135719
    vertex -286.1144672774164 79.54443138723609 5.699999999999922
  endloop
endfacet
facet normal -2.2349214205433658e-14 0.7071067811865707 -0.7071067811865244
  outer loop
    vertex -286.1144672774164 79.83048490791231 6.072792206135719
    vertex -291.11446727741634 79.54443138723612 5.7000000000001
    vertex -291.11446727741634 79.83048490791235 6.0727922061358965
  endloop
endfacet
facet normal -2.829734984409131e-14 -0.7071067811865047 -0.7071067811865905
  outer loop
    vertex -286.11446727741634 90.57606932018382 6.07279220613608
    vertex -291.1144672774163 90.20327711404806 6.3588457268124605
    vertex -291.11446727741634 90.57606932018385 6.072792206136258
  endloop
endfacet
facet normal -3.3117543309386106e-14 -0.49999999999997546 -0.8660254037844528
  outer loop
    vertex -291.1144672774163 90.20327711404806 6.3588457268124605
    vertex -286.11446727741634 90.57606932018382 6.07279220613608
    vertex -286.1144672774163 90.20327711404802 6.358845726812283
  endloop
endfacet
facet normal -4.205967045511713e-15 -1.0 -3.151878945628308e-14
  outer loop
    vertex -291.11446727741634 91.10327711404813 4.80000000000049
    vertex -286.1144672774164 91.04194360136844 4.334125718815772
    vertex -286.1144672774164 91.10327711404808 4.8000000000003125
  endloop
endfacet
facet normal 5.206312334479909e-15 -0.9659258262890793 0.25881904510247983
  outer loop
    vertex -286.1144672774164 91.04194360136844 4.334125718815772
    vertex -291.11446727741634 91.10327711404813 4.80000000000049
    vertex -291.11446727741634 91.04194360136847 4.334125718815949
  endloop
endfacet
facet normal 1.3331616722040921e-14 0.9659258262890631 0.25881904510254067
  outer loop
    vertex -291.1144672774164 79.36461062672784 4.334125718815557
    vertex -286.1144672774164 79.30327711404811 4.799999999999918
    vertex -286.1144672774164 79.3646106267278 4.334125718815379
  endloop
endfacet
facet normal 4.205967045511713e-15 1.0 3.151878945628308e-14
  outer loop
    vertex -286.1144672774164 79.30327711404811 4.799999999999918
    vertex -291.1144672774164 79.36461062672784 4.334125718815557
    vertex -291.1144672774164 79.30327711404814 4.800000000000096
  endloop
endfacet
facet normal -5.206312334479909e-15 0.9659258262890793 -0.25881904510247983
  outer loop
    vertex -291.11446727741634 79.36461062672781 5.265874281184634
    vertex -286.1144672774164 79.54443138723609 5.699999999999922
    vertex -286.1144672774164 79.36461062672777 5.265874281184456
  endloop
endfacet
facet normal -1.4263790132716065e-14 0.8660254037844446 -0.4999999999999897
  outer loop
    vertex -286.1144672774164 79.54443138723609 5.699999999999922
    vertex -291.11446727741634 79.36461062672781 5.265874281184634
    vertex -291.11446727741634 79.54443138723612 5.7000000000001
  endloop
endfacet
facet normal -2.8297349844091276e-14 -0.7071067811865055 -0.7071067811865895
  outer loop
    vertex -291.11446727741634 90.57606932018385 6.072792206136258
    vertex -286.11446727741634 90.86212284086007 5.700000000000302
    vertex -286.11446727741634 90.57606932018382 6.07279220613608
  endloop
endfacet
facet normal -2.1548738750502648e-14 -0.8660254037844127 -0.5000000000000449
  outer loop
    vertex -286.11446727741634 90.86212284086007 5.700000000000302
    vertex -291.11446727741634 90.57606932018385 6.072792206136258
    vertex -291.11446727741634 90.8621228408601 5.70000000000048
  endloop
endfacet
facet normal 3.3503662178571e-14 -0.2588190451025479 0.9659258262890612
  outer loop
    vertex -291.1144672774164 89.7691513952327 3.0613335126801253
    vertex -286.1144672774164 90.20327711404818 3.2411542731883087
    vertex -291.1144672774164 90.2032771140482 3.2411542731884864
  endloop
endfacet
facet normal 2.8911576263874125e-14 -0.5000000000000397 0.8660254037844157
  outer loop
    vertex -286.1144672774164 90.20327711404818 3.2411542731883087
    vertex -291.1144672774164 89.7691513952327 3.0613335126801253
    vertex -286.1144672774164 89.76915139523267 3.0613335126799472
  endloop
endfacet
facet normal -3.6010934916074096e-14 -0.06540312923010949 -0.9978589232386058
  outer loop
    vertex -286.1144672774163 89.30327711404804 6.600000000000253
    vertex -291.11446727741634 81.10327711404808 6.600000000000149
    vertex -291.1144672774163 89.30327711404807 6.60000000000043
  endloop
endfacet
facet normal -3.5460768103643457e-14 0.06540312923017515 -0.9978589232386016
  outer loop
    vertex -291.11446727741634 81.10327711404808 6.600000000000149
    vertex -286.1144672774163 89.30327711404804 6.600000000000253
    vertex -286.11446727741634 81.10327711404805 6.599999999999971
  endloop
endfacet
facet normal 1.4263790132716065e-14 -0.8660254037844446 0.4999999999999897
  outer loop
    vertex -291.11446727741634 90.86212284086015 3.9000000000004835
    vertex -286.1144672774164 90.5760693201839 3.5272077938645117
    vertex -286.1144672774164 90.86212284086012 3.900000000000306
  endloop
endfacet
facet normal 2.2349214205433964e-14 -0.7071067811865632 0.7071067811865319
  outer loop
    vertex -286.1144672774164 90.5760693201839 3.5272077938645117
    vertex -291.11446727741634 90.86212284086015 3.9000000000004835
    vertex -291.1144672774164 90.57606932018393 3.5272077938646893
  endloop
endfacet
facet normal -1.3331616722040904e-14 -0.9659258262890631 -0.2588190451025402
  outer loop
    vertex -291.11446727741634 91.04194360136844 5.2658742811850265
    vertex -286.1144672774164 91.10327711404808 4.8000000000003125
    vertex -286.11446727741634 91.0419436013684 5.265874281184849
  endloop
endfacet
facet normal -4.205967045511713e-15 -1.0 -3.151878945628308e-14
  outer loop
    vertex -286.1144672774164 91.10327711404808 4.8000000000003125
    vertex -291.11446727741634 91.04194360136844 5.2658742811850265
    vertex -291.11446727741634 91.10327711404813 4.80000000000049
  endloop
endfacet
facet normal 4.205967045511713e-15 1.0 3.151878945628308e-14
  outer loop
    vertex -291.1144672774164 79.30327711404814 4.800000000000096
    vertex -286.1144672774164 79.36461062672777 5.265874281184456
    vertex -286.1144672774164 79.30327711404811 4.799999999999918
  endloop
endfacet
facet normal -5.206312334479895e-15 0.9659258262890795 -0.25881904510247944
  outer loop
    vertex -286.1144672774164 79.36461062672777 5.265874281184456
    vertex -291.1144672774164 79.30327711404814 4.800000000000096
    vertex -291.11446727741634 79.36461062672781 5.265874281184634
  endloop
endfacet
facet normal -3.546076810364345e-14 0.06540312923017556 -0.9978589232386014
  outer loop
    vertex -286.11446727741634 81.10327711404805 6.599999999999971
    vertex -291.11446727741634 80.63740283286359 6.5386664873204605
    vertex -291.11446727741634 81.10327711404808 6.600000000000149
  endloop
endfacet
facet normal -3.3503662178571174e-14 0.2588190451025357 -0.9659258262890643
  outer loop
    vertex -291.11446727741634 80.63740283286359 6.5386664873204605
    vertex -286.11446727741634 81.10327711404805 6.599999999999971
    vertex -286.11446727741634 80.63740283286353 6.538666487320283
  endloop
endfacet
facet normal 3.6010934916074096e-14 0.06540312923010949 0.9978589232386058
  outer loop
    vertex -291.11446727741645 81.1032771140482 3.0000000000001554
    vertex -286.1144672774164 89.30327711404814 3.00000000000026
    vertex -291.1144672774164 89.30327711404819 3.0000000000004374
  endloop
endfacet
facet normal 3.5460768103643457e-14 -0.06540312923017515 0.9978589232386016
  outer loop
    vertex -286.1144672774164 89.30327711404814 3.00000000000026
    vertex -291.11446727741645 81.1032771140482 3.0000000000001554
    vertex -286.11446727741645 81.10327711404817 2.999999999999978
  endloop
endfacet
facet normal -3.568083092747497e-14 -0.25881904510249265 -0.9659258262890759
  outer loop
    vertex -286.1144672774163 89.76915139523256 6.538666487320594
    vertex -291.1144672774163 89.30327711404807 6.60000000000043
    vertex -291.1144672774163 89.76915139523258 6.538666487320771
  endloop
endfacet
facet normal -3.60109349160741e-14 -0.06540312923010992 -0.9978589232386058
  outer loop
    vertex -291.1144672774163 89.30327711404807 6.60000000000043
    vertex -286.1144672774163 89.76915139523256 6.538666487320594
    vertex -286.1144672774163 89.30327711404804 6.600000000000253
  endloop
endfacet
facet normal -3.311754330938612e-14 -0.49999999999997435 -0.8660254037844535
  outer loop
    vertex -286.1144672774163 90.20327711404802 6.358845726812283
    vertex -291.1144672774163 89.76915139523258 6.538666487320771
    vertex -291.1144672774163 90.20327711404806 6.3588457268124605
  endloop
endfacet
facet normal -3.568083092747496e-14 -0.25881904510249404 -0.9659258262890755
  outer loop
    vertex -291.1144672774163 89.76915139523258 6.538666487320771
    vertex -286.1144672774163 90.20327711404802 6.358845726812283
    vertex -286.1144672774163 89.76915139523256 6.538666487320594
  endloop
endfacet
facet normal 2.829734984409109e-14 0.7071067811865114 0.7071067811865837
  outer loop
    vertex -291.11446727741645 79.83048490791242 3.5272077938643283
    vertex -286.11446727741645 80.20327711404819 3.2411542731879477
    vertex -291.11446727741645 80.20327711404822 3.2411542731881253
  endloop
endfacet
facet normal 3.311754330938612e-14 0.49999999999997424 0.8660254037844537
  outer loop
    vertex -286.11446727741645 80.20327711404819 3.2411542731879477
    vertex -291.11446727741645 79.83048490791242 3.5272077938643283
    vertex -286.11446727741645 79.83048490791239 3.5272077938641506
  endloop
endfacet
facet normal 2.829734984409109e-14 0.7071067811865114 0.7071067811865837
  outer loop
    vertex -291.11446727741645 79.83048490791242 3.5272077938643283
    vertex -286.1144672774164 79.54443138723614 3.8999999999999253
    vertex -286.11446727741645 79.83048490791239 3.5272077938641506
  endloop
endfacet
facet normal 2.154873875050263e-14 0.8660254037844131 0.5000000000000443
  outer loop
    vertex -286.1144672774164 79.54443138723614 3.8999999999999253
    vertex -291.11446727741645 79.83048490791242 3.5272077938643283
    vertex -291.1144672774164 79.54443138723617 3.900000000000103
  endloop
endfacet
facet normal 5.206312334479895e-15 -0.9659258262890795 0.25881904510247944
  outer loop
    vertex -291.11446727741634 91.04194360136847 4.334125718815949
    vertex -286.1144672774164 90.86212284086012 3.900000000000306
    vertex -286.1144672774164 91.04194360136844 4.334125718815772
  endloop
endfacet
facet normal 1.4263790132716087e-14 -0.8660254037844443 0.49999999999999023
  outer loop
    vertex -286.1144672774164 90.86212284086012 3.900000000000306
    vertex -291.11446727741634 91.04194360136847 4.334125718815949
    vertex -291.11446727741634 90.86212284086015 3.9000000000004835
  endloop
endfacet
facet normal 3.546076810364345e-14 -0.06540312923017556 0.9978589232386014
  outer loop
    vertex -291.1144672774164 89.30327711404819 3.0000000000004374
    vertex -286.1144672774164 89.76915139523267 3.0613335126799472
    vertex -291.1144672774164 89.7691513952327 3.0613335126801253
  endloop
endfacet
facet normal 3.350366217857102e-14 -0.2588190451025465 0.9659258262890615
  outer loop
    vertex -286.1144672774164 89.76915139523267 3.0613335126799472
    vertex -291.1144672774164 89.30327711404819 3.0000000000004374
    vertex -286.1144672774164 89.30327711404814 3.00000000000026
  endloop
endfacet
facet normal -2.154873875050263e-14 -0.8660254037844131 -0.5000000000000443
  outer loop
    vertex -291.11446727741634 90.8621228408601 5.70000000000048
    vertex -286.11446727741634 91.0419436013684 5.265874281184849
    vertex -286.11446727741634 90.86212284086007 5.700000000000302
  endloop
endfacet
facet normal -1.3331616722040921e-14 -0.9659258262890631 -0.25881904510254067
  outer loop
    vertex -286.11446727741634 91.0419436013684 5.265874281184849
    vertex -291.11446727741634 90.8621228408601 5.70000000000048
    vertex -291.11446727741634 91.04194360136844 5.2658742811850265
  endloop
endfacet
facet normal -2.891157626387413e-14 0.5000000000000394 -0.866025403784416
  outer loop
    vertex -286.11446727741634 80.20327711404803 6.358845726811922
    vertex -291.11446727741634 79.83048490791235 6.0727922061358965
    vertex -291.11446727741634 80.20327711404808 6.3588457268121
  endloop
endfacet
facet normal -2.234921420543369e-14 0.7071067811865699 -0.7071067811865251
  outer loop
    vertex -291.11446727741634 79.83048490791235 6.0727922061358965
    vertex -286.11446727741634 80.20327711404803 6.358845726811922
    vertex -286.1144672774164 79.83048490791231 6.072792206135719
  endloop
endfacet
facet normal 2.1548738750502648e-14 0.8660254037844127 0.5000000000000449
  outer loop
    vertex -291.1144672774164 79.54443138723617 3.900000000000103
    vertex -286.1144672774164 79.3646106267278 4.334125718815379
    vertex -286.1144672774164 79.54443138723614 3.8999999999999253
  endloop
endfacet
facet normal 1.3331616722040904e-14 0.9659258262890631 0.2588190451025402
  outer loop
    vertex -286.1144672774164 79.3646106267278 4.334125718815379
    vertex -291.1144672774164 79.54443138723617 3.900000000000103
    vertex -291.1144672774164 79.36461062672784 4.334125718815557
  endloop
endfacet
facet normal 3.568083092747503e-14 0.2588190451024819 0.9659258262890787
  outer loop
    vertex -291.11446727741645 80.63740283286369 3.061333512679815
    vertex -286.11446727741645 81.10327711404817 2.999999999999978
    vertex -291.11446727741645 81.1032771140482 3.0000000000001554
  endloop
endfacet
facet normal 3.60109349160741e-14 0.06540312923010992 0.9978589232386058
  outer loop
    vertex -286.11446727741645 81.10327711404817 2.999999999999978
    vertex -291.11446727741645 80.63740283286369 3.061333512679815
    vertex -286.11446727741645 80.63740283286364 3.0613335126796373
  endloop
endfacet
facet normal -2.952341521720181e-14 0.25881904510248926 0.9659258262890769
  outer loop
    vertex -291.1144672774159 90.54560853053978 9.436443966187662
    vertex -286.11446727741617 89.30327711404794 9.6000000000002
    vertex -286.1144672774162 90.54560853054002 9.436443966187754
  endloop
endfacet
facet normal -9.193166363368136e-15 0.06540312923012416 0.9978589232386049
  outer loop
    vertex -286.11446727741617 89.30327711404794 9.6000000000002
    vertex -291.1144672774159 90.54560853053978 9.436443966187662
    vertex -291.1144672774158 89.3032771140477 9.60000000000011
  endloop
endfacet
facet normal -3.9354224492589495e-14 0.49999999999997147 0.8660254037844554
  outer loop
    vertex -291.11446727741594 91.70327711404772 8.956921938165493
    vertex -286.1144672774162 90.54560853054002 9.436443966187754
    vertex -286.11446727741634 91.70327711404796 8.956921938165586
  endloop
endfacet
facet normal -2.95234152172017e-14 0.2588190451024867 0.9659258262890775
  outer loop
    vertex -286.1144672774162 90.54560853054002 9.436443966187754
    vertex -291.11446727741594 91.70327711404772 8.956921938165493
    vertex -291.1144672774159 90.54560853053978 9.436443966187662
  endloop
endfacet
facet normal -4.759831720361988e-14 0.707106781186525 0.70710678118657
  outer loop
    vertex -291.114467277416 92.69738966374317 8.194112549695635
    vertex -286.11446727741634 91.70327711404796 8.956921938165586
    vertex -286.1144672774164 92.6973896637434 8.194112549695726
  endloop
endfacet
facet normal -3.935422449258942e-14 0.4999999999999702 0.8660254037844558
  outer loop
    vertex -286.11446727741634 91.70327711404796 8.956921938165586
    vertex -291.114467277416 92.69738966374317 8.194112549695635
    vertex -291.11446727741594 91.70327711404772 8.956921938165493
  endloop
endfacet
facet normal -5.2598663257161744e-14 0.866025403784418 0.5000000000000362
  outer loop
    vertex -291.114467277416 93.46019905221308 7.2000000000002435
    vertex -286.1144672774164 92.6973896637434 8.194112549695726
    vertex -286.1144672774164 93.46019905221333 7.200000000000337
  endloop
endfacet
facet normal -4.759831720361988e-14 0.707106781186525 0.70710678118657
  outer loop
    vertex -286.1144672774164 92.6973896637434 8.194112549695726
    vertex -291.114467277416 93.46019905221308 7.2000000000002435
    vertex -291.114467277416 92.69738966374317 8.194112549695635
  endloop
endfacet
facet normal -5.40144973331292e-14 0.9659258262890603 0.25881904510255077
  outer loop
    vertex -291.114467277416 93.93972108023534 6.042331416492358
    vertex -286.1144672774164 93.46019905221333 7.200000000000337
    vertex -286.1144672774164 93.93972108023559 6.042331416492451
  endloop
endfacet
facet normal -5.259866325716177e-14 0.8660254037844183 0.5000000000000356
  outer loop
    vertex -286.1144672774164 93.46019905221333 7.200000000000337
    vertex -291.114467277416 93.93972108023534 6.042331416492358
    vertex -291.114467277416 93.46019905221308 7.2000000000002435
  endloop
endfacet
facet normal -5.174933267902114e-14 1.0 3.2302967127102015e-14
  outer loop
    vertex -291.11446727741594 94.10327711404784 4.800000000000267
    vertex -286.1144672774164 93.93972108023559 6.042331416492451
    vertex -286.11446727741634 94.10327711404808 4.80000000000036
  endloop
endfacet
facet normal -5.401449733312921e-14 0.9659258262890608 0.25881904510254966
  outer loop
    vertex -286.1144672774164 93.93972108023559 6.042331416492451
    vertex -291.11446727741594 94.10327711404784 4.800000000000267
    vertex -291.114467277416 93.93972108023534 6.042331416492358
  endloop
endfacet
facet normal -4.59575365226536e-14 0.9659258262890772 -0.2588190451024882
  outer loop
    vertex -291.11446727741594 93.93972108023543 3.5576685835081663
    vertex -286.11446727741634 94.10327711404808 4.80000000000036
    vertex -286.1144672774163 93.93972108023567 3.557668583508259
  endloop
endfacet
facet normal -5.1749332679021106e-14 1.0 3.036034516985099e-14
  outer loop
    vertex -286.11446727741634 94.10327711404808 4.80000000000036
    vertex -291.11446727741594 93.93972108023543 3.5576685835081663
    vertex -291.11446727741594 94.10327711404784 4.800000000000267
  endloop
endfacet
facet normal -3.703381020068685e-14 0.8660254037844506 -0.49999999999997935
  outer loop
    vertex -291.1144672774159 93.46019905221324 2.400000000000275
    vertex -286.1144672774163 93.93972108023567 3.557668583508259
    vertex -286.1144672774162 93.46019905221347 2.4000000000003454
  endloop
endfacet
facet normal -4.595753652265352e-14 0.9659258262890764 -0.2588190451024911
  outer loop
    vertex -286.1144672774163 93.93972108023567 3.557668583508259
    vertex -291.1144672774159 93.46019905221324 2.400000000000275
    vertex -291.11446727741594 93.93972108023543 3.5576685835081663
  endloop
endfacet
facet normal -2.558629091480893e-14 0.7071067811865688 -0.7071067811865264
  outer loop
    vertex -291.11446727741577 92.69738966374338 1.4058874503048355
    vertex -286.1144672774162 93.46019905221347 2.4000000000003454
    vertex -286.11446727741617 92.69738966374362 1.405887450304906
  endloop
endfacet
facet normal -3.703381020068669e-14 0.8660254037844486 -0.4999999999999831
  outer loop
    vertex -286.1144672774162 93.46019905221347 2.4000000000003454
    vertex -291.11446727741577 92.69738966374338 1.4058874503048355
    vertex -291.1144672774159 93.46019905221324 2.400000000000275
  endloop
endfacet
facet normal -1.2395108186431394e-14 0.5000000000000243 -0.8660254037844246
  outer loop
    vertex -286.11446727741605 91.70327711404822 0.643078061835008
    vertex -291.11446727741577 92.69738966374338 1.4058874503048355
    vertex -286.11446727741617 92.69738966374362 1.405887450304906
  endloop
endfacet
facet normal -2.558629091480893e-14 0.7071067811865688 -0.7071067811865264
  outer loop
    vertex -291.11446727741577 92.69738966374338 1.4058874503048355
    vertex -286.11446727741605 91.70327711404822 0.643078061835008
    vertex -291.1144672774157 91.70327711404799 0.643078061834915
  endloop
endfacet
facet normal 2.1836969228057196e-15 0.25881904510254655 -0.9659258262890614
  outer loop
    vertex -286.114467277416 90.5456085305403 0.16355603381274256
    vertex -291.1144672774157 91.70327711404799 0.643078061834915
    vertex -286.11446727741605 91.70327711404822 0.643078061835008
  endloop
endfacet
facet normal -1.2395108186431608e-14 0.5000000000000279 -0.8660254037844226
  outer loop
    vertex -291.1144672774157 91.70327711404799 0.643078061834915
    vertex -286.114467277416 90.5456085305403 0.16355603381274256
    vertex -291.1144672774156 90.54560853054008 0.1635560338126495
  endloop
endfacet
facet normal 1.9033486465850195e-15 0.06540312923017383 -0.9978589232386015
  outer loop
    vertex -286.1144672774159 89.30327711404826 2.425171174991192e-13
    vertex -291.1144672774156 90.54560853054008 0.1635560338126495
    vertex -286.114467277416 90.5456085305403 0.16355603381274256
  endloop
endfacet
facet normal 2.1836969228054857e-15 0.2588190451025504 -0.9659258262890603
  outer loop
    vertex -291.1144672774156 90.54560853054008 0.1635560338126495
    vertex -286.1144672774159 89.30327711404826 2.425171174991192e-13
    vertex -291.1144672774155 89.30327711404802 1.4945822357503855e-13
  endloop
endfacet
facet normal -1.0 -1.5421823387641025e-14 -2.9270381161678234e-14
  outer loop
    vertex -291.114467277416 93.93972108023534 6.042331416492358
    vertex -291.1144672774163 89.30327711404807 6.60000000000043
    vertex -291.114467277416 93.46019905221308 7.2000000000002435
  endloop
endfacet
facet normal -1.0 -1.5421823387641025e-14 -2.9270381161678234e-14
  outer loop
    vertex -291.1144672774163 89.30327711404807 6.60000000000043
    vertex -291.114467277416 93.93972108023534 6.042331416492358
    vertex -291.1144672774163 89.76915139523258 6.538666487320771
  endloop
endfacet
facet normal -1.0 -1.5421823387641025e-14 -2.9270381161678234e-14
  outer loop
    vertex -291.1144672774163 89.76915139523258 6.538666487320771
    vertex -291.114467277416 93.93972108023534 6.042331416492358
    vertex -291.1144672774163 90.20327711404806 6.3588457268124605
  endloop
endfacet
facet normal -1.0 -1.5421823387641025e-14 -2.9270381161678234e-14
  outer loop
    vertex -291.1144672774163 90.20327711404806 6.3588457268124605
    vertex -291.114467277416 93.93972108023534 6.042331416492358
    vertex -291.11446727741634 90.57606932018385 6.072792206136258
  endloop
endfacet
facet normal -1.0 -1.5421823387641025e-14 -2.9270381161678234e-14
  outer loop
    vertex -291.11446727741634 90.57606932018385 6.072792206136258
    vertex -291.114467277416 93.93972108023534 6.042331416492358
    vertex -291.11446727741634 90.8621228408601 5.70000000000048
  endloop
endfacet
facet normal -1.0 -1.5421823387641025e-14 -2.9270381161678234e-14
  outer loop
    vertex -291.11446727741634 90.8621228408601 5.70000000000048
    vertex -291.114467277416 93.93972108023534 6.042331416492358
    vertex -291.11446727741594 94.10327711404784 4.800000000000267
  endloop
endfacet
facet normal -1.0 -1.5421823387641025e-14 -2.9270381161678234e-14
  outer loop
    vertex -291.11446727741634 90.8621228408601 5.70000000000048
    vertex -291.11446727741594 94.10327711404784 4.800000000000267
    vertex -291.11446727741634 91.04194360136844 5.2658742811850265
  endloop
endfacet
facet normal -1.0 -1.5421823387641025e-14 -2.9270381161678234e-14
  outer loop
    vertex -291.11446727741634 91.04194360136844 5.2658742811850265
    vertex -291.11446727741594 94.10327711404784 4.800000000000267
    vertex -291.11446727741634 91.10327711404813 4.80000000000049
  endloop
endfacet
facet normal -1.0 -1.5421823387641025e-14 -2.9270381161678234e-14
  outer loop
    vertex -291.11446727741634 91.10327711404813 4.80000000000049
    vertex -291.11446727741594 94.10327711404784 4.800000000000267
    vertex -291.11446727741634 91.04194360136847 4.334125718815949
  endloop
endfacet
facet normal -1.0 -1.5421823387641025e-14 -2.9270381161678234e-14
  outer loop
    vertex -291.11446727741634 91.04194360136847 4.334125718815949
    vertex -291.11446727741594 94.10327711404784 4.800000000000267
    vertex -291.11446727741594 93.93972108023543 3.5576685835081663
  endloop
endfacet
facet normal -1.0 -1.5421823387641025e-14 -2.9270381161678234e-14
  outer loop
    vertex -291.11446727741634 91.04194360136847 4.334125718815949
    vertex -291.11446727741594 93.93972108023543 3.5576685835081663
    vertex -291.11446727741634 90.86212284086015 3.9000000000004835
  endloop
endfacet
facet normal -1.0 -1.5421823387641025e-14 -2.9270381161678234e-14
  outer loop
    vertex -291.11446727741634 90.86212284086015 3.9000000000004835
    vertex -291.11446727741594 93.93972108023543 3.5576685835081663
    vertex -291.1144672774164 90.57606932018393 3.5272077938646893
  endloop
endfacet
facet normal -1.0 -1.5421823387641025e-14 -2.9270381161678234e-14
  outer loop
    vertex -291.1144672774164 90.57606932018393 3.5272077938646893
    vertex -291.11446727741594 93.93972108023543 3.5576685835081663
    vertex -291.1144672774159 93.46019905221324 2.400000000000275
  endloop
endfacet
facet normal -1.0 -1.5421823387641025e-14 -2.9270381161678234e-14
  outer loop
    vertex -291.1144672774164 90.57606932018393 3.5272077938646893
    vertex -291.1144672774159 93.46019905221324 2.400000000000275
    vertex -291.1144672774164 90.2032771140482 3.2411542731884864
  endloop
endfacet
facet normal -1.0 -1.5421823387641025e-14 -2.9270381161678234e-14
  outer loop
    vertex -291.1144672774164 90.2032771140482 3.2411542731884864
    vertex -291.1144672774159 93.46019905221324 2.400000000000275
    vertex -291.1144672774164 89.7691513952327 3.0613335126801253
  endloop
endfacet
facet normal -1.0 -1.5421823387641025e-14 -2.9270381161678234e-14
  outer loop
    vertex -291.1144672774164 89.7691513952327 3.0613335126801253
    vertex -291.1144672774159 93.46019905221324 2.400000000000275
    vertex -291.1144672774164 89.30327711404819 3.0000000000004374
  endloop
endfacet
facet normal -1.0 -1.5421823387641025e-14 -2.9270381161678234e-14
  outer loop
    vertex -291.1144672774164 89.30327711404819 3.0000000000004374
    vertex -291.1144672774159 93.46019905221324 2.400000000000275
    vertex -291.11446727741645 81.1032771140482 3.0000000000001554
  endloop
endfacet
facet normal -1.0 -1.5421823387641025e-14 -2.9270381161678234e-14
  outer loop
    vertex -291.1144672774155 72.10327711404774 9.599999999999861
    vertex -291.11446727741634 79.83048490791235 6.0727922061358965
    vertex -291.11446727741566 72.10327711404804 -1.4663825709249067e-13
  endloop
endfacet
facet normal -1.0 -1.5421823387641025e-14 -2.9270381161678234e-14
  outer loop
    vertex -291.11446727741634 79.83048490791235 6.0727922061358965
    vertex -291.1144672774155 72.10327711404774 9.599999999999861
    vertex -291.11446727741634 80.20327711404808 6.3588457268121
  endloop
endfacet
facet normal -1.0 -1.5421823387641025e-14 -2.9270381161678234e-14
  outer loop
    vertex -291.11446727741634 80.20327711404808 6.3588457268121
    vertex -291.1144672774155 72.10327711404774 9.599999999999861
    vertex -291.11446727741634 80.63740283286359 6.5386664873204605
  endloop
endfacet
facet normal -1.0 -1.5421823387641025e-14 -2.9270381161678234e-14
  outer loop
    vertex -291.11446727741634 80.63740283286359 6.5386664873204605
    vertex -291.1144672774155 72.10327711404774 9.599999999999861
    vertex -291.1144672774158 89.3032771140477 9.60000000000011
  endloop
endfacet
facet normal -1.0 -1.5421823387641025e-14 -2.9270381161678234e-14
  outer loop
    vertex -291.11446727741634 80.63740283286359 6.5386664873204605
    vertex -291.1144672774158 89.3032771140477 9.60000000000011
    vertex -291.1144672774159 90.54560853053978 9.436443966187662
  endloop
endfacet
facet normal -1.0 -1.5421823387641025e-14 -2.9270381161678234e-14
  outer loop
    vertex -291.11446727741634 80.63740283286359 6.5386664873204605
    vertex -291.1144672774159 90.54560853053978 9.436443966187662
    vertex -291.11446727741594 91.70327711404772 8.956921938165493
  endloop
endfacet
facet normal -1.0 -1.5421823387641025e-14 -2.9270381161678234e-14
  outer loop
    vertex -291.11446727741634 80.63740283286359 6.5386664873204605
    vertex -291.11446727741594 91.70327711404772 8.956921938165493
    vertex -291.114467277416 92.69738966374317 8.194112549695635
  endloop
endfacet
facet normal -1.0 -1.5421823387641025e-14 -2.9270381161678234e-14
  outer loop
    vertex -291.11446727741634 80.63740283286359 6.5386664873204605
    vertex -291.114467277416 92.69738966374317 8.194112549695635
    vertex -291.11446727741634 81.10327711404808 6.600000000000149
  endloop
endfacet
facet normal -1.0 -1.5421823387641025e-14 -2.9270381161678234e-14
  outer loop
    vertex -291.11446727741634 81.10327711404808 6.600000000000149
    vertex -291.114467277416 92.69738966374317 8.194112549695635
    vertex -291.114467277416 93.46019905221308 7.2000000000002435
  endloop
endfacet
facet normal -1.0 -1.5421823387641025e-14 -2.9270381161678234e-14
  outer loop
    vertex -291.11446727741634 81.10327711404808 6.600000000000149
    vertex -291.114467277416 93.46019905221308 7.2000000000002435
    vertex -291.1144672774163 89.30327711404807 6.60000000000043
  endloop
endfacet
facet normal -1.0 -1.5421823387641025e-14 -2.9270381161678234e-14
  outer loop
    vertex -291.11446727741566 72.10327711404804 -1.4663825709249067e-13
    vertex -291.11446727741634 79.83048490791235 6.0727922061358965
    vertex -291.11446727741634 79.54443138723612 5.7000000000001
  endloop
endfacet
facet normal -1.0 -1.5421823387641025e-14 -2.9270381161678234e-14
  outer loop
    vertex -291.11446727741566 72.10327711404804 -1.4663825709249067e-13
    vertex -291.11446727741634 79.54443138723612 5.7000000000001
    vertex -291.11446727741634 79.36461062672781 5.265874281184634
  endloop
endfacet
facet normal -1.0 -1.5421823387641025e-14 -2.9270381161678234e-14
  outer loop
    vertex -291.11446727741566 72.10327711404804 -1.4663825709249067e-13
    vertex -291.11446727741634 79.36461062672781 5.265874281184634
    vertex -291.1144672774164 79.30327711404814 4.800000000000096
  endloop
endfacet
facet normal -1.0 -1.5421823387641025e-14 -2.9270381161678234e-14
  outer loop
    vertex -291.11446727741566 72.10327711404804 -1.4663825709249067e-13
    vertex -291.1144672774164 79.30327711404814 4.800000000000096
    vertex -291.1144672774164 79.36461062672784 4.334125718815557
  endloop
endfacet
facet normal -1.0 -1.5421823387641025e-14 -2.9270381161678234e-14
  outer loop
    vertex -291.11446727741566 72.10327711404804 -1.4663825709249067e-13
    vertex -291.1144672774164 79.36461062672784 4.334125718815557
    vertex -291.1144672774164 79.54443138723617 3.900000000000103
  endloop
endfacet
facet normal -1.0 -1.5421823387641025e-14 -2.9270381161678234e-14
  outer loop
    vertex -291.11446727741566 72.10327711404804 -1.4663825709249067e-13
    vertex -291.1144672774164 79.54443138723617 3.900000000000103
    vertex -291.11446727741645 79.83048490791242 3.5272077938643283
  endloop
endfacet
facet normal -1.0 -1.5421823387641025e-14 -2.9270381161678234e-14
  outer loop
    vertex -291.11446727741566 72.10327711404804 -1.4663825709249067e-13
    vertex -291.11446727741645 79.83048490791242 3.5272077938643283
    vertex -291.11446727741645 80.20327711404822 3.2411542731881253
  endloop
endfacet
facet normal -1.0 -1.5421823387641025e-14 -2.9270381161678234e-14
  outer loop
    vertex -291.11446727741566 72.10327711404804 -1.4663825709249067e-13
    vertex -291.11446727741645 80.20327711404822 3.2411542731881253
    vertex -291.11446727741645 80.63740283286369 3.061333512679815
  endloop
endfacet
facet normal -1.0 -1.5421823387641025e-14 -2.9270381161678234e-14
  outer loop
    vertex -291.11446727741566 72.10327711404804 -1.4663825709249067e-13
    vertex -291.11446727741645 80.63740283286369 3.061333512679815
    vertex -291.11446727741645 81.1032771140482 3.0000000000001554
  endloop
endfacet
facet normal -1.0 -1.5421823387641025e-14 -2.9270381161678234e-14
  outer loop
    vertex -291.11446727741566 72.10327711404804 -1.4663825709249067e-13
    vertex -291.11446727741645 81.1032771140482 3.0000000000001554
    vertex -291.1144672774159 93.46019905221324 2.400000000000275
  endloop
endfacet
facet normal -1.0 -1.5421823387641025e-14 -2.9270381161678234e-14
  outer loop
    vertex -291.11446727741566 72.10327711404804 -1.4663825709249067e-13
    vertex -291.1144672774159 93.46019905221324 2.400000000000275
    vertex -291.11446727741577 92.69738966374338 1.4058874503048355
  endloop
endfacet
facet normal -1.0 -1.5421823387641025e-14 -2.9270381161678234e-14
  outer loop
    vertex -291.11446727741566 72.10327711404804 -1.4663825709249067e-13
    vertex -291.11446727741577 92.69738966374338 1.4058874503048355
    vertex -291.1144672774157 91.70327711404799 0.643078061834915
  endloop
endfacet
facet normal -1.0 -1.5421823387641025e-14 -2.9270381161678234e-14
  outer loop
    vertex -291.11446727741566 72.10327711404804 -1.4663825709249067e-13
    vertex -291.1144672774157 91.70327711404799 0.643078061834915
    vertex -291.1144672774156 90.54560853054008 0.1635560338126495
  endloop
endfacet
facet normal -1.0 -1.5421823387641025e-14 -2.9270381161678234e-14
  outer loop
    vertex -291.11446727741566 72.10327711404804 -1.4663825709249067e-13
    vertex -291.1144672774156 90.54560853054008 0.1635560338126495
    vertex -291.1144672774155 89.30327711404802 1.4945822357503855e-13
  endloop
endfacet
facet normal -9.193166363367957e-15 0.0654031292301234 0.9978589232386048
  outer loop
    vertex -291.1144672774158 89.3032771140477 9.60000000000011
    vertex -286.1144672774161 78.10327711404797 9.599999999999893
    vertex -286.11446727741617 89.30327711404794 9.6000000000002
  endloop
endfacet
facet normal 6.011049019960016e-15 -2.1017590073459993e-14 1.0
  outer loop
    vertex -286.1144672774161 78.10327711404797 9.599999999999893
    vertex -291.1144672774158 89.3032771140477 9.60000000000011
    vertex -291.1144672774155 72.10327711404774 9.599999999999861
  endloop
endfacet
facet normal 6.011049019960016e-15 -2.1017590073459993e-14 1.0
  outer loop
    vertex -286.1144672774161 78.10327711404797 9.599999999999893
    vertex -291.1144672774155 72.10327711404774 9.599999999999861
    vertex -286.04631892999424 77.58563902384294 9.599999999999874
  endloop
endfacet
facet normal 6.011049019960016e-15 -2.1017590073459993e-14 1.0
  outer loop
    vertex -286.04631892999424 77.58563902384294 9.599999999999874
    vertex -291.1144672774155 72.10327711404774 9.599999999999861
    vertex -285.84651808498495 77.10327711404797 9.599999999999863
  endloop
endfacet
facet normal 6.011049019960016e-15 -2.1017590073459993e-14 1.0
  outer loop
    vertex -285.84651808498495 77.10327711404797 9.599999999999863
    vertex -291.1144672774155 72.10327711404774 9.599999999999861
    vertex -285.5286808397892 76.68906355167482 9.59999999999985
  endloop
endfacet
facet normal 6.011049019960016e-15 -2.1017590073459993e-14 1.0
  outer loop
    vertex -285.5286808397892 76.68906355167482 9.59999999999985
    vertex -291.1144672774155 72.10327711404774 9.599999999999861
    vertex -285.1144672774161 76.37122630647902 9.599999999999838
  endloop
endfacet
facet normal 6.011049019960016e-15 -2.1017590073459993e-14 1.0
  outer loop
    vertex -285.1144672774161 76.37122630647902 9.599999999999838
    vertex -291.1144672774155 72.10327711404774 9.599999999999861
    vertex -284.63210536762114 76.17142546146975 9.599999999999824
  endloop
endfacet
facet normal 6.011049019960016e-15 -2.1017590073459993e-14 1.0
  outer loop
    vertex -284.63210536762114 76.17142546146975 9.599999999999824
    vertex -291.1144672774155 72.10327711404774 9.599999999999861
    vertex -284.1144672774161 76.10327711404784 9.599999999999826
  endloop
endfacet
facet normal 6.011049019960016e-15 -2.1017590073459993e-14 1.0
  outer loop
    vertex -284.1144672774161 76.10327711404784 9.599999999999826
    vertex -291.1144672774155 72.10327711404774 9.599999999999861
    vertex -272.1144672774161 76.10327711404719 9.599999999999813
  endloop
endfacet
facet normal 6.011049019960016e-15 -2.1017590073459993e-14 1.0
  outer loop
    vertex -272.1144672774161 76.10327711404719 9.599999999999813
    vertex -291.1144672774155 72.10327711404774 9.599999999999861
    vertex -272.11446727741617 72.10327711404697 9.599999999999687
  endloop
endfacet
facet normal -5.9550464105564825e-15 2.3962773420716884e-14 -1.0
  outer loop
    vertex -286.114467277416 78.10327711404827 -1.127986593019159e-13
    vertex -291.1144672774155 89.30327711404802 1.4945822357503855e-13
    vertex -286.1144672774159 89.30327711404826 2.425171174991192e-13
  endloop
endfacet
facet normal 1.903348646584837e-15 0.06540312923017237 -0.9978589232386017
  outer loop
    vertex -291.1144672774155 89.30327711404802 1.4945822357503855e-13
    vertex -286.114467277416 78.10327711404827 -1.127986593019159e-13
    vertex -291.11446727741566 72.10327711404804 -1.4663825709249067e-13
  endloop
endfacet
facet normal -5.9550464105564825e-15 2.3962773420716884e-14 -1.0
  outer loop
    vertex -291.11446727741566 72.10327711404804 -1.4663825709249067e-13
    vertex -286.114467277416 78.10327711404827 -1.127986593019159e-13
    vertex -286.04631892999413 77.58563902384324 -1.2971845819720328e-13
  endloop
endfacet
facet normal -5.9550464105564825e-15 2.3962773420716884e-14 -1.0
  outer loop
    vertex -291.11446727741566 72.10327711404804 -1.4663825709249067e-13
    vertex -286.04631892999413 77.58563902384324 -1.2971845819720328e-13
    vertex -285.84651808498484 77.10327711404827 -1.5227819005758646e-13
  endloop
endfacet
facet normal -5.9550464105564825e-15 2.3962773420716884e-14 -1.0
  outer loop
    vertex -291.11446727741566 72.10327711404804 -1.4663825709249067e-13
    vertex -285.84651808498484 77.10327711404827 -1.5227819005758646e-13
    vertex -285.52868083978905 76.68906355167513 -1.5227819005758646e-13
  endloop
endfacet
facet normal -5.9550464105564825e-15 2.3962773420716884e-14 -1.0
  outer loop
    vertex -291.11446727741566 72.10327711404804 -1.4663825709249067e-13
    vertex -285.52868083978905 76.68906355167513 -1.5227819005758646e-13
    vertex -285.114467277416 76.37122630647931 -1.8047785488306544e-13
  endloop
endfacet
facet normal -5.9550464105564825e-15 2.3962773420716884e-14 -1.0
  outer loop
    vertex -291.11446727741566 72.10327711404804 -1.4663825709249067e-13
    vertex -285.114467277416 76.37122630647931 -1.8047785488306544e-13
    vertex -284.632105367621 76.17142546147006 -1.8047785488306544e-13
  endloop
endfacet
facet normal -5.9550464105564825e-15 2.3962773420716884e-14 -1.0
  outer loop
    vertex -291.11446727741566 72.10327711404804 -1.4663825709249067e-13
    vertex -284.632105367621 76.17142546147006 -1.8047785488306544e-13
    vertex -284.114467277416 76.10327711404814 -1.7765788840051753e-13
  endloop
endfacet
facet normal -5.9550464105564825e-15 2.3962773420716884e-14 -1.0
  outer loop
    vertex -291.11446727741566 72.10327711404804 -1.4663825709249067e-13
    vertex -284.114467277416 76.10327711404814 -1.7765788840051753e-13
    vertex -272.11446727741594 76.1032771140475 -2.0303758674344862e-13
  endloop
endfacet
facet normal -5.9550464105564825e-15 2.3962773420716884e-14 -1.0
  outer loop
    vertex -291.11446727741566 72.10327711404804 -1.4663825709249067e-13
    vertex -272.11446727741594 76.1032771140475 -2.0303758674344862e-13
    vertex -272.11446727741634 72.10327711404727 -3.0737634659772083e-13
  endloop
endfacet
facet normal 2.2676849077093547e-15 -1.0 -3.151878945628331e-14
  outer loop
    vertex -272.11446727741617 72.10327711404697 9.599999999999687
    vertex -291.11446727741566 72.10327711404804 -1.4663825709249067e-13
    vertex -272.11446727741634 72.10327711404727 -3.0737634659772083e-13
  endloop
endfacet
facet normal 2.2676849077093547e-15 -1.0 -3.151878945628331e-14
  outer loop
    vertex -291.11446727741566 72.10327711404804 -1.4663825709249067e-13
    vertex -272.11446727741617 72.10327711404697 9.599999999999687
    vertex -291.1144672774155 72.10327711404774 9.599999999999861
  endloop
endfacet
facet normal 1.0 -5.836159446706699e-14 -1.1504408685680262e-15
  outer loop
    vertex -272.11446727741634 72.10327711404727 -3.0737634659772083e-13
    vertex -272.1144672774161 76.10327711404719 9.599999999999813
    vertex -272.11446727741617 72.10327711404697 9.599999999999687
  endloop
endfacet
facet normal 1.0 -5.836159446706699e-14 -1.1504408685680262e-15
  outer loop
    vertex -272.1144672774161 76.10327711404719 9.599999999999813
    vertex -272.11446727741634 72.10327711404727 -3.0737634659772083e-13
    vertex -272.11446727741594 76.1032771140475 -2.0303758674344862e-13
  endloop
endfacet
facet normal 0.0654031292302223 0.9978589232385985 3.222135252383835e-14
  outer loop
    vertex -284.114467277416 76.10327711404814 -1.7765788840051753e-13
    vertex -272.1144672774161 76.10327711404719 9.599999999999813
    vertex -272.11446727741594 76.1032771140475 -2.0303758674344862e-13
  endloop
endfacet
facet normal 5.413164474324849e-14 1.0 3.1518789456283974e-14
  outer loop
    vertex -272.1144672774161 76.10327711404719 9.599999999999813
    vertex -284.114467277416 76.10327711404814 -1.7765788840051753e-13
    vertex -284.1144672774161 76.10327711404784 9.599999999999826
  endloop
endfacet
facet normal 0.9978589232386024 0.0654031292301604 2.2628733052926466e-14
  outer loop
    vertex -286.1144672774161 78.10327711404797 9.599999999999893
    vertex -286.11446727741634 80.63740283286353 6.538666487320283
    vertex -286.11446727741617 89.30327711404794 9.6000000000002
  endloop
endfacet
facet normal 1.0 1.7050593329797638e-14 2.8207871869790845e-14
  outer loop
    vertex -286.11446727741634 80.63740283286353 6.538666487320283
    vertex -286.1144672774161 78.10327711404797 9.599999999999893
    vertex -286.11446727741634 80.20327711404803 6.358845726811922
  endloop
endfacet
facet normal 1.0 1.7050593329797638e-14 2.8207871869790845e-14
  outer loop
    vertex -286.11446727741634 80.20327711404803 6.358845726811922
    vertex -286.1144672774161 78.10327711404797 9.599999999999893
    vertex -286.1144672774164 79.83048490791231 6.072792206135719
  endloop
endfacet
facet normal 1.0 1.7050593329797638e-14 2.8207871869790845e-14
  outer loop
    vertex -286.1144672774164 79.83048490791231 6.072792206135719
    vertex -286.1144672774161 78.10327711404797 9.599999999999893
    vertex -286.1144672774164 79.54443138723609 5.699999999999922
  endloop
endfacet
facet normal 1.0 1.7050593329797638e-14 2.8207871869790845e-14
  outer loop
    vertex -286.1144672774164 79.54443138723609 5.699999999999922
    vertex -286.1144672774161 78.10327711404797 9.599999999999893
    vertex -286.1144672774164 79.36461062672777 5.265874281184456
  endloop
endfacet
facet normal 1.0 1.7050593329797638e-14 2.8207871869790845e-14
  outer loop
    vertex -286.1144672774164 79.36461062672777 5.265874281184456
    vertex -286.1144672774161 78.10327711404797 9.599999999999893
    vertex -286.114467277416 78.10327711404827 -1.127986593019159e-13
  endloop
endfacet
facet normal 1.0 1.7050593329797638e-14 2.8207871869790845e-14
  outer loop
    vertex -286.11446727741617 89.30327711404794 9.6000000000002
    vertex -286.11446727741634 80.63740283286353 6.538666487320283
    vertex -286.1144672774162 90.54560853054002 9.436443966187754
  endloop
endfacet
facet normal 1.0 1.7050593329797638e-14 2.8207871869790845e-14
  outer loop
    vertex -286.1144672774162 90.54560853054002 9.436443966187754
    vertex -286.11446727741634 80.63740283286353 6.538666487320283
    vertex -286.11446727741634 91.70327711404796 8.956921938165586
  endloop
endfacet
facet normal 1.0 1.7050593329797638e-14 2.8207871869790845e-14
  outer loop
    vertex -286.11446727741634 91.70327711404796 8.956921938165586
    vertex -286.11446727741634 80.63740283286353 6.538666487320283
    vertex -286.1144672774164 92.6973896637434 8.194112549695726
  endloop
endfacet
facet normal 1.0 1.7050593329797638e-14 2.8207871869790845e-14
  outer loop
    vertex -286.1144672774164 92.6973896637434 8.194112549695726
    vertex -286.11446727741634 80.63740283286353 6.538666487320283
    vertex -286.11446727741634 81.10327711404805 6.599999999999971
  endloop
endfacet
facet normal 1.0 1.7050593329797638e-14 2.8207871869790845e-14
  outer loop
    vertex -286.1144672774164 92.6973896637434 8.194112549695726
    vertex -286.11446727741634 81.10327711404805 6.599999999999971
    vertex -286.1144672774164 93.46019905221333 7.200000000000337
  endloop
endfacet
facet normal 1.0 1.7050593329797638e-14 2.8207871869790845e-14
  outer loop
    vertex -286.1144672774164 93.46019905221333 7.200000000000337
    vertex -286.11446727741634 81.10327711404805 6.599999999999971
    vertex -286.1144672774163 89.30327711404804 6.600000000000253
  endloop
endfacet
facet normal 1.0 1.7050593329797638e-14 2.8207871869790845e-14
  outer loop
    vertex -286.1144672774164 79.36461062672777 5.265874281184456
    vertex -286.114467277416 78.10327711404827 -1.127986593019159e-13
    vertex -286.1144672774164 79.30327711404811 4.799999999999918
  endloop
endfacet
facet normal 1.0 1.7050593329797638e-14 2.8207871869790845e-14
  outer loop
    vertex -286.1144672774164 79.30327711404811 4.799999999999918
    vertex -286.114467277416 78.10327711404827 -1.127986593019159e-13
    vertex -286.1144672774164 79.3646106267278 4.334125718815379
  endloop
endfacet
facet normal 1.0 1.7050593329797638e-14 2.8207871869790845e-14
  outer loop
    vertex -286.1144672774164 79.3646106267278 4.334125718815379
    vertex -286.114467277416 78.10327711404827 -1.127986593019159e-13
    vertex -286.1144672774164 79.54443138723614 3.8999999999999253
  endloop
endfacet
facet normal 1.0 1.7050593329797638e-14 2.8207871869790845e-14
  outer loop
    vertex -286.1144672774164 79.54443138723614 3.8999999999999253
    vertex -286.114467277416 78.10327711404827 -1.127986593019159e-13
    vertex -286.11446727741645 79.83048490791239 3.5272077938641506
  endloop
endfacet
facet normal 1.0 1.7050593329797638e-14 2.8207871869790845e-14
  outer loop
    vertex -286.11446727741645 79.83048490791239 3.5272077938641506
    vertex -286.114467277416 78.10327711404827 -1.127986593019159e-13
    vertex -286.11446727741645 80.20327711404819 3.2411542731879477
  endloop
endfacet
facet normal 1.0 1.7050593329797638e-14 2.8207871869790845e-14
  outer loop
    vertex -286.11446727741645 80.20327711404819 3.2411542731879477
    vertex -286.114467277416 78.10327711404827 -1.127986593019159e-13
    vertex -286.11446727741645 80.63740283286364 3.0613335126796373
  endloop
endfacet
facet normal 1.0 1.7050593329797638e-14 2.8207871869790845e-14
  outer loop
    vertex -286.11446727741645 80.63740283286364 3.0613335126796373
    vertex -286.114467277416 78.10327711404827 -1.127986593019159e-13
    vertex -286.11446727741645 81.10327711404817 2.999999999999978
  endloop
endfacet
facet normal 1.0 1.7050593329797638e-14 2.8207871869790845e-14
  outer loop
    vertex -286.11446727741645 81.10327711404817 2.999999999999978
    vertex -286.114467277416 78.10327711404827 -1.127986593019159e-13
    vertex -286.1144672774162 93.46019905221347 2.4000000000003454
  endloop
endfacet
facet normal 1.0 1.7050593329797638e-14 2.8207871869790845e-14
  outer loop
    vertex -286.1144672774162 93.46019905221347 2.4000000000003454
    vertex -286.114467277416 78.10327711404827 -1.127986593019159e-13
    vertex -286.11446727741617 92.69738966374362 1.405887450304906
  endloop
endfacet
facet normal 1.0 1.7050593329797638e-14 2.8207871869790845e-14
  outer loop
    vertex -286.11446727741617 92.69738966374362 1.405887450304906
    vertex -286.114467277416 78.10327711404827 -1.127986593019159e-13
    vertex -286.11446727741605 91.70327711404822 0.643078061835008
  endloop
endfacet
facet normal 1.0 1.7050593329797638e-14 2.8207871869790845e-14
  outer loop
    vertex -286.11446727741605 91.70327711404822 0.643078061835008
    vertex -286.114467277416 78.10327711404827 -1.127986593019159e-13
    vertex -286.114467277416 90.5456085305403 0.16355603381274256
  endloop
endfacet
facet normal 1.0 1.7050593329797638e-14 2.8207871869790845e-14
  outer loop
    vertex -286.114467277416 90.5456085305403 0.16355603381274256
    vertex -286.114467277416 78.10327711404827 -1.127986593019159e-13
    vertex -286.1144672774159 89.30327711404826 2.425171174991192e-13
  endloop
endfacet
facet normal 1.0 1.7050593329797638e-14 2.8207871869790845e-14
  outer loop
    vertex -286.1144672774163 89.30327711404804 6.600000000000253
    vertex -286.1144672774164 93.93972108023559 6.042331416492451
    vertex -286.1144672774164 93.46019905221333 7.200000000000337
  endloop
endfacet
facet normal 1.0 1.7050593329797638e-14 2.8207871869790845e-14
  outer loop
    vertex -286.1144672774164 93.93972108023559 6.042331416492451
    vertex -286.1144672774163 89.30327711404804 6.600000000000253
    vertex -286.1144672774163 89.76915139523256 6.538666487320594
  endloop
endfacet
facet normal 1.0 1.7050593329797638e-14 2.8207871869790845e-14
  outer loop
    vertex -286.1144672774164 93.93972108023559 6.042331416492451
    vertex -286.1144672774163 89.76915139523256 6.538666487320594
    vertex -286.1144672774163 90.20327711404802 6.358845726812283
  endloop
endfacet
facet normal 1.0 1.7050593329797638e-14 2.8207871869790845e-14
  outer loop
    vertex -286.1144672774164 93.93972108023559 6.042331416492451
    vertex -286.1144672774163 90.20327711404802 6.358845726812283
    vertex -286.11446727741634 90.57606932018382 6.07279220613608
  endloop
endfacet
facet normal 1.0 1.7050593329797638e-14 2.8207871869790845e-14
  outer loop
    vertex -286.1144672774164 93.93972108023559 6.042331416492451
    vertex -286.11446727741634 90.57606932018382 6.07279220613608
    vertex -286.11446727741634 90.86212284086007 5.700000000000302
  endloop
endfacet
facet normal 1.0 1.7050593329797638e-14 2.8207871869790845e-14
  outer loop
    vertex -286.1144672774164 93.93972108023559 6.042331416492451
    vertex -286.11446727741634 90.86212284086007 5.700000000000302
    vertex -286.11446727741634 94.10327711404808 4.80000000000036
  endloop
endfacet
facet normal 1.0 1.7050593329797638e-14 2.8207871869790845e-14
  outer loop
    vertex -286.11446727741634 94.10327711404808 4.80000000000036
    vertex -286.11446727741634 90.86212284086007 5.700000000000302
    vertex -286.11446727741634 91.0419436013684 5.265874281184849
  endloop
endfacet
facet normal 1.0 1.7050593329797638e-14 2.8207871869790845e-14
  outer loop
    vertex -286.11446727741634 94.10327711404808 4.80000000000036
    vertex -286.11446727741634 91.0419436013684 5.265874281184849
    vertex -286.1144672774164 91.10327711404808 4.8000000000003125
  endloop
endfacet
facet normal 1.0 1.7050593329797638e-14 2.8207871869790845e-14
  outer loop
    vertex -286.11446727741634 94.10327711404808 4.80000000000036
    vertex -286.1144672774164 91.10327711404808 4.8000000000003125
    vertex -286.1144672774164 91.04194360136844 4.334125718815772
  endloop
endfacet
facet normal 1.0 1.7050593329797638e-14 2.8207871869790845e-14
  outer loop
    vertex -286.11446727741634 94.10327711404808 4.80000000000036
    vertex -286.1144672774164 91.04194360136844 4.334125718815772
    vertex -286.1144672774163 93.93972108023567 3.557668583508259
  endloop
endfacet
facet normal 1.0 1.7050593329797638e-14 2.8207871869790845e-14
  outer loop
    vertex -286.1144672774163 93.93972108023567 3.557668583508259
    vertex -286.1144672774164 91.04194360136844 4.334125718815772
    vertex -286.1144672774164 90.86212284086012 3.900000000000306
  endloop
endfacet
facet normal 1.0 1.7050593329797638e-14 2.8207871869790845e-14
  outer loop
    vertex -286.1144672774163 93.93972108023567 3.557668583508259
    vertex -286.1144672774164 90.86212284086012 3.900000000000306
    vertex -286.1144672774164 90.5760693201839 3.5272077938645117
  endloop
endfacet
facet normal 1.0 1.7050593329797638e-14 2.8207871869790845e-14
  outer loop
    vertex -286.1144672774163 93.93972108023567 3.557668583508259
    vertex -286.1144672774164 90.5760693201839 3.5272077938645117
    vertex -286.1144672774162 93.46019905221347 2.4000000000003454
  endloop
endfacet
facet normal 1.0 1.7050593329797638e-14 2.8207871869790845e-14
  outer loop
    vertex -286.1144672774162 93.46019905221347 2.4000000000003454
    vertex -286.1144672774164 90.5760693201839 3.5272077938645117
    vertex -286.1144672774164 90.20327711404818 3.2411542731883087
  endloop
endfacet
facet normal 1.0 1.7050593329797638e-14 2.8207871869790845e-14
  outer loop
    vertex -286.1144672774162 93.46019905221347 2.4000000000003454
    vertex -286.1144672774164 90.20327711404818 3.2411542731883087
    vertex -286.1144672774164 89.76915139523267 3.0613335126799472
  endloop
endfacet
facet normal 1.0 1.7050593329797638e-14 2.8207871869790845e-14
  outer loop
    vertex -286.1144672774162 93.46019905221347 2.4000000000003454
    vertex -286.1144672774164 89.76915139523267 3.0613335126799472
    vertex -286.1144672774164 89.30327711404814 3.00000000000026
  endloop
endfacet
facet normal 1.0 1.7050593329797638e-14 2.8207871869790845e-14
  outer loop
    vertex -286.1144672774162 93.46019905221347 2.4000000000003454
    vertex -286.1144672774164 89.30327711404814 3.00000000000026
    vertex -286.11446727741645 81.10327711404817 2.999999999999978
  endloop
endfacet
facet normal 0.7071067811865813 0.7071067811865138 3.1082816838589305e-14
  outer loop
    vertex -285.52868083978905 76.68906355167513 -1.5227819005758646e-13
    vertex -285.1144672774161 76.37122630647902 9.599999999999838
    vertex -285.114467277416 76.37122630647931 -1.8047785488306544e-13
  endloop
endfacet
facet normal 0.5000000000000165 0.8660254037844292 3.3183650181887876e-14
  outer loop
    vertex -285.1144672774161 76.37122630647902 9.599999999999838
    vertex -285.52868083978905 76.68906355167513 -1.5227819005758646e-13
    vertex -285.5286808397892 76.68906355167482 9.59999999999985
  endloop
endfacet
facet normal 0.8660254037844536 0.4999999999999741 2.697355241723583e-14
  outer loop
    vertex -285.84651808498484 77.10327711404827 -1.5227819005758646e-13
    vertex -286.04631892999424 77.58563902384294 9.599999999999874
    vertex -285.84651808498495 77.10327711404797 9.599999999999863
  endloop
endfacet
facet normal 0.9659258262890671 0.2588190451025251 2.0665719866273794e-14
  outer loop
    vertex -286.04631892999424 77.58563902384294 9.599999999999874
    vertex -285.84651808498484 77.10327711404827 -1.5227819005758646e-13
    vertex -286.04631892999413 77.58563902384324 -1.2971845819720328e-13
  endloop
endfacet
facet normal 0.5000000000000139 0.8660254037844308 3.31836501818879e-14
  outer loop
    vertex -285.114467277416 76.37122630647931 -1.8047785488306544e-13
    vertex -284.63210536762114 76.17142546146975 9.599999999999824
    vertex -284.632105367621 76.17142546147006 -1.8047785488306544e-13
  endloop
endfacet
facet normal 0.2588190451025676 0.9659258262890558 3.3492578917600595e-14
  outer loop
    vertex -284.63210536762114 76.17142546146975 9.599999999999824
    vertex -285.114467277416 76.37122630647931 -1.8047785488306544e-13
    vertex -285.1144672774161 76.37122630647902 9.599999999999838
  endloop
endfacet
facet normal 0.7071067811865813 0.7071067811865138 3.1082816838589305e-14
  outer loop
    vertex -285.52868083978905 76.68906355167513 -1.5227819005758646e-13
    vertex -285.84651808498495 77.10327711404797 9.599999999999863
    vertex -285.5286808397892 76.68906355167482 9.59999999999985
  endloop
endfacet
facet normal 0.8660254037844538 0.49999999999997363 2.6973552417235836e-14
  outer loop
    vertex -285.84651808498495 77.10327711404797 9.599999999999863
    vertex -285.52868083978905 76.68906355167513 -1.5227819005758646e-13
    vertex -285.84651808498484 77.10327711404827 -1.5227819005758646e-13
  endloop
endfacet
facet normal 0.9659258262890669 0.2588190451025263 2.0665719866273816e-14
  outer loop
    vertex -286.04631892999413 77.58563902384324 -1.2971845819720328e-13
    vertex -286.1144672774161 78.10327711404797 9.599999999999893
    vertex -286.04631892999424 77.58563902384294 9.599999999999874
  endloop
endfacet
facet normal 0.9978589232386024 0.0654031292301604 2.2628733052926466e-14
  outer loop
    vertex -286.1144672774161 78.10327711404797 9.599999999999893
    vertex -286.04631892999413 77.58563902384324 -1.2971845819720328e-13
    vertex -286.114467277416 78.10327711404827 -1.127986593019159e-13
  endloop
endfacet
facet normal 0.2588190451025663 0.9659258262890562 3.3492578917600595e-14
  outer loop
    vertex -284.632105367621 76.17142546147006 -1.8047785488306544e-13
    vertex -284.1144672774161 76.10327711404784 9.599999999999826
    vertex -284.114467277416 76.10327711404814 -1.7765788840051753e-13
  endloop
endfacet
facet normal 0.06540312923022297 0.9978589232385983 3.222135252383835e-14
  outer loop
    vertex -284.1144672774161 76.10327711404784 9.599999999999826
    vertex -284.632105367621 76.17142546147006 -1.8047785488306544e-13
    vertex -284.63210536762114 76.17142546146975 9.599999999999824
  endloop
endfacet
endsolid iTopie
