solid iTopie
facet normal -0.49985499853807625 -0.01204078222000685 0.8660254037844562
  outer loop
    vertex -82.58482971130715 34.8669923248777 3.241154273187471
    vertex -83.13923735459466 39.85508788378607 3.0613335126793215
    vertex -83.01882953239486 34.85653789840501 3.0613335126791608
  endloop
endfacet
facet normal -0.25874398682266797 -0.006232767512955308 0.9659258262890792
  outer loop
    vertex -83.13923735459466 39.85508788378607 3.0613335126793215
    vertex -82.58482971130715 34.8669923248777 3.241154273187471
    vertex -82.70523753350693 39.86554231025876 3.241154273187632
  endloop
endfacet
facet normal 0.49985499853815163 0.012040782219952577 0.8660254037844134
  outer loop
    vertex -92.58192968206927 34.62617668047812 3.241154273187866
    vertex -93.07502159957504 39.61574924632439 3.5272077938642323
    vertex -92.95461377737526 34.61719926094333 3.5272077938640716
  endloop
endfacet
facet normal 0.7069017181525934 0.017028237517053454 0.7071067811865294
  outer loop
    vertex -93.07502159957504 39.61574924632439 3.5272077938642323
    vertex -92.58192968206927 34.62617668047812 3.241154273187866
    vertex -92.70233750426905 39.62472666585918 3.2411542731880267
  endloop
endfacet
facet normal -0.25874398682273014 -0.006232767512894251 -0.9659258262890631
  outer loop
    vertex -83.13923735459453 39.855087883785956 6.538666487319968
    vertex -82.584829711307 34.86699232487761 6.358845726811445
    vertex -83.01882953239475 34.856537898404895 6.538666487319807
  endloop
endfacet
facet normal -0.4998549985381491 -0.012040782219952516 -0.8660254037844147
  outer loop
    vertex -82.584829711307 34.86699232487761 6.358845726811445
    vertex -83.13923735459453 39.855087883785956 6.538666487319968
    vertex -82.70523753350678 39.86554231025867 6.358845726811606
  endloop
endfacet
facet normal -0.8657742538852763 -0.020855246567860555 -0.4999999999999873
  outer loop
    vertex -81.92617505168214 34.88285836070385 5.699999999999445
    vertex -82.33255343820078 39.87451972979345 6.0727922061354
    vertex -82.04658287388192 39.88140834608491 5.699999999999606
  endloop
endfacet
facet normal -0.7069017181526008 -0.017028237517053634 -0.707106781186522
  outer loop
    vertex -82.33255343820078 39.87451972979345 6.0727922061354
    vertex -81.92617505168214 34.88285836070385 5.699999999999445
    vertex -82.21214561600101 34.87596974441239 6.072792206135239
  endloop
endfacet
facet normal 0.7069017181525288 0.017028237517097693 -0.707106781186593
  outer loop
    vertex -93.07502159957494 39.61574924632431 6.072792206135801
    vertex -92.58192968206912 34.62617668047802 6.358845726811841
    vertex -92.95461377737517 34.61719926094325 6.07279220613564
  endloop
endfacet
facet normal 0.4998549985380788 0.01204078222000691 -0.8660254037844546
  outer loop
    vertex -92.58192968206912 34.62617668047802 6.358845726811841
    vertex -93.07502159957494 39.61574924632431 6.072792206135801
    vertex -92.7023375042689 39.62472666585908 6.358845726812
  endloop
endfacet
facet normal 0.9997099970762141 0.024081564439959093 -3.50431213857728e-14
  outer loop
    vertex -93.48166867943779 34.6045032724821 4.799999999999873
    vertex -93.54076077585592 39.6045302648011 4.334125718815492
    vertex -93.60207650163757 39.60305325786316 4.800000000000034
  endloop
endfacet
facet normal 0.9656457049752963 0.023261005029992843 0.2588190451024764
  outer loop
    vertex -93.54076077585592 39.6045302648011 4.334125718815492
    vertex -93.48166867943779 34.6045032724821 4.799999999999873
    vertex -93.42035295365612 34.60598027942004 4.334125718815331
  endloop
endfacet
facet normal -0.9656457049752777 -0.023261005030009153 0.25881904510254405
  outer loop
    vertex -81.74640643972016 34.887188725935715 4.334125718814899
    vertex -81.80549853613826 39.88721571825469 4.799999999999599
    vertex -81.86681426191996 39.885738711316776 4.33412571881506
  endloop
endfacet
facet normal -0.9997099970762141 -0.024081564439959093 3.50431213857728e-14
  outer loop
    vertex -81.80549853613826 39.88721571825469 4.799999999999599
    vertex -81.74640643972016 34.887188725935715 4.334125718814899
    vertex -81.68509071393848 34.888665732873626 4.7999999999994385
  endloop
endfacet
facet normal -0.9656457049752963 -0.023261005029992843 -0.2588190451024764
  outer loop
    vertex -81.74640643972013 34.88718872593569 5.265874281183978
    vertex -82.04658287388192 39.88140834608491 5.699999999999606
    vertex -81.86681426191991 39.88573871131675 5.265874281184138
  endloop
endfacet
facet normal -0.8657742538852764 -0.020855246567860558 -0.4999999999999866
  outer loop
    vertex -82.04658287388192 39.88140834608491 5.699999999999606
    vertex -81.74640643972013 34.88718872593569 5.265874281183978
    vertex -81.92617505168214 34.88285836070385 5.699999999999445
  endloop
endfacet
facet normal 0.7069017181525297 0.017028237517097713 -0.7071067811865921
  outer loop
    vertex -92.95461377737517 34.61719926094325 6.07279220613564
    vertex -93.36099216389385 39.608860630032886 5.700000000000023
    vertex -93.07502159957494 39.61574924632431 6.072792206135801
  endloop
endfacet
facet normal 0.8657742538852403 0.020855246567892068 -0.5000000000000479
  outer loop
    vertex -93.36099216389385 39.608860630032886 5.700000000000023
    vertex -92.95461377737517 34.61719926094325 6.07279220613564
    vertex -93.24058434169406 34.610310644651825 5.6999999999998625
  endloop
endfacet
facet normal 0.25874398682274086 0.006232767512894508 0.9659258262890601
  outer loop
    vertex -92.14792986098152 34.63663110695082 3.061333512679505
    vertex -92.70233750426905 39.62472666585918 3.2411542731880267
    vertex -92.58192968206927 34.62617668047812 3.241154273187866
  endloop
endfacet
facet normal 0.4998549985381504 0.012040782219952547 0.866025403784414
  outer loop
    vertex -92.70233750426905 39.62472666585918 3.2411542731880267
    vertex -92.14792986098152 34.63663110695082 3.061333512679505
    vertex -92.2683376831813 39.635181092331884 3.0613335126796652
  endloop
endfacet
facet normal 0.06538416213140372 0.0015750096711620624 -0.997858923238606
  outer loop
    vertex -91.80259850690032 39.64640007385504 6.599999999999969
    vertex -83.4845687086756 34.84531891688163 6.599999999999497
    vertex -91.68219068470054 34.64785008847398 6.599999999999808
  endloop
endfacet
facet normal -0.06538416213147796 -0.0015750096710992266 -0.9978589232386014
  outer loop
    vertex -83.4845687086756 34.84531891688163 6.599999999999497
    vertex -91.80259850690032 39.64640007385504 6.599999999999969
    vertex -83.60497653087538 39.84386890226269 6.599999999999658
  endloop
endfacet
facet normal 0.8657742538852764 0.020855246567860558 0.4999999999999866
  outer loop
    vertex -93.24058434169413 34.610310644651875 3.899999999999866
    vertex -93.07502159957504 39.61574924632439 3.5272077938642323
    vertex -93.36099216389391 39.60886063003294 3.9000000000000266
  endloop
endfacet
facet normal 0.7069017181525934 0.017028237517053454 0.7071067811865294
  outer loop
    vertex -93.07502159957504 39.61574924632439 3.5272077938642323
    vertex -93.24058434169413 34.610310644651875 3.899999999999866
    vertex -92.95461377737526 34.61719926094333 3.5272077938640716
  endloop
endfacet
facet normal 0.9656457049752779 0.023261005030009156 -0.25881904510254367
  outer loop
    vertex -93.42035295365609 34.60598027942001 5.265874281184408
    vertex -93.60207650163757 39.60305325786316 4.800000000000034
    vertex -93.54076077585587 39.60453026480107 5.265874281184569
  endloop
endfacet
facet normal 0.9997099970762141 0.024081564439959093 -3.50431213857728e-14
  outer loop
    vertex -93.60207650163757 39.60305325786316 4.800000000000034
    vertex -93.42035295365609 34.60598027942001 5.265874281184408
    vertex -93.48166867943779 34.6045032724821 4.799999999999873
  endloop
endfacet
facet normal -0.9997099970762141 -0.024081564439959093 3.50431213857728e-14
  outer loop
    vertex -81.68509071393848 34.888665732873626 4.7999999999994385
    vertex -81.86681426191991 39.88573871131675 5.265874281184138
    vertex -81.80549853613826 39.88721571825469 4.799999999999599
  endloop
endfacet
facet normal -0.9656457049752966 -0.023261005029992846 -0.258819045102476
  outer loop
    vertex -81.86681426191991 39.88573871131675 5.265874281184138
    vertex -81.68509071393848 34.888665732873626 4.7999999999994385
    vertex -81.74640643972013 34.88718872593569 5.265874281183978
  endloop
endfacet
facet normal -0.06538416213147835 -0.001575009671099236 -0.9978589232386011
  outer loop
    vertex -83.60497653087538 39.84386890226269 6.599999999999658
    vertex -83.01882953239475 34.856537898404895 6.538666487319807
    vertex -83.4845687086756 34.84531891688163 6.599999999999497
  endloop
endfacet
facet normal -0.2587439868227287 -0.006232767512894216 -0.9659258262890633
  outer loop
    vertex -83.01882953239475 34.856537898404895 6.538666487319807
    vertex -83.60497653087538 39.84386890226269 6.599999999999658
    vertex -83.13923735459453 39.855087883785956 6.538666487319968
  endloop
endfacet
facet normal -0.06538416213140372 -0.0015750096711620624 0.997858923238606
  outer loop
    vertex -83.48456870867572 34.845318916881745 2.999999999999504
    vertex -91.80259850690045 39.646400073855155 2.9999999999999747
    vertex -91.68219068470066 34.647850088474094 2.999999999999814
  endloop
endfacet
facet normal 0.06538416213147796 0.0015750096710992266 0.9978589232386014
  outer loop
    vertex -91.80259850690045 39.646400073855155 2.9999999999999747
    vertex -83.48456870867572 34.845318916881745 2.999999999999504
    vertex -83.6049765308755 39.843868902262805 2.9999999999996647
  endloop
endfacet
facet normal 0.2587439868226773 0.006232767512955532 -0.9659258262890769
  outer loop
    vertex -92.26833768318117 39.63518109233178 6.538666487320311
    vertex -91.68219068470054 34.64785008847398 6.599999999999808
    vertex -92.14792986098139 34.636631106950716 6.5386664873201505
  endloop
endfacet
facet normal 0.06538416213140412 0.0015750096711620721 -0.997858923238606
  outer loop
    vertex -91.68219068470054 34.64785008847398 6.599999999999808
    vertex -92.26833768318117 39.63518109233178 6.538666487320311
    vertex -91.80259850690032 39.64640007385504 6.599999999999969
  endloop
endfacet
facet normal 0.4998549985380777 0.012040782220006882 -0.8660254037844552
  outer loop
    vertex -92.7023375042689 39.62472666585908 6.358845726812
    vertex -92.14792986098139 34.636631106950716 6.5386664873201505
    vertex -92.58192968206912 34.62617668047802 6.358845726811841
  endloop
endfacet
facet normal 0.2587439868226787 0.006232767512955566 -0.9659258262890764
  outer loop
    vertex -92.14792986098139 34.636631106950716 6.5386664873201505
    vertex -92.7023375042689 39.62472666585908 6.358845726812
    vertex -92.26833768318117 39.63518109233178 6.538666487320311
  endloop
endfacet
facet normal -0.7069017181525356 -0.017028237517097856 0.7071067811865862
  outer loop
    vertex -82.2121456160011 34.87596974441247 3.527207793863671
    vertex -82.70523753350693 39.86554231025876 3.241154273187632
    vertex -82.58482971130715 34.8669923248777 3.241154273187471
  endloop
endfacet
facet normal -0.4998549985380776 -0.01204078222000688 0.8660254037844555
  outer loop
    vertex -82.70523753350693 39.86554231025876 3.241154273187632
    vertex -82.2121456160011 34.87596974441247 3.527207793863671
    vertex -82.33255343820088 39.87451972979353 3.5272077938638318
  endloop
endfacet
facet normal -0.7069017181525356 -0.017028237517097856 0.7071067811865862
  outer loop
    vertex -82.2121456160011 34.87596974441247 3.527207793863671
    vertex -82.04658287388197 39.88140834608497 3.8999999999996096
    vertex -82.33255343820088 39.87451972979353 3.5272077938638318
  endloop
endfacet
facet normal -0.8657742538852407 -0.020855246567892075 0.5000000000000473
  outer loop
    vertex -82.04658287388197 39.88140834608497 3.8999999999996096
    vertex -82.2121456160011 34.87596974441247 3.527207793863671
    vertex -81.9261750516822 34.882858360703906 3.899999999999449
  endloop
endfacet
facet normal 0.9656457049752966 0.023261005029992846 0.258819045102476
  outer loop
    vertex -93.42035295365612 34.60598027942004 4.334125718815331
    vertex -93.36099216389391 39.60886063003294 3.9000000000000266
    vertex -93.54076077585592 39.6045302648011 4.334125718815492
  endloop
endfacet
facet normal 0.8657742538852763 0.020855246567860555 0.4999999999999873
  outer loop
    vertex -93.36099216389391 39.60886063003294 3.9000000000000266
    vertex -93.42035295365612 34.60598027942004 4.334125718815331
    vertex -93.24058434169413 34.610310644651875 3.899999999999866
  endloop
endfacet
facet normal 0.06538416213147835 0.001575009671099236 0.9978589232386011
  outer loop
    vertex -91.68219068470066 34.647850088474094 2.999999999999814
    vertex -92.2683376831813 39.635181092331884 3.0613335126796652
    vertex -92.14792986098152 34.63663110695082 3.061333512679505
  endloop
endfacet
facet normal 0.25874398682273947 0.006232767512894475 0.9659258262890605
  outer loop
    vertex -92.2683376831813 39.635181092331884 3.0613335126796652
    vertex -91.68219068470066 34.647850088474094 2.999999999999814
    vertex -91.80259850690045 39.646400073855155 2.9999999999999747
  endloop
endfacet
facet normal 0.8657742538852407 0.020855246567892075 -0.5000000000000473
  outer loop
    vertex -93.24058434169406 34.610310644651825 5.6999999999998625
    vertex -93.54076077585587 39.60453026480107 5.265874281184569
    vertex -93.36099216389385 39.608860630032886 5.700000000000023
  endloop
endfacet
facet normal 0.9656457049752777 0.023261005030009153 -0.25881904510254405
  outer loop
    vertex -93.54076077585587 39.60453026480107 5.265874281184569
    vertex -93.24058434169406 34.610310644651825 5.6999999999998625
    vertex -93.42035295365609 34.60598027942001 5.265874281184408
  endloop
endfacet
facet normal -0.4998549985381502 -0.012040782219952542 -0.8660254037844142
  outer loop
    vertex -82.70523753350678 39.86554231025867 6.358845726811606
    vertex -82.21214561600101 34.87596974441239 6.072792206135239
    vertex -82.584829711307 34.86699232487761 6.358845726811445
  endloop
endfacet
facet normal -0.7069017181526001 -0.017028237517053613 -0.7071067811865228
  outer loop
    vertex -82.21214561600101 34.87596974441239 6.072792206135239
    vertex -82.70523753350678 39.86554231025867 6.358845726811606
    vertex -82.33255343820078 39.87451972979345 6.0727922061354
  endloop
endfacet
facet normal -0.8657742538852403 -0.020855246567892068 0.5000000000000479
  outer loop
    vertex -81.9261750516822 34.882858360703906 3.899999999999449
    vertex -81.86681426191996 39.885738711316776 4.33412571881506
    vertex -82.04658287388197 39.88140834608497 3.8999999999996096
  endloop
endfacet
facet normal -0.9656457049752779 -0.023261005030009156 0.25881904510254367
  outer loop
    vertex -81.86681426191996 39.885738711316776 4.33412571881506
    vertex -81.9261750516822 34.882858360703906 3.899999999999449
    vertex -81.74640643972016 34.887188725935715 4.334125718814899
  endloop
endfacet
facet normal -0.2587439868226665 -0.006232767512955273 0.9659258262890796
  outer loop
    vertex -83.01882953239486 34.85653789840501 3.0613335126791608
    vertex -83.6049765308755 39.843868902262805 2.9999999999996647
    vertex -83.48456870867572 34.845318916881745 2.999999999999504
  endloop
endfacet
facet normal -0.06538416213140412 -0.0015750096711620721 0.997858923238606
  outer loop
    vertex -83.6049765308755 39.843868902262805 2.9999999999996647
    vertex -83.01882953239486 34.85653789840501 3.0613335126791608
    vertex -83.13923735459466 39.85508788378607 3.0613335126793215
  endloop
endfacet
facet normal -0.25874398682267225 -0.006232767513020635 0.9659258262890776
  outer loop
    vertex -92.92416182144915 34.61793280441214 9.43644396618704
    vertex -91.80259850690021 39.64640007385495 9.599999999999918
    vertex -93.0445696436492 39.61648278979283 9.436443966187474
  endloop
endfacet
facet normal -0.06538416213141729 -0.001575009671207607 0.9978589232386051
  outer loop
    vertex -91.80259850690021 39.64640007385495 9.599999999999918
    vertex -92.92416182144915 34.61793280441214 9.43644396618704
    vertex -91.68219068470017 34.64785008847425 9.599999999999485
  endloop
endfacet
facet normal -0.49985499853807297 -0.012040782220079262 0.8660254037844569
  outer loop
    vertex -94.0814946776831 34.590054333818244 8.956921938164875
    vertex -93.0445696436492 39.61648278979283 9.436443966187474
    vertex -94.20190249988315 39.588604319198936 8.956921938165308
  endloop
endfacet
facet normal -0.25874398682266975 -0.006232767513020574 0.9659258262890784
  outer loop
    vertex -93.0445696436492 39.61648278979283 9.436443966187474
    vertex -94.0814946776831 34.590054333818244 8.956921938164875
    vertex -92.92416182144915 34.61793280441214 9.43644396618704
  endloop
endfacet
facet normal -0.7069017181525473 -0.017028237517174055 0.7071067811865724
  outer loop
    vertex -95.07531893183256 34.5661145483922 8.19411254969502
    vertex -94.20190249988315 39.588604319198936 8.956921938165308
    vertex -95.1957267540326 39.56466453377288 8.194112549695454
  endloop
endfacet
facet normal -0.4998549985380719 -0.012040782220079236 0.8660254037844578
  outer loop
    vertex -94.20190249988315 39.588604319198936 8.956921938165308
    vertex -95.07531893183256 34.5661145483922 8.19411254969502
    vertex -94.0814946776831 34.590054333818244 8.956921938164875
  endloop
endfacet
facet normal -0.8657742538852438 -0.020855246567966317 0.5000000000000392
  outer loop
    vertex -95.83790710334952 34.5477449049484 7.199999999999634
    vertex -95.1957267540326 39.56466453377288 8.194112549695454
    vertex -95.95831492554957 39.54629489032909 7.200000000000066
  endloop
endfacet
facet normal -0.7069017181525473 -0.017028237517174055 0.7071067811865724
  outer loop
    vertex -95.1957267540326 39.56466453377288 8.194112549695454
    vertex -95.83790710334952 34.5477449049484 7.199999999999634
    vertex -95.07531893183256 34.5661145483922 8.19411254969502
  endloop
endfacet
facet normal -0.9656457049752734 -0.023261005030076415 0.25881904510255416
  outer loop
    vertex -96.31729006858166 34.53619726433028 6.042331416491751
    vertex -95.95831492554957 39.54629489032909 7.200000000000066
    vertex -96.43769789078169 39.53474724971097 6.042331416492183
  endloop
endfacet
facet normal -0.8657742538852441 -0.020855246567966324 0.5000000000000386
  outer loop
    vertex -95.95831492554957 39.54629489032909 7.200000000000066
    vertex -96.31729006858166 34.53619726433028 6.042331416491751
    vertex -95.83790710334952 34.5477449049484 7.199999999999634
  endloop
endfacet
facet normal -0.9997099970762128 -0.02408156444001503 3.582729905658792e-14
  outer loop
    vertex -96.48079867066615 34.532258579162594 4.799999999999661
    vertex -96.43769789078169 39.53474724971097 6.042331416492183
    vertex -96.6012064928662 39.530808564543285 4.800000000000093
  endloop
endfacet
facet normal -0.9656457049752738 -0.023261005030076422 0.25881904510255305
  outer loop
    vertex -96.43769789078169 39.53474724971097 6.042331416492183
    vertex -96.48079867066615 34.532258579162594 4.799999999999661
    vertex -96.31729006858166 34.53619726433028 6.042331416491751
  endloop
endfacet
facet normal -0.9656457049752931 -0.02326100503003353 -0.2588190451024847
  outer loop
    vertex -96.31729006858176 34.536197264330525 3.55766858350756
    vertex -96.6012064928662 39.530808564543285 4.800000000000093
    vertex -96.43769789078179 39.53474724971122 3.5576685835079913
  endloop
endfacet
facet normal -0.9997099970762128 -0.02408156444001503 3.3884677099336893e-14
  outer loop
    vertex -96.6012064928662 39.530808564543285 4.800000000000093
    vertex -96.31729006858176 34.536197264330525 3.55766858350756
    vertex -96.48079867066615 34.532258579162594 4.799999999999661
  endloop
endfacet
facet normal -0.8657742538852818 -0.020855246567883467 -0.4999999999999763
  outer loop
    vertex -95.8379071033497 34.547744904948864 2.3999999999996655
    vertex -96.43769789078179 39.53474724971122 3.5576685835079913
    vertex -95.95831492554976 39.54629489032957 2.4000000000000745
  endloop
endfacet
facet normal -0.9656457049752923 -0.023261005030033508 -0.2588190451024876
  outer loop
    vertex -96.43769789078179 39.53474724971122 3.5576685835079913
    vertex -95.8379071033497 34.547744904948864 2.3999999999996655
    vertex -96.31729006858176 34.536197264330525 3.55766858350756
  endloop
endfacet
facet normal -0.7069017181525987 -0.017028237517056823 -0.7071067811865239
  outer loop
    vertex -95.0753189318328 34.56611454839286 1.4058874503042265
    vertex -95.95831492554976 39.54629489032957 2.4000000000000745
    vertex -95.19572675403285 39.56466453377356 1.4058874503046352
  endloop
endfacet
facet normal -0.8657742538852798 -0.020855246567883415 -0.49999999999998007
  outer loop
    vertex -95.95831492554976 39.54629489032957 2.4000000000000745
    vertex -95.0753189318328 34.56611454839286 1.4058874503042265
    vertex -95.8379071033497 34.547744904948864 2.3999999999996655
  endloop
endfacet
facet normal -0.4998549985381356 -0.012040782219935667 -0.8660254037844228
  outer loop
    vertex -94.20190249988345 39.58860431919976 0.6430780618347345
    vertex -95.0753189318328 34.56611454839286 1.4058874503042265
    vertex -95.19572675403285 39.56466453377356 1.4058874503046352
  endloop
endfacet
facet normal -0.7069017181525987 -0.017028237517056823 -0.7071067811865239
  outer loop
    vertex -95.0753189318328 34.56611454839286 1.4058874503042265
    vertex -94.20190249988345 39.58860431919976 0.6430780618347345
    vertex -94.08149467768341 34.59005433381907 0.643078061834303
  endloop
endfacet
facet normal -0.25874398682274036 -0.006232767512858799 -0.9659258262890604
  outer loop
    vertex -93.04456964364954 39.61648278979376 0.1635560338124634
    vertex -94.08149467768341 34.59005433381907 0.643078061834303
    vertex -94.20190249988345 39.58860431919976 0.6430780618347345
  endloop
endfacet
facet normal -0.4998549985381391 -0.012040782219935752 -0.8660254037844208
  outer loop
    vertex -94.08149467768341 34.59005433381907 0.643078061834303
    vertex -93.04456964364954 39.61648278979376 0.1635560338124634
    vertex -92.9241618214495 34.617932804413066 0.16355603381203193
  endloop
endfacet
facet normal -0.06538416213147753 -0.0015750096710618411 -0.9978589232386013
  outer loop
    vertex -91.80259850690058 39.6464000738559 -4.2299497238218464e-14
    vertex -92.9241618214495 34.617932804413066 0.16355603381203193
    vertex -93.04456964364954 39.61648278979376 0.1635560338124634
  endloop
endfacet
facet normal -0.25874398682274424 -0.006232767512858893 -0.9659258262890595
  outer loop
    vertex -92.9241618214495 34.617932804413066 0.16355603381203193
    vertex -91.80259850690058 39.6464000738559 -4.2299497238218464e-14
    vertex -91.68219068470053 34.64785008847521 -4.737543690680468e-13
  endloop
endfacet
facet normal 0.024081564439978713 -0.9997099970762137 -9.745498068214171e-14
  outer loop
    vertex -96.31729006858166 34.53619726433028 6.042331416491751
    vertex -91.68219068470054 34.64785008847398 6.599999999999808
    vertex -95.83790710334952 34.5477449049484 7.199999999999634
  endloop
endfacet
facet normal 0.024081564439978713 -0.9997099970762137 -9.745498068214171e-14
  outer loop
    vertex -91.68219068470054 34.64785008847398 6.599999999999808
    vertex -96.31729006858166 34.53619726433028 6.042331416491751
    vertex -92.14792986098139 34.636631106950716 6.5386664873201505
  endloop
endfacet
facet normal 0.024081564439978713 -0.9997099970762137 -9.745498068214171e-14
  outer loop
    vertex -92.14792986098139 34.636631106950716 6.5386664873201505
    vertex -96.31729006858166 34.53619726433028 6.042331416491751
    vertex -92.58192968206912 34.62617668047802 6.358845726811841
  endloop
endfacet
facet normal 0.024081564439978713 -0.9997099970762137 -9.745498068214171e-14
  outer loop
    vertex -92.58192968206912 34.62617668047802 6.358845726811841
    vertex -96.31729006858166 34.53619726433028 6.042331416491751
    vertex -92.95461377737517 34.61719926094325 6.07279220613564
  endloop
endfacet
facet normal 0.024081564439978713 -0.9997099970762137 -9.745498068214171e-14
  outer loop
    vertex -92.95461377737517 34.61719926094325 6.07279220613564
    vertex -96.31729006858166 34.53619726433028 6.042331416491751
    vertex -93.24058434169406 34.610310644651825 5.6999999999998625
  endloop
endfacet
facet normal 0.024081564439978713 -0.9997099970762137 -9.745498068214171e-14
  outer loop
    vertex -93.24058434169406 34.610310644651825 5.6999999999998625
    vertex -96.31729006858166 34.53619726433028 6.042331416491751
    vertex -96.48079867066615 34.532258579162594 4.799999999999661
  endloop
endfacet
facet normal 0.024081564439978713 -0.9997099970762137 -9.745498068214171e-14
  outer loop
    vertex -93.24058434169406 34.610310644651825 5.6999999999998625
    vertex -96.48079867066615 34.532258579162594 4.799999999999661
    vertex -93.42035295365609 34.60598027942001 5.265874281184408
  endloop
endfacet
facet normal 0.024081564439978713 -0.9997099970762137 -9.745498068214171e-14
  outer loop
    vertex -93.42035295365609 34.60598027942001 5.265874281184408
    vertex -96.48079867066615 34.532258579162594 4.799999999999661
    vertex -93.48166867943779 34.6045032724821 4.799999999999873
  endloop
endfacet
facet normal 0.024081564439978713 -0.9997099970762137 -9.745498068214171e-14
  outer loop
    vertex -93.48166867943779 34.6045032724821 4.799999999999873
    vertex -96.48079867066615 34.532258579162594 4.799999999999661
    vertex -93.42035295365612 34.60598027942004 4.334125718815331
  endloop
endfacet
facet normal 0.024081564439978713 -0.9997099970762137 -9.745498068214171e-14
  outer loop
    vertex -93.42035295365612 34.60598027942004 4.334125718815331
    vertex -96.48079867066615 34.532258579162594 4.799999999999661
    vertex -96.31729006858176 34.536197264330525 3.55766858350756
  endloop
endfacet
facet normal 0.024081564439978713 -0.9997099970762137 -9.745498068214171e-14
  outer loop
    vertex -93.42035295365612 34.60598027942004 4.334125718815331
    vertex -96.31729006858176 34.536197264330525 3.55766858350756
    vertex -93.24058434169413 34.610310644651875 3.899999999999866
  endloop
endfacet
facet normal 0.024081564439978713 -0.9997099970762137 -9.745498068214171e-14
  outer loop
    vertex -93.24058434169413 34.610310644651875 3.899999999999866
    vertex -96.31729006858176 34.536197264330525 3.55766858350756
    vertex -92.95461377737526 34.61719926094333 3.5272077938640716
  endloop
endfacet
facet normal 0.024081564439978713 -0.9997099970762137 -9.745498068214171e-14
  outer loop
    vertex -92.95461377737526 34.61719926094333 3.5272077938640716
    vertex -96.31729006858176 34.536197264330525 3.55766858350756
    vertex -95.8379071033497 34.547744904948864 2.3999999999996655
  endloop
endfacet
facet normal 0.024081564439978713 -0.9997099970762137 -9.745498068214171e-14
  outer loop
    vertex -92.95461377737526 34.61719926094333 3.5272077938640716
    vertex -95.8379071033497 34.547744904948864 2.3999999999996655
    vertex -92.58192968206927 34.62617668047812 3.241154273187866
  endloop
endfacet
facet normal 0.024081564439978713 -0.9997099970762137 -9.745498068214171e-14
  outer loop
    vertex -92.58192968206927 34.62617668047812 3.241154273187866
    vertex -95.8379071033497 34.547744904948864 2.3999999999996655
    vertex -92.14792986098152 34.63663110695082 3.061333512679505
  endloop
endfacet
facet normal 0.024081564439978713 -0.9997099970762137 -9.745498068214171e-14
  outer loop
    vertex -92.14792986098152 34.63663110695082 3.061333512679505
    vertex -95.8379071033497 34.547744904948864 2.3999999999996655
    vertex -91.68219068470066 34.647850088474094 2.999999999999814
  endloop
endfacet
facet normal 0.024081564439978713 -0.9997099970762137 -9.745498068214171e-14
  outer loop
    vertex -91.68219068470066 34.647850088474094 2.999999999999814
    vertex -95.8379071033497 34.547744904948864 2.3999999999996655
    vertex -83.48456870867572 34.845318916881745 2.999999999999504
  endloop
endfacet
facet normal 0.024081564439978713 -0.9997099970762137 -9.745498068214171e-14
  outer loop
    vertex -74.48717873498933 35.062052996841956 9.599999999999174
    vertex -82.21214561600101 34.87596974441239 6.072792206135239
    vertex -74.48717873498967 35.06205299684245 -8.290701458690818e-13
  endloop
endfacet
facet normal 0.024081564439978713 -0.9997099970762137 -9.745498068214171e-14
  outer loop
    vertex -82.21214561600101 34.87596974441239 6.072792206135239
    vertex -74.48717873498933 35.062052996841956 9.599999999999174
    vertex -82.584829711307 34.86699232487761 6.358845726811445
  endloop
endfacet
facet normal 0.024081564439978713 -0.9997099970762137 -9.745498068214171e-14
  outer loop
    vertex -82.584829711307 34.86699232487761 6.358845726811445
    vertex -74.48717873498933 35.062052996841956 9.599999999999174
    vertex -83.01882953239475 34.856537898404895 6.538666487319807
  endloop
endfacet
facet normal 0.024081564439978713 -0.9997099970762137 -9.745498068214171e-14
  outer loop
    vertex -83.01882953239475 34.856537898404895 6.538666487319807
    vertex -74.48717873498933 35.062052996841956 9.599999999999174
    vertex -91.68219068470017 34.64785008847425 9.599999999999485
  endloop
endfacet
facet normal 0.024081564439978713 -0.9997099970762137 -9.745498068214171e-14
  outer loop
    vertex -83.01882953239475 34.856537898404895 6.538666487319807
    vertex -91.68219068470017 34.64785008847425 9.599999999999485
    vertex -92.92416182144915 34.61793280441214 9.43644396618704
  endloop
endfacet
facet normal 0.024081564439978713 -0.9997099970762137 -9.745498068214171e-14
  outer loop
    vertex -83.01882953239475 34.856537898404895 6.538666487319807
    vertex -92.92416182144915 34.61793280441214 9.43644396618704
    vertex -94.0814946776831 34.590054333818244 8.956921938164875
  endloop
endfacet
facet normal 0.024081564439978713 -0.9997099970762137 -9.745498068214171e-14
  outer loop
    vertex -83.01882953239475 34.856537898404895 6.538666487319807
    vertex -94.0814946776831 34.590054333818244 8.956921938164875
    vertex -95.07531893183256 34.5661145483922 8.19411254969502
  endloop
endfacet
facet normal 0.024081564439978713 -0.9997099970762137 -9.745498068214171e-14
  outer loop
    vertex -83.01882953239475 34.856537898404895 6.538666487319807
    vertex -95.07531893183256 34.5661145483922 8.19411254969502
    vertex -83.4845687086756 34.84531891688163 6.599999999999497
  endloop
endfacet
facet normal 0.024081564439978713 -0.9997099970762137 -9.745498068214171e-14
  outer loop
    vertex -83.4845687086756 34.84531891688163 6.599999999999497
    vertex -95.07531893183256 34.5661145483922 8.19411254969502
    vertex -95.83790710334952 34.5477449049484 7.199999999999634
  endloop
endfacet
facet normal 0.024081564439978713 -0.9997099970762137 -9.745498068214171e-14
  outer loop
    vertex -83.4845687086756 34.84531891688163 6.599999999999497
    vertex -95.83790710334952 34.5477449049484 7.199999999999634
    vertex -91.68219068470054 34.64785008847398 6.599999999999808
  endloop
endfacet
facet normal 0.024081564439978713 -0.9997099970762137 -9.745498068214171e-14
  outer loop
    vertex -74.48717873498967 35.06205299684245 -8.290701458690818e-13
    vertex -82.21214561600101 34.87596974441239 6.072792206135239
    vertex -81.92617505168214 34.88285836070385 5.699999999999445
  endloop
endfacet
facet normal 0.024081564439978713 -0.9997099970762137 -9.745498068214171e-14
  outer loop
    vertex -74.48717873498967 35.06205299684245 -8.290701458690818e-13
    vertex -81.92617505168214 34.88285836070385 5.699999999999445
    vertex -81.74640643972013 34.88718872593569 5.265874281183978
  endloop
endfacet
facet normal 0.024081564439978713 -0.9997099970762137 -9.745498068214171e-14
  outer loop
    vertex -74.48717873498967 35.06205299684245 -8.290701458690818e-13
    vertex -81.74640643972013 34.88718872593569 5.265874281183978
    vertex -81.68509071393848 34.888665732873626 4.7999999999994385
  endloop
endfacet
facet normal 0.024081564439978713 -0.9997099970762137 -9.745498068214171e-14
  outer loop
    vertex -74.48717873498967 35.06205299684245 -8.290701458690818e-13
    vertex -81.68509071393848 34.888665732873626 4.7999999999994385
    vertex -81.74640643972016 34.887188725935715 4.334125718814899
  endloop
endfacet
facet normal 0.024081564439978713 -0.9997099970762137 -9.745498068214171e-14
  outer loop
    vertex -74.48717873498967 35.06205299684245 -8.290701458690818e-13
    vertex -81.74640643972016 34.887188725935715 4.334125718814899
    vertex -81.9261750516822 34.882858360703906 3.899999999999449
  endloop
endfacet
facet normal 0.024081564439978713 -0.9997099970762137 -9.745498068214171e-14
  outer loop
    vertex -74.48717873498967 35.06205299684245 -8.290701458690818e-13
    vertex -81.9261750516822 34.882858360703906 3.899999999999449
    vertex -82.2121456160011 34.87596974441247 3.527207793863671
  endloop
endfacet
facet normal 0.024081564439978713 -0.9997099970762137 -9.745498068214171e-14
  outer loop
    vertex -74.48717873498967 35.06205299684245 -8.290701458690818e-13
    vertex -82.2121456160011 34.87596974441247 3.527207793863671
    vertex -82.58482971130715 34.8669923248777 3.241154273187471
  endloop
endfacet
facet normal 0.024081564439978713 -0.9997099970762137 -9.745498068214171e-14
  outer loop
    vertex -74.48717873498967 35.06205299684245 -8.290701458690818e-13
    vertex -82.58482971130715 34.8669923248777 3.241154273187471
    vertex -83.01882953239486 34.85653789840501 3.0613335126791608
  endloop
endfacet
facet normal 0.024081564439978713 -0.9997099970762137 -9.745498068214171e-14
  outer loop
    vertex -74.48717873498967 35.06205299684245 -8.290701458690818e-13
    vertex -83.01882953239486 34.85653789840501 3.0613335126791608
    vertex -83.48456870867572 34.845318916881745 2.999999999999504
  endloop
endfacet
facet normal 0.024081564439978713 -0.9997099970762137 -9.745498068214171e-14
  outer loop
    vertex -74.48717873498967 35.06205299684245 -8.290701458690818e-13
    vertex -83.48456870867572 34.845318916881745 2.999999999999504
    vertex -95.8379071033497 34.547744904948864 2.3999999999996655
  endloop
endfacet
facet normal 0.024081564439978713 -0.9997099970762137 -9.745498068214171e-14
  outer loop
    vertex -74.48717873498967 35.06205299684245 -8.290701458690818e-13
    vertex -95.8379071033497 34.547744904948864 2.3999999999996655
    vertex -95.0753189318328 34.56611454839286 1.4058874503042265
  endloop
endfacet
facet normal 0.024081564439978713 -0.9997099970762137 -9.745498068214171e-14
  outer loop
    vertex -74.48717873498967 35.06205299684245 -8.290701458690818e-13
    vertex -95.0753189318328 34.56611454839286 1.4058874503042265
    vertex -94.08149467768341 34.59005433381907 0.643078061834303
  endloop
endfacet
facet normal 0.024081564439978713 -0.9997099970762137 -9.745498068214171e-14
  outer loop
    vertex -74.48717873498967 35.06205299684245 -8.290701458690818e-13
    vertex -94.08149467768341 34.59005433381907 0.643078061834303
    vertex -92.9241618214495 34.617932804413066 0.16355603381203193
  endloop
endfacet
facet normal 0.024081564439978713 -0.9997099970762137 -9.745498068214171e-14
  outer loop
    vertex -74.48717873498967 35.06205299684245 -8.290701458690818e-13
    vertex -92.9241618214495 34.617932804413066 0.16355603381203193
    vertex -91.68219068470053 34.64785008847521 -4.737543690680468e-13
  endloop
endfacet
facet normal -0.06538416213141653 -0.0015750096712075885 0.9978589232386051
  outer loop
    vertex -91.68219068470017 34.64785008847425 9.599999999999485
    vertex -80.60584653964663 39.91611359558261 9.59999999999957
    vertex -91.80259850690021 39.64640007385495 9.599999999999918
  endloop
endfacet
facet normal 2.603204113665243e-14 -6.156451211288152e-14 1.0
  outer loop
    vertex -80.60584653964663 39.91611359558261 9.59999999999957
    vertex -91.68219068470017 34.64785008847425 9.599999999999485
    vertex -74.48717873498933 35.062052996841956 9.599999999999174
  endloop
endfacet
facet normal 2.603204113665243e-14 -6.156451211288152e-14 1.0
  outer loop
    vertex -80.60584653964663 39.91611359558261 9.59999999999957
    vertex -74.48717873498933 35.062052996841956 9.599999999999174
    vertex -80.08999968482115 39.99670771481033 9.599999999999554
  endloop
endfacet
facet normal 2.603204113665243e-14 -6.156451211288152e-14 1.0
  outer loop
    vertex -80.08999968482115 39.99670771481033 9.599999999999554
    vertex -74.48717873498933 35.062052996841956 9.599999999999174
    vertex -79.6125891783146 40.20806664640447 9.599999999999554
  endloop
endfacet
facet normal 2.603204113665243e-14 -6.156451211288152e-14 1.0
  outer loop
    vertex -79.6125891783146 40.20806664640447 9.599999999999554
    vertex -74.48717873498933 35.062052996841956 9.599999999999174
    vertex -79.20614975718722 40.535786628464066 9.59999999999956
  endloop
endfacet
facet normal 2.603204113665243e-14 -6.156451211288152e-14 1.0
  outer loop
    vertex -79.20614975718722 40.535786628464066 9.59999999999956
    vertex -74.48717873498933 35.062052996841956 9.599999999999174
    vertex -78.89837959631599 40.957534085794606 9.599999999999575
  endloop
endfacet
facet normal 2.603204113665243e-14 -6.156451211288152e-14 1.0
  outer loop
    vertex -78.89837959631599 40.957534085794606 9.599999999999575
    vertex -74.48717873498933 35.062052996841956 9.599999999999174
    vertex -78.71025272355007 41.44456762614964 9.599999999999595
  endloop
endfacet
facet normal 2.603204113665243e-14 -6.156451211288152e-14 1.0
  outer loop
    vertex -78.71025272355007 41.44456762614964 9.599999999999595
    vertex -74.48717873498933 35.062052996841956 9.599999999999174
    vertex -78.65458967437401 41.96369671861499 9.599999999999632
  endloop
endfacet
facet normal 2.603204113665243e-14 -6.156451211288152e-14 1.0
  outer loop
    vertex -78.65458967437401 41.96369671861499 9.599999999999632
    vertex -74.48717873498933 35.062052996841956 9.599999999999174
    vertex -78.94356844765292 53.96021668352959 9.600000000000437
  endloop
endfacet
facet normal 2.603204113665243e-14 -6.156451211288152e-14 1.0
  outer loop
    vertex -78.94356844765292 53.96021668352959 9.600000000000437
    vertex -74.48717873498933 35.062052996841956 9.599999999999174
    vertex -74.94472845934784 54.05654294128934 9.600000000000296
  endloop
endfacet
facet normal -2.897771900257469e-14 6.154957385880011e-14 -1.0
  outer loop
    vertex -80.60584653964699 39.91611359558338 -4.342748383123762e-13
    vertex -91.68219068470053 34.64785008847521 -4.737543690680468e-13
    vertex -91.80259850690058 39.6464000738559 -4.2299497238218464e-14
  endloop
endfacet
facet normal -0.06538416213147608 -0.001575009671061806 -0.9978589232386015
  outer loop
    vertex -91.68219068470053 34.64785008847521 -4.737543690680468e-13
    vertex -80.60584653964699 39.91611359558338 -4.342748383123762e-13
    vertex -74.48717873498967 35.06205299684245 -8.290701458690818e-13
  endloop
endfacet
facet normal -2.897771900257469e-14 6.154957385880011e-14 -1.0
  outer loop
    vertex -74.48717873498967 35.06205299684245 -8.290701458690818e-13
    vertex -80.60584653964699 39.91611359558338 -4.342748383123762e-13
    vertex -80.0899996848215 39.996707714811095 -4.511946372076636e-13
  endloop
endfacet
facet normal -2.897771900257469e-14 6.154957385880011e-14 -1.0
  outer loop
    vertex -74.48717873498967 35.06205299684245 -8.290701458690818e-13
    vertex -80.0899996848215 39.996707714811095 -4.511946372076636e-13
    vertex -79.61258917831495 40.20806664640524 -4.624745031378551e-13
  endloop
endfacet
facet normal -2.897771900257469e-14 6.154957385880011e-14 -1.0
  outer loop
    vertex -74.48717873498967 35.06205299684245 -8.290701458690818e-13
    vertex -79.61258917831495 40.20806664640524 -4.624745031378551e-13
    vertex -79.20614975718756 40.53578662846483 -4.427347377600199e-13
  endloop
endfacet
facet normal -2.897771900257469e-14 6.154957385880011e-14 -1.0
  outer loop
    vertex -74.48717873498967 35.06205299684245 -8.290701458690818e-13
    vertex -79.20614975718756 40.53578662846483 -4.427347377600199e-13
    vertex -78.89837959631635 40.95753408579536 -4.427347377600199e-13
  endloop
endfacet
facet normal -2.897771900257469e-14 6.154957385880011e-14 -1.0
  outer loop
    vertex -74.48717873498967 35.06205299684245 -8.290701458690818e-13
    vertex -78.89837959631635 40.95753408579536 -4.427347377600199e-13
    vertex -78.71025272355043 41.44456762615041 -4.0889513996944515e-13
  endloop
endfacet
facet normal -2.897771900257469e-14 6.154957385880011e-14 -1.0
  outer loop
    vertex -74.48717873498967 35.06205299684245 -8.290701458690818e-13
    vertex -78.71025272355043 41.44456762615041 -4.0889513996944515e-13
    vertex -78.65458967437436 41.96369671861574 -3.7223557569632245e-13
  endloop
endfacet
facet normal -2.897771900257469e-14 6.154957385880011e-14 -1.0
  outer loop
    vertex -74.48717873498967 35.06205299684245 -8.290701458690818e-13
    vertex -78.65458967437436 41.96369671861574 -3.7223557569632245e-13
    vertex -78.94356844765326 53.96021668353034 4.2299497238218464e-13
  endloop
endfacet
facet normal -2.897771900257469e-14 6.154957385880011e-14 -1.0
  outer loop
    vertex -74.48717873498967 35.06205299684245 -8.290701458690818e-13
    vertex -78.94356844765326 53.96021668353034 4.2299497238218464e-13
    vertex -74.9447284593482 54.05654294128985 3.045563801151729e-13
  endloop
endfacet
facet normal 0.999709997076214 0.024081564439965564 -3.504312138577259e-14
  outer loop
    vertex -74.94472845934784 54.05654294128934 9.600000000000296
    vertex -74.48717873498967 35.06205299684245 -8.290701458690818e-13
    vertex -74.9447284593482 54.05654294128985 3.045563801151729e-13
  endloop
endfacet
facet normal 0.999709997076214 0.024081564439965564 -3.504312138577259e-14
  outer loop
    vertex -74.48717873498967 35.06205299684245 -8.290701458690818e-13
    vertex -74.94472845934784 54.05654294128934 9.600000000000296
    vertex -74.48717873498933 35.062052996841956 9.599999999999174
  endloop
endfacet
facet normal -0.024081564439904952 0.9997099970762154 6.703415865189518e-14
  outer loop
    vertex -74.9447284593482 54.05654294128985 3.045563801151729e-13
    vertex -78.94356844765292 53.96021668352959 9.600000000000437
    vertex -74.94472845934784 54.05654294128934 9.600000000000296
  endloop
endfacet
facet normal -0.024081564439904952 0.9997099970762154 6.703415865189518e-14
  outer loop
    vertex -78.94356844765292 53.96021668352959 9.600000000000437
    vertex -74.9447284593482 54.05654294128985 3.045563801151729e-13
    vertex -78.94356844765326 53.96021668353034 4.2299497238218464e-13
  endloop
endfacet
facet normal -0.9991445509044662 0.04135415816955809 4.019762476208191e-14
  outer loop
    vertex -78.65458967437436 41.96369671861574 -3.7223557569632245e-13
    vertex -78.94356844765292 53.96021668352959 9.600000000000437
    vertex -78.94356844765326 53.96021668353034 4.2299497238218464e-13
  endloop
endfacet
facet normal -0.9997099970762153 -0.024081564439909182 3.50431213857771e-14
  outer loop
    vertex -78.94356844765292 53.96021668352959 9.600000000000437
    vertex -78.65458967437436 41.96369671861574 -3.7223557569632245e-13
    vertex -78.65458967437401 41.96369671861499 9.599999999999632
  endloop
endfacet
facet normal -0.0894141660934217 0.9959945315622061 9.089784644850581e-14
  outer loop
    vertex -80.60584653964663 39.91611359558261 9.59999999999957
    vertex -83.13923735459453 39.855087883785956 6.538666487319968
    vertex -91.80259850690021 39.64640007385495 9.599999999999918
  endloop
endfacet
facet normal -0.024081564439980344 0.9997099970762137 9.639247139025432e-14
  outer loop
    vertex -83.13923735459453 39.855087883785956 6.538666487319968
    vertex -80.60584653964663 39.91611359558261 9.59999999999957
    vertex -82.70523753350678 39.86554231025867 6.358845726811606
  endloop
endfacet
facet normal -0.024081564439980344 0.9997099970762137 9.639247139025432e-14
  outer loop
    vertex -82.70523753350678 39.86554231025867 6.358845726811606
    vertex -80.60584653964663 39.91611359558261 9.59999999999957
    vertex -82.33255343820078 39.87451972979345 6.0727922061354
  endloop
endfacet
facet normal -0.024081564439980344 0.9997099970762137 9.639247139025432e-14
  outer loop
    vertex -82.33255343820078 39.87451972979345 6.0727922061354
    vertex -80.60584653964663 39.91611359558261 9.59999999999957
    vertex -82.04658287388192 39.88140834608491 5.699999999999606
  endloop
endfacet
facet normal -0.024081564439980344 0.9997099970762137 9.639247139025432e-14
  outer loop
    vertex -82.04658287388192 39.88140834608491 5.699999999999606
    vertex -80.60584653964663 39.91611359558261 9.59999999999957
    vertex -81.86681426191991 39.88573871131675 5.265874281184138
  endloop
endfacet
facet normal -0.024081564439980344 0.9997099970762137 9.639247139025432e-14
  outer loop
    vertex -81.86681426191991 39.88573871131675 5.265874281184138
    vertex -80.60584653964663 39.91611359558261 9.59999999999957
    vertex -80.60584653964699 39.91611359558338 -4.342748383123762e-13
  endloop
endfacet
facet normal -0.024081564439980344 0.9997099970762137 9.639247139025432e-14
  outer loop
    vertex -91.80259850690021 39.64640007385495 9.599999999999918
    vertex -83.13923735459453 39.855087883785956 6.538666487319968
    vertex -93.0445696436492 39.61648278979283 9.436443966187474
  endloop
endfacet
facet normal -0.024081564439980344 0.9997099970762137 9.639247139025432e-14
  outer loop
    vertex -93.0445696436492 39.61648278979283 9.436443966187474
    vertex -83.13923735459453 39.855087883785956 6.538666487319968
    vertex -94.20190249988315 39.588604319198936 8.956921938165308
  endloop
endfacet
facet normal -0.024081564439980344 0.9997099970762137 9.639247139025432e-14
  outer loop
    vertex -94.20190249988315 39.588604319198936 8.956921938165308
    vertex -83.13923735459453 39.855087883785956 6.538666487319968
    vertex -95.1957267540326 39.56466453377288 8.194112549695454
  endloop
endfacet
facet normal -0.024081564439980344 0.9997099970762137 9.639247139025432e-14
  outer loop
    vertex -95.1957267540326 39.56466453377288 8.194112549695454
    vertex -83.13923735459453 39.855087883785956 6.538666487319968
    vertex -83.60497653087538 39.84386890226269 6.599999999999658
  endloop
endfacet
facet normal -0.024081564439980344 0.9997099970762137 9.639247139025432e-14
  outer loop
    vertex -95.1957267540326 39.56466453377288 8.194112549695454
    vertex -83.60497653087538 39.84386890226269 6.599999999999658
    vertex -95.95831492554957 39.54629489032909 7.200000000000066
  endloop
endfacet
facet normal -0.024081564439980344 0.9997099970762137 9.639247139025432e-14
  outer loop
    vertex -95.95831492554957 39.54629489032909 7.200000000000066
    vertex -83.60497653087538 39.84386890226269 6.599999999999658
    vertex -91.80259850690032 39.64640007385504 6.599999999999969
  endloop
endfacet
facet normal -0.024081564439980344 0.9997099970762137 9.639247139025432e-14
  outer loop
    vertex -81.86681426191991 39.88573871131675 5.265874281184138
    vertex -80.60584653964699 39.91611359558338 -4.342748383123762e-13
    vertex -81.80549853613826 39.88721571825469 4.799999999999599
  endloop
endfacet
facet normal -0.024081564439980344 0.9997099970762137 9.639247139025432e-14
  outer loop
    vertex -81.80549853613826 39.88721571825469 4.799999999999599
    vertex -80.60584653964699 39.91611359558338 -4.342748383123762e-13
    vertex -81.86681426191996 39.885738711316776 4.33412571881506
  endloop
endfacet
facet normal -0.024081564439980344 0.9997099970762137 9.639247139025432e-14
  outer loop
    vertex -81.86681426191996 39.885738711316776 4.33412571881506
    vertex -80.60584653964699 39.91611359558338 -4.342748383123762e-13
    vertex -82.04658287388197 39.88140834608497 3.8999999999996096
  endloop
endfacet
facet normal -0.024081564439980344 0.9997099970762137 9.639247139025432e-14
  outer loop
    vertex -82.04658287388197 39.88140834608497 3.8999999999996096
    vertex -80.60584653964699 39.91611359558338 -4.342748383123762e-13
    vertex -82.33255343820088 39.87451972979353 3.5272077938638318
  endloop
endfacet
facet normal -0.024081564439980344 0.9997099970762137 9.639247139025432e-14
  outer loop
    vertex -82.33255343820088 39.87451972979353 3.5272077938638318
    vertex -80.60584653964699 39.91611359558338 -4.342748383123762e-13
    vertex -82.70523753350693 39.86554231025876 3.241154273187632
  endloop
endfacet
facet normal -0.024081564439980344 0.9997099970762137 9.639247139025432e-14
  outer loop
    vertex -82.70523753350693 39.86554231025876 3.241154273187632
    vertex -80.60584653964699 39.91611359558338 -4.342748383123762e-13
    vertex -83.13923735459466 39.85508788378607 3.0613335126793215
  endloop
endfacet
facet normal -0.024081564439980344 0.9997099970762137 9.639247139025432e-14
  outer loop
    vertex -83.13923735459466 39.85508788378607 3.0613335126793215
    vertex -80.60584653964699 39.91611359558338 -4.342748383123762e-13
    vertex -83.6049765308755 39.843868902262805 2.9999999999996647
  endloop
endfacet
facet normal -0.024081564439980344 0.9997099970762137 9.639247139025432e-14
  outer loop
    vertex -83.6049765308755 39.843868902262805 2.9999999999996647
    vertex -80.60584653964699 39.91611359558338 -4.342748383123762e-13
    vertex -95.95831492554976 39.54629489032957 2.4000000000000745
  endloop
endfacet
facet normal -0.024081564439980344 0.9997099970762137 9.639247139025432e-14
  outer loop
    vertex -95.95831492554976 39.54629489032957 2.4000000000000745
    vertex -80.60584653964699 39.91611359558338 -4.342748383123762e-13
    vertex -95.19572675403285 39.56466453377356 1.4058874503046352
  endloop
endfacet
facet normal -0.024081564439980344 0.9997099970762137 9.639247139025432e-14
  outer loop
    vertex -95.19572675403285 39.56466453377356 1.4058874503046352
    vertex -80.60584653964699 39.91611359558338 -4.342748383123762e-13
    vertex -94.20190249988345 39.58860431919976 0.6430780618347345
  endloop
endfacet
facet normal -0.024081564439980344 0.9997099970762137 9.639247139025432e-14
  outer loop
    vertex -94.20190249988345 39.58860431919976 0.6430780618347345
    vertex -80.60584653964699 39.91611359558338 -4.342748383123762e-13
    vertex -93.04456964364954 39.61648278979376 0.1635560338124634
  endloop
endfacet
facet normal -0.024081564439980344 0.9997099970762137 9.639247139025432e-14
  outer loop
    vertex -93.04456964364954 39.61648278979376 0.1635560338124634
    vertex -80.60584653964699 39.91611359558338 -4.342748383123762e-13
    vertex -91.80259850690058 39.6464000738559 -4.2299497238218464e-14
  endloop
endfacet
facet normal -0.024081564439980344 0.9997099970762137 9.639247139025432e-14
  outer loop
    vertex -91.80259850690032 39.64640007385504 6.599999999999969
    vertex -96.43769789078169 39.53474724971097 6.042331416492183
    vertex -95.95831492554957 39.54629489032909 7.200000000000066
  endloop
endfacet
facet normal -0.024081564439980344 0.9997099970762137 9.639247139025432e-14
  outer loop
    vertex -96.43769789078169 39.53474724971097 6.042331416492183
    vertex -91.80259850690032 39.64640007385504 6.599999999999969
    vertex -92.26833768318117 39.63518109233178 6.538666487320311
  endloop
endfacet
facet normal -0.024081564439980344 0.9997099970762137 9.639247139025432e-14
  outer loop
    vertex -96.43769789078169 39.53474724971097 6.042331416492183
    vertex -92.26833768318117 39.63518109233178 6.538666487320311
    vertex -92.7023375042689 39.62472666585908 6.358845726812
  endloop
endfacet
facet normal -0.024081564439980344 0.9997099970762137 9.639247139025432e-14
  outer loop
    vertex -96.43769789078169 39.53474724971097 6.042331416492183
    vertex -92.7023375042689 39.62472666585908 6.358845726812
    vertex -93.07502159957494 39.61574924632431 6.072792206135801
  endloop
endfacet
facet normal -0.024081564439980344 0.9997099970762137 9.639247139025432e-14
  outer loop
    vertex -96.43769789078169 39.53474724971097 6.042331416492183
    vertex -93.07502159957494 39.61574924632431 6.072792206135801
    vertex -93.36099216389385 39.608860630032886 5.700000000000023
  endloop
endfacet
facet normal -0.024081564439980344 0.9997099970762137 9.639247139025432e-14
  outer loop
    vertex -96.43769789078169 39.53474724971097 6.042331416492183
    vertex -93.36099216389385 39.608860630032886 5.700000000000023
    vertex -96.6012064928662 39.530808564543285 4.800000000000093
  endloop
endfacet
facet normal -0.024081564439980344 0.9997099970762137 9.639247139025432e-14
  outer loop
    vertex -96.6012064928662 39.530808564543285 4.800000000000093
    vertex -93.36099216389385 39.608860630032886 5.700000000000023
    vertex -93.54076077585587 39.60453026480107 5.265874281184569
  endloop
endfacet
facet normal -0.024081564439980344 0.9997099970762137 9.639247139025432e-14
  outer loop
    vertex -96.6012064928662 39.530808564543285 4.800000000000093
    vertex -93.54076077585587 39.60453026480107 5.265874281184569
    vertex -93.60207650163757 39.60305325786316 4.800000000000034
  endloop
endfacet
facet normal -0.024081564439980344 0.9997099970762137 9.639247139025432e-14
  outer loop
    vertex -96.6012064928662 39.530808564543285 4.800000000000093
    vertex -93.60207650163757 39.60305325786316 4.800000000000034
    vertex -93.54076077585592 39.6045302648011 4.334125718815492
  endloop
endfacet
facet normal -0.024081564439980344 0.9997099970762137 9.639247139025432e-14
  outer loop
    vertex -96.6012064928662 39.530808564543285 4.800000000000093
    vertex -93.54076077585592 39.6045302648011 4.334125718815492
    vertex -96.43769789078179 39.53474724971122 3.5576685835079913
  endloop
endfacet
facet normal -0.024081564439980344 0.9997099970762137 9.639247139025432e-14
  outer loop
    vertex -96.43769789078179 39.53474724971122 3.5576685835079913
    vertex -93.54076077585592 39.6045302648011 4.334125718815492
    vertex -93.36099216389391 39.60886063003294 3.9000000000000266
  endloop
endfacet
facet normal -0.024081564439980344 0.9997099970762137 9.639247139025432e-14
  outer loop
    vertex -96.43769789078179 39.53474724971122 3.5576685835079913
    vertex -93.36099216389391 39.60886063003294 3.9000000000000266
    vertex -93.07502159957504 39.61574924632439 3.5272077938642323
  endloop
endfacet
facet normal -0.024081564439980344 0.9997099970762137 9.639247139025432e-14
  outer loop
    vertex -96.43769789078179 39.53474724971122 3.5576685835079913
    vertex -93.07502159957504 39.61574924632439 3.5272077938642323
    vertex -95.95831492554976 39.54629489032957 2.4000000000000745
  endloop
endfacet
facet normal -0.024081564439980344 0.9997099970762137 9.639247139025432e-14
  outer loop
    vertex -95.95831492554976 39.54629489032957 2.4000000000000745
    vertex -93.07502159957504 39.61574924632439 3.5272077938642323
    vertex -92.70233750426905 39.62472666585918 3.2411542731880267
  endloop
endfacet
facet normal -0.024081564439980344 0.9997099970762137 9.639247139025432e-14
  outer loop
    vertex -95.95831492554976 39.54629489032957 2.4000000000000745
    vertex -92.70233750426905 39.62472666585918 3.2411542731880267
    vertex -92.2683376831813 39.635181092331884 3.0613335126796652
  endloop
endfacet
facet normal -0.024081564439980344 0.9997099970762137 9.639247139025432e-14
  outer loop
    vertex -95.95831492554976 39.54629489032957 2.4000000000000745
    vertex -92.2683376831813 39.635181092331884 3.0613335126796652
    vertex -91.80259850690045 39.646400073855155 2.9999999999999747
  endloop
endfacet
facet normal -0.024081564439980344 0.9997099970762137 9.639247139025432e-14
  outer loop
    vertex -95.95831492554976 39.54629489032957 2.4000000000000745
    vertex -91.80259850690045 39.646400073855155 2.9999999999999747
    vertex -83.6049765308755 39.843868902262805 2.9999999999996647
  endloop
endfacet
facet normal -0.7239299556696205 0.6898734806355302 8.178868853849442e-14
  outer loop
    vertex -79.20614975718756 40.53578662846483 -4.427347377600199e-13
    vertex -78.89837959631599 40.957534085794606 9.599999999999575
    vertex -78.89837959631635 40.95753408579536 -4.427347377600199e-13
  endloop
endfacet
facet normal -0.8778150361052409 0.47899975197024364 7.032811092442716e-14
  outer loop
    vertex -78.89837959631599 40.957534085794606 9.599999999999575
    vertex -79.20614975718756 40.53578662846483 -4.427347377600199e-13
    vertex -79.20614975718722 40.535786628464066 9.59999999999956
  endloop
endfacet
facet normal -0.5207102451059616 0.8537334716653022 8.778531371357104e-14
  outer loop
    vertex -79.61258917831495 40.20806664640524 -4.624745031378551e-13
    vertex -80.08999968482115 39.99670771481033 9.599999999999554
    vertex -79.6125891783146 40.20806664640447 9.599999999999554
  endloop
endfacet
facet normal -0.2820049918527189 0.9594129374623567 8.743914972288134e-14
  outer loop
    vertex -80.08999968482115 39.99670771481033 9.599999999999554
    vertex -79.61258917831495 40.20806664640524 -4.624745031378551e-13
    vertex -80.0899996848215 39.996707714811095 -4.511946372076636e-13
  endloop
endfacet
facet normal -0.8778150361052425 0.4789997519702409 7.032811092442702e-14
  outer loop
    vertex -78.89837959631635 40.95753408579536 -4.427347377600199e-13
    vertex -78.71025272355007 41.44456762614964 9.599999999999595
    vertex -78.71025272355043 41.44456762615041 -4.0889513996944515e-13
  endloop
endfacet
facet normal -0.9718784724881989 0.23548298179275165 5.4544295087296904e-14
  outer loop
    vertex -78.71025272355007 41.44456762614964 9.599999999999595
    vertex -78.89837959631635 40.95753408579536 -4.427347377600199e-13
    vertex -78.89837959631599 40.957534085794606 9.599999999999575
  endloop
endfacet
facet normal -0.7239299556696205 0.6898734806355302 8.178868853849442e-14
  outer loop
    vertex -79.20614975718756 40.53578662846483 -4.427347377600199e-13
    vertex -79.6125891783146 40.20806664640447 9.599999999999554
    vertex -79.20614975718722 40.535786628464066 9.59999999999956
  endloop
endfacet
facet normal -0.5207102451059612 0.8537334716653024 8.778531371357106e-14
  outer loop
    vertex -79.6125891783146 40.20806664640447 9.599999999999554
    vertex -79.20614975718756 40.53578662846483 -4.427347377600199e-13
    vertex -79.61258917831495 40.20806664640524 -4.624745031378551e-13
  endloop
endfacet
facet normal -0.28200499185272004 0.9594129374623565 8.743914972288136e-14
  outer loop
    vertex -80.0899996848215 39.996707714811095 -4.511946372076636e-13
    vertex -80.60584653964663 39.91611359558261 9.59999999999957
    vertex -80.08999968482115 39.99670771481033 9.599999999999554
  endloop
endfacet
facet normal -0.0894141660934217 0.9959945315622061 9.089784644850581e-14
  outer loop
    vertex -80.60584653964663 39.91611359558261 9.59999999999957
    vertex -80.0899996848215 39.996707714811095 -4.511946372076636e-13
    vertex -80.60584653964699 39.91611359558338 -4.342748383123762e-13
  endloop
endfacet
facet normal -0.9718784724881991 0.2354829817927503 5.454429508729681e-14
  outer loop
    vertex -78.71025272355043 41.44456762615041 -4.0889513996944515e-13
    vertex -78.65458967437401 41.96369671861499 9.599999999999632
    vertex -78.65458967437436 41.96369671861574 -3.7223557569632245e-13
  endloop
endfacet
facet normal -0.9991445509044661 0.041354158169558765 4.0197624762081956e-14
  outer loop
    vertex -78.65458967437401 41.96369671861499 9.599999999999632
    vertex -78.71025272355043 41.44456762615041 -4.0889513996944515e-13
    vertex -78.71025272355007 41.44456762614964 9.599999999999595
  endloop
endfacet
endsolid iTopie
