solid iTopie
facet normal -0.49985499853807625 -0.01204078222000685 0.8660254037844562
  outer loop
    vertex -82.58482971130712 34.8669923248777 3.2411542731874654
    vertex -83.13923735459463 39.85508788378607 3.0613335126793157
    vertex -83.01882953239485 34.85653789840501 3.061333512679155
  endloop
endfacet
facet normal -0.25874398682266797 -0.006232767512955308 0.9659258262890792
  outer loop
    vertex -83.13923735459463 39.85508788378607 3.0613335126793157
    vertex -82.58482971130712 34.8669923248777 3.2411542731874654
    vertex -82.7052375335069 39.86554231025876 3.241154273187626
  endloop
endfacet
facet normal 0.49985499853815163 0.012040782219952577 0.8660254037844134
  outer loop
    vertex -92.58192968206924 34.62617668047812 3.24115427318786
    vertex -93.07502159957501 39.61574924632439 3.5272077938642266
    vertex -92.95461377737524 34.61719926094333 3.527207793864066
  endloop
endfacet
facet normal 0.7069017181525934 0.017028237517053454 0.7071067811865294
  outer loop
    vertex -93.07502159957501 39.61574924632439 3.5272077938642266
    vertex -92.58192968206924 34.62617668047812 3.24115427318786
    vertex -92.70233750426902 39.62472666585918 3.241154273188021
  endloop
endfacet
facet normal -0.25874398682273014 -0.006232767512894251 -0.9659258262890631
  outer loop
    vertex -83.1392373545945 39.855087883785956 6.538666487319961
    vertex -82.58482971130697 34.86699232487761 6.35884572681144
    vertex -83.01882953239472 34.856537898404895 6.538666487319801
  endloop
endfacet
facet normal -0.4998549985381491 -0.012040782219952516 -0.8660254037844147
  outer loop
    vertex -82.58482971130697 34.86699232487761 6.35884572681144
    vertex -83.1392373545945 39.855087883785956 6.538666487319961
    vertex -82.70523753350675 39.86554231025867 6.358845726811601
  endloop
endfacet
facet normal -0.8657742538852763 -0.020855246567860555 -0.4999999999999873
  outer loop
    vertex -81.92617505168211 34.88285836070385 5.69999999999944
    vertex -82.33255343820076 39.87451972979345 6.072792206135395
    vertex -82.04658287388189 39.88140834608491 5.6999999999996005
  endloop
endfacet
facet normal -0.7069017181526008 -0.017028237517053634 -0.707106781186522
  outer loop
    vertex -82.33255343820076 39.87451972979345 6.072792206135395
    vertex -81.92617505168211 34.88285836070385 5.69999999999944
    vertex -82.21214561600098 34.87596974441239 6.072792206135234
  endloop
endfacet
facet normal 0.7069017181525288 0.017028237517097693 -0.707106781186593
  outer loop
    vertex -93.07502159957492 39.61574924632431 6.072792206135795
    vertex -92.58192968206909 34.62617668047802 6.358845726811834
    vertex -92.95461377737514 34.61719926094325 6.0727922061356345
  endloop
endfacet
facet normal 0.4998549985380788 0.01204078222000691 -0.8660254037844546
  outer loop
    vertex -92.58192968206909 34.62617668047802 6.358845726811834
    vertex -93.07502159957492 39.61574924632431 6.072792206135795
    vertex -92.70233750426887 39.62472666585908 6.358845726811995
  endloop
endfacet
facet normal 0.9997099970762141 0.024081564439959093 -3.504312138577285e-14
  outer loop
    vertex -93.48166867943776 34.6045032724821 4.7999999999998675
    vertex -93.54076077585589 39.6045302648011 4.3341257188154865
    vertex -93.60207650163754 39.60305325786316 4.800000000000028
  endloop
endfacet
facet normal 0.9656457049752963 0.023261005029992843 0.2588190451024764
  outer loop
    vertex -93.54076077585589 39.6045302648011 4.3341257188154865
    vertex -93.48166867943776 34.6045032724821 4.7999999999998675
    vertex -93.4203529536561 34.60598027942004 4.334125718815326
  endloop
endfacet
facet normal -0.9656457049752777 -0.023261005030009153 0.25881904510254405
  outer loop
    vertex -81.74640643972015 34.887188725935715 4.334125718814894
    vertex -81.80549853613823 39.88721571825469 4.799999999999594
    vertex -81.86681426191993 39.885738711316776 4.334125718815055
  endloop
endfacet
facet normal -0.9997099970762141 -0.024081564439959093 3.504312138577285e-14
  outer loop
    vertex -81.80549853613823 39.88721571825469 4.799999999999594
    vertex -81.74640643972015 34.887188725935715 4.334125718814894
    vertex -81.68509071393846 34.888665732873626 4.799999999999433
  endloop
endfacet
facet normal -0.9656457049752963 -0.023261005029992843 -0.2588190451024764
  outer loop
    vertex -81.7464064397201 34.88718872593569 5.265874281183971
    vertex -82.04658287388189 39.88140834608491 5.6999999999996005
    vertex -81.8668142619199 39.88573871131675 5.265874281184132
  endloop
endfacet
facet normal -0.8657742538852764 -0.020855246567860558 -0.4999999999999866
  outer loop
    vertex -82.04658287388189 39.88140834608491 5.6999999999996005
    vertex -81.7464064397201 34.88718872593569 5.265874281183971
    vertex -81.92617505168211 34.88285836070385 5.69999999999944
  endloop
endfacet
facet normal 0.7069017181525297 0.017028237517097713 -0.7071067811865921
  outer loop
    vertex -92.95461377737514 34.61719926094325 6.0727922061356345
    vertex -93.36099216389383 39.608860630032886 5.700000000000018
    vertex -93.07502159957492 39.61574924632431 6.072792206135795
  endloop
endfacet
facet normal 0.8657742538852403 0.020855246567892068 -0.5000000000000479
  outer loop
    vertex -93.36099216389383 39.608860630032886 5.700000000000018
    vertex -92.95461377737514 34.61719926094325 6.0727922061356345
    vertex -93.24058434169405 34.610310644651825 5.699999999999857
  endloop
endfacet
facet normal 0.25874398682274086 0.006232767512894508 0.9659258262890601
  outer loop
    vertex -92.14792986098149 34.63663110695082 3.061333512679499
    vertex -92.70233750426902 39.62472666585918 3.241154273188021
    vertex -92.58192968206924 34.62617668047812 3.24115427318786
  endloop
endfacet
facet normal 0.4998549985381504 0.012040782219952547 0.866025403784414
  outer loop
    vertex -92.70233750426902 39.62472666585918 3.241154273188021
    vertex -92.14792986098149 34.63663110695082 3.061333512679499
    vertex -92.26833768318127 39.635181092331884 3.06133351267966
  endloop
endfacet
facet normal 0.06538416213140372 0.0015750096711620624 -0.997858923238606
  outer loop
    vertex -91.8025985069003 39.64640007385504 6.599999999999962
    vertex -83.48456870867557 34.84531891688163 6.599999999999492
    vertex -91.68219068470052 34.64785008847398 6.599999999999802
  endloop
endfacet
facet normal -0.06538416213147796 -0.0015750096710992266 -0.9978589232386014
  outer loop
    vertex -83.48456870867557 34.84531891688163 6.599999999999492
    vertex -91.8025985069003 39.64640007385504 6.599999999999962
    vertex -83.60497653087536 39.84386890226269 6.599999999999652
  endloop
endfacet
facet normal 0.8657742538852764 0.020855246567860558 0.4999999999999866
  outer loop
    vertex -93.2405843416941 34.610310644651875 3.8999999999998605
    vertex -93.07502159957501 39.61574924632439 3.5272077938642266
    vertex -93.36099216389388 39.60886063003294 3.9000000000000212
  endloop
endfacet
facet normal 0.7069017181525934 0.017028237517053454 0.7071067811865294
  outer loop
    vertex -93.07502159957501 39.61574924632439 3.5272077938642266
    vertex -93.2405843416941 34.610310644651875 3.8999999999998605
    vertex -92.95461377737524 34.61719926094333 3.527207793864066
  endloop
endfacet
facet normal 0.9656457049752779 0.023261005030009156 -0.25881904510254367
  outer loop
    vertex -93.42035295365606 34.60598027942001 5.265874281184403
    vertex -93.60207650163754 39.60305325786316 4.800000000000028
    vertex -93.54076077585586 39.60453026480107 5.265874281184564
  endloop
endfacet
facet normal 0.9997099970762141 0.024081564439959093 -3.504312138577285e-14
  outer loop
    vertex -93.60207650163754 39.60305325786316 4.800000000000028
    vertex -93.42035295365606 34.60598027942001 5.265874281184403
    vertex -93.48166867943776 34.6045032724821 4.7999999999998675
  endloop
endfacet
facet normal -0.9997099970762141 -0.024081564439959093 3.504312138577285e-14
  outer loop
    vertex -81.68509071393846 34.888665732873626 4.799999999999433
    vertex -81.8668142619199 39.88573871131675 5.265874281184132
    vertex -81.80549853613823 39.88721571825469 4.799999999999594
  endloop
endfacet
facet normal -0.9656457049752966 -0.023261005029992846 -0.258819045102476
  outer loop
    vertex -81.8668142619199 39.88573871131675 5.265874281184132
    vertex -81.68509071393846 34.888665732873626 4.799999999999433
    vertex -81.7464064397201 34.88718872593569 5.265874281183971
  endloop
endfacet
facet normal -0.06538416213147835 -0.001575009671099236 -0.9978589232386011
  outer loop
    vertex -83.60497653087536 39.84386890226269 6.599999999999652
    vertex -83.01882953239472 34.856537898404895 6.538666487319801
    vertex -83.48456870867557 34.84531891688163 6.599999999999492
  endloop
endfacet
facet normal -0.2587439868227287 -0.006232767512894216 -0.9659258262890633
  outer loop
    vertex -83.01882953239472 34.856537898404895 6.538666487319801
    vertex -83.60497653087536 39.84386890226269 6.599999999999652
    vertex -83.1392373545945 39.855087883785956 6.538666487319961
  endloop
endfacet
facet normal -0.06538416213140372 -0.0015750096711620624 0.997858923238606
  outer loop
    vertex -83.4845687086757 34.845318916881745 2.999999999999498
    vertex -91.80259850690042 39.646400073855155 2.999999999999969
    vertex -91.68219068470064 34.647850088474094 2.9999999999998086
  endloop
endfacet
facet normal 0.06538416213147796 0.0015750096710992266 0.9978589232386014
  outer loop
    vertex -91.80259850690042 39.646400073855155 2.999999999999969
    vertex -83.4845687086757 34.845318916881745 2.999999999999498
    vertex -83.60497653087548 39.843868902262805 2.999999999999659
  endloop
endfacet
facet normal 0.2587439868226773 0.006232767512955532 -0.9659258262890769
  outer loop
    vertex -92.26833768318116 39.63518109233178 6.538666487320306
    vertex -91.68219068470052 34.64785008847398 6.599999999999802
    vertex -92.14792986098136 34.636631106950716 6.538666487320145
  endloop
endfacet
facet normal 0.06538416213140412 0.0015750096711620721 -0.997858923238606
  outer loop
    vertex -91.68219068470052 34.64785008847398 6.599999999999802
    vertex -92.26833768318116 39.63518109233178 6.538666487320306
    vertex -91.8025985069003 39.64640007385504 6.599999999999962
  endloop
endfacet
facet normal 0.4998549985380777 0.012040782220006882 -0.8660254037844552
  outer loop
    vertex -92.70233750426887 39.62472666585908 6.358845726811995
    vertex -92.14792986098136 34.636631106950716 6.538666487320145
    vertex -92.58192968206909 34.62617668047802 6.358845726811834
  endloop
endfacet
facet normal 0.2587439868226787 0.006232767512955566 -0.9659258262890764
  outer loop
    vertex -92.14792986098136 34.636631106950716 6.538666487320145
    vertex -92.70233750426887 39.62472666585908 6.358845726811995
    vertex -92.26833768318116 39.63518109233178 6.538666487320306
  endloop
endfacet
facet normal -0.7069017181525356 -0.017028237517097856 0.7071067811865862
  outer loop
    vertex -82.21214561600108 34.87596974441247 3.5272077938636657
    vertex -82.7052375335069 39.86554231025876 3.241154273187626
    vertex -82.58482971130712 34.8669923248777 3.2411542731874654
  endloop
endfacet
facet normal -0.4998549985380776 -0.01204078222000688 0.8660254037844555
  outer loop
    vertex -82.7052375335069 39.86554231025876 3.241154273187626
    vertex -82.21214561600108 34.87596974441247 3.5272077938636657
    vertex -82.33255343820085 39.87451972979353 3.5272077938638264
  endloop
endfacet
facet normal -0.7069017181525356 -0.017028237517097856 0.7071067811865862
  outer loop
    vertex -82.21214561600108 34.87596974441247 3.5272077938636657
    vertex -82.04658287388196 39.88140834608497 3.899999999999604
    vertex -82.33255343820085 39.87451972979353 3.5272077938638264
  endloop
endfacet
facet normal -0.8657742538852407 -0.020855246567892075 0.5000000000000473
  outer loop
    vertex -82.04658287388196 39.88140834608497 3.899999999999604
    vertex -82.21214561600108 34.87596974441247 3.5272077938636657
    vertex -81.92617505168216 34.882858360703906 3.899999999999443
  endloop
endfacet
facet normal 0.9656457049752966 0.023261005029992846 0.258819045102476
  outer loop
    vertex -93.4203529536561 34.60598027942004 4.334125718815326
    vertex -93.36099216389388 39.60886063003294 3.9000000000000212
    vertex -93.54076077585589 39.6045302648011 4.3341257188154865
  endloop
endfacet
facet normal 0.8657742538852763 0.020855246567860555 0.4999999999999873
  outer loop
    vertex -93.36099216389388 39.60886063003294 3.9000000000000212
    vertex -93.4203529536561 34.60598027942004 4.334125718815326
    vertex -93.2405843416941 34.610310644651875 3.8999999999998605
  endloop
endfacet
facet normal 0.06538416213147835 0.001575009671099236 0.9978589232386011
  outer loop
    vertex -91.68219068470064 34.647850088474094 2.9999999999998086
    vertex -92.26833768318127 39.635181092331884 3.06133351267966
    vertex -92.14792986098149 34.63663110695082 3.061333512679499
  endloop
endfacet
facet normal 0.25874398682273947 0.006232767512894475 0.9659258262890605
  outer loop
    vertex -92.26833768318127 39.635181092331884 3.06133351267966
    vertex -91.68219068470064 34.647850088474094 2.9999999999998086
    vertex -91.80259850690042 39.646400073855155 2.999999999999969
  endloop
endfacet
facet normal 0.8657742538852407 0.020855246567892075 -0.5000000000000473
  outer loop
    vertex -93.24058434169405 34.610310644651825 5.699999999999857
    vertex -93.54076077585586 39.60453026480107 5.265874281184564
    vertex -93.36099216389383 39.608860630032886 5.700000000000018
  endloop
endfacet
facet normal 0.9656457049752777 0.023261005030009153 -0.25881904510254405
  outer loop
    vertex -93.54076077585586 39.60453026480107 5.265874281184564
    vertex -93.24058434169405 34.610310644651825 5.699999999999857
    vertex -93.42035295365606 34.60598027942001 5.265874281184403
  endloop
endfacet
facet normal -0.4998549985381502 -0.012040782219952542 -0.8660254037844142
  outer loop
    vertex -82.70523753350675 39.86554231025867 6.358845726811601
    vertex -82.21214561600098 34.87596974441239 6.072792206135234
    vertex -82.58482971130697 34.86699232487761 6.35884572681144
  endloop
endfacet
facet normal -0.7069017181526001 -0.017028237517053613 -0.7071067811865228
  outer loop
    vertex -82.21214561600098 34.87596974441239 6.072792206135234
    vertex -82.70523753350675 39.86554231025867 6.358845726811601
    vertex -82.33255343820076 39.87451972979345 6.072792206135395
  endloop
endfacet
facet normal -0.8657742538852403 -0.020855246567892068 0.5000000000000479
  outer loop
    vertex -81.92617505168216 34.882858360703906 3.899999999999443
    vertex -81.86681426191993 39.885738711316776 4.334125718815055
    vertex -82.04658287388196 39.88140834608497 3.899999999999604
  endloop
endfacet
facet normal -0.9656457049752779 -0.023261005030009156 0.25881904510254367
  outer loop
    vertex -81.86681426191993 39.885738711316776 4.334125718815055
    vertex -81.92617505168216 34.882858360703906 3.899999999999443
    vertex -81.74640643972015 34.887188725935715 4.334125718814894
  endloop
endfacet
facet normal -0.2587439868226665 -0.006232767512955273 0.9659258262890796
  outer loop
    vertex -83.01882953239485 34.85653789840501 3.061333512679155
    vertex -83.60497653087548 39.843868902262805 2.999999999999659
    vertex -83.4845687086757 34.845318916881745 2.999999999999498
  endloop
endfacet
facet normal -0.06538416213140412 -0.0015750096711620721 0.997858923238606
  outer loop
    vertex -83.60497653087548 39.843868902262805 2.999999999999659
    vertex -83.01882953239485 34.85653789840501 3.061333512679155
    vertex -83.13923735459463 39.85508788378607 3.0613335126793157
  endloop
endfacet
facet normal -0.25874398682267225 -0.006232767513020635 0.9659258262890776
  outer loop
    vertex -92.92416182144913 34.61793280441214 9.436443966187035
    vertex -91.8025985069002 39.64640007385495 9.599999999999913
    vertex -93.04456964364917 39.61648278979283 9.436443966187468
  endloop
endfacet
facet normal -0.06538416213141729 -0.001575009671207607 0.9978589232386051
  outer loop
    vertex -91.8025985069002 39.64640007385495 9.599999999999913
    vertex -92.92416182144913 34.61793280441214 9.436443966187035
    vertex -91.68219068470015 34.64785008847425 9.59999999999948
  endloop
endfacet
facet normal -0.49985499853807297 -0.012040782220079262 0.8660254037844569
  outer loop
    vertex -94.08149467768308 34.590054333818244 8.95692193816487
    vertex -93.04456964364917 39.61648278979283 9.436443966187468
    vertex -94.20190249988312 39.588604319198936 8.956921938165303
  endloop
endfacet
facet normal -0.25874398682266975 -0.006232767513020574 0.9659258262890784
  outer loop
    vertex -93.04456964364917 39.61648278979283 9.436443966187468
    vertex -94.08149467768308 34.590054333818244 8.95692193816487
    vertex -92.92416182144913 34.61793280441214 9.436443966187035
  endloop
endfacet
facet normal -0.7069017181525473 -0.017028237517174055 0.7071067811865724
  outer loop
    vertex -95.07531893183253 34.5661145483922 8.194112549695015
    vertex -94.20190249988312 39.588604319198936 8.956921938165303
    vertex -95.19572675403258 39.56466453377288 8.194112549695449
  endloop
endfacet
facet normal -0.4998549985380719 -0.012040782220079236 0.8660254037844578
  outer loop
    vertex -94.20190249988312 39.588604319198936 8.956921938165303
    vertex -95.07531893183253 34.5661145483922 8.194112549695015
    vertex -94.08149467768308 34.590054333818244 8.95692193816487
  endloop
endfacet
facet normal -0.8657742538852438 -0.020855246567966317 0.5000000000000392
  outer loop
    vertex -95.83790710334951 34.5477449049484 7.199999999999629
    vertex -95.19572675403258 39.56466453377288 8.194112549695449
    vertex -95.95831492554954 39.54629489032909 7.20000000000006
  endloop
endfacet
facet normal -0.7069017181525473 -0.017028237517174055 0.7071067811865724
  outer loop
    vertex -95.19572675403258 39.56466453377288 8.194112549695449
    vertex -95.83790710334951 34.5477449049484 7.199999999999629
    vertex -95.07531893183253 34.5661145483922 8.194112549695015
  endloop
endfacet
facet normal -0.9656457049752734 -0.023261005030076415 0.25881904510255416
  outer loop
    vertex -96.31729006858164 34.53619726433028 6.042331416491746
    vertex -95.95831492554954 39.54629489032909 7.20000000000006
    vertex -96.43769789078168 39.53474724971097 6.0423314164921775
  endloop
endfacet
facet normal -0.8657742538852441 -0.020855246567966324 0.5000000000000386
  outer loop
    vertex -95.95831492554954 39.54629489032909 7.20000000000006
    vertex -96.31729006858164 34.53619726433028 6.042331416491746
    vertex -95.83790710334951 34.5477449049484 7.199999999999629
  endloop
endfacet
facet normal -0.9997099970762128 -0.02408156444001503 3.582729905658797e-14
  outer loop
    vertex -96.48079867066613 34.532258579162594 4.799999999999655
    vertex -96.43769789078168 39.53474724971097 6.0423314164921775
    vertex -96.60120649286618 39.530808564543285 4.800000000000087
  endloop
endfacet
facet normal -0.9656457049752738 -0.023261005030076422 0.25881904510255305
  outer loop
    vertex -96.43769789078168 39.53474724971097 6.0423314164921775
    vertex -96.48079867066613 34.532258579162594 4.799999999999655
    vertex -96.31729006858164 34.53619726433028 6.042331416491746
  endloop
endfacet
facet normal -0.9656457049752931 -0.02326100503003353 -0.2588190451024847
  outer loop
    vertex -96.31729006858173 34.536197264330525 3.5576685835075543
    vertex -96.60120649286618 39.530808564543285 4.800000000000087
    vertex -96.43769789078178 39.53474724971122 3.5576685835079855
  endloop
endfacet
facet normal -0.9997099970762128 -0.02408156444001503 3.3884677099336944e-14
  outer loop
    vertex -96.60120649286618 39.530808564543285 4.800000000000087
    vertex -96.31729006858173 34.536197264330525 3.5576685835075543
    vertex -96.48079867066613 34.532258579162594 4.799999999999655
  endloop
endfacet
facet normal -0.8657742538852818 -0.020855246567883467 -0.4999999999999763
  outer loop
    vertex -95.83790710334969 34.547744904948864 2.39999999999966
    vertex -96.43769789078178 39.53474724971122 3.5576685835079855
    vertex -95.95831492554973 39.54629489032957 2.4000000000000687
  endloop
endfacet
facet normal -0.9656457049752923 -0.023261005030033508 -0.2588190451024876
  outer loop
    vertex -96.43769789078178 39.53474724971122 3.5576685835079855
    vertex -95.83790710334969 34.547744904948864 2.39999999999966
    vertex -96.31729006858173 34.536197264330525 3.5576685835075543
  endloop
endfacet
facet normal -0.7069017181525987 -0.017028237517056823 -0.7071067811865239
  outer loop
    vertex -95.07531893183278 34.56611454839286 1.4058874503042207
    vertex -95.95831492554973 39.54629489032957 2.4000000000000687
    vertex -95.19572675403283 39.56466453377356 1.4058874503046297
  endloop
endfacet
facet normal -0.8657742538852798 -0.020855246567883415 -0.49999999999998007
  outer loop
    vertex -95.95831492554973 39.54629489032957 2.4000000000000687
    vertex -95.07531893183278 34.56611454839286 1.4058874503042207
    vertex -95.83790710334969 34.547744904948864 2.39999999999966
  endloop
endfacet
facet normal -0.4998549985381356 -0.012040782219935667 -0.8660254037844228
  outer loop
    vertex -94.20190249988343 39.58860431919976 0.6430780618347288
    vertex -95.07531893183278 34.56611454839286 1.4058874503042207
    vertex -95.19572675403283 39.56466453377356 1.4058874503046297
  endloop
endfacet
facet normal -0.7069017181525987 -0.017028237517056823 -0.7071067811865239
  outer loop
    vertex -95.07531893183278 34.56611454839286 1.4058874503042207
    vertex -94.20190249988343 39.58860431919976 0.6430780618347288
    vertex -94.08149467768338 34.59005433381907 0.6430780618342974
  endloop
endfacet
facet normal -0.25874398682274036 -0.006232767512858799 -0.9659258262890604
  outer loop
    vertex -93.04456964364952 39.61648278979376 0.16355603381245776
    vertex -94.08149467768338 34.59005433381907 0.6430780618342974
    vertex -94.20190249988343 39.58860431919976 0.6430780618347288
  endloop
endfacet
facet normal -0.4998549985381391 -0.012040782219935752 -0.8660254037844208
  outer loop
    vertex -94.08149467768338 34.59005433381907 0.6430780618342974
    vertex -93.04456964364952 39.61648278979376 0.16355603381245776
    vertex -92.92416182144947 34.617932804413066 0.1635560338120263
  endloop
endfacet
facet normal -0.06538416213147753 -0.0015750096710618411 -0.9978589232386013
  outer loop
    vertex -91.80259850690055 39.6464000738559 -4.7939430203314254e-14
    vertex -92.92416182144947 34.617932804413066 0.1635560338120263
    vertex -93.04456964364952 39.61648278979376 0.16355603381245776
  endloop
endfacet
facet normal -0.25874398682274424 -0.006232767512858893 -0.9659258262890595
  outer loop
    vertex -92.92416182144947 34.617932804413066 0.1635560338120263
    vertex -91.80259850690055 39.6464000738559 -4.7939430203314254e-14
    vertex -91.6821906847005 34.64785008847521 -4.793943020331426e-13
  endloop
endfacet
facet normal 0.024081564439978713 -0.9997099970762137 -9.745498068214171e-14
  outer loop
    vertex -96.31729006858164 34.53619726433028 6.042331416491746
    vertex -91.68219068470052 34.64785008847398 6.599999999999802
    vertex -95.83790710334951 34.5477449049484 7.199999999999629
  endloop
endfacet
facet normal 0.024081564439978713 -0.9997099970762137 -9.745498068214171e-14
  outer loop
    vertex -91.68219068470052 34.64785008847398 6.599999999999802
    vertex -96.31729006858164 34.53619726433028 6.042331416491746
    vertex -92.14792986098136 34.636631106950716 6.538666487320145
  endloop
endfacet
facet normal 0.024081564439978713 -0.9997099970762137 -9.745498068214171e-14
  outer loop
    vertex -92.14792986098136 34.636631106950716 6.538666487320145
    vertex -96.31729006858164 34.53619726433028 6.042331416491746
    vertex -92.58192968206909 34.62617668047802 6.358845726811834
  endloop
endfacet
facet normal 0.024081564439978713 -0.9997099970762137 -9.745498068214171e-14
  outer loop
    vertex -92.58192968206909 34.62617668047802 6.358845726811834
    vertex -96.31729006858164 34.53619726433028 6.042331416491746
    vertex -92.95461377737514 34.61719926094325 6.0727922061356345
  endloop
endfacet
facet normal 0.024081564439978713 -0.9997099970762137 -9.745498068214171e-14
  outer loop
    vertex -92.95461377737514 34.61719926094325 6.0727922061356345
    vertex -96.31729006858164 34.53619726433028 6.042331416491746
    vertex -93.24058434169405 34.610310644651825 5.699999999999857
  endloop
endfacet
facet normal 0.024081564439978713 -0.9997099970762137 -9.745498068214171e-14
  outer loop
    vertex -93.24058434169405 34.610310644651825 5.699999999999857
    vertex -96.31729006858164 34.53619726433028 6.042331416491746
    vertex -96.48079867066613 34.532258579162594 4.799999999999655
  endloop
endfacet
facet normal 0.024081564439978713 -0.9997099970762137 -9.745498068214171e-14
  outer loop
    vertex -93.24058434169405 34.610310644651825 5.699999999999857
    vertex -96.48079867066613 34.532258579162594 4.799999999999655
    vertex -93.42035295365606 34.60598027942001 5.265874281184403
  endloop
endfacet
facet normal 0.024081564439978713 -0.9997099970762137 -9.745498068214171e-14
  outer loop
    vertex -93.42035295365606 34.60598027942001 5.265874281184403
    vertex -96.48079867066613 34.532258579162594 4.799999999999655
    vertex -93.48166867943776 34.6045032724821 4.7999999999998675
  endloop
endfacet
facet normal 0.024081564439978713 -0.9997099970762137 -9.745498068214171e-14
  outer loop
    vertex -93.48166867943776 34.6045032724821 4.7999999999998675
    vertex -96.48079867066613 34.532258579162594 4.799999999999655
    vertex -93.4203529536561 34.60598027942004 4.334125718815326
  endloop
endfacet
facet normal 0.024081564439978713 -0.9997099970762137 -9.745498068214171e-14
  outer loop
    vertex -93.4203529536561 34.60598027942004 4.334125718815326
    vertex -96.48079867066613 34.532258579162594 4.799999999999655
    vertex -96.31729006858173 34.536197264330525 3.5576685835075543
  endloop
endfacet
facet normal 0.024081564439978713 -0.9997099970762137 -9.745498068214171e-14
  outer loop
    vertex -93.4203529536561 34.60598027942004 4.334125718815326
    vertex -96.31729006858173 34.536197264330525 3.5576685835075543
    vertex -93.2405843416941 34.610310644651875 3.8999999999998605
  endloop
endfacet
facet normal 0.024081564439978713 -0.9997099970762137 -9.745498068214171e-14
  outer loop
    vertex -93.2405843416941 34.610310644651875 3.8999999999998605
    vertex -96.31729006858173 34.536197264330525 3.5576685835075543
    vertex -92.95461377737524 34.61719926094333 3.527207793864066
  endloop
endfacet
facet normal 0.024081564439978713 -0.9997099970762137 -9.745498068214171e-14
  outer loop
    vertex -92.95461377737524 34.61719926094333 3.527207793864066
    vertex -96.31729006858173 34.536197264330525 3.5576685835075543
    vertex -95.83790710334969 34.547744904948864 2.39999999999966
  endloop
endfacet
facet normal 0.024081564439978713 -0.9997099970762137 -9.745498068214171e-14
  outer loop
    vertex -92.95461377737524 34.61719926094333 3.527207793864066
    vertex -95.83790710334969 34.547744904948864 2.39999999999966
    vertex -92.58192968206924 34.62617668047812 3.24115427318786
  endloop
endfacet
facet normal 0.024081564439978713 -0.9997099970762137 -9.745498068214171e-14
  outer loop
    vertex -92.58192968206924 34.62617668047812 3.24115427318786
    vertex -95.83790710334969 34.547744904948864 2.39999999999966
    vertex -92.14792986098149 34.63663110695082 3.061333512679499
  endloop
endfacet
facet normal 0.024081564439978713 -0.9997099970762137 -9.745498068214171e-14
  outer loop
    vertex -92.14792986098149 34.63663110695082 3.061333512679499
    vertex -95.83790710334969 34.547744904948864 2.39999999999966
    vertex -91.68219068470064 34.647850088474094 2.9999999999998086
  endloop
endfacet
facet normal 0.024081564439978713 -0.9997099970762137 -9.745498068214171e-14
  outer loop
    vertex -91.68219068470064 34.647850088474094 2.9999999999998086
    vertex -95.83790710334969 34.547744904948864 2.39999999999966
    vertex -83.4845687086757 34.845318916881745 2.999999999999498
  endloop
endfacet
facet normal 0.024081564439978713 -0.9997099970762137 -9.745498068214171e-14
  outer loop
    vertex -74.48717873498931 35.062052996841956 9.599999999999168
    vertex -82.21214561600098 34.87596974441239 6.072792206135234
    vertex -74.48717873498964 35.06205299684245 -8.347100788341777e-13
  endloop
endfacet
facet normal 0.024081564439978713 -0.9997099970762137 -9.745498068214171e-14
  outer loop
    vertex -82.21214561600098 34.87596974441239 6.072792206135234
    vertex -74.48717873498931 35.062052996841956 9.599999999999168
    vertex -82.58482971130697 34.86699232487761 6.35884572681144
  endloop
endfacet
facet normal 0.024081564439978713 -0.9997099970762137 -9.745498068214171e-14
  outer loop
    vertex -82.58482971130697 34.86699232487761 6.35884572681144
    vertex -74.48717873498931 35.062052996841956 9.599999999999168
    vertex -83.01882953239472 34.856537898404895 6.538666487319801
  endloop
endfacet
facet normal 0.024081564439978713 -0.9997099970762137 -9.745498068214171e-14
  outer loop
    vertex -83.01882953239472 34.856537898404895 6.538666487319801
    vertex -74.48717873498931 35.062052996841956 9.599999999999168
    vertex -91.68219068470015 34.64785008847425 9.59999999999948
  endloop
endfacet
facet normal 0.024081564439978713 -0.9997099970762137 -9.745498068214171e-14
  outer loop
    vertex -83.01882953239472 34.856537898404895 6.538666487319801
    vertex -91.68219068470015 34.64785008847425 9.59999999999948
    vertex -92.92416182144913 34.61793280441214 9.436443966187035
  endloop
endfacet
facet normal 0.024081564439978713 -0.9997099970762137 -9.745498068214171e-14
  outer loop
    vertex -83.01882953239472 34.856537898404895 6.538666487319801
    vertex -92.92416182144913 34.61793280441214 9.436443966187035
    vertex -94.08149467768308 34.590054333818244 8.95692193816487
  endloop
endfacet
facet normal 0.024081564439978713 -0.9997099970762137 -9.745498068214171e-14
  outer loop
    vertex -83.01882953239472 34.856537898404895 6.538666487319801
    vertex -94.08149467768308 34.590054333818244 8.95692193816487
    vertex -95.07531893183253 34.5661145483922 8.194112549695015
  endloop
endfacet
facet normal 0.024081564439978713 -0.9997099970762137 -9.745498068214171e-14
  outer loop
    vertex -83.01882953239472 34.856537898404895 6.538666487319801
    vertex -95.07531893183253 34.5661145483922 8.194112549695015
    vertex -83.48456870867557 34.84531891688163 6.599999999999492
  endloop
endfacet
facet normal 0.024081564439978713 -0.9997099970762137 -9.745498068214171e-14
  outer loop
    vertex -83.48456870867557 34.84531891688163 6.599999999999492
    vertex -95.07531893183253 34.5661145483922 8.194112549695015
    vertex -95.83790710334951 34.5477449049484 7.199999999999629
  endloop
endfacet
facet normal 0.024081564439978713 -0.9997099970762137 -9.745498068214171e-14
  outer loop
    vertex -83.48456870867557 34.84531891688163 6.599999999999492
    vertex -95.83790710334951 34.5477449049484 7.199999999999629
    vertex -91.68219068470052 34.64785008847398 6.599999999999802
  endloop
endfacet
facet normal 0.024081564439978713 -0.9997099970762137 -9.745498068214171e-14
  outer loop
    vertex -74.48717873498964 35.06205299684245 -8.347100788341777e-13
    vertex -82.21214561600098 34.87596974441239 6.072792206135234
    vertex -81.92617505168211 34.88285836070385 5.69999999999944
  endloop
endfacet
facet normal 0.024081564439978713 -0.9997099970762137 -9.745498068214171e-14
  outer loop
    vertex -74.48717873498964 35.06205299684245 -8.347100788341777e-13
    vertex -81.92617505168211 34.88285836070385 5.69999999999944
    vertex -81.7464064397201 34.88718872593569 5.265874281183971
  endloop
endfacet
facet normal 0.024081564439978713 -0.9997099970762137 -9.745498068214171e-14
  outer loop
    vertex -74.48717873498964 35.06205299684245 -8.347100788341777e-13
    vertex -81.7464064397201 34.88718872593569 5.265874281183971
    vertex -81.68509071393846 34.888665732873626 4.799999999999433
  endloop
endfacet
facet normal 0.024081564439978713 -0.9997099970762137 -9.745498068214171e-14
  outer loop
    vertex -74.48717873498964 35.06205299684245 -8.347100788341777e-13
    vertex -81.68509071393846 34.888665732873626 4.799999999999433
    vertex -81.74640643972015 34.887188725935715 4.334125718814894
  endloop
endfacet
facet normal 0.024081564439978713 -0.9997099970762137 -9.745498068214171e-14
  outer loop
    vertex -74.48717873498964 35.06205299684245 -8.347100788341777e-13
    vertex -81.74640643972015 34.887188725935715 4.334125718814894
    vertex -81.92617505168216 34.882858360703906 3.899999999999443
  endloop
endfacet
facet normal 0.024081564439978713 -0.9997099970762137 -9.745498068214171e-14
  outer loop
    vertex -74.48717873498964 35.06205299684245 -8.347100788341777e-13
    vertex -81.92617505168216 34.882858360703906 3.899999999999443
    vertex -82.21214561600108 34.87596974441247 3.5272077938636657
  endloop
endfacet
facet normal 0.024081564439978713 -0.9997099970762137 -9.745498068214171e-14
  outer loop
    vertex -74.48717873498964 35.06205299684245 -8.347100788341777e-13
    vertex -82.21214561600108 34.87596974441247 3.5272077938636657
    vertex -82.58482971130712 34.8669923248777 3.2411542731874654
  endloop
endfacet
facet normal 0.024081564439978713 -0.9997099970762137 -9.745498068214171e-14
  outer loop
    vertex -74.48717873498964 35.06205299684245 -8.347100788341777e-13
    vertex -82.58482971130712 34.8669923248777 3.2411542731874654
    vertex -83.01882953239485 34.85653789840501 3.061333512679155
  endloop
endfacet
facet normal 0.024081564439978713 -0.9997099970762137 -9.745498068214171e-14
  outer loop
    vertex -74.48717873498964 35.06205299684245 -8.347100788341777e-13
    vertex -83.01882953239485 34.85653789840501 3.061333512679155
    vertex -83.4845687086757 34.845318916881745 2.999999999999498
  endloop
endfacet
facet normal 0.024081564439978713 -0.9997099970762137 -9.745498068214171e-14
  outer loop
    vertex -74.48717873498964 35.06205299684245 -8.347100788341777e-13
    vertex -83.4845687086757 34.845318916881745 2.999999999999498
    vertex -95.83790710334969 34.547744904948864 2.39999999999966
  endloop
endfacet
facet normal 0.024081564439978713 -0.9997099970762137 -9.745498068214171e-14
  outer loop
    vertex -74.48717873498964 35.06205299684245 -8.347100788341777e-13
    vertex -95.83790710334969 34.547744904948864 2.39999999999966
    vertex -95.07531893183278 34.56611454839286 1.4058874503042207
  endloop
endfacet
facet normal 0.024081564439978713 -0.9997099970762137 -9.745498068214171e-14
  outer loop
    vertex -74.48717873498964 35.06205299684245 -8.347100788341777e-13
    vertex -95.07531893183278 34.56611454839286 1.4058874503042207
    vertex -94.08149467768338 34.59005433381907 0.6430780618342974
  endloop
endfacet
facet normal 0.024081564439978713 -0.9997099970762137 -9.745498068214171e-14
  outer loop
    vertex -74.48717873498964 35.06205299684245 -8.347100788341777e-13
    vertex -94.08149467768338 34.59005433381907 0.6430780618342974
    vertex -92.92416182144947 34.617932804413066 0.1635560338120263
  endloop
endfacet
facet normal 0.024081564439978713 -0.9997099970762137 -9.745498068214171e-14
  outer loop
    vertex -74.48717873498964 35.06205299684245 -8.347100788341777e-13
    vertex -92.92416182144947 34.617932804413066 0.1635560338120263
    vertex -91.6821906847005 34.64785008847521 -4.793943020331426e-13
  endloop
endfacet
facet normal -0.06538416213141653 -0.0015750096712075885 0.9978589232386051
  outer loop
    vertex -91.68219068470015 34.64785008847425 9.59999999999948
    vertex -80.6058465396466 39.91611359558261 9.599999999999564
    vertex -91.8025985069002 39.64640007385495 9.599999999999913
  endloop
endfacet
facet normal 2.603204113665248e-14 -6.156451211288152e-14 1.0
  outer loop
    vertex -80.6058465396466 39.91611359558261 9.599999999999564
    vertex -91.68219068470015 34.64785008847425 9.59999999999948
    vertex -74.48717873498931 35.062052996841956 9.599999999999168
  endloop
endfacet
facet normal 2.603204113665248e-14 -6.156451211288152e-14 1.0
  outer loop
    vertex -80.6058465396466 39.91611359558261 9.599999999999564
    vertex -74.48717873498931 35.062052996841956 9.599999999999168
    vertex -80.08999968482112 39.99670771481033 9.599999999999548
  endloop
endfacet
facet normal 2.603204113665248e-14 -6.156451211288152e-14 1.0
  outer loop
    vertex -80.08999968482112 39.99670771481033 9.599999999999548
    vertex -74.48717873498931 35.062052996841956 9.599999999999168
    vertex -79.61258917831458 40.20806664640447 9.599999999999548
  endloop
endfacet
facet normal 2.603204113665248e-14 -6.156451211288152e-14 1.0
  outer loop
    vertex -79.61258917831458 40.20806664640447 9.599999999999548
    vertex -74.48717873498931 35.062052996841956 9.599999999999168
    vertex -79.20614975718719 40.535786628464066 9.599999999999556
  endloop
endfacet
facet normal 2.603204113665248e-14 -6.156451211288152e-14 1.0
  outer loop
    vertex -79.20614975718719 40.535786628464066 9.599999999999556
    vertex -74.48717873498931 35.062052996841956 9.599999999999168
    vertex -78.89837959631596 40.957534085794606 9.59999999999957
  endloop
endfacet
facet normal 2.603204113665248e-14 -6.156451211288152e-14 1.0
  outer loop
    vertex -78.89837959631596 40.957534085794606 9.59999999999957
    vertex -74.48717873498931 35.062052996841956 9.599999999999168
    vertex -78.71025272355006 41.44456762614964 9.59999999999959
  endloop
endfacet
facet normal 2.603204113665248e-14 -6.156451211288152e-14 1.0
  outer loop
    vertex -78.71025272355006 41.44456762614964 9.59999999999959
    vertex -74.48717873498931 35.062052996841956 9.599999999999168
    vertex -78.65458967437398 41.96369671861499 9.599999999999625
  endloop
endfacet
facet normal 2.603204113665248e-14 -6.156451211288152e-14 1.0
  outer loop
    vertex -78.65458967437398 41.96369671861499 9.599999999999625
    vertex -74.48717873498931 35.062052996841956 9.599999999999168
    vertex -78.84724218989325 49.961376695224715 9.600000000000167
  endloop
endfacet
facet normal 2.603204113665248e-14 -6.156451211288152e-14 1.0
  outer loop
    vertex -78.84724218989325 49.961376695224715 9.600000000000167
    vertex -74.48717873498931 35.062052996841956 9.599999999999168
    vertex -74.84840220158819 50.05770295298447 9.600000000000028
  endloop
endfacet
facet normal -2.897771900257474e-14 6.15495738588001e-14 -1.0
  outer loop
    vertex -80.60584653964696 39.91611359558338 -4.39914771277472e-13
    vertex -91.6821906847005 34.64785008847521 -4.793943020331426e-13
    vertex -91.80259850690055 39.6464000738559 -4.7939430203314254e-14
  endloop
endfacet
facet normal -0.06538416213147608 -0.001575009671061806 -0.9978589232386015
  outer loop
    vertex -91.6821906847005 34.64785008847521 -4.793943020331426e-13
    vertex -80.60584653964696 39.91611359558338 -4.39914771277472e-13
    vertex -74.48717873498964 35.06205299684245 -8.347100788341777e-13
  endloop
endfacet
facet normal -2.897771900257474e-14 6.15495738588001e-14 -1.0
  outer loop
    vertex -74.48717873498964 35.06205299684245 -8.347100788341777e-13
    vertex -80.60584653964696 39.91611359558338 -4.39914771277472e-13
    vertex -80.08999968482149 39.996707714811095 -4.568345701727594e-13
  endloop
endfacet
facet normal -2.897771900257474e-14 6.15495738588001e-14 -1.0
  outer loop
    vertex -74.48717873498964 35.06205299684245 -8.347100788341777e-13
    vertex -80.08999968482149 39.996707714811095 -4.568345701727594e-13
    vertex -79.61258917831493 40.20806664640524 -4.68114436102951e-13
  endloop
endfacet
facet normal -2.897771900257474e-14 6.15495738588001e-14 -1.0
  outer loop
    vertex -74.48717873498964 35.06205299684245 -8.347100788341777e-13
    vertex -79.61258917831493 40.20806664640524 -4.68114436102951e-13
    vertex -79.20614975718755 40.53578662846483 -4.483746707251157e-13
  endloop
endfacet
facet normal -2.897771900257474e-14 6.15495738588001e-14 -1.0
  outer loop
    vertex -74.48717873498964 35.06205299684245 -8.347100788341777e-13
    vertex -79.20614975718755 40.53578662846483 -4.483746707251157e-13
    vertex -78.89837959631632 40.95753408579536 -4.483746707251157e-13
  endloop
endfacet
facet normal -2.897771900257474e-14 6.15495738588001e-14 -1.0
  outer loop
    vertex -74.48717873498964 35.06205299684245 -8.347100788341777e-13
    vertex -78.89837959631632 40.95753408579536 -4.483746707251157e-13
    vertex -78.7102527235504 41.44456762615041 -4.145350729345409e-13
  endloop
endfacet
facet normal -2.897771900257474e-14 6.15495738588001e-14 -1.0
  outer loop
    vertex -74.48717873498964 35.06205299684245 -8.347100788341777e-13
    vertex -78.7102527235504 41.44456762615041 -4.145350729345409e-13
    vertex -78.65458967437434 41.96369671861574 -3.7787550866141827e-13
  endloop
endfacet
facet normal -2.897771900257474e-14 6.15495738588001e-14 -1.0
  outer loop
    vertex -74.48717873498964 35.06205299684245 -8.347100788341777e-13
    vertex -78.65458967437434 41.96369671861574 -3.7787550866141827e-13
    vertex -78.84724218989362 49.96137669522548 1.5227819005758646e-13
  endloop
endfacet
facet normal -2.897771900257474e-14 6.15495738588001e-14 -1.0
  outer loop
    vertex -74.48717873498964 35.06205299684245 -8.347100788341777e-13
    vertex -78.84724218989362 49.96137669522548 1.5227819005758646e-13
    vertex -74.84840220158853 50.057702952984975 3.3839597790574766e-14
  endloop
endfacet
facet normal 0.999709997076214 0.024081564439965564 -3.504312138577264e-14
  outer loop
    vertex -74.84840220158819 50.05770295298447 9.600000000000028
    vertex -74.48717873498964 35.06205299684245 -8.347100788341777e-13
    vertex -74.84840220158853 50.057702952984975 3.3839597790574766e-14
  endloop
endfacet
facet normal 0.999709997076214 0.024081564439965564 -3.504312138577264e-14
  outer loop
    vertex -74.48717873498964 35.06205299684245 -8.347100788341777e-13
    vertex -74.84840220158819 50.05770295298447 9.600000000000028
    vertex -74.48717873498931 35.062052996841956 9.599999999999168
  endloop
endfacet
facet normal -0.024081564439904952 0.9997099970762154 6.703415865189518e-14
  outer loop
    vertex -74.84840220158853 50.057702952984975 3.3839597790574766e-14
    vertex -78.84724218989325 49.961376695224715 9.600000000000167
    vertex -74.84840220158819 50.05770295298447 9.600000000000028
  endloop
endfacet
facet normal -0.024081564439904952 0.9997099970762154 6.703415865189518e-14
  outer loop
    vertex -78.84724218989325 49.961376695224715 9.600000000000167
    vertex -74.84840220158853 50.057702952984975 3.3839597790574766e-14
    vertex -78.84724218989362 49.96137669522548 1.5227819005758646e-13
  endloop
endfacet
facet normal -0.9991445509044662 0.04135415816955809 4.019762476208196e-14
  outer loop
    vertex -78.65458967437434 41.96369671861574 -3.7787550866141827e-13
    vertex -78.84724218989325 49.961376695224715 9.600000000000167
    vertex -78.84724218989362 49.96137669522548 1.5227819005758646e-13
  endloop
endfacet
facet normal -0.9997099970762153 -0.024081564439909182 3.504312138577715e-14
  outer loop
    vertex -78.84724218989325 49.961376695224715 9.600000000000167
    vertex -78.65458967437434 41.96369671861574 -3.7787550866141827e-13
    vertex -78.65458967437398 41.96369671861499 9.599999999999625
  endloop
endfacet
facet normal -0.0894141660934217 0.9959945315622061 9.089784644850581e-14
  outer loop
    vertex -80.6058465396466 39.91611359558261 9.599999999999564
    vertex -83.1392373545945 39.855087883785956 6.538666487319961
    vertex -91.8025985069002 39.64640007385495 9.599999999999913
  endloop
endfacet
facet normal -0.024081564439980344 0.9997099970762137 9.639247139025432e-14
  outer loop
    vertex -83.1392373545945 39.855087883785956 6.538666487319961
    vertex -80.6058465396466 39.91611359558261 9.599999999999564
    vertex -82.70523753350675 39.86554231025867 6.358845726811601
  endloop
endfacet
facet normal -0.024081564439980344 0.9997099970762137 9.639247139025432e-14
  outer loop
    vertex -82.70523753350675 39.86554231025867 6.358845726811601
    vertex -80.6058465396466 39.91611359558261 9.599999999999564
    vertex -82.33255343820076 39.87451972979345 6.072792206135395
  endloop
endfacet
facet normal -0.024081564439980344 0.9997099970762137 9.639247139025432e-14
  outer loop
    vertex -82.33255343820076 39.87451972979345 6.072792206135395
    vertex -80.6058465396466 39.91611359558261 9.599999999999564
    vertex -82.04658287388189 39.88140834608491 5.6999999999996005
  endloop
endfacet
facet normal -0.024081564439980344 0.9997099970762137 9.639247139025432e-14
  outer loop
    vertex -82.04658287388189 39.88140834608491 5.6999999999996005
    vertex -80.6058465396466 39.91611359558261 9.599999999999564
    vertex -81.8668142619199 39.88573871131675 5.265874281184132
  endloop
endfacet
facet normal -0.024081564439980344 0.9997099970762137 9.639247139025432e-14
  outer loop
    vertex -81.8668142619199 39.88573871131675 5.265874281184132
    vertex -80.6058465396466 39.91611359558261 9.599999999999564
    vertex -80.60584653964696 39.91611359558338 -4.39914771277472e-13
  endloop
endfacet
facet normal -0.024081564439980344 0.9997099970762137 9.639247139025432e-14
  outer loop
    vertex -91.8025985069002 39.64640007385495 9.599999999999913
    vertex -83.1392373545945 39.855087883785956 6.538666487319961
    vertex -93.04456964364917 39.61648278979283 9.436443966187468
  endloop
endfacet
facet normal -0.024081564439980344 0.9997099970762137 9.639247139025432e-14
  outer loop
    vertex -93.04456964364917 39.61648278979283 9.436443966187468
    vertex -83.1392373545945 39.855087883785956 6.538666487319961
    vertex -94.20190249988312 39.588604319198936 8.956921938165303
  endloop
endfacet
facet normal -0.024081564439980344 0.9997099970762137 9.639247139025432e-14
  outer loop
    vertex -94.20190249988312 39.588604319198936 8.956921938165303
    vertex -83.1392373545945 39.855087883785956 6.538666487319961
    vertex -95.19572675403258 39.56466453377288 8.194112549695449
  endloop
endfacet
facet normal -0.024081564439980344 0.9997099970762137 9.639247139025432e-14
  outer loop
    vertex -95.19572675403258 39.56466453377288 8.194112549695449
    vertex -83.1392373545945 39.855087883785956 6.538666487319961
    vertex -83.60497653087536 39.84386890226269 6.599999999999652
  endloop
endfacet
facet normal -0.024081564439980344 0.9997099970762137 9.639247139025432e-14
  outer loop
    vertex -95.19572675403258 39.56466453377288 8.194112549695449
    vertex -83.60497653087536 39.84386890226269 6.599999999999652
    vertex -95.95831492554954 39.54629489032909 7.20000000000006
  endloop
endfacet
facet normal -0.024081564439980344 0.9997099970762137 9.639247139025432e-14
  outer loop
    vertex -95.95831492554954 39.54629489032909 7.20000000000006
    vertex -83.60497653087536 39.84386890226269 6.599999999999652
    vertex -91.8025985069003 39.64640007385504 6.599999999999962
  endloop
endfacet
facet normal -0.024081564439980344 0.9997099970762137 9.639247139025432e-14
  outer loop
    vertex -81.8668142619199 39.88573871131675 5.265874281184132
    vertex -80.60584653964696 39.91611359558338 -4.39914771277472e-13
    vertex -81.80549853613823 39.88721571825469 4.799999999999594
  endloop
endfacet
facet normal -0.024081564439980344 0.9997099970762137 9.639247139025432e-14
  outer loop
    vertex -81.80549853613823 39.88721571825469 4.799999999999594
    vertex -80.60584653964696 39.91611359558338 -4.39914771277472e-13
    vertex -81.86681426191993 39.885738711316776 4.334125718815055
  endloop
endfacet
facet normal -0.024081564439980344 0.9997099970762137 9.639247139025432e-14
  outer loop
    vertex -81.86681426191993 39.885738711316776 4.334125718815055
    vertex -80.60584653964696 39.91611359558338 -4.39914771277472e-13
    vertex -82.04658287388196 39.88140834608497 3.899999999999604
  endloop
endfacet
facet normal -0.024081564439980344 0.9997099970762137 9.639247139025432e-14
  outer loop
    vertex -82.04658287388196 39.88140834608497 3.899999999999604
    vertex -80.60584653964696 39.91611359558338 -4.39914771277472e-13
    vertex -82.33255343820085 39.87451972979353 3.5272077938638264
  endloop
endfacet
facet normal -0.024081564439980344 0.9997099970762137 9.639247139025432e-14
  outer loop
    vertex -82.33255343820085 39.87451972979353 3.5272077938638264
    vertex -80.60584653964696 39.91611359558338 -4.39914771277472e-13
    vertex -82.7052375335069 39.86554231025876 3.241154273187626
  endloop
endfacet
facet normal -0.024081564439980344 0.9997099970762137 9.639247139025432e-14
  outer loop
    vertex -82.7052375335069 39.86554231025876 3.241154273187626
    vertex -80.60584653964696 39.91611359558338 -4.39914771277472e-13
    vertex -83.13923735459463 39.85508788378607 3.0613335126793157
  endloop
endfacet
facet normal -0.024081564439980344 0.9997099970762137 9.639247139025432e-14
  outer loop
    vertex -83.13923735459463 39.85508788378607 3.0613335126793157
    vertex -80.60584653964696 39.91611359558338 -4.39914771277472e-13
    vertex -83.60497653087548 39.843868902262805 2.999999999999659
  endloop
endfacet
facet normal -0.024081564439980344 0.9997099970762137 9.639247139025432e-14
  outer loop
    vertex -83.60497653087548 39.843868902262805 2.999999999999659
    vertex -80.60584653964696 39.91611359558338 -4.39914771277472e-13
    vertex -95.95831492554973 39.54629489032957 2.4000000000000687
  endloop
endfacet
facet normal -0.024081564439980344 0.9997099970762137 9.639247139025432e-14
  outer loop
    vertex -95.95831492554973 39.54629489032957 2.4000000000000687
    vertex -80.60584653964696 39.91611359558338 -4.39914771277472e-13
    vertex -95.19572675403283 39.56466453377356 1.4058874503046297
  endloop
endfacet
facet normal -0.024081564439980344 0.9997099970762137 9.639247139025432e-14
  outer loop
    vertex -95.19572675403283 39.56466453377356 1.4058874503046297
    vertex -80.60584653964696 39.91611359558338 -4.39914771277472e-13
    vertex -94.20190249988343 39.58860431919976 0.6430780618347288
  endloop
endfacet
facet normal -0.024081564439980344 0.9997099970762137 9.639247139025432e-14
  outer loop
    vertex -94.20190249988343 39.58860431919976 0.6430780618347288
    vertex -80.60584653964696 39.91611359558338 -4.39914771277472e-13
    vertex -93.04456964364952 39.61648278979376 0.16355603381245776
  endloop
endfacet
facet normal -0.024081564439980344 0.9997099970762137 9.639247139025432e-14
  outer loop
    vertex -93.04456964364952 39.61648278979376 0.16355603381245776
    vertex -80.60584653964696 39.91611359558338 -4.39914771277472e-13
    vertex -91.80259850690055 39.6464000738559 -4.7939430203314254e-14
  endloop
endfacet
facet normal -0.024081564439980344 0.9997099970762137 9.639247139025432e-14
  outer loop
    vertex -91.8025985069003 39.64640007385504 6.599999999999962
    vertex -96.43769789078168 39.53474724971097 6.0423314164921775
    vertex -95.95831492554954 39.54629489032909 7.20000000000006
  endloop
endfacet
facet normal -0.024081564439980344 0.9997099970762137 9.639247139025432e-14
  outer loop
    vertex -96.43769789078168 39.53474724971097 6.0423314164921775
    vertex -91.8025985069003 39.64640007385504 6.599999999999962
    vertex -92.26833768318116 39.63518109233178 6.538666487320306
  endloop
endfacet
facet normal -0.024081564439980344 0.9997099970762137 9.639247139025432e-14
  outer loop
    vertex -96.43769789078168 39.53474724971097 6.0423314164921775
    vertex -92.26833768318116 39.63518109233178 6.538666487320306
    vertex -92.70233750426887 39.62472666585908 6.358845726811995
  endloop
endfacet
facet normal -0.024081564439980344 0.9997099970762137 9.639247139025432e-14
  outer loop
    vertex -96.43769789078168 39.53474724971097 6.0423314164921775
    vertex -92.70233750426887 39.62472666585908 6.358845726811995
    vertex -93.07502159957492 39.61574924632431 6.072792206135795
  endloop
endfacet
facet normal -0.024081564439980344 0.9997099970762137 9.639247139025432e-14
  outer loop
    vertex -96.43769789078168 39.53474724971097 6.0423314164921775
    vertex -93.07502159957492 39.61574924632431 6.072792206135795
    vertex -93.36099216389383 39.608860630032886 5.700000000000018
  endloop
endfacet
facet normal -0.024081564439980344 0.9997099970762137 9.639247139025432e-14
  outer loop
    vertex -96.43769789078168 39.53474724971097 6.0423314164921775
    vertex -93.36099216389383 39.608860630032886 5.700000000000018
    vertex -96.60120649286618 39.530808564543285 4.800000000000087
  endloop
endfacet
facet normal -0.024081564439980344 0.9997099970762137 9.639247139025432e-14
  outer loop
    vertex -96.60120649286618 39.530808564543285 4.800000000000087
    vertex -93.36099216389383 39.608860630032886 5.700000000000018
    vertex -93.54076077585586 39.60453026480107 5.265874281184564
  endloop
endfacet
facet normal -0.024081564439980344 0.9997099970762137 9.639247139025432e-14
  outer loop
    vertex -96.60120649286618 39.530808564543285 4.800000000000087
    vertex -93.54076077585586 39.60453026480107 5.265874281184564
    vertex -93.60207650163754 39.60305325786316 4.800000000000028
  endloop
endfacet
facet normal -0.024081564439980344 0.9997099970762137 9.639247139025432e-14
  outer loop
    vertex -96.60120649286618 39.530808564543285 4.800000000000087
    vertex -93.60207650163754 39.60305325786316 4.800000000000028
    vertex -93.54076077585589 39.6045302648011 4.3341257188154865
  endloop
endfacet
facet normal -0.024081564439980344 0.9997099970762137 9.639247139025432e-14
  outer loop
    vertex -96.60120649286618 39.530808564543285 4.800000000000087
    vertex -93.54076077585589 39.6045302648011 4.3341257188154865
    vertex -96.43769789078178 39.53474724971122 3.5576685835079855
  endloop
endfacet
facet normal -0.024081564439980344 0.9997099970762137 9.639247139025432e-14
  outer loop
    vertex -96.43769789078178 39.53474724971122 3.5576685835079855
    vertex -93.54076077585589 39.6045302648011 4.3341257188154865
    vertex -93.36099216389388 39.60886063003294 3.9000000000000212
  endloop
endfacet
facet normal -0.024081564439980344 0.9997099970762137 9.639247139025432e-14
  outer loop
    vertex -96.43769789078178 39.53474724971122 3.5576685835079855
    vertex -93.36099216389388 39.60886063003294 3.9000000000000212
    vertex -93.07502159957501 39.61574924632439 3.5272077938642266
  endloop
endfacet
facet normal -0.024081564439980344 0.9997099970762137 9.639247139025432e-14
  outer loop
    vertex -96.43769789078178 39.53474724971122 3.5576685835079855
    vertex -93.07502159957501 39.61574924632439 3.5272077938642266
    vertex -95.95831492554973 39.54629489032957 2.4000000000000687
  endloop
endfacet
facet normal -0.024081564439980344 0.9997099970762137 9.639247139025432e-14
  outer loop
    vertex -95.95831492554973 39.54629489032957 2.4000000000000687
    vertex -93.07502159957501 39.61574924632439 3.5272077938642266
    vertex -92.70233750426902 39.62472666585918 3.241154273188021
  endloop
endfacet
facet normal -0.024081564439980344 0.9997099970762137 9.639247139025432e-14
  outer loop
    vertex -95.95831492554973 39.54629489032957 2.4000000000000687
    vertex -92.70233750426902 39.62472666585918 3.241154273188021
    vertex -92.26833768318127 39.635181092331884 3.06133351267966
  endloop
endfacet
facet normal -0.024081564439980344 0.9997099970762137 9.639247139025432e-14
  outer loop
    vertex -95.95831492554973 39.54629489032957 2.4000000000000687
    vertex -92.26833768318127 39.635181092331884 3.06133351267966
    vertex -91.80259850690042 39.646400073855155 2.999999999999969
  endloop
endfacet
facet normal -0.024081564439980344 0.9997099970762137 9.639247139025432e-14
  outer loop
    vertex -95.95831492554973 39.54629489032957 2.4000000000000687
    vertex -91.80259850690042 39.646400073855155 2.999999999999969
    vertex -83.60497653087548 39.843868902262805 2.999999999999659
  endloop
endfacet
facet normal -0.7239299556696205 0.6898734806355302 8.178868853849447e-14
  outer loop
    vertex -79.20614975718755 40.53578662846483 -4.483746707251157e-13
    vertex -78.89837959631596 40.957534085794606 9.59999999999957
    vertex -78.89837959631632 40.95753408579536 -4.483746707251157e-13
  endloop
endfacet
facet normal -0.8778150361052409 0.47899975197024364 7.032811092442721e-14
  outer loop
    vertex -78.89837959631596 40.957534085794606 9.59999999999957
    vertex -79.20614975718755 40.53578662846483 -4.483746707251157e-13
    vertex -79.20614975718719 40.535786628464066 9.599999999999556
  endloop
endfacet
facet normal -0.5207102451059616 0.8537334716653022 8.778531371357106e-14
  outer loop
    vertex -79.61258917831493 40.20806664640524 -4.68114436102951e-13
    vertex -80.08999968482112 39.99670771481033 9.599999999999548
    vertex -79.61258917831458 40.20806664640447 9.599999999999548
  endloop
endfacet
facet normal -0.2820049918527189 0.9594129374623567 8.743914972288134e-14
  outer loop
    vertex -80.08999968482112 39.99670771481033 9.599999999999548
    vertex -79.61258917831493 40.20806664640524 -4.68114436102951e-13
    vertex -80.08999968482149 39.996707714811095 -4.568345701727594e-13
  endloop
endfacet
facet normal -0.8778150361052425 0.4789997519702409 7.032811092442704e-14
  outer loop
    vertex -78.89837959631632 40.95753408579536 -4.483746707251157e-13
    vertex -78.71025272355006 41.44456762614964 9.59999999999959
    vertex -78.7102527235504 41.44456762615041 -4.145350729345409e-13
  endloop
endfacet
facet normal -0.9718784724881989 0.23548298179275165 5.4544295087296954e-14
  outer loop
    vertex -78.71025272355006 41.44456762614964 9.59999999999959
    vertex -78.89837959631632 40.95753408579536 -4.483746707251157e-13
    vertex -78.89837959631596 40.957534085794606 9.59999999999957
  endloop
endfacet
facet normal -0.7239299556696205 0.6898734806355302 8.178868853849447e-14
  outer loop
    vertex -79.20614975718755 40.53578662846483 -4.483746707251157e-13
    vertex -79.61258917831458 40.20806664640447 9.599999999999548
    vertex -79.20614975718719 40.535786628464066 9.599999999999556
  endloop
endfacet
facet normal -0.5207102451059612 0.8537334716653024 8.778531371357109e-14
  outer loop
    vertex -79.61258917831458 40.20806664640447 9.599999999999548
    vertex -79.20614975718755 40.53578662846483 -4.483746707251157e-13
    vertex -79.61258917831493 40.20806664640524 -4.68114436102951e-13
  endloop
endfacet
facet normal -0.28200499185272004 0.9594129374623565 8.743914972288136e-14
  outer loop
    vertex -80.08999968482149 39.996707714811095 -4.568345701727594e-13
    vertex -80.6058465396466 39.91611359558261 9.599999999999564
    vertex -80.08999968482112 39.99670771481033 9.599999999999548
  endloop
endfacet
facet normal -0.0894141660934217 0.9959945315622061 9.089784644850581e-14
  outer loop
    vertex -80.6058465396466 39.91611359558261 9.599999999999564
    vertex -80.08999968482149 39.996707714811095 -4.568345701727594e-13
    vertex -80.60584653964696 39.91611359558338 -4.39914771277472e-13
  endloop
endfacet
facet normal -0.9718784724881991 0.2354829817927503 5.454429508729686e-14
  outer loop
    vertex -78.7102527235504 41.44456762615041 -4.145350729345409e-13
    vertex -78.65458967437398 41.96369671861499 9.599999999999625
    vertex -78.65458967437434 41.96369671861574 -3.7787550866141827e-13
  endloop
endfacet
facet normal -0.9991445509044662 0.04135415816955878 4.0197624762082006e-14
  outer loop
    vertex -78.65458967437398 41.96369671861499 9.599999999999625
    vertex -78.7102527235504 41.44456762615041 -4.145350729345409e-13
    vertex -78.71025272355006 41.44456762614964 9.59999999999959
  endloop
endfacet
endsolid iTopie
