solid Extruder
facet normal 5.1684437394752055e-16 -1.0 0.0
  outer loop
    vertex 142.04999748415193 99.72500038147261 1.0000000000003129
    vertex 139.20298798802418 100.09981629229284 3.130162795628166e-13
    vertex 142.04999748415193 99.72500038147261 3.130162795628166e-13
  endloop
endfacet
facet normal -0.2588190451025208 -0.9659258262890684 0.0
  outer loop
    vertex 139.20298798802418 100.09981629229284 3.130162795628166e-13
    vertex 142.04999748415193 99.72500038147261 1.0000000000003129
    vertex 139.20298798802418 100.09981629229284 1.0000000000003129
  endloop
endfacet
facet normal 0.0 -1.0 0.0
  outer loop
    vertex 142.04999748415193 117.72500038147261 1.0000000000003129
    vertex 140.23826416843428 117.4864811654961 3.1442626280409057e-13
    vertex 142.04999748415193 117.72500038147261 3.1442626280409057e-13
  endloop
endfacet
facet normal 0.25881904510252085 -0.9659258262890684 0.0
  outer loop
    vertex 140.23826416843428 117.4864811654961 3.1442626280409057e-13
    vertex 142.04999748415193 117.72500038147261 1.0000000000003129
    vertex 140.23826416843428 117.4864811654961 1.0000000000003129
  endloop
endfacet
facet normal 0.0 0.0 -1.0
  outer loop
    vertex 131.42481339497218 113.57200987760035 3.130162795628166e-13
    vertex 131.42481339497218 107.87799088534487 3.130162795628166e-13
    vertex 131.04999748415193 110.72500038147261 3.130162795628166e-13
  endloop
endfacet
facet normal 0.0 0.0 -1.0
  outer loop
    vertex 131.42481339497218 107.87799088534487 3.130162795628166e-13
    vertex 131.42481339497218 113.57200987760035 3.130162795628166e-13
    vertex 132.52371804252311 116.22500038147263 3.130162795628166e-13
  endloop
endfacet
facet normal 0.0 0.0 -1.0
  outer loop
    vertex 131.42481339497218 107.87799088534487 3.130162795628166e-13
    vertex 132.52371804252311 116.22500038147263 3.130162795628166e-13
    vertex 132.5237180425231 105.2250003814726 3.130162795628166e-13
  endloop
endfacet
facet normal 0.0 0.0 -1.0
  outer loop
    vertex 132.5237180425231 105.2250003814726 3.130162795628166e-13
    vertex 132.52371804252311 116.22500038147263 3.130162795628166e-13
    vertex 134.2718228910999 102.94682578842058 3.130162795628166e-13
  endloop
endfacet
facet normal 0.0 0.0 -1.0
  outer loop
    vertex 134.2718228910999 102.94682578842058 3.130162795628166e-13
    vertex 132.52371804252311 116.22500038147263 3.130162795628166e-13
    vertex 134.2718228910999 118.50317497452463 3.130162795628166e-13
  endloop
endfacet
facet normal 0.0 0.0 -1.0
  outer loop
    vertex 134.2718228910999 102.94682578842058 3.130162795628166e-13
    vertex 134.2718228910999 118.50317497452463 3.130162795628166e-13
    vertex 135.0499974841519 110.72500038147261 3.1442626280409057e-13
  endloop
endfacet
facet normal 0.0 0.0 -1.0
  outer loop
    vertex 135.0499974841519 110.72500038147261 3.1442626280409057e-13
    vertex 134.2718228910999 118.50317497452463 3.130162795628166e-13
    vertex 135.28851670012844 112.53673369719026 3.1442626280409057e-13
  endloop
endfacet
facet normal 0.0 0.0 -1.0
  outer loop
    vertex 135.28851670012844 112.53673369719026 3.1442626280409057e-13
    vertex 134.2718228910999 118.50317497452463 3.130162795628166e-13
    vertex 136.54999748415193 120.25127982310144 3.130162795628166e-13
  endloop
endfacet
facet normal 0.0 0.0 -1.0
  outer loop
    vertex 135.28851670012844 112.53673369719026 3.1442626280409057e-13
    vertex 136.54999748415193 120.25127982310144 3.130162795628166e-13
    vertex 135.98781965766085 114.22500038147263 3.1442626280409057e-13
  endloop
endfacet
facet normal 0.0 0.0 -1.0
  outer loop
    vertex 135.98781965766085 114.22500038147263 3.1442626280409057e-13
    vertex 136.54999748415193 120.25127982310144 3.130162795628166e-13
    vertex 137.1002500158461 115.67474784977846 3.1442626280409057e-13
  endloop
endfacet
facet normal 0.0 0.0 -1.0
  outer loop
    vertex 137.1002500158461 115.67474784977846 3.1442626280409057e-13
    vertex 136.54999748415193 120.25127982310144 3.130162795628166e-13
    vertex 139.2029879880242 121.35018447065237 3.130162795628166e-13
  endloop
endfacet
facet normal 0.0 0.0 -1.0
  outer loop
    vertex 137.1002500158461 115.67474784977846 3.1442626280409057e-13
    vertex 139.2029879880242 121.35018447065237 3.130162795628166e-13
    vertex 138.5499974841519 116.78717820796369 3.1442626280409057e-13
  endloop
endfacet
facet normal 0.0 0.0 -1.0
  outer loop
    vertex 138.5499974841519 116.78717820796369 3.1442626280409057e-13
    vertex 139.2029879880242 121.35018447065237 3.130162795628166e-13
    vertex 140.23826416843428 117.4864811654961 3.1442626280409057e-13
  endloop
endfacet
facet normal 0.0 0.0 -1.0
  outer loop
    vertex 140.23826416843428 117.4864811654961 3.1442626280409057e-13
    vertex 139.2029879880242 121.35018447065237 3.130162795628166e-13
    vertex 142.04999748415193 121.72500038147261 3.130162795628166e-13
  endloop
endfacet
facet normal 0.0 0.0 -1.0
  outer loop
    vertex 140.23826416843428 117.4864811654961 3.1442626280409057e-13
    vertex 142.04999748415193 121.72500038147261 3.130162795628166e-13
    vertex 142.04999748415193 117.72500038147261 3.1442626280409057e-13
  endloop
endfacet
facet normal 0.0 0.0 -1.0
  outer loop
    vertex 142.04999748415193 117.72500038147261 3.1442626280409057e-13
    vertex 142.04999748415193 121.72500038147261 3.130162795628166e-13
    vertex 144.89700698027966 121.35018447065237 3.130162795628166e-13
  endloop
endfacet
facet normal 0.0 0.0 -1.0
  outer loop
    vertex 142.04999748415193 117.72500038147261 3.1442626280409057e-13
    vertex 144.89700698027966 121.35018447065237 3.130162795628166e-13
    vertex 143.86173079986958 117.4864811654961 3.1442626280409057e-13
  endloop
endfacet
facet normal 0.0 0.0 -1.0
  outer loop
    vertex 143.86173079986958 117.4864811654961 3.1442626280409057e-13
    vertex 144.89700698027966 121.35018447065237 3.130162795628166e-13
    vertex 145.5499974841519 116.78717820796369 3.1442626280409057e-13
  endloop
endfacet
facet normal 0.0 0.0 -1.0
  outer loop
    vertex 145.5499974841519 116.78717820796369 3.1442626280409057e-13
    vertex 144.89700698027966 121.35018447065237 3.130162795628166e-13
    vertex 147.54999748415193 120.25127982310143 3.130162795628166e-13
  endloop
endfacet
facet normal 0.0 0.0 -1.0
  outer loop
    vertex 145.5499974841519 116.78717820796369 3.1442626280409057e-13
    vertex 147.54999748415193 120.25127982310143 3.130162795628166e-13
    vertex 146.99974495245777 115.67474784977846 3.1442626280409057e-13
  endloop
endfacet
facet normal 0.0 0.0 -1.0
  outer loop
    vertex 146.99974495245777 115.67474784977846 3.1442626280409057e-13
    vertex 147.54999748415193 120.25127982310143 3.130162795628166e-13
    vertex 148.112175310643 114.22500038147263 3.1442626280409057e-13
  endloop
endfacet
facet normal 0.0 0.0 -1.0
  outer loop
    vertex 148.112175310643 114.22500038147263 3.1442626280409057e-13
    vertex 147.54999748415193 120.25127982310143 3.130162795628166e-13
    vertex 149.82817207720393 118.50317497452463 3.130162795628166e-13
  endloop
endfacet
facet normal 0.0 0.0 -1.0
  outer loop
    vertex 148.112175310643 114.22500038147263 3.1442626280409057e-13
    vertex 149.82817207720393 118.50317497452463 3.130162795628166e-13
    vertex 148.81147826817542 112.53673369719026 3.1442626280409057e-13
  endloop
endfacet
facet normal 0.0 0.0 -1.0
  outer loop
    vertex 148.81147826817542 112.53673369719026 3.1442626280409057e-13
    vertex 149.82817207720393 118.50317497452463 3.130162795628166e-13
    vertex 149.04999748415193 110.72500038147261 3.1442626280409057e-13
  endloop
endfacet
facet normal 0.0 0.0 -1.0
  outer loop
    vertex 134.2718228910999 102.94682578842058 3.130162795628166e-13
    vertex 135.28851670012844 108.91326706575497 3.1442626280409057e-13
    vertex 136.5499974841519 101.19872093984378 3.130162795628166e-13
  endloop
endfacet
facet normal 0.0 0.0 -1.0
  outer loop
    vertex 135.28851670012844 108.91326706575497 3.1442626280409057e-13
    vertex 134.2718228910999 102.94682578842058 3.130162795628166e-13
    vertex 135.0499974841519 110.72500038147261 3.1442626280409057e-13
  endloop
endfacet
facet normal 0.0 0.0 -1.0
  outer loop
    vertex 136.5499974841519 101.19872093984378 3.130162795628166e-13
    vertex 135.28851670012844 108.91326706575497 3.1442626280409057e-13
    vertex 135.98781965766085 107.2250003814726 3.1442626280409057e-13
  endloop
endfacet
facet normal 0.0 0.0 -1.0
  outer loop
    vertex 136.5499974841519 101.19872093984378 3.130162795628166e-13
    vertex 135.98781965766085 107.2250003814726 3.1442626280409057e-13
    vertex 137.1002500158461 105.77525291316677 3.1442626280409057e-13
  endloop
endfacet
facet normal 0.0 0.0 -1.0
  outer loop
    vertex 136.5499974841519 101.19872093984378 3.130162795628166e-13
    vertex 137.1002500158461 105.77525291316677 3.1442626280409057e-13
    vertex 139.20298798802418 100.09981629229284 3.130162795628166e-13
  endloop
endfacet
facet normal 0.0 0.0 -1.0
  outer loop
    vertex 139.20298798802418 100.09981629229284 3.130162795628166e-13
    vertex 137.1002500158461 105.77525291316677 3.1442626280409057e-13
    vertex 138.54999748415193 104.66282255498153 3.1442626280409057e-13
  endloop
endfacet
facet normal 0.0 0.0 -1.0
  outer loop
    vertex 139.20298798802418 100.09981629229284 3.130162795628166e-13
    vertex 138.54999748415193 104.66282255498153 3.1442626280409057e-13
    vertex 140.23826416843428 103.96351959744912 3.1442626280409057e-13
  endloop
endfacet
facet normal 0.0 0.0 -1.0
  outer loop
    vertex 139.20298798802418 100.09981629229284 3.130162795628166e-13
    vertex 140.23826416843428 103.96351959744912 3.1442626280409057e-13
    vertex 142.04999748415193 99.72500038147261 3.130162795628166e-13
  endloop
endfacet
facet normal 0.0 0.0 -1.0
  outer loop
    vertex 142.04999748415193 99.72500038147261 3.130162795628166e-13
    vertex 140.23826416843428 103.96351959744912 3.1442626280409057e-13
    vertex 142.04999748415193 103.7250003814726 3.1442626280409057e-13
  endloop
endfacet
facet normal 0.0 0.0 -1.0
  outer loop
    vertex 142.04999748415193 99.72500038147261 3.130162795628166e-13
    vertex 142.04999748415193 103.7250003814726 3.1442626280409057e-13
    vertex 143.86173079986958 103.96351959744912 3.1442626280409057e-13
  endloop
endfacet
facet normal 0.0 0.0 -1.0
  outer loop
    vertex 142.04999748415193 99.72500038147261 3.130162795628166e-13
    vertex 143.86173079986958 103.96351959744912 3.1442626280409057e-13
    vertex 144.89700698027963 100.09981629229284 3.130162795628166e-13
  endloop
endfacet
facet normal 0.0 0.0 -1.0
  outer loop
    vertex 144.89700698027963 100.09981629229284 3.130162795628166e-13
    vertex 143.86173079986958 103.96351959744912 3.1442626280409057e-13
    vertex 145.54999748415193 104.66282255498153 3.1442626280409057e-13
  endloop
endfacet
facet normal 0.0 0.0 -1.0
  outer loop
    vertex 144.89700698027963 100.09981629229284 3.130162795628166e-13
    vertex 145.54999748415193 104.66282255498153 3.1442626280409057e-13
    vertex 147.5499974841519 101.19872093984378 3.130162795628166e-13
  endloop
endfacet
facet normal 0.0 0.0 -1.0
  outer loop
    vertex 147.5499974841519 101.19872093984378 3.130162795628166e-13
    vertex 145.54999748415193 104.66282255498153 3.1442626280409057e-13
    vertex 146.99974495245777 105.77525291316677 3.1442626280409057e-13
  endloop
endfacet
facet normal 0.0 0.0 -1.0
  outer loop
    vertex 147.5499974841519 101.19872093984378 3.130162795628166e-13
    vertex 146.99974495245777 105.77525291316677 3.1442626280409057e-13
    vertex 148.112175310643 107.2250003814726 3.1442626280409057e-13
  endloop
endfacet
facet normal 0.0 0.0 -1.0
  outer loop
    vertex 147.5499974841519 101.19872093984378 3.130162795628166e-13
    vertex 148.112175310643 107.2250003814726 3.1442626280409057e-13
    vertex 149.82817207720393 102.94682578842058 3.130162795628166e-13
  endloop
endfacet
facet normal 0.0 0.0 -1.0
  outer loop
    vertex 149.82817207720393 102.94682578842058 3.130162795628166e-13
    vertex 148.112175310643 107.2250003814726 3.1442626280409057e-13
    vertex 148.81147826817542 108.91326706575497 3.1442626280409057e-13
  endloop
endfacet
facet normal 0.0 0.0 -1.0
  outer loop
    vertex 149.82817207720393 102.94682578842058 3.130162795628166e-13
    vertex 148.81147826817542 108.91326706575497 3.1442626280409057e-13
    vertex 149.04999748415193 110.72500038147261 3.1442626280409057e-13
  endloop
endfacet
facet normal 0.0 0.0 -1.0
  outer loop
    vertex 149.82817207720393 102.94682578842058 3.130162795628166e-13
    vertex 149.04999748415193 110.72500038147261 3.1442626280409057e-13
    vertex 149.82817207720393 118.50317497452463 3.130162795628166e-13
  endloop
endfacet
facet normal 0.0 0.0 -1.0
  outer loop
    vertex 149.82817207720393 102.94682578842058 3.130162795628166e-13
    vertex 149.82817207720393 118.50317497452463 3.130162795628166e-13
    vertex 151.57627692578075 116.2250003814726 3.130162795628166e-13
  endloop
endfacet
facet normal 0.0 0.0 -1.0
  outer loop
    vertex 149.82817207720393 102.94682578842058 3.130162795628166e-13
    vertex 151.57627692578075 116.2250003814726 3.130162795628166e-13
    vertex 151.57627692578075 105.2250003814726 3.130162795628166e-13
  endloop
endfacet
facet normal 0.0 0.0 -1.0
  outer loop
    vertex 151.57627692578075 105.2250003814726 3.130162795628166e-13
    vertex 151.57627692578075 116.2250003814726 3.130162795628166e-13
    vertex 152.67518157333168 113.57200987760032 3.130162795628166e-13
  endloop
endfacet
facet normal 0.0 0.0 -1.0
  outer loop
    vertex 151.57627692578075 105.2250003814726 3.130162795628166e-13
    vertex 152.67518157333168 113.57200987760032 3.130162795628166e-13
    vertex 152.67518157333168 107.87799088534487 3.130162795628166e-13
  endloop
endfacet
facet normal 0.0 0.0 -1.0
  outer loop
    vertex 152.67518157333168 107.87799088534487 3.130162795628166e-13
    vertex 152.67518157333168 113.57200987760032 3.130162795628166e-13
    vertex 153.04999748415193 110.72500038147261 3.130162795628166e-13
  endloop
endfacet
facet normal 0.0 0.0 1.0
  outer loop
    vertex 131.42481339497218 107.87799088534487 1.0000000000003129
    vertex 131.42481339497218 113.57200987760035 1.0000000000003129
    vertex 131.04999748415193 110.72500038147261 1.0000000000003129
  endloop
endfacet
facet normal 0.0 0.0 1.0
  outer loop
    vertex 131.42481339497218 113.57200987760035 1.0000000000003129
    vertex 131.42481339497218 107.87799088534487 1.0000000000003129
    vertex 132.5237180425231 105.2250003814726 1.0000000000003129
  endloop
endfacet
facet normal 0.0 0.0 1.0
  outer loop
    vertex 131.42481339497218 113.57200987760035 1.0000000000003129
    vertex 132.5237180425231 105.2250003814726 1.0000000000003129
    vertex 132.52371804252311 116.22500038147263 1.0000000000003129
  endloop
endfacet
facet normal 0.0 0.0 1.0
  outer loop
    vertex 132.52371804252311 116.22500038147263 1.0000000000003129
    vertex 132.5237180425231 105.2250003814726 1.0000000000003129
    vertex 134.2718228910999 102.94682578842058 1.0000000000003129
  endloop
endfacet
facet normal 0.0 0.0 1.0
  outer loop
    vertex 132.52371804252311 116.22500038147263 1.0000000000003129
    vertex 134.2718228910999 102.94682578842058 1.0000000000003129
    vertex 134.2718228910999 118.50317497452463 1.0000000000003129
  endloop
endfacet
facet normal 0.0 0.0 1.0
  outer loop
    vertex 134.2718228910999 118.50317497452463 1.0000000000003129
    vertex 134.2718228910999 102.94682578842058 1.0000000000003129
    vertex 135.0499974841519 110.72500038147261 1.0000000000003129
  endloop
endfacet
facet normal 0.0 0.0 1.0
  outer loop
    vertex 135.0499974841519 110.72500038147261 1.0000000000003129
    vertex 134.2718228910999 102.94682578842058 1.0000000000003129
    vertex 135.28851670012844 108.91326706575497 1.0000000000003129
  endloop
endfacet
facet normal 0.0 0.0 1.0
  outer loop
    vertex 135.28851670012844 108.91326706575497 1.0000000000003129
    vertex 134.2718228910999 102.94682578842058 1.0000000000003129
    vertex 136.5499974841519 101.19872093984378 1.0000000000003129
  endloop
endfacet
facet normal 0.0 0.0 1.0
  outer loop
    vertex 135.28851670012844 108.91326706575497 1.0000000000003129
    vertex 136.5499974841519 101.19872093984378 1.0000000000003129
    vertex 135.98781965766085 107.2250003814726 1.0000000000003129
  endloop
endfacet
facet normal 0.0 0.0 1.0
  outer loop
    vertex 135.98781965766085 107.2250003814726 1.0000000000003129
    vertex 136.5499974841519 101.19872093984378 1.0000000000003129
    vertex 137.1002500158461 105.77525291316677 1.0000000000003129
  endloop
endfacet
facet normal 0.0 0.0 1.0
  outer loop
    vertex 137.1002500158461 105.77525291316677 1.0000000000003129
    vertex 136.5499974841519 101.19872093984378 1.0000000000003129
    vertex 139.20298798802418 100.09981629229284 1.0000000000003129
  endloop
endfacet
facet normal 0.0 0.0 1.0
  outer loop
    vertex 137.1002500158461 105.77525291316677 1.0000000000003129
    vertex 139.20298798802418 100.09981629229284 1.0000000000003129
    vertex 138.54999748415193 104.66282255498153 1.0000000000003129
  endloop
endfacet
facet normal 0.0 0.0 1.0
  outer loop
    vertex 138.54999748415193 104.66282255498153 1.0000000000003129
    vertex 139.20298798802418 100.09981629229284 1.0000000000003129
    vertex 140.23826416843428 103.96351959744912 1.0000000000003129
  endloop
endfacet
facet normal 0.0 0.0 1.0
  outer loop
    vertex 140.23826416843428 103.96351959744912 1.0000000000003129
    vertex 139.20298798802418 100.09981629229284 1.0000000000003129
    vertex 142.04999748415193 99.72500038147261 1.0000000000003129
  endloop
endfacet
facet normal 0.0 0.0 1.0
  outer loop
    vertex 140.23826416843428 103.96351959744912 1.0000000000003129
    vertex 142.04999748415193 99.72500038147261 1.0000000000003129
    vertex 142.04999748415193 103.7250003814726 1.0000000000003129
  endloop
endfacet
facet normal 0.0 0.0 1.0
  outer loop
    vertex 142.04999748415193 103.7250003814726 1.0000000000003129
    vertex 142.04999748415193 99.72500038147261 1.0000000000003129
    vertex 144.89700698027963 100.09981629229284 1.0000000000003129
  endloop
endfacet
facet normal 0.0 0.0 1.0
  outer loop
    vertex 142.04999748415193 103.7250003814726 1.0000000000003129
    vertex 144.89700698027963 100.09981629229284 1.0000000000003129
    vertex 143.86173079986958 103.96351959744912 1.0000000000003129
  endloop
endfacet
facet normal 0.0 0.0 1.0
  outer loop
    vertex 143.86173079986958 103.96351959744912 1.0000000000003129
    vertex 144.89700698027963 100.09981629229284 1.0000000000003129
    vertex 145.54999748415193 104.66282255498153 1.0000000000003129
  endloop
endfacet
facet normal 0.0 0.0 1.0
  outer loop
    vertex 145.54999748415193 104.66282255498153 1.0000000000003129
    vertex 144.89700698027963 100.09981629229284 1.0000000000003129
    vertex 147.5499974841519 101.19872093984378 1.0000000000003129
  endloop
endfacet
facet normal 0.0 0.0 1.0
  outer loop
    vertex 145.54999748415193 104.66282255498153 1.0000000000003129
    vertex 147.5499974841519 101.19872093984378 1.0000000000003129
    vertex 146.99974495245777 105.77525291316677 1.0000000000003129
  endloop
endfacet
facet normal 0.0 0.0 1.0
  outer loop
    vertex 146.99974495245777 105.77525291316677 1.0000000000003129
    vertex 147.5499974841519 101.19872093984378 1.0000000000003129
    vertex 148.112175310643 107.2250003814726 1.0000000000003129
  endloop
endfacet
facet normal 0.0 0.0 1.0
  outer loop
    vertex 148.112175310643 107.2250003814726 1.0000000000003129
    vertex 147.5499974841519 101.19872093984378 1.0000000000003129
    vertex 149.82817207720393 102.94682578842058 1.0000000000003129
  endloop
endfacet
facet normal 0.0 0.0 1.0
  outer loop
    vertex 148.112175310643 107.2250003814726 1.0000000000003129
    vertex 149.82817207720393 102.94682578842058 1.0000000000003129
    vertex 148.81147826817542 108.91326706575497 1.0000000000003129
  endloop
endfacet
facet normal 0.0 0.0 1.0
  outer loop
    vertex 148.81147826817542 108.91326706575497 1.0000000000003129
    vertex 149.82817207720393 102.94682578842058 1.0000000000003129
    vertex 149.04999748415193 110.72500038147261 1.0000000000003129
  endloop
endfacet
facet normal 0.0 0.0 1.0
  outer loop
    vertex 134.2718228910999 118.50317497452463 1.0000000000003129
    vertex 135.28851670012844 112.53673369719026 1.0000000000003129
    vertex 136.54999748415193 120.25127982310144 1.0000000000003129
  endloop
endfacet
facet normal 0.0 0.0 1.0
  outer loop
    vertex 135.28851670012844 112.53673369719026 1.0000000000003129
    vertex 134.2718228910999 118.50317497452463 1.0000000000003129
    vertex 135.0499974841519 110.72500038147261 1.0000000000003129
  endloop
endfacet
facet normal 0.0 0.0 1.0
  outer loop
    vertex 136.54999748415193 120.25127982310144 1.0000000000003129
    vertex 135.28851670012844 112.53673369719026 1.0000000000003129
    vertex 135.98781965766085 114.22500038147263 1.0000000000003129
  endloop
endfacet
facet normal 0.0 0.0 1.0
  outer loop
    vertex 136.54999748415193 120.25127982310144 1.0000000000003129
    vertex 135.98781965766085 114.22500038147263 1.0000000000003129
    vertex 137.1002500158461 115.67474784977846 1.0000000000003129
  endloop
endfacet
facet normal 0.0 0.0 1.0
  outer loop
    vertex 136.54999748415193 120.25127982310144 1.0000000000003129
    vertex 137.1002500158461 115.67474784977846 1.0000000000003129
    vertex 139.2029879880242 121.35018447065237 1.0000000000003129
  endloop
endfacet
facet normal 0.0 0.0 1.0
  outer loop
    vertex 139.2029879880242 121.35018447065237 1.0000000000003129
    vertex 137.1002500158461 115.67474784977846 1.0000000000003129
    vertex 138.5499974841519 116.78717820796369 1.0000000000003129
  endloop
endfacet
facet normal 0.0 0.0 1.0
  outer loop
    vertex 139.2029879880242 121.35018447065237 1.0000000000003129
    vertex 138.5499974841519 116.78717820796369 1.0000000000003129
    vertex 140.23826416843428 117.4864811654961 1.0000000000003129
  endloop
endfacet
facet normal 0.0 0.0 1.0
  outer loop
    vertex 139.2029879880242 121.35018447065237 1.0000000000003129
    vertex 140.23826416843428 117.4864811654961 1.0000000000003129
    vertex 142.04999748415193 121.72500038147261 1.0000000000003129
  endloop
endfacet
facet normal 0.0 0.0 1.0
  outer loop
    vertex 142.04999748415193 121.72500038147261 1.0000000000003129
    vertex 140.23826416843428 117.4864811654961 1.0000000000003129
    vertex 142.04999748415193 117.72500038147261 1.0000000000003129
  endloop
endfacet
facet normal 0.0 0.0 1.0
  outer loop
    vertex 142.04999748415193 121.72500038147261 1.0000000000003129
    vertex 142.04999748415193 117.72500038147261 1.0000000000003129
    vertex 143.86173079986958 117.4864811654961 1.0000000000003129
  endloop
endfacet
facet normal 0.0 0.0 1.0
  outer loop
    vertex 142.04999748415193 121.72500038147261 1.0000000000003129
    vertex 143.86173079986958 117.4864811654961 1.0000000000003129
    vertex 144.89700698027966 121.35018447065237 1.0000000000003129
  endloop
endfacet
facet normal 0.0 0.0 1.0
  outer loop
    vertex 144.89700698027966 121.35018447065237 1.0000000000003129
    vertex 143.86173079986958 117.4864811654961 1.0000000000003129
    vertex 145.5499974841519 116.78717820796369 1.0000000000003129
  endloop
endfacet
facet normal 0.0 0.0 1.0
  outer loop
    vertex 144.89700698027966 121.35018447065237 1.0000000000003129
    vertex 145.5499974841519 116.78717820796369 1.0000000000003129
    vertex 147.54999748415193 120.25127982310143 1.0000000000003129
  endloop
endfacet
facet normal 0.0 0.0 1.0
  outer loop
    vertex 147.54999748415193 120.25127982310143 1.0000000000003129
    vertex 145.5499974841519 116.78717820796369 1.0000000000003129
    vertex 146.99974495245777 115.67474784977846 1.0000000000003129
  endloop
endfacet
facet normal 0.0 0.0 1.0
  outer loop
    vertex 147.54999748415193 120.25127982310143 1.0000000000003129
    vertex 146.99974495245777 115.67474784977846 1.0000000000003129
    vertex 148.112175310643 114.22500038147263 1.0000000000003129
  endloop
endfacet
facet normal 0.0 0.0 1.0
  outer loop
    vertex 147.54999748415193 120.25127982310143 1.0000000000003129
    vertex 148.112175310643 114.22500038147263 1.0000000000003129
    vertex 149.82817207720393 118.50317497452463 1.0000000000003129
  endloop
endfacet
facet normal 0.0 0.0 1.0
  outer loop
    vertex 149.82817207720393 118.50317497452463 1.0000000000003129
    vertex 148.112175310643 114.22500038147263 1.0000000000003129
    vertex 148.81147826817542 112.53673369719026 1.0000000000003129
  endloop
endfacet
facet normal 0.0 0.0 1.0
  outer loop
    vertex 149.82817207720393 118.50317497452463 1.0000000000003129
    vertex 148.81147826817542 112.53673369719026 1.0000000000003129
    vertex 149.04999748415193 110.72500038147261 1.0000000000003129
  endloop
endfacet
facet normal 0.0 0.0 1.0
  outer loop
    vertex 149.82817207720393 118.50317497452463 1.0000000000003129
    vertex 149.04999748415193 110.72500038147261 1.0000000000003129
    vertex 149.82817207720393 102.94682578842058 1.0000000000003129
  endloop
endfacet
facet normal 0.0 0.0 1.0
  outer loop
    vertex 149.82817207720393 118.50317497452463 1.0000000000003129
    vertex 149.82817207720393 102.94682578842058 1.0000000000003129
    vertex 151.57627692578075 105.2250003814726 1.0000000000003129
  endloop
endfacet
facet normal 0.0 0.0 1.0
  outer loop
    vertex 149.82817207720393 118.50317497452463 1.0000000000003129
    vertex 151.57627692578075 105.2250003814726 1.0000000000003129
    vertex 151.57627692578075 116.2250003814726 1.0000000000003129
  endloop
endfacet
facet normal 0.0 0.0 1.0
  outer loop
    vertex 151.57627692578075 116.2250003814726 1.0000000000003129
    vertex 151.57627692578075 105.2250003814726 1.0000000000003129
    vertex 152.67518157333168 107.87799088534487 1.0000000000003129
  endloop
endfacet
facet normal 0.0 0.0 1.0
  outer loop
    vertex 151.57627692578075 116.2250003814726 1.0000000000003129
    vertex 152.67518157333168 107.87799088534487 1.0000000000003129
    vertex 152.67518157333168 113.57200987760032 1.0000000000003129
  endloop
endfacet
facet normal 0.0 0.0 1.0
  outer loop
    vertex 152.67518157333168 113.57200987760032 1.0000000000003129
    vertex 152.67518157333168 107.87799088534487 1.0000000000003129
    vertex 153.04999748415193 110.72500038147261 1.0000000000003129
  endloop
endfacet
facet normal -0.49999999999999917 0.8660254037844393 0.0
  outer loop
    vertex 136.54999748415193 120.25127982310144 1.0000000000003129
    vertex 139.2029879880242 121.35018447065237 3.130162795628166e-13
    vertex 136.54999748415193 120.25127982310144 3.130162795628166e-13
  endloop
endfacet
facet normal -0.2588190451025204 0.9659258262890684 0.0
  outer loop
    vertex 139.2029879880242 121.35018447065237 3.130162795628166e-13
    vertex 136.54999748415193 120.25127982310144 1.0000000000003129
    vertex 139.2029879880242 121.35018447065237 1.0000000000003129
  endloop
endfacet
facet normal -0.2588190451025204 0.9659258262890684 0.0
  outer loop
    vertex 139.2029879880242 121.35018447065237 1.0000000000003129
    vertex 142.04999748415193 121.72500038147261 3.130162795628166e-13
    vertex 139.2029879880242 121.35018447065237 3.130162795628166e-13
  endloop
endfacet
facet normal -5.1684437394752055e-16 1.0 0.0
  outer loop
    vertex 142.04999748415193 121.72500038147261 3.130162795628166e-13
    vertex 139.2029879880242 121.35018447065237 1.0000000000003129
    vertex 142.04999748415193 121.72500038147261 1.0000000000003129
  endloop
endfacet
facet normal -5.1684437394752055e-16 1.0 0.0
  outer loop
    vertex 142.04999748415193 121.72500038147261 1.0000000000003129
    vertex 144.89700698027966 121.35018447065237 3.130162795628166e-13
    vertex 142.04999748415193 121.72500038147261 3.130162795628166e-13
  endloop
endfacet
facet normal 0.2588190451025208 0.9659258262890684 0.0
  outer loop
    vertex 144.89700698027966 121.35018447065237 3.130162795628166e-13
    vertex 142.04999748415193 121.72500038147261 1.0000000000003129
    vertex 144.89700698027966 121.35018447065237 1.0000000000003129
  endloop
endfacet
facet normal 0.2588190451025208 0.9659258262890684 0.0
  outer loop
    vertex 144.89700698027966 121.35018447065237 1.0000000000003129
    vertex 147.54999748415193 120.25127982310143 3.130162795628166e-13
    vertex 144.89700698027966 121.35018447065237 3.130162795628166e-13
  endloop
endfacet
facet normal 0.5000000000000021 0.8660254037844376 0.0
  outer loop
    vertex 147.54999748415193 120.25127982310143 3.130162795628166e-13
    vertex 144.89700698027966 121.35018447065237 1.0000000000003129
    vertex 147.54999748415193 120.25127982310143 1.0000000000003129
  endloop
endfacet
facet normal 0.5000000000000021 0.8660254037844376 0.0
  outer loop
    vertex 147.54999748415193 120.25127982310143 1.0000000000003129
    vertex 149.82817207720393 118.50317497452463 3.130162795628166e-13
    vertex 147.54999748415193 120.25127982310143 3.130162795628166e-13
  endloop
endfacet
facet normal 0.7071067811865477 0.7071067811865474 0.0
  outer loop
    vertex 149.82817207720393 118.50317497452463 3.130162795628166e-13
    vertex 147.54999748415193 120.25127982310143 1.0000000000003129
    vertex 149.82817207720393 118.50317497452463 1.0000000000003129
  endloop
endfacet
facet normal 0.7071067811865477 0.7071067811865474 0.0
  outer loop
    vertex 149.82817207720393 118.50317497452463 3.130162795628166e-13
    vertex 151.57627692578075 116.2250003814726 1.0000000000003129
    vertex 151.57627692578075 116.2250003814726 3.130162795628166e-13
  endloop
endfacet
facet normal 0.866025403784438 0.500000000000001 0.0
  outer loop
    vertex 151.57627692578075 116.2250003814726 1.0000000000003129
    vertex 149.82817207720393 118.50317497452463 3.130162795628166e-13
    vertex 149.82817207720393 118.50317497452463 1.0000000000003129
  endloop
endfacet
facet normal 0.866025403784438 0.500000000000001 0.0
  outer loop
    vertex 151.57627692578075 116.2250003814726 3.130162795628166e-13
    vertex 152.67518157333168 113.57200987760032 1.0000000000003129
    vertex 152.67518157333168 113.57200987760032 3.130162795628166e-13
  endloop
endfacet
facet normal 0.9659258262890689 0.2588190451025194 0.0
  outer loop
    vertex 152.67518157333168 113.57200987760032 1.0000000000003129
    vertex 151.57627692578075 116.2250003814726 3.130162795628166e-13
    vertex 151.57627692578075 116.2250003814726 1.0000000000003129
  endloop
endfacet
facet normal -0.7071067811865458 -0.7071067811865493 0.0
  outer loop
    vertex 146.99974495245777 115.67474784977846 1.0000000000003129
    vertex 148.112175310643 114.22500038147263 3.1442626280409057e-13
    vertex 148.112175310643 114.22500038147263 1.0000000000003129
  endloop
endfacet
facet normal -0.866025403784438 -0.500000000000001 0.0
  outer loop
    vertex 148.112175310643 114.22500038147263 3.1442626280409057e-13
    vertex 146.99974495245777 115.67474784977846 1.0000000000003129
    vertex 146.99974495245777 115.67474784977846 3.1442626280409057e-13
  endloop
endfacet
facet normal -0.866025403784438 -0.500000000000001 0.0
  outer loop
    vertex 148.112175310643 114.22500038147263 1.0000000000003129
    vertex 148.81147826817542 112.53673369719026 3.1442626280409057e-13
    vertex 148.81147826817542 112.53673369719026 1.0000000000003129
  endloop
endfacet
facet normal -0.9659258262890684 -0.2588190451025203 0.0
  outer loop
    vertex 148.81147826817542 112.53673369719026 3.1442626280409057e-13
    vertex 148.112175310643 114.22500038147263 1.0000000000003129
    vertex 148.112175310643 114.22500038147263 3.1442626280409057e-13
  endloop
endfacet
facet normal 0.49999999999999917 -0.8660254037844393 0.0
  outer loop
    vertex 147.5499974841519 101.19872093984378 1.0000000000003129
    vertex 144.89700698027963 100.09981629229284 3.130162795628166e-13
    vertex 147.5499974841519 101.19872093984378 3.130162795628166e-13
  endloop
endfacet
facet normal 0.25881904510252085 -0.9659258262890683 0.0
  outer loop
    vertex 144.89700698027963 100.09981629229284 3.130162795628166e-13
    vertex 147.5499974841519 101.19872093984378 1.0000000000003129
    vertex 144.89700698027963 100.09981629229284 1.0000000000003129
  endloop
endfacet
facet normal 0.25881904510252085 -0.9659258262890683 0.0
  outer loop
    vertex 144.89700698027963 100.09981629229284 1.0000000000003129
    vertex 142.04999748415193 99.72500038147261 3.130162795628166e-13
    vertex 144.89700698027963 100.09981629229284 3.130162795628166e-13
  endloop
endfacet
facet normal 5.1684437394752055e-16 -1.0 0.0
  outer loop
    vertex 142.04999748415193 99.72500038147261 3.130162795628166e-13
    vertex 144.89700698027963 100.09981629229284 1.0000000000003129
    vertex 142.04999748415193 99.72500038147261 1.0000000000003129
  endloop
endfacet
facet normal 0.5 -0.8660254037844387 0.0
  outer loop
    vertex 138.5499974841519 116.78717820796369 1.0000000000003129
    vertex 137.1002500158461 115.67474784977846 3.1442626280409057e-13
    vertex 138.5499974841519 116.78717820796369 3.1442626280409057e-13
  endloop
endfacet
facet normal 0.7071067811865482 -0.7071067811865468 0.0
  outer loop
    vertex 137.1002500158461 115.67474784977846 3.1442626280409057e-13
    vertex 138.5499974841519 116.78717820796369 1.0000000000003129
    vertex 137.1002500158461 115.67474784977846 1.0000000000003129
  endloop
endfacet
facet normal 1.0 1.8713330780858495e-16 0.0
  outer loop
    vertex 153.04999748415193 110.72500038147261 3.130162795628166e-13
    vertex 152.67518157333168 107.87799088534487 1.0000000000003129
    vertex 152.67518157333168 107.87799088534487 3.130162795628166e-13
  endloop
endfacet
facet normal 0.9659258262890688 -0.25881904510251913 0.0
  outer loop
    vertex 152.67518157333168 107.87799088534487 1.0000000000003129
    vertex 153.04999748415193 110.72500038147261 3.130162795628166e-13
    vertex 153.04999748415193 110.72500038147261 1.0000000000003129
  endloop
endfacet
facet normal 0.9659258262890689 0.2588190451025194 0.0
  outer loop
    vertex 152.67518157333168 113.57200987760032 3.130162795628166e-13
    vertex 153.04999748415193 110.72500038147261 1.0000000000003129
    vertex 153.04999748415193 110.72500038147261 3.130162795628166e-13
  endloop
endfacet
facet normal 1.0 1.8713330780858495e-16 0.0
  outer loop
    vertex 153.04999748415193 110.72500038147261 1.0000000000003129
    vertex 152.67518157333168 113.57200987760032 3.130162795628166e-13
    vertex 152.67518157333168 113.57200987760032 1.0000000000003129
  endloop
endfacet
facet normal 0.7071067811865455 -0.7071067811865497 0.0
  outer loop
    vertex 149.82817207720393 102.94682578842058 1.0000000000003129
    vertex 147.5499974841519 101.19872093984378 3.130162795628166e-13
    vertex 149.82817207720393 102.94682578842058 3.130162795628166e-13
  endloop
endfacet
facet normal 0.49999999999999917 -0.8660254037844393 0.0
  outer loop
    vertex 147.5499974841519 101.19872093984378 3.130162795628166e-13
    vertex 149.82817207720393 102.94682578842058 1.0000000000003129
    vertex 147.5499974841519 101.19872093984378 1.0000000000003129
  endloop
endfacet
facet normal -0.7071067811865478 0.7071067811865472 0.0
  outer loop
    vertex 134.2718228910999 118.50317497452463 1.0000000000003129
    vertex 132.52371804252311 116.22500038147263 3.130162795628166e-13
    vertex 132.52371804252311 116.22500038147263 1.0000000000003129
  endloop
endfacet
facet normal -0.8660254037844374 0.5000000000000023 0.0
  outer loop
    vertex 132.52371804252311 116.22500038147263 3.130162795628166e-13
    vertex 134.2718228910999 118.50317497452463 1.0000000000003129
    vertex 134.2718228910999 118.50317497452463 3.130162795628166e-13
  endloop
endfacet
facet normal -0.9659258262890684 -0.2588190451025203 0.0
  outer loop
    vertex 148.81147826817542 112.53673369719026 1.0000000000003129
    vertex 149.04999748415193 110.72500038147261 3.1442626280409057e-13
    vertex 149.04999748415193 110.72500038147261 1.0000000000003129
  endloop
endfacet
facet normal -1.0 1.9604441770423184e-16 0.0
  outer loop
    vertex 149.04999748415193 110.72500038147261 3.1442626280409057e-13
    vertex 148.81147826817542 112.53673369719026 1.0000000000003129
    vertex 148.81147826817542 112.53673369719026 3.1442626280409057e-13
  endloop
endfacet
facet normal 0.25881904510252174 0.9659258262890681 0.0
  outer loop
    vertex 140.23826416843428 103.96351959744912 1.0000000000003129
    vertex 142.04999748415193 103.7250003814726 3.1442626280409057e-13
    vertex 140.23826416843428 103.96351959744912 3.1442626280409057e-13
  endloop
endfacet
facet normal 0.0 1.0 0.0
  outer loop
    vertex 142.04999748415193 103.7250003814726 3.1442626280409057e-13
    vertex 140.23826416843428 103.96351959744912 1.0000000000003129
    vertex 142.04999748415193 103.7250003814726 1.0000000000003129
  endloop
endfacet
facet normal 0.8660254037844385 0.5000000000000004 0.0
  outer loop
    vertex 135.98781965766085 107.2250003814726 3.1442626280409057e-13
    vertex 137.1002500158461 105.77525291316677 1.0000000000003129
    vertex 137.1002500158461 105.77525291316677 3.1442626280409057e-13
  endloop
endfacet
facet normal 0.7071067811865462 0.7071067811865489 0.0
  outer loop
    vertex 137.1002500158461 105.77525291316677 1.0000000000003129
    vertex 135.98781965766085 107.2250003814726 3.1442626280409057e-13
    vertex 135.98781965766085 107.2250003814726 1.0000000000003129
  endloop
endfacet
facet normal 1.0 -1.9604441770423184e-16 0.0
  outer loop
    vertex 135.0499974841519 110.72500038147261 3.1442626280409057e-13
    vertex 135.28851670012844 108.91326706575497 1.0000000000003129
    vertex 135.28851670012844 108.91326706575497 3.1442626280409057e-13
  endloop
endfacet
facet normal 0.9659258262890684 0.2588190451025202 0.0
  outer loop
    vertex 135.28851670012844 108.91326706575497 1.0000000000003129
    vertex 135.0499974841519 110.72500038147261 3.1442626280409057e-13
    vertex 135.0499974841519 110.72500038147261 1.0000000000003129
  endloop
endfacet
facet normal 0.9659258262890684 0.2588190451025202 0.0
  outer loop
    vertex 135.28851670012844 108.91326706575497 3.1442626280409057e-13
    vertex 135.98781965766085 107.2250003814726 1.0000000000003129
    vertex 135.98781965766085 107.2250003814726 3.1442626280409057e-13
  endloop
endfacet
facet normal 0.8660254037844385 0.5000000000000004 0.0
  outer loop
    vertex 135.98781965766085 107.2250003814726 1.0000000000003129
    vertex 135.28851670012844 108.91326706575497 3.1442626280409057e-13
    vertex 135.28851670012844 108.91326706575497 1.0000000000003129
  endloop
endfacet
facet normal 0.4999999999999988 0.8660254037844395 0.0
  outer loop
    vertex 138.54999748415193 104.66282255498153 1.0000000000003129
    vertex 140.23826416843428 103.96351959744912 3.1442626280409057e-13
    vertex 138.54999748415193 104.66282255498153 3.1442626280409057e-13
  endloop
endfacet
facet normal 0.25881904510252174 0.9659258262890681 0.0
  outer loop
    vertex 140.23826416843428 103.96351959744912 3.1442626280409057e-13
    vertex 138.54999748415193 104.66282255498153 1.0000000000003129
    vertex 140.23826416843428 103.96351959744912 1.0000000000003129
  endloop
endfacet
facet normal 0.7071067811865482 -0.7071067811865468 0.0
  outer loop
    vertex 137.1002500158461 115.67474784977846 3.1442626280409057e-13
    vertex 135.98781965766085 114.22500038147263 1.0000000000003129
    vertex 135.98781965766085 114.22500038147263 3.1442626280409057e-13
  endloop
endfacet
facet normal 0.8660254037844389 -0.49999999999999983 0.0
  outer loop
    vertex 135.98781965766085 114.22500038147263 1.0000000000003129
    vertex 137.1002500158461 115.67474784977846 3.1442626280409057e-13
    vertex 137.1002500158461 115.67474784977846 1.0000000000003129
  endloop
endfacet
facet normal 0.9659258262890684 -0.2588190451025201 0.0
  outer loop
    vertex 135.28851670012844 112.53673369719026 3.1442626280409057e-13
    vertex 135.0499974841519 110.72500038147261 1.0000000000003129
    vertex 135.0499974841519 110.72500038147261 3.1442626280409057e-13
  endloop
endfacet
facet normal 1.0 -1.9604441770423184e-16 0.0
  outer loop
    vertex 135.0499974841519 110.72500038147261 1.0000000000003129
    vertex 135.28851670012844 112.53673369719026 3.1442626280409057e-13
    vertex 135.28851670012844 112.53673369719026 1.0000000000003129
  endloop
endfacet
facet normal -1.0 1.9604441770423184e-16 0.0
  outer loop
    vertex 149.04999748415193 110.72500038147261 1.0000000000003129
    vertex 148.81147826817542 108.91326706575497 3.1442626280409057e-13
    vertex 148.81147826817542 108.91326706575497 1.0000000000003129
  endloop
endfacet
facet normal -0.9659258262890685 0.2588190451025205 0.0
  outer loop
    vertex 148.81147826817542 108.91326706575497 3.1442626280409057e-13
    vertex 149.04999748415193 110.72500038147261 1.0000000000003129
    vertex 149.04999748415193 110.72500038147261 3.1442626280409057e-13
  endloop
endfacet
facet normal 0.0 1.0 0.0
  outer loop
    vertex 142.04999748415193 103.7250003814726 1.0000000000003129
    vertex 143.86173079986958 103.96351959744912 3.1442626280409057e-13
    vertex 142.04999748415193 103.7250003814726 3.1442626280409057e-13
  endloop
endfacet
facet normal -0.25881904510251946 0.9659258262890688 0.0
  outer loop
    vertex 143.86173079986958 103.96351959744912 3.1442626280409057e-13
    vertex 142.04999748415193 103.7250003814726 1.0000000000003129
    vertex 143.86173079986958 103.96351959744912 1.0000000000003129
  endloop
endfacet
facet normal 0.7071067811865462 0.7071067811865489 0.0
  outer loop
    vertex 137.1002500158461 105.77525291316677 1.0000000000003129
    vertex 138.54999748415193 104.66282255498153 3.1442626280409057e-13
    vertex 137.1002500158461 105.77525291316677 3.1442626280409057e-13
  endloop
endfacet
facet normal 0.4999999999999988 0.8660254037844395 0.0
  outer loop
    vertex 138.54999748415193 104.66282255498153 3.1442626280409057e-13
    vertex 137.1002500158461 105.77525291316677 1.0000000000003129
    vertex 138.54999748415193 104.66282255498153 1.0000000000003129
  endloop
endfacet
facet normal -0.9659258262890685 0.2588190451025205 0.0
  outer loop
    vertex 148.81147826817542 108.91326706575497 1.0000000000003129
    vertex 148.112175310643 107.2250003814726 3.1442626280409057e-13
    vertex 148.112175310643 107.2250003814726 1.0000000000003129
  endloop
endfacet
facet normal -0.8660254037844386 0.5000000000000002 0.0
  outer loop
    vertex 148.112175310643 107.2250003814726 3.1442626280409057e-13
    vertex 148.81147826817542 108.91326706575497 1.0000000000003129
    vertex 148.81147826817542 108.91326706575497 3.1442626280409057e-13
  endloop
endfacet
facet normal -0.25881904510251946 0.9659258262890688 0.0
  outer loop
    vertex 143.86173079986958 103.96351959744912 1.0000000000003129
    vertex 145.54999748415193 104.66282255498153 3.1442626280409057e-13
    vertex 143.86173079986958 103.96351959744912 3.1442626280409057e-13
  endloop
endfacet
facet normal -0.4999999999999999 0.8660254037844389 0.0
  outer loop
    vertex 145.54999748415193 104.66282255498153 3.1442626280409057e-13
    vertex 143.86173079986958 103.96351959744912 1.0000000000003129
    vertex 145.54999748415193 104.66282255498153 1.0000000000003129
  endloop
endfacet
facet normal -0.9659258262890688 -0.2588190451025192 0.0
  outer loop
    vertex 131.42481339497218 107.87799088534487 1.0000000000003129
    vertex 132.5237180425231 105.2250003814726 3.130162795628166e-13
    vertex 132.5237180425231 105.2250003814726 1.0000000000003129
  endloop
endfacet
facet normal -0.866025403784438 -0.500000000000001 0.0
  outer loop
    vertex 132.5237180425231 105.2250003814726 3.130162795628166e-13
    vertex 131.42481339497218 107.87799088534487 1.0000000000003129
    vertex 131.42481339497218 107.87799088534487 3.130162795628166e-13
  endloop
endfacet
facet normal -0.4999999999999988 -0.8660254037844395 0.0
  outer loop
    vertex 145.5499974841519 116.78717820796369 1.0000000000003129
    vertex 143.86173079986958 117.4864811654961 3.1442626280409057e-13
    vertex 145.5499974841519 116.78717820796369 3.1442626280409057e-13
  endloop
endfacet
facet normal -0.25881904510252174 -0.9659258262890681 0.0
  outer loop
    vertex 143.86173079986958 117.4864811654961 3.1442626280409057e-13
    vertex 145.5499974841519 116.78717820796369 1.0000000000003129
    vertex 143.86173079986958 117.4864811654961 1.0000000000003129
  endloop
endfacet
facet normal 0.8660254037844379 -0.5000000000000012 0.0
  outer loop
    vertex 151.57627692578075 105.2250003814726 3.130162795628166e-13
    vertex 149.82817207720393 102.94682578842058 1.0000000000003129
    vertex 149.82817207720393 102.94682578842058 3.130162795628166e-13
  endloop
endfacet
facet normal 0.7071067811865455 -0.7071067811865497 0.0
  outer loop
    vertex 149.82817207720393 102.94682578842058 1.0000000000003129
    vertex 151.57627692578075 105.2250003814726 3.130162795628166e-13
    vertex 151.57627692578075 105.2250003814726 1.0000000000003129
  endloop
endfacet
facet normal -0.866025403784438 -0.500000000000001 0.0
  outer loop
    vertex 132.5237180425231 105.2250003814726 1.0000000000003129
    vertex 134.2718228910999 102.94682578842058 3.130162795628166e-13
    vertex 134.2718228910999 102.94682578842058 1.0000000000003129
  endloop
endfacet
facet normal -0.7071067811865472 -0.7071067811865479 0.0
  outer loop
    vertex 134.2718228910999 102.94682578842058 3.130162795628166e-13
    vertex 132.5237180425231 105.2250003814726 1.0000000000003129
    vertex 132.5237180425231 105.2250003814726 3.130162795628166e-13
  endloop
endfacet
facet normal -0.8660254037844386 0.5000000000000002 0.0
  outer loop
    vertex 148.112175310643 107.2250003814726 1.0000000000003129
    vertex 146.99974495245777 105.77525291316677 3.1442626280409057e-13
    vertex 146.99974495245777 105.77525291316677 1.0000000000003129
  endloop
endfacet
facet normal -0.707106781186549 0.707106781186546 0.0
  outer loop
    vertex 146.99974495245777 105.77525291316677 3.1442626280409057e-13
    vertex 148.112175310643 107.2250003814726 1.0000000000003129
    vertex 148.112175310643 107.2250003814726 3.1442626280409057e-13
  endloop
endfacet
facet normal 0.8660254037844389 -0.49999999999999983 0.0
  outer loop
    vertex 135.98781965766085 114.22500038147263 3.1442626280409057e-13
    vertex 135.28851670012844 112.53673369719026 1.0000000000003129
    vertex 135.28851670012844 112.53673369719026 3.1442626280409057e-13
  endloop
endfacet
facet normal 0.9659258262890684 -0.2588190451025201 0.0
  outer loop
    vertex 135.28851670012844 112.53673369719026 1.0000000000003129
    vertex 135.98781965766085 114.22500038147263 3.1442626280409057e-13
    vertex 135.98781965766085 114.22500038147263 1.0000000000003129
  endloop
endfacet
facet normal -1.0 -2.6733329686940707e-16 0.0
  outer loop
    vertex 131.04999748415193 110.72500038147261 1.0000000000003129
    vertex 131.42481339497218 107.87799088534487 3.130162795628166e-13
    vertex 131.42481339497218 107.87799088534487 1.0000000000003129
  endloop
endfacet
facet normal -0.9659258262890688 -0.2588190451025192 0.0
  outer loop
    vertex 131.42481339497218 107.87799088534487 3.130162795628166e-13
    vertex 131.04999748415193 110.72500038147261 1.0000000000003129
    vertex 131.04999748415193 110.72500038147261 3.130162795628166e-13
  endloop
endfacet
facet normal -0.9659258262890679 0.2588190451025229 0.0
  outer loop
    vertex 131.42481339497218 113.57200987760035 1.0000000000003129
    vertex 131.04999748415193 110.72500038147261 3.130162795628166e-13
    vertex 131.04999748415193 110.72500038147261 1.0000000000003129
  endloop
endfacet
facet normal -1.0 -2.6733329686940707e-16 0.0
  outer loop
    vertex 131.04999748415193 110.72500038147261 3.130162795628166e-13
    vertex 131.42481339497218 113.57200987760035 1.0000000000003129
    vertex 131.42481339497218 113.57200987760035 3.130162795628166e-13
  endloop
endfacet
facet normal -0.8660254037844374 0.5000000000000023 0.0
  outer loop
    vertex 132.52371804252311 116.22500038147263 1.0000000000003129
    vertex 131.42481339497218 113.57200987760035 3.130162795628166e-13
    vertex 131.42481339497218 113.57200987760035 1.0000000000003129
  endloop
endfacet
facet normal -0.9659258262890679 0.2588190451025229 0.0
  outer loop
    vertex 131.42481339497218 113.57200987760035 3.130162795628166e-13
    vertex 132.52371804252311 116.22500038147263 1.0000000000003129
    vertex 132.52371804252311 116.22500038147263 3.130162795628166e-13
  endloop
endfacet
facet normal -0.4999999999999999 0.8660254037844389 0.0
  outer loop
    vertex 145.54999748415193 104.66282255498153 1.0000000000003129
    vertex 146.99974495245777 105.77525291316677 3.1442626280409057e-13
    vertex 145.54999748415193 104.66282255498153 3.1442626280409057e-13
  endloop
endfacet
facet normal -0.707106781186549 0.707106781186546 0.0
  outer loop
    vertex 146.99974495245777 105.77525291316677 3.1442626280409057e-13
    vertex 145.54999748415193 104.66282255498153 1.0000000000003129
    vertex 146.99974495245777 105.77525291316677 1.0000000000003129
  endloop
endfacet
facet normal -0.5000000000000014 -0.866025403784438 0.0
  outer loop
    vertex 136.5499974841519 101.19872093984378 1.0000000000003129
    vertex 134.2718228910999 102.94682578842058 3.130162795628166e-13
    vertex 136.5499974841519 101.19872093984378 3.130162795628166e-13
  endloop
endfacet
facet normal -0.7071067811865472 -0.7071067811865479 0.0
  outer loop
    vertex 134.2718228910999 102.94682578842058 3.130162795628166e-13
    vertex 136.5499974841519 101.19872093984378 1.0000000000003129
    vertex 134.2718228910999 102.94682578842058 1.0000000000003129
  endloop
endfacet
facet normal 0.25881904510252085 -0.9659258262890684 0.0
  outer loop
    vertex 140.23826416843428 117.4864811654961 1.0000000000003129
    vertex 138.5499974841519 116.78717820796369 3.1442626280409057e-13
    vertex 140.23826416843428 117.4864811654961 3.1442626280409057e-13
  endloop
endfacet
facet normal 0.5 -0.8660254037844387 0.0
  outer loop
    vertex 138.5499974841519 116.78717820796369 3.1442626280409057e-13
    vertex 140.23826416843428 117.4864811654961 1.0000000000003129
    vertex 138.5499974841519 116.78717820796369 1.0000000000003129
  endloop
endfacet
facet normal -0.2588190451025208 -0.9659258262890684 0.0
  outer loop
    vertex 139.20298798802418 100.09981629229284 1.0000000000003129
    vertex 136.5499974841519 101.19872093984378 3.130162795628166e-13
    vertex 139.20298798802418 100.09981629229284 3.130162795628166e-13
  endloop
endfacet
facet normal -0.5000000000000014 -0.866025403784438 0.0
  outer loop
    vertex 136.5499974841519 101.19872093984378 3.130162795628166e-13
    vertex 139.20298798802418 100.09981629229284 1.0000000000003129
    vertex 136.5499974841519 101.19872093984378 1.0000000000003129
  endloop
endfacet
facet normal -0.25881904510252174 -0.9659258262890681 0.0
  outer loop
    vertex 143.86173079986958 117.4864811654961 1.0000000000003129
    vertex 142.04999748415193 117.72500038147261 3.1442626280409057e-13
    vertex 143.86173079986958 117.4864811654961 3.1442626280409057e-13
  endloop
endfacet
facet normal 0.0 -1.0 0.0
  outer loop
    vertex 142.04999748415193 117.72500038147261 3.1442626280409057e-13
    vertex 143.86173079986958 117.4864811654961 1.0000000000003129
    vertex 142.04999748415193 117.72500038147261 1.0000000000003129
  endloop
endfacet
facet normal -0.7071067811865458 -0.7071067811865493 0.0
  outer loop
    vertex 146.99974495245777 115.67474784977846 1.0000000000003129
    vertex 145.5499974841519 116.78717820796369 3.1442626280409057e-13
    vertex 146.99974495245777 115.67474784977846 3.1442626280409057e-13
  endloop
endfacet
facet normal -0.4999999999999988 -0.8660254037844395 0.0
  outer loop
    vertex 145.5499974841519 116.78717820796369 3.1442626280409057e-13
    vertex 146.99974495245777 115.67474784977846 1.0000000000003129
    vertex 145.5499974841519 116.78717820796369 1.0000000000003129
  endloop
endfacet
facet normal -0.7071067811865478 0.7071067811865472 0.0
  outer loop
    vertex 134.2718228910999 118.50317497452463 1.0000000000003129
    vertex 136.54999748415193 120.25127982310144 3.130162795628166e-13
    vertex 134.2718228910999 118.50317497452463 3.130162795628166e-13
  endloop
endfacet
facet normal -0.49999999999999917 0.8660254037844393 0.0
  outer loop
    vertex 136.54999748415193 120.25127982310144 3.130162795628166e-13
    vertex 134.2718228910999 118.50317497452463 1.0000000000003129
    vertex 136.54999748415193 120.25127982310144 1.0000000000003129
  endloop
endfacet
facet normal 0.9659258262890688 -0.25881904510251913 0.0
  outer loop
    vertex 152.67518157333168 107.87799088534487 3.130162795628166e-13
    vertex 151.57627692578075 105.2250003814726 1.0000000000003129
    vertex 151.57627692578075 105.2250003814726 3.130162795628166e-13
  endloop
endfacet
facet normal 0.8660254037844379 -0.5000000000000012 0.0
  outer loop
    vertex 151.57627692578075 105.2250003814726 1.0000000000003129
    vertex 152.67518157333168 107.87799088534487 3.130162795628166e-13
    vertex 152.67518157333168 107.87799088534487 1.0000000000003129
  endloop
endfacet
endsolid Extruder
