solid Extruder
facet normal 5.1684437394752055e-16 -1.0 0.0
  outer loop
    vertex 246.30000043782692 129.70000000000312 1.0000000000003129
    vertex 243.45299094169914 130.07481591082333 3.130162795628166e-13
    vertex 246.30000043782692 129.70000000000312 3.130162795628166e-13
  endloop
endfacet
facet normal -0.2588190451025208 -0.9659258262890684 0.0
  outer loop
    vertex 243.45299094169914 130.07481591082333 3.130162795628166e-13
    vertex 246.30000043782692 129.70000000000312 1.0000000000003129
    vertex 243.45299094169914 130.07481591082333 1.0000000000003129
  endloop
endfacet
facet normal 0.0 -1.0 0.0
  outer loop
    vertex 246.30000043782692 147.70000000000312 1.0000000000003129
    vertex 244.48826712210928 147.4614807840266 3.1442626280409057e-13
    vertex 246.30000043782692 147.70000000000312 3.1442626280409057e-13
  endloop
endfacet
facet normal 0.25881904510252085 -0.9659258262890684 0.0
  outer loop
    vertex 244.48826712210928 147.4614807840266 3.1442626280409057e-13
    vertex 246.30000043782692 147.70000000000312 1.0000000000003129
    vertex 244.48826712210928 147.4614807840266 1.0000000000003129
  endloop
endfacet
facet normal 0.0 0.0 -1.0
  outer loop
    vertex 235.67481634864714 143.54700949613084 3.130162795628166e-13
    vertex 235.67481634864714 137.85299050387536 3.130162795628166e-13
    vertex 235.30000043782692 140.70000000000312 3.130162795628166e-13
  endloop
endfacet
facet normal 0.0 0.0 -1.0
  outer loop
    vertex 235.67481634864714 137.85299050387536 3.130162795628166e-13
    vertex 235.67481634864714 143.54700949613084 3.130162795628166e-13
    vertex 236.7737209961981 146.20000000000312 3.130162795628166e-13
  endloop
endfacet
facet normal 0.0 0.0 -1.0
  outer loop
    vertex 235.67481634864714 137.85299050387536 3.130162795628166e-13
    vertex 236.7737209961981 146.20000000000312 3.130162795628166e-13
    vertex 236.77372099619808 135.2000000000031 3.130162795628166e-13
  endloop
endfacet
facet normal 0.0 0.0 -1.0
  outer loop
    vertex 236.77372099619808 135.2000000000031 3.130162795628166e-13
    vertex 236.7737209961981 146.20000000000312 3.130162795628166e-13
    vertex 238.5218258447749 132.9218254069511 3.130162795628166e-13
  endloop
endfacet
facet normal 0.0 0.0 -1.0
  outer loop
    vertex 238.5218258447749 132.9218254069511 3.130162795628166e-13
    vertex 236.7737209961981 146.20000000000312 3.130162795628166e-13
    vertex 238.5218258447749 148.47817459305512 3.130162795628166e-13
  endloop
endfacet
facet normal 0.0 0.0 -1.0
  outer loop
    vertex 238.5218258447749 132.9218254069511 3.130162795628166e-13
    vertex 238.5218258447749 148.47817459305512 3.130162795628166e-13
    vertex 239.3000004378269 140.70000000000312 3.1442626280409057e-13
  endloop
endfacet
facet normal 0.0 0.0 -1.0
  outer loop
    vertex 239.3000004378269 140.70000000000312 3.1442626280409057e-13
    vertex 238.5218258447749 148.47817459305512 3.130162795628166e-13
    vertex 239.5385196538034 142.51173331572076 3.1442626280409057e-13
  endloop
endfacet
facet normal 0.0 0.0 -1.0
  outer loop
    vertex 239.5385196538034 142.51173331572076 3.1442626280409057e-13
    vertex 238.5218258447749 148.47817459305512 3.130162795628166e-13
    vertex 240.80000043782692 150.22627944163193 3.130162795628166e-13
  endloop
endfacet
facet normal 0.0 0.0 -1.0
  outer loop
    vertex 239.5385196538034 142.51173331572076 3.1442626280409057e-13
    vertex 240.80000043782692 150.22627944163193 3.130162795628166e-13
    vertex 240.23782261133584 144.20000000000312 3.1442626280409057e-13
  endloop
endfacet
facet normal 0.0 0.0 -1.0
  outer loop
    vertex 240.23782261133584 144.20000000000312 3.1442626280409057e-13
    vertex 240.80000043782692 150.22627944163193 3.130162795628166e-13
    vertex 241.35025296952105 145.64974746830896 3.1442626280409057e-13
  endloop
endfacet
facet normal 0.0 0.0 -1.0
  outer loop
    vertex 241.35025296952105 145.64974746830896 3.1442626280409057e-13
    vertex 240.80000043782692 150.22627944163193 3.130162795628166e-13
    vertex 243.4529909416992 151.32518408918287 3.130162795628166e-13
  endloop
endfacet
facet normal 0.0 0.0 -1.0
  outer loop
    vertex 241.35025296952105 145.64974746830896 3.1442626280409057e-13
    vertex 243.4529909416992 151.32518408918287 3.130162795628166e-13
    vertex 242.80000043782692 146.7621778264942 3.1442626280409057e-13
  endloop
endfacet
facet normal 0.0 0.0 -1.0
  outer loop
    vertex 242.80000043782692 146.7621778264942 3.1442626280409057e-13
    vertex 243.4529909416992 151.32518408918287 3.130162795628166e-13
    vertex 244.48826712210928 147.4614807840266 3.1442626280409057e-13
  endloop
endfacet
facet normal 0.0 0.0 -1.0
  outer loop
    vertex 244.48826712210928 147.4614807840266 3.1442626280409057e-13
    vertex 243.4529909416992 151.32518408918287 3.130162795628166e-13
    vertex 246.30000043782692 151.70000000000312 3.130162795628166e-13
  endloop
endfacet
facet normal 0.0 0.0 -1.0
  outer loop
    vertex 244.48826712210928 147.4614807840266 3.1442626280409057e-13
    vertex 246.30000043782692 151.70000000000312 3.130162795628166e-13
    vertex 246.30000043782692 147.70000000000312 3.1442626280409057e-13
  endloop
endfacet
facet normal 0.0 0.0 -1.0
  outer loop
    vertex 246.30000043782692 147.70000000000312 3.1442626280409057e-13
    vertex 246.30000043782692 151.70000000000312 3.130162795628166e-13
    vertex 249.14700993395462 151.32518408918287 3.130162795628166e-13
  endloop
endfacet
facet normal 0.0 0.0 -1.0
  outer loop
    vertex 246.30000043782692 147.70000000000312 3.1442626280409057e-13
    vertex 249.14700993395462 151.32518408918287 3.130162795628166e-13
    vertex 248.11173375354457 147.4614807840266 3.1442626280409057e-13
  endloop
endfacet
facet normal 0.0 0.0 -1.0
  outer loop
    vertex 248.11173375354457 147.4614807840266 3.1442626280409057e-13
    vertex 249.14700993395462 151.32518408918287 3.130162795628166e-13
    vertex 249.8000004378269 146.7621778264942 3.1442626280409057e-13
  endloop
endfacet
facet normal 0.0 0.0 -1.0
  outer loop
    vertex 249.8000004378269 146.7621778264942 3.1442626280409057e-13
    vertex 249.14700993395462 151.32518408918287 3.130162795628166e-13
    vertex 251.80000043782695 150.22627944163193 3.130162795628166e-13
  endloop
endfacet
facet normal 0.0 0.0 -1.0
  outer loop
    vertex 249.8000004378269 146.7621778264942 3.1442626280409057e-13
    vertex 251.80000043782695 150.22627944163193 3.130162795628166e-13
    vertex 251.24974790613274 145.64974746830896 3.1442626280409057e-13
  endloop
endfacet
facet normal 0.0 0.0 -1.0
  outer loop
    vertex 251.24974790613274 145.64974746830896 3.1442626280409057e-13
    vertex 251.80000043782695 150.22627944163193 3.130162795628166e-13
    vertex 252.362178264318 144.20000000000312 3.1442626280409057e-13
  endloop
endfacet
facet normal 0.0 0.0 -1.0
  outer loop
    vertex 252.362178264318 144.20000000000312 3.1442626280409057e-13
    vertex 251.80000043782695 150.22627944163193 3.130162795628166e-13
    vertex 254.07817503087892 148.47817459305512 3.130162795628166e-13
  endloop
endfacet
facet normal 0.0 0.0 -1.0
  outer loop
    vertex 252.362178264318 144.20000000000312 3.1442626280409057e-13
    vertex 254.07817503087892 148.47817459305512 3.130162795628166e-13
    vertex 253.06148122185039 142.51173331572076 3.1442626280409057e-13
  endloop
endfacet
facet normal 0.0 0.0 -1.0
  outer loop
    vertex 253.06148122185039 142.51173331572076 3.1442626280409057e-13
    vertex 254.07817503087892 148.47817459305512 3.130162795628166e-13
    vertex 253.30000043782692 140.70000000000312 3.1442626280409057e-13
  endloop
endfacet
facet normal 0.0 0.0 -1.0
  outer loop
    vertex 238.5218258447749 132.9218254069511 3.130162795628166e-13
    vertex 239.5385196538034 138.88826668428547 3.1442626280409057e-13
    vertex 240.80000043782692 131.1737205583743 3.130162795628166e-13
  endloop
endfacet
facet normal 0.0 0.0 -1.0
  outer loop
    vertex 239.5385196538034 138.88826668428547 3.1442626280409057e-13
    vertex 238.5218258447749 132.9218254069511 3.130162795628166e-13
    vertex 239.3000004378269 140.70000000000312 3.1442626280409057e-13
  endloop
endfacet
facet normal 0.0 0.0 -1.0
  outer loop
    vertex 240.80000043782692 131.1737205583743 3.130162795628166e-13
    vertex 239.5385196538034 138.88826668428547 3.1442626280409057e-13
    vertex 240.23782261133584 137.2000000000031 3.1442626280409057e-13
  endloop
endfacet
facet normal 0.0 0.0 -1.0
  outer loop
    vertex 240.80000043782692 131.1737205583743 3.130162795628166e-13
    vertex 240.23782261133584 137.2000000000031 3.1442626280409057e-13
    vertex 241.35025296952105 135.75025253169727 3.1442626280409057e-13
  endloop
endfacet
facet normal 0.0 0.0 -1.0
  outer loop
    vertex 240.80000043782692 131.1737205583743 3.130162795628166e-13
    vertex 241.35025296952105 135.75025253169727 3.1442626280409057e-13
    vertex 243.45299094169914 130.07481591082333 3.130162795628166e-13
  endloop
endfacet
facet normal 0.0 0.0 -1.0
  outer loop
    vertex 243.45299094169914 130.07481591082333 3.130162795628166e-13
    vertex 241.35025296952105 135.75025253169727 3.1442626280409057e-13
    vertex 242.80000043782692 134.63782217351203 3.1442626280409057e-13
  endloop
endfacet
facet normal 0.0 0.0 -1.0
  outer loop
    vertex 243.45299094169914 130.07481591082333 3.130162795628166e-13
    vertex 242.80000043782692 134.63782217351203 3.1442626280409057e-13
    vertex 244.48826712210928 133.9385192159796 3.1442626280409057e-13
  endloop
endfacet
facet normal 0.0 0.0 -1.0
  outer loop
    vertex 243.45299094169914 130.07481591082333 3.130162795628166e-13
    vertex 244.48826712210928 133.9385192159796 3.1442626280409057e-13
    vertex 246.30000043782692 129.70000000000312 3.130162795628166e-13
  endloop
endfacet
facet normal 0.0 0.0 -1.0
  outer loop
    vertex 246.30000043782692 129.70000000000312 3.130162795628166e-13
    vertex 244.48826712210928 133.9385192159796 3.1442626280409057e-13
    vertex 246.30000043782692 133.7000000000031 3.1442626280409057e-13
  endloop
endfacet
facet normal 0.0 0.0 -1.0
  outer loop
    vertex 246.30000043782692 129.70000000000312 3.130162795628166e-13
    vertex 246.30000043782692 133.7000000000031 3.1442626280409057e-13
    vertex 248.11173375354457 133.9385192159796 3.1442626280409057e-13
  endloop
endfacet
facet normal 0.0 0.0 -1.0
  outer loop
    vertex 246.30000043782692 129.70000000000312 3.130162795628166e-13
    vertex 248.11173375354457 133.9385192159796 3.1442626280409057e-13
    vertex 249.14700993395462 130.07481591082333 3.130162795628166e-13
  endloop
endfacet
facet normal 0.0 0.0 -1.0
  outer loop
    vertex 249.14700993395462 130.07481591082333 3.130162795628166e-13
    vertex 248.11173375354457 133.9385192159796 3.1442626280409057e-13
    vertex 249.80000043782695 134.63782217351203 3.1442626280409057e-13
  endloop
endfacet
facet normal 0.0 0.0 -1.0
  outer loop
    vertex 249.14700993395462 130.07481591082333 3.130162795628166e-13
    vertex 249.80000043782695 134.63782217351203 3.1442626280409057e-13
    vertex 251.8000004378269 131.1737205583743 3.130162795628166e-13
  endloop
endfacet
facet normal 0.0 0.0 -1.0
  outer loop
    vertex 251.8000004378269 131.1737205583743 3.130162795628166e-13
    vertex 249.80000043782695 134.63782217351203 3.1442626280409057e-13
    vertex 251.24974790613274 135.75025253169727 3.1442626280409057e-13
  endloop
endfacet
facet normal 0.0 0.0 -1.0
  outer loop
    vertex 251.8000004378269 131.1737205583743 3.130162795628166e-13
    vertex 251.24974790613274 135.75025253169727 3.1442626280409057e-13
    vertex 252.362178264318 137.2000000000031 3.1442626280409057e-13
  endloop
endfacet
facet normal 0.0 0.0 -1.0
  outer loop
    vertex 251.8000004378269 131.1737205583743 3.130162795628166e-13
    vertex 252.362178264318 137.2000000000031 3.1442626280409057e-13
    vertex 254.07817503087892 132.9218254069511 3.130162795628166e-13
  endloop
endfacet
facet normal 0.0 0.0 -1.0
  outer loop
    vertex 254.07817503087892 132.9218254069511 3.130162795628166e-13
    vertex 252.362178264318 137.2000000000031 3.1442626280409057e-13
    vertex 253.06148122185039 138.88826668428547 3.1442626280409057e-13
  endloop
endfacet
facet normal 0.0 0.0 -1.0
  outer loop
    vertex 254.07817503087892 132.9218254069511 3.130162795628166e-13
    vertex 253.06148122185039 138.88826668428547 3.1442626280409057e-13
    vertex 253.30000043782692 140.70000000000312 3.1442626280409057e-13
  endloop
endfacet
facet normal 0.0 0.0 -1.0
  outer loop
    vertex 254.07817503087892 132.9218254069511 3.130162795628166e-13
    vertex 253.30000043782692 140.70000000000312 3.1442626280409057e-13
    vertex 254.07817503087892 148.47817459305512 3.130162795628166e-13
  endloop
endfacet
facet normal 0.0 0.0 -1.0
  outer loop
    vertex 254.07817503087892 132.9218254069511 3.130162795628166e-13
    vertex 254.07817503087892 148.47817459305512 3.130162795628166e-13
    vertex 255.82627987945574 146.2000000000031 3.130162795628166e-13
  endloop
endfacet
facet normal 0.0 0.0 -1.0
  outer loop
    vertex 254.07817503087892 132.9218254069511 3.130162795628166e-13
    vertex 255.82627987945574 146.2000000000031 3.130162795628166e-13
    vertex 255.82627987945574 135.2000000000031 3.130162795628166e-13
  endloop
endfacet
facet normal 0.0 0.0 -1.0
  outer loop
    vertex 255.82627987945574 135.2000000000031 3.130162795628166e-13
    vertex 255.82627987945574 146.2000000000031 3.130162795628166e-13
    vertex 256.92518452700665 143.5470094961308 3.130162795628166e-13
  endloop
endfacet
facet normal 0.0 0.0 -1.0
  outer loop
    vertex 255.82627987945574 135.2000000000031 3.130162795628166e-13
    vertex 256.92518452700665 143.5470094961308 3.130162795628166e-13
    vertex 256.92518452700665 137.85299050387536 3.130162795628166e-13
  endloop
endfacet
facet normal 0.0 0.0 -1.0
  outer loop
    vertex 256.92518452700665 137.85299050387536 3.130162795628166e-13
    vertex 256.92518452700665 143.5470094961308 3.130162795628166e-13
    vertex 257.3000004378269 140.70000000000312 3.130162795628166e-13
  endloop
endfacet
facet normal 0.0 0.0 1.0
  outer loop
    vertex 235.67481634864714 137.85299050387536 1.0000000000003129
    vertex 235.67481634864714 143.54700949613084 1.0000000000003129
    vertex 235.30000043782692 140.70000000000312 1.0000000000003129
  endloop
endfacet
facet normal 0.0 0.0 1.0
  outer loop
    vertex 235.67481634864714 143.54700949613084 1.0000000000003129
    vertex 235.67481634864714 137.85299050387536 1.0000000000003129
    vertex 236.77372099619808 135.2000000000031 1.0000000000003129
  endloop
endfacet
facet normal 0.0 0.0 1.0
  outer loop
    vertex 235.67481634864714 143.54700949613084 1.0000000000003129
    vertex 236.77372099619808 135.2000000000031 1.0000000000003129
    vertex 236.7737209961981 146.20000000000312 1.0000000000003129
  endloop
endfacet
facet normal 0.0 0.0 1.0
  outer loop
    vertex 236.7737209961981 146.20000000000312 1.0000000000003129
    vertex 236.77372099619808 135.2000000000031 1.0000000000003129
    vertex 238.5218258447749 132.9218254069511 1.0000000000003129
  endloop
endfacet
facet normal 0.0 0.0 1.0
  outer loop
    vertex 236.7737209961981 146.20000000000312 1.0000000000003129
    vertex 238.5218258447749 132.9218254069511 1.0000000000003129
    vertex 238.5218258447749 148.47817459305512 1.0000000000003129
  endloop
endfacet
facet normal 0.0 0.0 1.0
  outer loop
    vertex 238.5218258447749 148.47817459305512 1.0000000000003129
    vertex 238.5218258447749 132.9218254069511 1.0000000000003129
    vertex 239.3000004378269 140.70000000000312 1.0000000000003129
  endloop
endfacet
facet normal 0.0 0.0 1.0
  outer loop
    vertex 239.3000004378269 140.70000000000312 1.0000000000003129
    vertex 238.5218258447749 132.9218254069511 1.0000000000003129
    vertex 239.5385196538034 138.88826668428547 1.0000000000003129
  endloop
endfacet
facet normal 0.0 0.0 1.0
  outer loop
    vertex 239.5385196538034 138.88826668428547 1.0000000000003129
    vertex 238.5218258447749 132.9218254069511 1.0000000000003129
    vertex 240.80000043782692 131.1737205583743 1.0000000000003129
  endloop
endfacet
facet normal 0.0 0.0 1.0
  outer loop
    vertex 239.5385196538034 138.88826668428547 1.0000000000003129
    vertex 240.80000043782692 131.1737205583743 1.0000000000003129
    vertex 240.23782261133584 137.2000000000031 1.0000000000003129
  endloop
endfacet
facet normal 0.0 0.0 1.0
  outer loop
    vertex 240.23782261133584 137.2000000000031 1.0000000000003129
    vertex 240.80000043782692 131.1737205583743 1.0000000000003129
    vertex 241.35025296952105 135.75025253169727 1.0000000000003129
  endloop
endfacet
facet normal 0.0 0.0 1.0
  outer loop
    vertex 241.35025296952105 135.75025253169727 1.0000000000003129
    vertex 240.80000043782692 131.1737205583743 1.0000000000003129
    vertex 243.45299094169914 130.07481591082333 1.0000000000003129
  endloop
endfacet
facet normal 0.0 0.0 1.0
  outer loop
    vertex 241.35025296952105 135.75025253169727 1.0000000000003129
    vertex 243.45299094169914 130.07481591082333 1.0000000000003129
    vertex 242.80000043782692 134.63782217351203 1.0000000000003129
  endloop
endfacet
facet normal 0.0 0.0 1.0
  outer loop
    vertex 242.80000043782692 134.63782217351203 1.0000000000003129
    vertex 243.45299094169914 130.07481591082333 1.0000000000003129
    vertex 244.48826712210928 133.9385192159796 1.0000000000003129
  endloop
endfacet
facet normal 0.0 0.0 1.0
  outer loop
    vertex 244.48826712210928 133.9385192159796 1.0000000000003129
    vertex 243.45299094169914 130.07481591082333 1.0000000000003129
    vertex 246.30000043782692 129.70000000000312 1.0000000000003129
  endloop
endfacet
facet normal 0.0 0.0 1.0
  outer loop
    vertex 244.48826712210928 133.9385192159796 1.0000000000003129
    vertex 246.30000043782692 129.70000000000312 1.0000000000003129
    vertex 246.30000043782692 133.7000000000031 1.0000000000003129
  endloop
endfacet
facet normal 0.0 0.0 1.0
  outer loop
    vertex 246.30000043782692 133.7000000000031 1.0000000000003129
    vertex 246.30000043782692 129.70000000000312 1.0000000000003129
    vertex 249.14700993395462 130.07481591082333 1.0000000000003129
  endloop
endfacet
facet normal 0.0 0.0 1.0
  outer loop
    vertex 246.30000043782692 133.7000000000031 1.0000000000003129
    vertex 249.14700993395462 130.07481591082333 1.0000000000003129
    vertex 248.11173375354457 133.9385192159796 1.0000000000003129
  endloop
endfacet
facet normal 0.0 0.0 1.0
  outer loop
    vertex 248.11173375354457 133.9385192159796 1.0000000000003129
    vertex 249.14700993395462 130.07481591082333 1.0000000000003129
    vertex 249.80000043782695 134.63782217351203 1.0000000000003129
  endloop
endfacet
facet normal 0.0 0.0 1.0
  outer loop
    vertex 249.80000043782695 134.63782217351203 1.0000000000003129
    vertex 249.14700993395462 130.07481591082333 1.0000000000003129
    vertex 251.8000004378269 131.1737205583743 1.0000000000003129
  endloop
endfacet
facet normal 0.0 0.0 1.0
  outer loop
    vertex 249.80000043782695 134.63782217351203 1.0000000000003129
    vertex 251.8000004378269 131.1737205583743 1.0000000000003129
    vertex 251.24974790613274 135.75025253169727 1.0000000000003129
  endloop
endfacet
facet normal 0.0 0.0 1.0
  outer loop
    vertex 251.24974790613274 135.75025253169727 1.0000000000003129
    vertex 251.8000004378269 131.1737205583743 1.0000000000003129
    vertex 252.362178264318 137.2000000000031 1.0000000000003129
  endloop
endfacet
facet normal 0.0 0.0 1.0
  outer loop
    vertex 252.362178264318 137.2000000000031 1.0000000000003129
    vertex 251.8000004378269 131.1737205583743 1.0000000000003129
    vertex 254.07817503087892 132.9218254069511 1.0000000000003129
  endloop
endfacet
facet normal 0.0 0.0 1.0
  outer loop
    vertex 252.362178264318 137.2000000000031 1.0000000000003129
    vertex 254.07817503087892 132.9218254069511 1.0000000000003129
    vertex 253.06148122185039 138.88826668428547 1.0000000000003129
  endloop
endfacet
facet normal 0.0 0.0 1.0
  outer loop
    vertex 253.06148122185039 138.88826668428547 1.0000000000003129
    vertex 254.07817503087892 132.9218254069511 1.0000000000003129
    vertex 253.30000043782692 140.70000000000312 1.0000000000003129
  endloop
endfacet
facet normal 0.0 0.0 1.0
  outer loop
    vertex 238.5218258447749 148.47817459305512 1.0000000000003129
    vertex 239.5385196538034 142.51173331572076 1.0000000000003129
    vertex 240.80000043782692 150.22627944163193 1.0000000000003129
  endloop
endfacet
facet normal 0.0 0.0 1.0
  outer loop
    vertex 239.5385196538034 142.51173331572076 1.0000000000003129
    vertex 238.5218258447749 148.47817459305512 1.0000000000003129
    vertex 239.3000004378269 140.70000000000312 1.0000000000003129
  endloop
endfacet
facet normal 0.0 0.0 1.0
  outer loop
    vertex 240.80000043782692 150.22627944163193 1.0000000000003129
    vertex 239.5385196538034 142.51173331572076 1.0000000000003129
    vertex 240.23782261133584 144.20000000000312 1.0000000000003129
  endloop
endfacet
facet normal 0.0 0.0 1.0
  outer loop
    vertex 240.80000043782692 150.22627944163193 1.0000000000003129
    vertex 240.23782261133584 144.20000000000312 1.0000000000003129
    vertex 241.35025296952105 145.64974746830896 1.0000000000003129
  endloop
endfacet
facet normal 0.0 0.0 1.0
  outer loop
    vertex 240.80000043782692 150.22627944163193 1.0000000000003129
    vertex 241.35025296952105 145.64974746830896 1.0000000000003129
    vertex 243.4529909416992 151.32518408918287 1.0000000000003129
  endloop
endfacet
facet normal 0.0 0.0 1.0
  outer loop
    vertex 243.4529909416992 151.32518408918287 1.0000000000003129
    vertex 241.35025296952105 145.64974746830896 1.0000000000003129
    vertex 242.80000043782692 146.7621778264942 1.0000000000003129
  endloop
endfacet
facet normal 0.0 0.0 1.0
  outer loop
    vertex 243.4529909416992 151.32518408918287 1.0000000000003129
    vertex 242.80000043782692 146.7621778264942 1.0000000000003129
    vertex 244.48826712210928 147.4614807840266 1.0000000000003129
  endloop
endfacet
facet normal 0.0 0.0 1.0
  outer loop
    vertex 243.4529909416992 151.32518408918287 1.0000000000003129
    vertex 244.48826712210928 147.4614807840266 1.0000000000003129
    vertex 246.30000043782692 151.70000000000312 1.0000000000003129
  endloop
endfacet
facet normal 0.0 0.0 1.0
  outer loop
    vertex 246.30000043782692 151.70000000000312 1.0000000000003129
    vertex 244.48826712210928 147.4614807840266 1.0000000000003129
    vertex 246.30000043782692 147.70000000000312 1.0000000000003129
  endloop
endfacet
facet normal 0.0 0.0 1.0
  outer loop
    vertex 246.30000043782692 151.70000000000312 1.0000000000003129
    vertex 246.30000043782692 147.70000000000312 1.0000000000003129
    vertex 248.11173375354457 147.4614807840266 1.0000000000003129
  endloop
endfacet
facet normal 0.0 0.0 1.0
  outer loop
    vertex 246.30000043782692 151.70000000000312 1.0000000000003129
    vertex 248.11173375354457 147.4614807840266 1.0000000000003129
    vertex 249.14700993395462 151.32518408918287 1.0000000000003129
  endloop
endfacet
facet normal 0.0 0.0 1.0
  outer loop
    vertex 249.14700993395462 151.32518408918287 1.0000000000003129
    vertex 248.11173375354457 147.4614807840266 1.0000000000003129
    vertex 249.8000004378269 146.7621778264942 1.0000000000003129
  endloop
endfacet
facet normal 0.0 0.0 1.0
  outer loop
    vertex 249.14700993395462 151.32518408918287 1.0000000000003129
    vertex 249.8000004378269 146.7621778264942 1.0000000000003129
    vertex 251.80000043782695 150.22627944163193 1.0000000000003129
  endloop
endfacet
facet normal 0.0 0.0 1.0
  outer loop
    vertex 251.80000043782695 150.22627944163193 1.0000000000003129
    vertex 249.8000004378269 146.7621778264942 1.0000000000003129
    vertex 251.24974790613274 145.64974746830896 1.0000000000003129
  endloop
endfacet
facet normal 0.0 0.0 1.0
  outer loop
    vertex 251.80000043782695 150.22627944163193 1.0000000000003129
    vertex 251.24974790613274 145.64974746830896 1.0000000000003129
    vertex 252.362178264318 144.20000000000312 1.0000000000003129
  endloop
endfacet
facet normal 0.0 0.0 1.0
  outer loop
    vertex 251.80000043782695 150.22627944163193 1.0000000000003129
    vertex 252.362178264318 144.20000000000312 1.0000000000003129
    vertex 254.07817503087892 148.47817459305512 1.0000000000003129
  endloop
endfacet
facet normal 0.0 0.0 1.0
  outer loop
    vertex 254.07817503087892 148.47817459305512 1.0000000000003129
    vertex 252.362178264318 144.20000000000312 1.0000000000003129
    vertex 253.06148122185039 142.51173331572076 1.0000000000003129
  endloop
endfacet
facet normal 0.0 0.0 1.0
  outer loop
    vertex 254.07817503087892 148.47817459305512 1.0000000000003129
    vertex 253.06148122185039 142.51173331572076 1.0000000000003129
    vertex 253.30000043782692 140.70000000000312 1.0000000000003129
  endloop
endfacet
facet normal 0.0 0.0 1.0
  outer loop
    vertex 254.07817503087892 148.47817459305512 1.0000000000003129
    vertex 253.30000043782692 140.70000000000312 1.0000000000003129
    vertex 254.07817503087892 132.9218254069511 1.0000000000003129
  endloop
endfacet
facet normal 0.0 0.0 1.0
  outer loop
    vertex 254.07817503087892 148.47817459305512 1.0000000000003129
    vertex 254.07817503087892 132.9218254069511 1.0000000000003129
    vertex 255.82627987945574 135.2000000000031 1.0000000000003129
  endloop
endfacet
facet normal 0.0 0.0 1.0
  outer loop
    vertex 254.07817503087892 148.47817459305512 1.0000000000003129
    vertex 255.82627987945574 135.2000000000031 1.0000000000003129
    vertex 255.82627987945574 146.2000000000031 1.0000000000003129
  endloop
endfacet
facet normal 0.0 0.0 1.0
  outer loop
    vertex 255.82627987945574 146.2000000000031 1.0000000000003129
    vertex 255.82627987945574 135.2000000000031 1.0000000000003129
    vertex 256.92518452700665 137.85299050387536 1.0000000000003129
  endloop
endfacet
facet normal 0.0 0.0 1.0
  outer loop
    vertex 255.82627987945574 146.2000000000031 1.0000000000003129
    vertex 256.92518452700665 137.85299050387536 1.0000000000003129
    vertex 256.92518452700665 143.5470094961308 1.0000000000003129
  endloop
endfacet
facet normal 0.0 0.0 1.0
  outer loop
    vertex 256.92518452700665 143.5470094961308 1.0000000000003129
    vertex 256.92518452700665 137.85299050387536 1.0000000000003129
    vertex 257.3000004378269 140.70000000000312 1.0000000000003129
  endloop
endfacet
facet normal -0.49999999999999917 0.8660254037844393 0.0
  outer loop
    vertex 240.80000043782692 150.22627944163193 1.0000000000003129
    vertex 243.4529909416992 151.32518408918287 3.130162795628166e-13
    vertex 240.80000043782692 150.22627944163193 3.130162795628166e-13
  endloop
endfacet
facet normal -0.2588190451025204 0.9659258262890684 0.0
  outer loop
    vertex 243.4529909416992 151.32518408918287 3.130162795628166e-13
    vertex 240.80000043782692 150.22627944163193 1.0000000000003129
    vertex 243.4529909416992 151.32518408918287 1.0000000000003129
  endloop
endfacet
facet normal -0.2588190451025204 0.9659258262890684 0.0
  outer loop
    vertex 243.4529909416992 151.32518408918287 1.0000000000003129
    vertex 246.30000043782692 151.70000000000312 3.130162795628166e-13
    vertex 243.4529909416992 151.32518408918287 3.130162795628166e-13
  endloop
endfacet
facet normal -5.1684437394752055e-16 1.0 0.0
  outer loop
    vertex 246.30000043782692 151.70000000000312 3.130162795628166e-13
    vertex 243.4529909416992 151.32518408918287 1.0000000000003129
    vertex 246.30000043782692 151.70000000000312 1.0000000000003129
  endloop
endfacet
facet normal -5.1684437394752055e-16 1.0 0.0
  outer loop
    vertex 246.30000043782692 151.70000000000312 1.0000000000003129
    vertex 249.14700993395462 151.32518408918287 3.130162795628166e-13
    vertex 246.30000043782692 151.70000000000312 3.130162795628166e-13
  endloop
endfacet
facet normal 0.2588190451025208 0.9659258262890684 0.0
  outer loop
    vertex 249.14700993395462 151.32518408918287 3.130162795628166e-13
    vertex 246.30000043782692 151.70000000000312 1.0000000000003129
    vertex 249.14700993395462 151.32518408918287 1.0000000000003129
  endloop
endfacet
facet normal 0.2588190451025208 0.9659258262890684 0.0
  outer loop
    vertex 249.14700993395462 151.32518408918287 1.0000000000003129
    vertex 251.80000043782695 150.22627944163193 3.130162795628166e-13
    vertex 249.14700993395462 151.32518408918287 3.130162795628166e-13
  endloop
endfacet
facet normal 0.5000000000000021 0.8660254037844376 0.0
  outer loop
    vertex 251.80000043782695 150.22627944163193 3.130162795628166e-13
    vertex 249.14700993395462 151.32518408918287 1.0000000000003129
    vertex 251.80000043782695 150.22627944163193 1.0000000000003129
  endloop
endfacet
facet normal 0.5000000000000021 0.8660254037844376 0.0
  outer loop
    vertex 251.80000043782695 150.22627944163193 1.0000000000003129
    vertex 254.07817503087892 148.47817459305512 3.130162795628166e-13
    vertex 251.80000043782695 150.22627944163193 3.130162795628166e-13
  endloop
endfacet
facet normal 0.7071067811865477 0.7071067811865474 0.0
  outer loop
    vertex 254.07817503087892 148.47817459305512 3.130162795628166e-13
    vertex 251.80000043782695 150.22627944163193 1.0000000000003129
    vertex 254.07817503087892 148.47817459305512 1.0000000000003129
  endloop
endfacet
facet normal 0.7071067811865477 0.7071067811865474 0.0
  outer loop
    vertex 254.07817503087892 148.47817459305512 3.130162795628166e-13
    vertex 255.82627987945574 146.2000000000031 1.0000000000003129
    vertex 255.82627987945574 146.2000000000031 3.130162795628166e-13
  endloop
endfacet
facet normal 0.866025403784438 0.500000000000001 0.0
  outer loop
    vertex 255.82627987945574 146.2000000000031 1.0000000000003129
    vertex 254.07817503087892 148.47817459305512 3.130162795628166e-13
    vertex 254.07817503087892 148.47817459305512 1.0000000000003129
  endloop
endfacet
facet normal 0.866025403784438 0.500000000000001 0.0
  outer loop
    vertex 255.82627987945574 146.2000000000031 3.130162795628166e-13
    vertex 256.92518452700665 143.5470094961308 1.0000000000003129
    vertex 256.92518452700665 143.5470094961308 3.130162795628166e-13
  endloop
endfacet
facet normal 0.9659258262890689 0.2588190451025194 0.0
  outer loop
    vertex 256.92518452700665 143.5470094961308 1.0000000000003129
    vertex 255.82627987945574 146.2000000000031 3.130162795628166e-13
    vertex 255.82627987945574 146.2000000000031 1.0000000000003129
  endloop
endfacet
facet normal -0.7071067811865458 -0.7071067811865493 0.0
  outer loop
    vertex 251.24974790613274 145.64974746830896 1.0000000000003129
    vertex 252.362178264318 144.20000000000312 3.1442626280409057e-13
    vertex 252.362178264318 144.20000000000312 1.0000000000003129
  endloop
endfacet
facet normal -0.866025403784438 -0.500000000000001 0.0
  outer loop
    vertex 252.362178264318 144.20000000000312 3.1442626280409057e-13
    vertex 251.24974790613274 145.64974746830896 1.0000000000003129
    vertex 251.24974790613274 145.64974746830896 3.1442626280409057e-13
  endloop
endfacet
facet normal -0.866025403784438 -0.500000000000001 0.0
  outer loop
    vertex 252.362178264318 144.20000000000312 1.0000000000003129
    vertex 253.06148122185039 142.51173331572076 3.1442626280409057e-13
    vertex 253.06148122185039 142.51173331572076 1.0000000000003129
  endloop
endfacet
facet normal -0.9659258262890684 -0.2588190451025203 0.0
  outer loop
    vertex 253.06148122185039 142.51173331572076 3.1442626280409057e-13
    vertex 252.362178264318 144.20000000000312 1.0000000000003129
    vertex 252.362178264318 144.20000000000312 3.1442626280409057e-13
  endloop
endfacet
facet normal 0.49999999999999917 -0.8660254037844393 0.0
  outer loop
    vertex 251.8000004378269 131.1737205583743 1.0000000000003129
    vertex 249.14700993395462 130.07481591082333 3.130162795628166e-13
    vertex 251.8000004378269 131.1737205583743 3.130162795628166e-13
  endloop
endfacet
facet normal 0.25881904510252085 -0.9659258262890683 0.0
  outer loop
    vertex 249.14700993395462 130.07481591082333 3.130162795628166e-13
    vertex 251.8000004378269 131.1737205583743 1.0000000000003129
    vertex 249.14700993395462 130.07481591082333 1.0000000000003129
  endloop
endfacet
facet normal 0.25881904510252085 -0.9659258262890683 0.0
  outer loop
    vertex 249.14700993395462 130.07481591082333 1.0000000000003129
    vertex 246.30000043782692 129.70000000000312 3.130162795628166e-13
    vertex 249.14700993395462 130.07481591082333 3.130162795628166e-13
  endloop
endfacet
facet normal 5.1684437394752055e-16 -1.0 0.0
  outer loop
    vertex 246.30000043782692 129.70000000000312 3.130162795628166e-13
    vertex 249.14700993395462 130.07481591082333 1.0000000000003129
    vertex 246.30000043782692 129.70000000000312 1.0000000000003129
  endloop
endfacet
facet normal 0.5 -0.8660254037844387 0.0
  outer loop
    vertex 242.80000043782692 146.7621778264942 1.0000000000003129
    vertex 241.35025296952105 145.64974746830896 3.1442626280409057e-13
    vertex 242.80000043782692 146.7621778264942 3.1442626280409057e-13
  endloop
endfacet
facet normal 0.7071067811865482 -0.7071067811865468 0.0
  outer loop
    vertex 241.35025296952105 145.64974746830896 3.1442626280409057e-13
    vertex 242.80000043782692 146.7621778264942 1.0000000000003129
    vertex 241.35025296952105 145.64974746830896 1.0000000000003129
  endloop
endfacet
facet normal 1.0 1.8713330780858495e-16 0.0
  outer loop
    vertex 257.3000004378269 140.70000000000312 3.130162795628166e-13
    vertex 256.92518452700665 137.85299050387536 1.0000000000003129
    vertex 256.92518452700665 137.85299050387536 3.130162795628166e-13
  endloop
endfacet
facet normal 0.9659258262890688 -0.25881904510251913 0.0
  outer loop
    vertex 256.92518452700665 137.85299050387536 1.0000000000003129
    vertex 257.3000004378269 140.70000000000312 3.130162795628166e-13
    vertex 257.3000004378269 140.70000000000312 1.0000000000003129
  endloop
endfacet
facet normal 0.9659258262890689 0.2588190451025194 0.0
  outer loop
    vertex 256.92518452700665 143.5470094961308 3.130162795628166e-13
    vertex 257.3000004378269 140.70000000000312 1.0000000000003129
    vertex 257.3000004378269 140.70000000000312 3.130162795628166e-13
  endloop
endfacet
facet normal 1.0 1.8713330780858495e-16 0.0
  outer loop
    vertex 257.3000004378269 140.70000000000312 1.0000000000003129
    vertex 256.92518452700665 143.5470094961308 3.130162795628166e-13
    vertex 256.92518452700665 143.5470094961308 1.0000000000003129
  endloop
endfacet
facet normal 0.7071067811865455 -0.7071067811865497 0.0
  outer loop
    vertex 254.07817503087892 132.9218254069511 1.0000000000003129
    vertex 251.8000004378269 131.1737205583743 3.130162795628166e-13
    vertex 254.07817503087892 132.9218254069511 3.130162795628166e-13
  endloop
endfacet
facet normal 0.49999999999999917 -0.8660254037844393 0.0
  outer loop
    vertex 251.8000004378269 131.1737205583743 3.130162795628166e-13
    vertex 254.07817503087892 132.9218254069511 1.0000000000003129
    vertex 251.8000004378269 131.1737205583743 1.0000000000003129
  endloop
endfacet
facet normal -0.7071067811865478 0.7071067811865472 0.0
  outer loop
    vertex 238.5218258447749 148.47817459305512 1.0000000000003129
    vertex 236.7737209961981 146.20000000000312 3.130162795628166e-13
    vertex 236.7737209961981 146.20000000000312 1.0000000000003129
  endloop
endfacet
facet normal -0.8660254037844374 0.5000000000000023 0.0
  outer loop
    vertex 236.7737209961981 146.20000000000312 3.130162795628166e-13
    vertex 238.5218258447749 148.47817459305512 1.0000000000003129
    vertex 238.5218258447749 148.47817459305512 3.130162795628166e-13
  endloop
endfacet
facet normal -0.9659258262890684 -0.2588190451025203 0.0
  outer loop
    vertex 253.06148122185039 142.51173331572076 1.0000000000003129
    vertex 253.30000043782692 140.70000000000312 3.1442626280409057e-13
    vertex 253.30000043782692 140.70000000000312 1.0000000000003129
  endloop
endfacet
facet normal -1.0 1.9604441770423184e-16 0.0
  outer loop
    vertex 253.30000043782692 140.70000000000312 3.1442626280409057e-13
    vertex 253.06148122185039 142.51173331572076 1.0000000000003129
    vertex 253.06148122185039 142.51173331572076 3.1442626280409057e-13
  endloop
endfacet
facet normal 0.25881904510252174 0.9659258262890681 0.0
  outer loop
    vertex 244.48826712210928 133.9385192159796 1.0000000000003129
    vertex 246.30000043782692 133.7000000000031 3.1442626280409057e-13
    vertex 244.48826712210928 133.9385192159796 3.1442626280409057e-13
  endloop
endfacet
facet normal 0.0 1.0 0.0
  outer loop
    vertex 246.30000043782692 133.7000000000031 3.1442626280409057e-13
    vertex 244.48826712210928 133.9385192159796 1.0000000000003129
    vertex 246.30000043782692 133.7000000000031 1.0000000000003129
  endloop
endfacet
facet normal 0.8660254037844385 0.5000000000000004 0.0
  outer loop
    vertex 240.23782261133584 137.2000000000031 3.1442626280409057e-13
    vertex 241.35025296952105 135.75025253169727 1.0000000000003129
    vertex 241.35025296952105 135.75025253169727 3.1442626280409057e-13
  endloop
endfacet
facet normal 0.7071067811865462 0.7071067811865489 0.0
  outer loop
    vertex 241.35025296952105 135.75025253169727 1.0000000000003129
    vertex 240.23782261133584 137.2000000000031 3.1442626280409057e-13
    vertex 240.23782261133584 137.2000000000031 1.0000000000003129
  endloop
endfacet
facet normal 1.0 -1.9604441770423184e-16 0.0
  outer loop
    vertex 239.3000004378269 140.70000000000312 3.1442626280409057e-13
    vertex 239.5385196538034 138.88826668428547 1.0000000000003129
    vertex 239.5385196538034 138.88826668428547 3.1442626280409057e-13
  endloop
endfacet
facet normal 0.9659258262890684 0.2588190451025202 0.0
  outer loop
    vertex 239.5385196538034 138.88826668428547 1.0000000000003129
    vertex 239.3000004378269 140.70000000000312 3.1442626280409057e-13
    vertex 239.3000004378269 140.70000000000312 1.0000000000003129
  endloop
endfacet
facet normal 0.9659258262890684 0.2588190451025202 0.0
  outer loop
    vertex 239.5385196538034 138.88826668428547 3.1442626280409057e-13
    vertex 240.23782261133584 137.2000000000031 1.0000000000003129
    vertex 240.23782261133584 137.2000000000031 3.1442626280409057e-13
  endloop
endfacet
facet normal 0.8660254037844385 0.5000000000000004 0.0
  outer loop
    vertex 240.23782261133584 137.2000000000031 1.0000000000003129
    vertex 239.5385196538034 138.88826668428547 3.1442626280409057e-13
    vertex 239.5385196538034 138.88826668428547 1.0000000000003129
  endloop
endfacet
facet normal 0.4999999999999988 0.8660254037844395 0.0
  outer loop
    vertex 242.80000043782692 134.63782217351203 1.0000000000003129
    vertex 244.48826712210928 133.9385192159796 3.1442626280409057e-13
    vertex 242.80000043782692 134.63782217351203 3.1442626280409057e-13
  endloop
endfacet
facet normal 0.25881904510252174 0.9659258262890681 0.0
  outer loop
    vertex 244.48826712210928 133.9385192159796 3.1442626280409057e-13
    vertex 242.80000043782692 134.63782217351203 1.0000000000003129
    vertex 244.48826712210928 133.9385192159796 1.0000000000003129
  endloop
endfacet
facet normal 0.7071067811865482 -0.7071067811865468 0.0
  outer loop
    vertex 241.35025296952105 145.64974746830896 3.1442626280409057e-13
    vertex 240.23782261133584 144.20000000000312 1.0000000000003129
    vertex 240.23782261133584 144.20000000000312 3.1442626280409057e-13
  endloop
endfacet
facet normal 0.8660254037844389 -0.49999999999999983 0.0
  outer loop
    vertex 240.23782261133584 144.20000000000312 1.0000000000003129
    vertex 241.35025296952105 145.64974746830896 3.1442626280409057e-13
    vertex 241.35025296952105 145.64974746830896 1.0000000000003129
  endloop
endfacet
facet normal 0.9659258262890684 -0.2588190451025201 0.0
  outer loop
    vertex 239.5385196538034 142.51173331572076 3.1442626280409057e-13
    vertex 239.3000004378269 140.70000000000312 1.0000000000003129
    vertex 239.3000004378269 140.70000000000312 3.1442626280409057e-13
  endloop
endfacet
facet normal 1.0 -1.9604441770423184e-16 0.0
  outer loop
    vertex 239.3000004378269 140.70000000000312 1.0000000000003129
    vertex 239.5385196538034 142.51173331572076 3.1442626280409057e-13
    vertex 239.5385196538034 142.51173331572076 1.0000000000003129
  endloop
endfacet
facet normal -1.0 1.9604441770423184e-16 0.0
  outer loop
    vertex 253.30000043782692 140.70000000000312 1.0000000000003129
    vertex 253.06148122185039 138.88826668428547 3.1442626280409057e-13
    vertex 253.06148122185039 138.88826668428547 1.0000000000003129
  endloop
endfacet
facet normal -0.9659258262890685 0.2588190451025205 0.0
  outer loop
    vertex 253.06148122185039 138.88826668428547 3.1442626280409057e-13
    vertex 253.30000043782692 140.70000000000312 1.0000000000003129
    vertex 253.30000043782692 140.70000000000312 3.1442626280409057e-13
  endloop
endfacet
facet normal 0.0 1.0 0.0
  outer loop
    vertex 246.30000043782692 133.7000000000031 1.0000000000003129
    vertex 248.11173375354457 133.9385192159796 3.1442626280409057e-13
    vertex 246.30000043782692 133.7000000000031 3.1442626280409057e-13
  endloop
endfacet
facet normal -0.25881904510251946 0.9659258262890688 0.0
  outer loop
    vertex 248.11173375354457 133.9385192159796 3.1442626280409057e-13
    vertex 246.30000043782692 133.7000000000031 1.0000000000003129
    vertex 248.11173375354457 133.9385192159796 1.0000000000003129
  endloop
endfacet
facet normal 0.7071067811865462 0.7071067811865489 0.0
  outer loop
    vertex 241.35025296952105 135.75025253169727 1.0000000000003129
    vertex 242.80000043782692 134.63782217351203 3.1442626280409057e-13
    vertex 241.35025296952105 135.75025253169727 3.1442626280409057e-13
  endloop
endfacet
facet normal 0.4999999999999988 0.8660254037844395 0.0
  outer loop
    vertex 242.80000043782692 134.63782217351203 3.1442626280409057e-13
    vertex 241.35025296952105 135.75025253169727 1.0000000000003129
    vertex 242.80000043782692 134.63782217351203 1.0000000000003129
  endloop
endfacet
facet normal -0.9659258262890685 0.2588190451025205 0.0
  outer loop
    vertex 253.06148122185039 138.88826668428547 1.0000000000003129
    vertex 252.362178264318 137.2000000000031 3.1442626280409057e-13
    vertex 252.362178264318 137.2000000000031 1.0000000000003129
  endloop
endfacet
facet normal -0.8660254037844386 0.5000000000000002 0.0
  outer loop
    vertex 252.362178264318 137.2000000000031 3.1442626280409057e-13
    vertex 253.06148122185039 138.88826668428547 1.0000000000003129
    vertex 253.06148122185039 138.88826668428547 3.1442626280409057e-13
  endloop
endfacet
facet normal -0.25881904510251946 0.9659258262890688 0.0
  outer loop
    vertex 248.11173375354457 133.9385192159796 1.0000000000003129
    vertex 249.80000043782695 134.63782217351203 3.1442626280409057e-13
    vertex 248.11173375354457 133.9385192159796 3.1442626280409057e-13
  endloop
endfacet
facet normal -0.4999999999999999 0.8660254037844389 0.0
  outer loop
    vertex 249.80000043782695 134.63782217351203 3.1442626280409057e-13
    vertex 248.11173375354457 133.9385192159796 1.0000000000003129
    vertex 249.80000043782695 134.63782217351203 1.0000000000003129
  endloop
endfacet
facet normal -0.9659258262890688 -0.2588190451025192 0.0
  outer loop
    vertex 235.67481634864714 137.85299050387536 1.0000000000003129
    vertex 236.77372099619808 135.2000000000031 3.130162795628166e-13
    vertex 236.77372099619808 135.2000000000031 1.0000000000003129
  endloop
endfacet
facet normal -0.866025403784438 -0.500000000000001 0.0
  outer loop
    vertex 236.77372099619808 135.2000000000031 3.130162795628166e-13
    vertex 235.67481634864714 137.85299050387536 1.0000000000003129
    vertex 235.67481634864714 137.85299050387536 3.130162795628166e-13
  endloop
endfacet
facet normal -0.4999999999999988 -0.8660254037844395 0.0
  outer loop
    vertex 249.8000004378269 146.7621778264942 1.0000000000003129
    vertex 248.11173375354457 147.4614807840266 3.1442626280409057e-13
    vertex 249.8000004378269 146.7621778264942 3.1442626280409057e-13
  endloop
endfacet
facet normal -0.25881904510252174 -0.9659258262890681 0.0
  outer loop
    vertex 248.11173375354457 147.4614807840266 3.1442626280409057e-13
    vertex 249.8000004378269 146.7621778264942 1.0000000000003129
    vertex 248.11173375354457 147.4614807840266 1.0000000000003129
  endloop
endfacet
facet normal 0.8660254037844379 -0.5000000000000012 0.0
  outer loop
    vertex 255.82627987945574 135.2000000000031 3.130162795628166e-13
    vertex 254.07817503087892 132.9218254069511 1.0000000000003129
    vertex 254.07817503087892 132.9218254069511 3.130162795628166e-13
  endloop
endfacet
facet normal 0.7071067811865455 -0.7071067811865497 0.0
  outer loop
    vertex 254.07817503087892 132.9218254069511 1.0000000000003129
    vertex 255.82627987945574 135.2000000000031 3.130162795628166e-13
    vertex 255.82627987945574 135.2000000000031 1.0000000000003129
  endloop
endfacet
facet normal -0.866025403784438 -0.500000000000001 0.0
  outer loop
    vertex 236.77372099619808 135.2000000000031 1.0000000000003129
    vertex 238.5218258447749 132.9218254069511 3.130162795628166e-13
    vertex 238.5218258447749 132.9218254069511 1.0000000000003129
  endloop
endfacet
facet normal -0.7071067811865472 -0.7071067811865479 0.0
  outer loop
    vertex 238.5218258447749 132.9218254069511 3.130162795628166e-13
    vertex 236.77372099619808 135.2000000000031 1.0000000000003129
    vertex 236.77372099619808 135.2000000000031 3.130162795628166e-13
  endloop
endfacet
facet normal -0.8660254037844386 0.5000000000000002 0.0
  outer loop
    vertex 252.362178264318 137.2000000000031 1.0000000000003129
    vertex 251.24974790613274 135.75025253169727 3.1442626280409057e-13
    vertex 251.24974790613274 135.75025253169727 1.0000000000003129
  endloop
endfacet
facet normal -0.707106781186549 0.707106781186546 0.0
  outer loop
    vertex 251.24974790613274 135.75025253169727 3.1442626280409057e-13
    vertex 252.362178264318 137.2000000000031 1.0000000000003129
    vertex 252.362178264318 137.2000000000031 3.1442626280409057e-13
  endloop
endfacet
facet normal 0.8660254037844389 -0.49999999999999983 0.0
  outer loop
    vertex 240.23782261133584 144.20000000000312 3.1442626280409057e-13
    vertex 239.5385196538034 142.51173331572076 1.0000000000003129
    vertex 239.5385196538034 142.51173331572076 3.1442626280409057e-13
  endloop
endfacet
facet normal 0.9659258262890684 -0.2588190451025201 0.0
  outer loop
    vertex 239.5385196538034 142.51173331572076 1.0000000000003129
    vertex 240.23782261133584 144.20000000000312 3.1442626280409057e-13
    vertex 240.23782261133584 144.20000000000312 1.0000000000003129
  endloop
endfacet
facet normal -1.0 -2.6733329686940707e-16 0.0
  outer loop
    vertex 235.30000043782692 140.70000000000312 1.0000000000003129
    vertex 235.67481634864714 137.85299050387536 3.130162795628166e-13
    vertex 235.67481634864714 137.85299050387536 1.0000000000003129
  endloop
endfacet
facet normal -0.9659258262890688 -0.2588190451025192 0.0
  outer loop
    vertex 235.67481634864714 137.85299050387536 3.130162795628166e-13
    vertex 235.30000043782692 140.70000000000312 1.0000000000003129
    vertex 235.30000043782692 140.70000000000312 3.130162795628166e-13
  endloop
endfacet
facet normal -0.9659258262890679 0.2588190451025229 0.0
  outer loop
    vertex 235.67481634864714 143.54700949613084 1.0000000000003129
    vertex 235.30000043782692 140.70000000000312 3.130162795628166e-13
    vertex 235.30000043782692 140.70000000000312 1.0000000000003129
  endloop
endfacet
facet normal -1.0 -2.6733329686940707e-16 0.0
  outer loop
    vertex 235.30000043782692 140.70000000000312 3.130162795628166e-13
    vertex 235.67481634864714 143.54700949613084 1.0000000000003129
    vertex 235.67481634864714 143.54700949613084 3.130162795628166e-13
  endloop
endfacet
facet normal -0.8660254037844374 0.5000000000000023 0.0
  outer loop
    vertex 236.7737209961981 146.20000000000312 1.0000000000003129
    vertex 235.67481634864714 143.54700949613084 3.130162795628166e-13
    vertex 235.67481634864714 143.54700949613084 1.0000000000003129
  endloop
endfacet
facet normal -0.9659258262890679 0.2588190451025229 0.0
  outer loop
    vertex 235.67481634864714 143.54700949613084 3.130162795628166e-13
    vertex 236.7737209961981 146.20000000000312 1.0000000000003129
    vertex 236.7737209961981 146.20000000000312 3.130162795628166e-13
  endloop
endfacet
facet normal -0.4999999999999999 0.8660254037844389 0.0
  outer loop
    vertex 249.80000043782695 134.63782217351203 1.0000000000003129
    vertex 251.24974790613274 135.75025253169727 3.1442626280409057e-13
    vertex 249.80000043782695 134.63782217351203 3.1442626280409057e-13
  endloop
endfacet
facet normal -0.707106781186549 0.707106781186546 0.0
  outer loop
    vertex 251.24974790613274 135.75025253169727 3.1442626280409057e-13
    vertex 249.80000043782695 134.63782217351203 1.0000000000003129
    vertex 251.24974790613274 135.75025253169727 1.0000000000003129
  endloop
endfacet
facet normal -0.5000000000000014 -0.866025403784438 0.0
  outer loop
    vertex 240.80000043782692 131.1737205583743 1.0000000000003129
    vertex 238.5218258447749 132.9218254069511 3.130162795628166e-13
    vertex 240.80000043782692 131.1737205583743 3.130162795628166e-13
  endloop
endfacet
facet normal -0.7071067811865472 -0.7071067811865479 0.0
  outer loop
    vertex 238.5218258447749 132.9218254069511 3.130162795628166e-13
    vertex 240.80000043782692 131.1737205583743 1.0000000000003129
    vertex 238.5218258447749 132.9218254069511 1.0000000000003129
  endloop
endfacet
facet normal 0.25881904510252085 -0.9659258262890684 0.0
  outer loop
    vertex 244.48826712210928 147.4614807840266 1.0000000000003129
    vertex 242.80000043782692 146.7621778264942 3.1442626280409057e-13
    vertex 244.48826712210928 147.4614807840266 3.1442626280409057e-13
  endloop
endfacet
facet normal 0.5 -0.8660254037844387 0.0
  outer loop
    vertex 242.80000043782692 146.7621778264942 3.1442626280409057e-13
    vertex 244.48826712210928 147.4614807840266 1.0000000000003129
    vertex 242.80000043782692 146.7621778264942 1.0000000000003129
  endloop
endfacet
facet normal -0.2588190451025208 -0.9659258262890684 0.0
  outer loop
    vertex 243.45299094169914 130.07481591082333 1.0000000000003129
    vertex 240.80000043782692 131.1737205583743 3.130162795628166e-13
    vertex 243.45299094169914 130.07481591082333 3.130162795628166e-13
  endloop
endfacet
facet normal -0.5000000000000014 -0.866025403784438 0.0
  outer loop
    vertex 240.80000043782692 131.1737205583743 3.130162795628166e-13
    vertex 243.45299094169914 130.07481591082333 1.0000000000003129
    vertex 240.80000043782692 131.1737205583743 1.0000000000003129
  endloop
endfacet
facet normal -0.25881904510252174 -0.9659258262890681 0.0
  outer loop
    vertex 248.11173375354457 147.4614807840266 1.0000000000003129
    vertex 246.30000043782692 147.70000000000312 3.1442626280409057e-13
    vertex 248.11173375354457 147.4614807840266 3.1442626280409057e-13
  endloop
endfacet
facet normal 0.0 -1.0 0.0
  outer loop
    vertex 246.30000043782692 147.70000000000312 3.1442626280409057e-13
    vertex 248.11173375354457 147.4614807840266 1.0000000000003129
    vertex 246.30000043782692 147.70000000000312 1.0000000000003129
  endloop
endfacet
facet normal -0.7071067811865458 -0.7071067811865493 0.0
  outer loop
    vertex 251.24974790613274 145.64974746830896 1.0000000000003129
    vertex 249.8000004378269 146.7621778264942 3.1442626280409057e-13
    vertex 251.24974790613274 145.64974746830896 3.1442626280409057e-13
  endloop
endfacet
facet normal -0.4999999999999988 -0.8660254037844395 0.0
  outer loop
    vertex 249.8000004378269 146.7621778264942 3.1442626280409057e-13
    vertex 251.24974790613274 145.64974746830896 1.0000000000003129
    vertex 249.8000004378269 146.7621778264942 1.0000000000003129
  endloop
endfacet
facet normal -0.7071067811865478 0.7071067811865472 0.0
  outer loop
    vertex 238.5218258447749 148.47817459305512 1.0000000000003129
    vertex 240.80000043782692 150.22627944163193 3.130162795628166e-13
    vertex 238.5218258447749 148.47817459305512 3.130162795628166e-13
  endloop
endfacet
facet normal -0.49999999999999917 0.8660254037844393 0.0
  outer loop
    vertex 240.80000043782692 150.22627944163193 3.130162795628166e-13
    vertex 238.5218258447749 148.47817459305512 1.0000000000003129
    vertex 240.80000043782692 150.22627944163193 1.0000000000003129
  endloop
endfacet
facet normal 0.9659258262890688 -0.25881904510251913 0.0
  outer loop
    vertex 256.92518452700665 137.85299050387536 3.130162795628166e-13
    vertex 255.82627987945574 135.2000000000031 1.0000000000003129
    vertex 255.82627987945574 135.2000000000031 3.130162795628166e-13
  endloop
endfacet
facet normal 0.8660254037844379 -0.5000000000000012 0.0
  outer loop
    vertex 255.82627987945574 135.2000000000031 1.0000000000003129
    vertex 256.92518452700665 137.85299050387536 3.130162795628166e-13
    vertex 256.92518452700665 137.85299050387536 1.0000000000003129
  endloop
endfacet
endsolid Extruder
